# Blender v5.0.0 OBJ File: 'LinksHousePHYS.blend'
# www.blender.org
mtllib LinksHousePHYS.mtl
g Cam_1_Collection
v -128.000015 153.600006 -153.599976
v -127.999969 153.600006 -76.800003
v 102.399994 38.400002 -76.800003
v 102.399948 38.400002 -153.600006
v 102.399963 38.400002 -76.800018
v -73.600006 153.600006 -76.799988
v -204.799957 153.600006 179.199951
v -204.799988 153.600006 -153.599976
v -73.599991 153.600006 15.999981
v 179.199966 38.400002 -76.800018
v -73.599976 153.600006 179.199936
v -127.999985 153.600006 -153.599930
v 179.199951 38.400002 -153.599991
vt -1.000000 -2.385139
vt -2.000000 0.968963
vt -2.000000 -2.385139
vt 0.999999 1.666667
vt -2.333334 2.666665
vt -0.208333 0.958333
vt -1.333333 -1.000001
vt -2.333333 -2.000001
vt -1.333333 -2.000001
vt -1.000000 -2.385139
vt -1.000000 0.968963
vt -2.000000 0.968963
vt -0.208333 0.958333
vt 1.000000 0.958334
vt 0.999999 1.666667
vt 0.999999 1.666667
vt 1.999999 1.666667
vt 1.999999 2.666667
vt 1.999999 2.666667
vt -2.333334 2.666665
vt 0.999999 1.666667
vt -2.333334 2.666665
vt -2.333333 0.958332
vt -0.208333 0.958333
vt -1.333333 -1.000001
vt -2.333333 -1.000001
vt -2.333333 -2.000001
vn 0.4472 0.8944 -0.0000
vn 0.0000 1.0000 -0.0000
vc 1.0000 1.0000 1.0000 1.0000
g Cam_1_Collection_materials/housewall.vmat.005#SFX_A#Camera1#NoMesh
usemtl materials/housewall.vmat.005
f 2/1/1 4/2/1 1/3/1
fc 1 1 1
f 2/4/2 7/5/2 9/6/2
fc 1 1 1
f 5/7/2 13/8/2 4/9/2
fc 1 1 1
f 2/10/1 3/11/1 4/12/1
fc 1 1 1
f 9/13/2 6/14/2 2/15/2
fc 1 1 1
f 2/16/2 12/17/2 8/18/2
fc 1 1 1
f 8/19/2 7/20/2 2/21/2
fc 1 1 1
f 7/22/2 11/23/2 9/24/2
fc 1 1 1
f 5/25/2 10/26/2 13/27/2
fc 1 1 1
g Cam_0_Collection
v 102.399994 -0.000000 -51.200012
v -134.399994 -0.000000 -38.399998
v -99.427399 38.399998 41.372585
v -134.399994 -0.000000 -76.799988
v 102.399994 -0.000000 -76.800011
v 179.199966 -0.000000 12.799969
v -76.799988 38.399998 32.000004
v 102.399994 38.399998 -76.800003
v -140.799988 0.000000 19.200008
v -64.554115 38.399998 34.435863
v -204.799973 0.000000 160.000000
v -99.427406 38.399998 86.627396
v -108.799988 38.399998 63.999996
v -106.364136 38.399998 76.245865
v 102.399986 -0.000000 12.799984
v -6.399982 0.000000 19.200001
v -89.045860 38.399998 93.564148
v 19.200027 0.000000 179.199982
v -31.999985 0.000000 179.199982
v -106.364136 38.399998 51.754124
v 179.199966 38.399998 -76.800003
v -47.235840 38.399998 76.245865
v 96.000008 0.000000 179.200012
v -76.799988 38.399998 95.999985
v -115.199982 0.000000 140.799988
v -204.799988 -0.000000 -76.800003
v 179.199982 0.000000 179.199966
v -64.554123 38.399998 93.564148
v -153.599991 -0.000000 -76.799980
v -54.172569 38.399998 86.627396
v -204.799973 0.000000 179.199997
v 6.400015 0.000000 179.200027
v 19.200024 0.000000 134.399979
v 102.399994 -0.000000 -38.400017
v 6.400013 0.000000 147.199951
v -31.999996 -0.000000 -6.399998
v -166.399979 0.000000 160.000000
v -204.799988 -0.000000 -31.999996
v 83.200012 0.000000 134.399963
v 83.200005 0.000000 179.199982
v 96.000008 0.000000 147.199966
v -89.045853 38.399998 34.435856
v -44.799988 38.399998 63.999989
v -115.199982 0.000000 179.199982
v -166.399994 -0.000000 -31.999992
v -6.399987 0.000000 115.199982
v -31.999985 0.000000 140.799988
v -140.799988 0.000000 115.199997
v -115.199989 -0.000000 -6.399990
v -47.235840 38.399998 51.754116
v -54.172565 38.399998 41.372593
vt 7.000000 -0.500000
vt -5.333333 -0.500000
vt -5.333333 -0.666667
vt 3.333323 -1.416667
vt 4.999992 -1.000000
vt 3.333329 -0.583333
vt -1.000008 1.750000
vt -1.000010 2.333333
vt -4.333342 2.333334
vt 0.333333 1.500000
vt 0.333333 0.250000
vt 7.333333 1.500000
vt 8.666667 -0.416667
vt 10.666665 2.083333
vt 8.666665 2.083333
vt -5.333333 -0.666667
vt -5.333333 -1.000000
vt 7.000000 -1.000000
vt 7.000000 -1.000000
vt 7.000000 -0.500000
vt -5.333333 -0.666667
vt 3.333329 -0.583333
vt 2.695523 -0.615050
vt 2.154818 -0.705372
vt 2.154818 -0.705372
vt 1.793528 -0.840549
vt 3.333329 -0.583333
vt 1.793528 -0.840549
vt 1.666659 -1.000000
vt 3.333329 -0.583333
vt 1.666659 -1.000000
vt 1.793525 -1.159451
vt 2.154812 -1.294628
vt 2.154812 -1.294628
vt 2.695517 -1.384950
vt 3.333323 -1.416667
vt 3.333323 -1.416667
vt 3.971128 -1.384950
vt 4.511835 -1.294628
vt 4.511835 -1.294628
vt 4.873125 -1.159451
vt 4.999992 -1.000000
vt 4.999992 -1.000000
vt 4.873127 -0.840549
vt 4.511839 -0.705372
vt 4.511839 -0.705372
vt 3.971134 -0.615050
vt 3.333329 -0.583333
vt 1.666659 -1.000000
vt 2.154812 -1.294628
vt 3.333329 -0.583333
vt 2.154812 -1.294628
vt 3.333323 -1.416667
vt 3.333329 -0.583333
vt 3.333323 -1.416667
vt 4.511835 -1.294628
vt 4.999992 -1.000000
vt 4.999992 -1.000000
vt 4.511839 -0.705372
vt 3.333329 -0.583333
vt -5.000008 1.916667
vt -4.333341 1.750000
vt -4.333342 2.333334
vt -4.333341 1.750000
vt -1.000008 1.750000
vt -4.333342 2.333334
vt -1.000008 1.750000
vt -0.333341 1.916666
vt -1.000010 2.333333
vt -0.333341 1.916666
vt -0.333343 2.333334
vt -1.000010 2.333333
vt -5.000009 2.333334
vt -5.000008 1.916667
vt -4.333342 2.333334
vt 0.333333 0.250000
vt 1.666667 -0.083333
vt 6.000000 -0.083333
vt 6.000000 -0.083333
vt 7.333333 0.250000
vt 0.333333 0.250000
vt 7.333333 0.250000
vt 7.333333 1.500000
vt 0.333333 0.250000
vt 7.333333 1.500000
vt 6.000000 1.833334
vt 1.666667 1.833333
vt 1.666667 1.833333
vt 0.333333 1.500000
vt 7.333333 1.500000
vt 8.666667 -0.416667
vt 10.666667 -0.416667
vt 10.666665 2.083333
vt 1.833333 0.249999
vt 1.500000 -0.083334
vt 1.750000 -0.500001
vt 0.153191 1.333333
vt -1.116104 2.333333
vt -1.116104 1.333333
vt 0.416666 2.333333
vt 1.499999 1.833334
vt 1.499999 2.333334
vt 0.083333 1.500000
vt 0.416667 1.833333
vt -0.083333 1.916666
vt 0.416667 1.833333
vt 0.416667 2.333333
vt -0.083333 1.916666
vt 0.416667 2.333333
vt -0.083333 2.333334
vt -0.083333 1.916666
vt -0.083333 1.916666
vt -0.250000 1.750000
vt 0.083333 1.500000
vt 0.083333 1.500000
vt -0.250000 1.750000
vt 0.083333 0.250000
vt -0.250000 1.750000
vt -1.083333 1.750000
vt -1.333333 0.166668
vt 0.083333 0.250000
vt -0.250000 1.750000
vt -1.333333 0.166668
vt -1.250000 1.916668
vt -1.250000 2.333335
vt -2.333333 2.333335
vt -1.083333 1.750000
vt -1.250000 1.916668
vt -2.333333 0.166668
vt -1.333333 0.166668
vt -1.083333 1.750000
vt -2.333333 0.166668
vt -1.250000 1.916668
vt -2.333333 2.333335
vt -2.333333 0.166668
vt -1.333333 0.166668
vt -1.333333 -0.499999
vt 0.083333 0.250000
vt -1.333333 -0.499999
vt 1.750000 -0.500001
vt 0.416667 -0.083334
vt 1.750000 -0.500001
vt 1.750000 -1.000001
vt 2.000000 -1.000001
vt 2.000000 -1.000001
vt 2.666667 -1.000002
vt 2.166667 -0.416668
vt 2.666667 -1.000002
vt 2.666667 -0.416669
vt 2.166667 -0.416668
vt 1.750000 -0.500001
vt 2.000000 -1.000001
vt 2.166667 -0.416668
vt 2.166667 2.083332
vt 2.666667 2.083331
vt 2.666667 2.333331
vt 1.750000 -0.500001
vt 2.166667 -0.416668
vt 1.833333 0.249999
vt 2.166667 -0.416668
vt 2.166667 2.083332
vt 1.833333 0.249999
vt 0.416667 -0.083334
vt 0.083333 0.250000
vt -1.333333 -0.499999
vt 2.166667 2.083332
vt 2.666667 2.333331
vt 1.500000 2.333332
vt 1.500000 2.333332
vt 1.500000 1.833332
vt 2.166667 2.083332
vt 1.500000 1.833332
vt 1.833333 1.499999
vt 2.166667 2.083332
vt 1.500000 -0.083334
vt 0.416667 -0.083334
vt 1.750000 -0.500001
vt 2.166667 2.083332
vt 1.833333 1.499999
vt 1.833333 0.249999
vt 0.153191 1.333333
vt 0.153191 2.333333
vt -1.116104 2.333333
vt 0.416666 2.333333
vt 0.416666 1.833333
vt 1.499999 1.833334
vn -0.0000 1.0000 -0.0000
vn 0.0000 0.9950 0.1000
vn 0.0000 0.9191 0.3939
vn 0.0000 0.9796 0.2011
vc 1.0000 1.0000 1.0000 1.0000
g Cam_0_Collection_materials/cheapcarpet.vmat.004#SFX_D#Camera0#NoMesh
usemtl materials/cheapcarpet.vmat.004
f 15/28/3 47/29/3 14/30/3
fc 2 2 2
f 26/31/3 37/32/3 56/33/3
fc 2 2 2
f 46/34/3 31/35/3 53/36/3
fc 2 2 2
f 59/37/3 29/38/3 61/39/3
fc 2 2 2
f 58/40/3 24/41/3 50/42/3
fc 2 2 2
f 14/43/3 18/44/3 17/45/3
fc 2 2 2
f 17/46/3 15/47/3 14/48/3
fc 2 2 2
f 56/49/3 63/50/3 64/51/3
fc 2 2 2
f 64/52/3 23/53/3 56/54/3
fc 2 2 2
f 23/55/3 20/56/3 56/57/3
fc 2 2 2
f 20/58/3 55/59/3 16/60/3
fc 2 2 2
f 16/61/3 33/62/3 26/63/3
fc 2 2 2
f 26/64/3 27/65/3 25/66/3
fc 2 2 2
f 25/67/3 30/68/3 37/69/3
fc 2 2 2
f 37/70/3 41/71/3 43/72/3
fc 2 2 2
f 43/73/3 35/74/3 56/75/3
fc 2 2 2
f 20/76/3 16/77/3 56/78/3
fc 2 2 2
f 16/79/3 26/80/3 56/81/3
fc 2 2 2
f 26/82/3 25/83/3 37/84/3
fc 2 2 2
f 37/85/3 43/86/3 56/87/3
fc 2 2 2
f 54/88/3 52/89/3 53/90/3
fc 2 2 2
f 52/91/3 46/92/3 53/93/3
fc 2 2 2
f 46/94/3 48/95/3 31/96/3
fc 2 2 2
f 48/97/3 45/98/3 31/99/3
fc 2 2 2
f 36/100/3 54/101/3 53/102/3
fc 2 2 2
f 29/103/3 49/104/3 62/105/3
fc 2 2 2
f 62/106/3 22/107/3 29/108/3
fc 2 2 2
f 22/109/3 61/110/3 29/111/3
fc 2 2 2
f 61/112/3 38/113/3 60/114/3
fc 2 2 2
f 60/115/3 59/116/3 61/117/3
fc 2 2 2
f 58/118/3 51/119/3 24/120/3
fc 2 2 2
g Cam_0_Collection_materials/housewall.vmat.009#SFX_A#Camera0#NoMesh
usemtl materials/housewall.vmat.009
f 22/121/3 62/122/3 15/123/3
fc 2 2 2
f 28/124/4 34/125/5 21/126/5
fc 2 2 2
f 32/127/3 38/128/3 57/129/3
fc 2 2 2
f 59/130/3 60/131/3 48/132/3
fc 2 2 2
f 60/133/3 32/134/3 48/135/3
fc 2 2 2
f 32/136/3 45/137/3 48/138/3
fc 2 2 2
f 48/139/3 46/140/3 59/141/3
fc 2 2 2
f 59/142/3 46/143/3 29/144/3
fc 2 2 2
f 46/145/3 52/146/3 28/147/4
fc 2 2 2
f 29/148/3 46/149/3 28/150/4
fc 2 2 2
f 54/151/3 36/152/3 40/153/3
fc 2 2 2
f 52/154/3 54/155/3 19/156/6
fc 2 2 2
f 28/157/4 52/158/3 19/159/6
fc 2 2 2
f 54/160/3 40/161/3 19/162/6
fc 2 2 2
f 28/163/4 47/164/3 29/165/3
fc 2 2 2
f 47/166/3 15/167/3 49/168/3
fc 2 2 2
f 15/169/3 17/170/3 42/171/3
fc 2 2 2
f 42/172/3 39/173/3 58/174/3
fc 2 2 2
f 39/175/3 51/176/3 58/177/3
fc 2 2 2
f 15/178/3 42/179/3 58/180/3
fc 2 2 2
f 50/181/3 24/182/3 44/183/3
fc 2 2 2
f 15/184/3 58/185/3 22/186/3
fc 2 2 2
f 58/187/3 50/188/3 22/189/3
fc 2 2 2
f 49/190/3 29/191/3 47/192/3
fc 2 2 2
f 50/193/3 44/194/3 57/195/3
fc 2 2 2
f 57/196/3 38/197/3 50/198/3
fc 2 2 2
f 38/199/3 61/200/3 50/201/3
fc 2 2 2
f 62/202/3 49/203/3 15/204/3
fc 2 2 2
f 50/205/3 61/206/3 22/207/3
fc 2 2 2
f 28/208/4 19/209/6 34/210/5
fc 2 2 2
f 32/211/3 60/212/3 38/213/3
fc 2 2 2
g Cam_0_Exit_Collection
v 230.399963 0.000000 374.399933
v 89.599968 0.000000 187.686951
v -127.999969 -0.000024 374.399963
v 83.199982 0.000000 179.200012
v 19.200003 0.000000 179.200012
v 12.799999 0.000000 187.686981
vt -1.166665 -2.443841
vt -1.083332 -2.333334
vt -0.249999 -2.333333
vt -0.249999 -2.333333
vt -0.166665 -2.443841
vt -1.166665 -2.443841
vt -0.166665 -2.443841
vt 1.666669 -4.874999
vt -1.166665 -2.443841
vt 1.666669 -4.874999
vt -2.999997 -4.875001
vt -1.166665 -2.443841
vn -0.0000 1.0000 0.0000
vc 1.0000 1.0000 1.0000 1.0000
g Cam_0_Exit_Collection_materials/housewall.vmat.007#SFX_A#Camera0#Exit00#NoMesh
usemtl materials/housewall.vmat.007
f 66/214/7 68/215/7 69/216/7
fc 3 3 3
f 69/217/7 70/218/7 66/219/7
fc 3 3 3
f 70/220/7 67/221/7 66/222/7
fc 3 3 3
f 67/223/7 65/224/7 66/225/7
fc 3 3 3
g Cam_2_Collection
v 179.199966 153.600006 -76.800003
v 32.000019 153.600006 179.199982
v 166.399994 192.000000 95.999985
v 153.600006 153.600006 179.199951
v -73.599968 153.600006 179.199997
v 44.800007 192.000000 95.999992
v -73.599991 153.600006 15.999985
v 44.800003 192.000000 19.199999
v -73.599998 153.600006 -76.799988
v 166.399994 192.000000 19.199989
v 179.199982 153.600006 -0.000011
v 32.000008 153.600006 -0.000011
v 166.399994 153.600006 -0.000008
v 44.800003 153.600006 19.199999
v 166.399994 153.600006 19.199989
v 44.800007 153.600006 95.999992
v 153.600006 153.600006 95.999985
vt -4.999999 -0.583334
vt -0.999999 -0.583333
vt 0.000002 -0.416667
vt 5.000000 0.583333
vt 1.000000 2.166667
vt 1.000000 0.583333
vt -9.333327 -2.000001
vt -4.999995 -2.000000
vt -4.999999 -0.583334
vt -0.999999 -0.583333
vt -0.999995 -2.166667
vt 0.000005 -2.166667
vt -9.333333 -0.416668
vt -9.333327 -2.000001
vt -4.999999 -0.583334
vt -0.999999 -0.583333
vt 0.000005 -2.166667
vt 0.000002 -0.416667
vt -9.333333 -0.416668
vt -4.999999 -0.583334
vt 0.000002 -0.416667
vt 5.000000 0.583333
vt 5.000000 2.166667
vt 1.000000 2.166667
vt 0.000000 -0.416667
vt -0.208333 0.958333
vt -2.333333 -0.416668
vt 0.000000 -0.416667
vt 0.000001 -2.166667
vt 1.000001 -2.333333
vt 0.000001 -2.166667
vt 0.000001 -2.333333
vt 1.000001 -2.333333
vt 1.000001 -2.333333
vt 1.000000 0.958334
vt 0.000000 -0.416667
vt 1.000000 0.958334
vt -0.208333 0.958333
vt 0.000000 -0.416667
vt -0.208333 0.958333
vt -2.333334 0.958332
vt -2.333333 -0.416668
vn 0.0000 1.0000 0.0000
vc 1.0000 1.0000 1.0000 1.0000
g Cam_2_Collection_materials/cheapcarpet.vmat.003#SFX_D#Camera2#NoMesh
usemtl materials/cheapcarpet.vmat.003
f 86/226/8 84/227/8 82/228/8
fc 4 4 4
f 76/229/8 80/230/8 78/231/8
fc 4 4 4
f 74/232/8 87/233/8 86/234/8
fc 4 4 4
f 84/235/8 85/236/8 83/237/8
fc 4 4 4
f 72/238/8 74/239/8 86/240/8
fc 4 4 4
f 84/241/8 83/242/8 82/243/8
fc 4 4 4
f 72/244/8 86/245/8 82/246/8
fc 4 4 4
f 76/247/8 73/248/8 80/249/8
fc 4 4 4
g Cam_2_Collection_materials/housewall.vmat.006#SFX_A#Camera2#NoMesh
usemtl materials/housewall.vmat.006
f 82/250/8 77/251/8 72/252/8
fc 4 4 4
f 82/253/8 83/254/8 71/255/8
fc 4 4 4
f 83/256/8 81/257/8 71/258/8
fc 4 4 4
f 71/259/8 79/260/8 82/261/8
fc 4 4 4
f 79/262/8 77/263/8 82/264/8
fc 4 4 4
f 77/265/8 75/266/8 72/267/8
fc 4 4 4
g Main_Phys_Collection
v 166.399994 192.000000 96.000000
v 166.399994 300.799988 96.000000
v 153.600006 192.000000 96.000000
v 153.600006 300.799988 96.000000
v 179.199982 0.000015 12.800003
v -79.999985 230.399994 51.199997
v -79.999985 153.600006 0.000000
v -128.000000 38.399963 -153.599945
v 102.399994 24.575821 -44.799988
v 102.399994 25.600006 12.800011
v 166.399963 0.000015 166.399933
v 102.399994 0.000015 -44.799988
v 102.399979 0.000015 12.800011
v -73.600006 300.799988 -70.399994
v 153.600006 300.799988 179.199982
v 153.600006 153.600006 96.000000
v -191.999969 147.200012 -76.799988
v -204.799988 76.800003 -22.399963
v 102.399979 38.400009 -76.799988
v 153.600006 153.600006 179.199982
v 166.399994 300.799988 0.000008
v 166.399994 153.600006 96.000000
v 166.399994 153.600006 0.000008
v 179.199982 300.799988 0.000015
v 179.199982 153.600006 0.000015
v 44.799995 192.000000 19.200012
v 44.800003 192.000000 96.000008
v -73.599991 153.600006 0.000000
v 166.399994 192.000000 19.200005
v 166.399994 153.600006 19.200005
v -204.799957 300.663818 166.399979
v 44.800003 153.600006 96.000008
v 44.799995 153.600006 19.200012
v 102.399979 153.600006 -76.799911
v 166.399979 153.600006 -153.599991
v -204.799988 0.000015 150.400024
v -131.199982 153.600006 -76.799835
v -191.999969 153.600006 -76.800018
v -191.999969 0.000015 -76.800034
v -73.599991 230.399994 51.199974
v -179.199982 76.800003 150.400024
v -179.199982 76.800003 -22.399971
v -179.199982 0.000015 -22.399971
v -179.199982 0.000015 150.400024
v -73.600006 153.600006 -70.399994
v -127.999939 102.399979 374.399902
v -47.235825 38.400009 51.754143
v -54.172577 38.400009 41.372612
v -64.554108 38.400009 34.435883
v -76.799988 38.400009 32.000023
v -89.045837 38.400009 34.435875
v -99.427399 38.400009 41.372604
v -106.364136 38.400009 51.754147
v -108.799988 38.400009 64.000023
v -106.364136 38.400009 76.245880
v -99.427399 38.400009 86.627441
v -89.045853 38.400009 93.564178
v -76.799988 38.400009 96.000015
v -64.554108 38.400009 93.564178
v -54.172577 38.400009 86.627434
v -47.235825 38.400009 76.245888
v -44.799988 38.400009 64.000015
v -44.799988 0.000015 64.000015
v -47.235825 0.000015 76.245888
v -54.172577 0.000015 86.627434
v -64.554108 0.000015 93.564178
v -76.799988 0.000015 96.000015
v -89.045853 0.000015 93.564178
v -99.427399 0.000015 86.627441
v -106.364136 0.000015 76.245880
v -108.799988 0.000015 64.000023
v -106.364136 0.000015 51.754147
v -99.427399 0.000015 41.372604
v -89.045837 0.000015 34.435875
v -76.799988 0.000015 32.000023
v -64.554108 0.000015 34.435883
v -54.172577 0.000015 41.372612
v -47.235825 0.000015 51.754143
v 102.399986 233.599991 -76.800003
v -204.799988 0.000015 160.000000
v 153.599960 38.400009 -153.599930
v 179.199966 38.400009 -76.799988
v -124.799988 76.800003 -76.800003
v -124.799988 76.800003 -44.799973
v 102.399994 76.800003 -44.799988
v 179.199936 153.600006 -140.799988
v -191.999969 147.200012 -63.999985
v 12.800003 192.000000 179.199982
v -124.799988 0.000015 -44.799973
v -124.799988 0.000015 -76.800003
v -128.000000 134.399994 -153.599915
v -124.799988 38.400009 -76.799973
v -79.999985 300.799988 179.199936
v -79.999985 153.600006 51.199997
v -204.799988 300.800018 179.200012
v -79.999985 230.399994 0.000000
v 166.399933 153.600006 -140.800003
v -80.000000 153.600006 -76.799973
v -79.999985 153.600006 179.199936
v -204.799988 153.600006 -153.599960
v 166.399933 38.400009 -140.800003
v -80.000000 300.799988 -76.799973
v -191.999969 300.663818 166.399963
v 12.800003 0.000015 187.686966
v 12.800003 102.400002 187.686890
v 89.600037 102.400002 187.687012
v 179.199982 0.000015 166.399994
v 166.399963 147.200012 166.399933
v -127.999939 -0.000015 374.399963
v 102.399994 25.600006 -44.799988
v -80.000000 233.599991 -76.799973
v 102.399994 24.583191 -44.799988
v 179.199936 153.600006 -70.400009
v -73.599991 230.399994 -0.000031
v -73.599991 153.600006 179.199951
v 102.399986 192.000000 179.199951
v 19.199982 102.400002 179.199982
v 166.399963 147.200012 179.199921
v 166.399979 153.600006 -153.599991
v 166.399963 38.400009 -153.599930
v 179.199936 300.799988 -70.400009
v -191.999969 300.663818 179.199966
v 179.199936 153.600006 -140.799988
v 102.399994 76.800003 -76.799973
v -128.000000 153.600006 -153.599915
v -204.799988 76.800003 150.400024
v -204.799988 0.000015 -22.399963
v 166.399963 0.000015 179.199921
v -73.599991 300.799988 179.199936
v -204.799988 147.200012 -63.999954
v 83.199966 102.400002 179.199951
v 19.200027 0.000015 179.200012
v 83.200005 0.000015 179.200012
v -204.800018 300.800018 -153.599960
v -204.799957 153.600006 166.399979
v 89.599991 0.000015 187.686951
v 12.800003 256.000000 179.199951
v 12.800003 300.799988 179.199951
v -191.999969 0.000015 -63.999985
v 102.399986 300.799988 179.199951
v -204.799957 0.000015 -63.999985
v 179.199951 153.600006 -76.799988
v -204.799957 153.600006 179.199982
v -191.999969 153.600006 166.399963
v 179.199951 147.200012 166.399933
v -204.799988 0.000015 179.200027
v -204.799988 0.000015 -31.999969
v 179.199936 147.200012 -76.800003
v 166.399933 153.600006 -153.599991
v 230.399994 0.000015 374.399933
v -204.799957 147.200012 -63.999985
v 102.399986 255.999969 179.199951
v 179.199951 0.000015 166.399933
v -191.999969 153.600006 179.199966
v 179.199951 38.400009 -140.799988
v -73.599991 153.600006 51.199974
v 179.199982 147.200012 166.399994
v 230.399963 102.400017 374.399872
v 166.399933 38.400009 -153.599991
v -115.199982 0.000015 179.200012
v -204.799988 147.200012 179.200012
v -31.999985 0.000015 179.200012
v -204.799988 0.000015 -63.999954
v 179.199936 38.400009 -140.799988
v 166.400009 0.000015 179.199997
v 166.400009 147.200012 179.199982
v 102.399994 153.600006 -76.799988
v 179.199966 300.799988 -76.799988
v -191.999969 76.799988 -76.800034
vt 2.000000 2.500000
vt 2.166667 3.916667
vt 2.166667 2.500000
vt 1.250000 3.916667
vt 2.333333 2.000000
vt 2.333333 3.916667
vt 2.166666 1.916667
vt 2.333332 -0.000000
vt 2.333332 1.916667
vt 0.583333 2.000000
vt 2.166667 2.500000
vt 2.166667 2.000000
vt 0.583333 2.500000
vt 2.166667 2.000000
vt 2.166667 2.500000
vt 0.250000 2.500000
vt 1.250000 2.000000
vt 1.250000 2.500000
vt 1.958333 -2.666667
vt -0.291667 -2.333333
vt -0.291667 -2.666667
vt -2.000000 0.500000
vt -1.833333 2.000000
vt -2.000000 2.000000
vt -2.666667 -0.000000
vt -2.333333 1.000000
vt -2.333333 -0.000000
vt -2.666667 1.000000
vt -2.333333 -0.000000
vt -2.333333 1.000000
vt -0.291667 -0.000000
vt 1.958333 1.000000
vt 1.958333 -0.000000
vt 1.093699 0.500000
vt 0.931123 -0.000000
vt 0.931123 0.500000
vt 1.329749 0.500000
vt 1.167174 -0.000000
vt 1.167174 0.500000
vt -1.375733 0.500000
vt -1.213158 -0.000000
vt -1.213158 0.500000
vt -1.224647 0.500000
vt -1.062072 -0.000000
vt -1.062072 0.500000
vt -0.899499 0.500000
vt -0.736924 -0.000000
vt -0.736924 0.500000
vt -0.449780 0.500000
vt -0.287205 -0.000000
vt -0.287205 0.500000
vt 0.056032 0.500000
vt 0.218608 -0.000000
vt 0.218608 0.500000
vt 0.540945 0.500000
vt 0.703520 -0.000000
vt 0.703520 0.500000
vt 0.931122 0.500000
vt 1.093698 -0.000000
vt 1.093698 0.500000
vt 1.167175 0.500000
vt 1.329750 -0.000000
vt 1.329750 0.500000
vt -1.213157 0.500000
vt -1.375733 -0.000000
vt -1.375733 0.500000
vt -1.062073 0.500000
vt -1.224648 -0.000000
vt -1.224648 0.500000
vt -0.736922 0.500000
vt -0.899497 -0.000000
vt -0.899497 0.500000
vt -0.287206 0.500000
vt -0.449782 -0.000000
vt -0.449782 0.500000
vt 0.218607 0.500000
vt 0.056032 -0.000000
vt 0.056032 0.500000
vt 0.703519 0.500000
vt 0.540944 -0.000000
vt 0.540944 0.500000
vt -0.583333 -1.625000
vt -1.000000 1.333333
vt -1.000000 -1.625000
vt 2.166662 0.500000
vt 2.333329 2.000000
vt 2.166662 2.000000
vt -1.000000 0.500000
vt -1.000000 -0.000000
vt -0.583333 -0.000000
vt -1.625000 -0.000000
vt 1.333333 -0.000000
vt 1.333333 0.319998
vt -1.000000 0.500000
vt -0.583333 1.000000
vt -0.583333 0.319998
vt 2.166666 2.000000
vt 2.333333 3.914893
vt 2.333333 2.000000
vt 2.166666 -0.000000
vt 2.333333 1.916667
vt 2.333333 -0.000000
vt -2.666666 2.000000
vt -2.500000 3.914893
vt -2.500000 2.000000
vt -1.000006 -0.000000
vt -0.833338 1.916667
vt -0.833338 -0.000000
vt -2.666666 1.916667
vt -2.500000 -0.000000
vt -2.500000 1.916667
vt 2.000000 2.500000
vt 2.000000 3.916667
vt 2.166667 3.916667
vt 1.250000 3.916667
vt 1.250000 2.000000
vt 2.333333 2.000000
vt 2.166666 1.916667
vt 2.166666 -0.000000
vt 2.333332 -0.000000
vt 0.583333 2.000000
vt 0.583333 2.500000
vt 2.166667 2.500000
vt 0.583333 2.500000
vt 0.583333 2.000000
vt 2.166667 2.000000
vt 0.250000 2.500000
vt 0.250000 2.000000
vt 1.250000 2.000000
vt 1.958333 -2.666667
vt 1.958333 -2.333333
vt -0.291667 -2.333333
vt -2.000000 0.500000
vt -1.833333 0.500000
vt -1.833333 2.000000
vt -2.666667 -0.000000
vt -2.666667 1.000000
vt -2.333333 1.000000
vt -2.666667 1.000000
vt -2.666667 -0.000000
vt -2.333333 -0.000000
vt -0.291667 -0.000000
vt -0.291667 1.000000
vt 1.958333 1.000000
vt 1.093699 0.500000
vt 1.093699 -0.000000
vt 0.931123 -0.000000
vt 1.329749 0.500000
vt 1.329749 -0.000000
vt 1.167174 -0.000000
vt -1.375733 0.500000
vt -1.375733 -0.000000
vt -1.213158 -0.000000
vt -1.224647 0.500000
vt -1.224647 -0.000000
vt -1.062072 -0.000000
vt -0.899499 0.500000
vt -0.899499 -0.000000
vt -0.736924 -0.000000
vt -0.449780 0.500000
vt -0.449780 -0.000000
vt -0.287205 -0.000000
vt 0.056032 0.500000
vt 0.056032 -0.000000
vt 0.218608 -0.000000
vt 0.540945 0.500000
vt 0.540945 -0.000000
vt 0.703520 -0.000000
vt 0.931122 0.500000
vt 0.931122 -0.000000
vt 1.093698 -0.000000
vt 1.167175 0.500000
vt 1.167175 -0.000000
vt 1.329750 -0.000000
vt -1.213157 0.500000
vt -1.213157 -0.000000
vt -1.375733 -0.000000
vt -1.062073 0.500000
vt -1.062073 -0.000000
vt -1.224648 -0.000000
vt -0.736922 0.500000
vt -0.736922 -0.000000
vt -0.899497 -0.000000
vt -0.287206 0.500000
vt -0.287206 -0.000000
vt -0.449782 -0.000000
vt 0.218607 0.500000
vt 0.218607 -0.000000
vt 0.056032 -0.000000
vt 0.703519 0.500000
vt 0.703519 -0.000000
vt 0.540944 -0.000000
vt -0.583333 -1.625000
vt -0.583333 1.333333
vt -1.000000 1.333333
vt 2.166662 0.500000
vt 2.333329 0.500000
vt 2.333329 2.000000
vt -0.583333 -0.000000
vt -0.583333 1.000000
vt -1.000000 0.500000
vt -0.583333 1.000000
vt -1.000000 1.000000
vt -1.000000 0.500000
vt 1.333333 0.319998
vt 1.333333 1.000000
vt -1.625000 1.000000
vt -1.625000 1.000000
vt -1.625000 -0.000000
vt 1.333333 0.319998
vt -1.000000 0.500000
vt -1.000000 1.000000
vt -0.583333 1.000000
vt 2.166666 2.000000
vt 2.166666 3.914893
vt 2.333333 3.914893
vt 2.166666 -0.000000
vt 2.166666 1.916667
vt 2.333333 1.916667
vt -2.666666 2.000000
vt -2.666666 3.914893
vt -2.500000 3.914893
vt -1.000006 -0.000000
vt -1.000005 1.916667
vt -0.833338 1.916667
vt -2.666666 1.916667
vt -2.666666 -0.000000
vt -2.500000 -0.000000
vt -1.916672 4.000000
vt -2.083338 6.000000
vt -1.916672 6.000000
vt -1.166667 0.114481
vt -1.166667 0.647149
vt 0.333333 -0.184901
vt -1.999999 3.833333
vt -1.999999 4.000000
vt -3.666665 4.000000
vt 0.000000 7.833333
vt 2.500000 4.000000
vt 2.500000 7.833333
vt 4.333333 4.000000
vt 4.666666 7.833333
vt 4.666666 4.000000
vt -5.333332 7.833333
vt -5.333332 4.000000
vt 4.333334 4.000000
vt -1.666666 3.833333
vt 4.666667 3.833333
vt -0.583333 2.000000
vt 4.666666 7.833333
vt -1.916667 4.000000
vt 4.666666 4.000000
vt 5.197918 3.416666
vt 0.303187 -2.666667
vt -0.548071 -2.666667
vt -1.999999 -4.914983
vt -0.000000 -3.247340
vt -2.000000 -3.166416
vt 0.333335 5.000001
vt 2.666667 5.000001
vt 4.000001 4.000001
vt 5.999999 2.666662
vt -3.333333 -0.000005
vt -3.333334 2.666662
vt 4.666665 4.000000
vt 4.666665 7.833333
vt 1.333333 6.000000
vt 2.666667 4.000000
vt -2.083333 6.083333
vt 2.666667 6.083333
vt 3.424943 0.000000
vt 3.701754 2.666667
vt 3.701755 0.000000
vt 2.666666 6.666666
vt 0.333335 5.000001
vt 0.333333 6.666667
vt 9.791631 2.666667
vt 3.701757 -0.000001
vt 3.701755 2.666666
vt -11.397210 -0.000001
vt -5.307339 2.666666
vt -5.307335 -0.000001
vt -2.083333 4.000000
vt -1.916667 6.000000
vt -2.083333 6.000000
vt -3.333331 3.500002
vt -3.333332 1.000000
vt 4.000000 1.000002
vt -4.000000 4.000001
vt 4.666666 7.833334
vt 4.666666 4.000001
vt 0.333333 7.833333
vt 2.666666 6.666666
vt 0.333333 6.666667
vt 1.333332 6.000000
vt -0.000001 6.000000
vt -1.833334 7.833333
vt -3.390661 -5.000001
vt -1.404262 -5.000001
vt -1.608010 -3.250001
vt -1.166667 0.114481
vt 0.333333 -0.739601
vt 0.333333 -0.184901
vt -5.030524 2.666658
vt -5.307336 -0.000009
vt -5.307340 2.666657
vt 4.333334 3.833333
vt 2.166666 2.666666
vt 0.500000 2.666666
vt 0.000001 4.000000
vt -1.999999 7.833334
vt -1.999999 4.000000
vt -1.916672 4.000000
vt -2.083338 4.000000
vt -2.083338 6.000000
vt 0.333333 -0.184901
vt 0.333333 -0.739601
vt -1.166667 0.114481
vt 0.333333 -0.739601
vt -1.166667 0.092449
vt -1.166667 0.114481
vt -3.666665 4.000000
vt -3.666666 1.000000
vt -1.999999 3.833333
vt -3.666666 1.000000
vt -1.999999 1.000000
vt -1.999999 3.833333
vt -1.999999 1.000000
vt 0.333334 0.000000
vt -1.999999 3.833333
vt 0.333334 0.000000
vt 4.333333 0.000000
vt 4.333334 3.833333
vt -1.999999 3.833333
vt 0.333334 0.000000
vt 4.333334 3.833333
vt 0.000000 7.833333
vt 0.000000 4.000000
vt 2.500000 4.000000
vt 4.333333 4.000000
vt 4.333333 7.833333
vt 4.666666 7.833333
vt 4.666667 3.833333
vt 4.666667 -0.000000
vt 3.916667 2.000000
vt 4.666667 -0.000000
vt 4.166666 -0.000000
vt 3.916667 2.000000
vt 4.166666 -0.000000
vt 3.916667 -0.000000
vt 3.916667 2.000000
vt -0.583333 2.000000
vt -0.583333 -0.000000
vt -0.833334 -0.000000
vt -0.583333 2.000000
vt -0.833334 -0.000000
vt -1.666667 -0.000000
vt 4.666667 3.833333
vt 3.916667 2.000000
vt -0.583333 2.000000
vt -0.583333 2.000000
vt -1.666667 -0.000000
vt -1.666666 3.833333
vt 4.666666 7.833333
vt -1.916667 7.833333
vt -1.916667 4.000000
vt 5.197918 3.416666
vt 2.005702 -2.666667
vt 0.303187 -2.666667
vt -1.999999 -4.914983
vt -0.000000 -4.995907
vt -0.000000 -3.247340
vt -5.333332 4.000000
vt -5.333332 7.833334
vt 0.333335 6.666667
vt -5.333332 7.833334
vt 0.333335 7.833334
vt 0.333335 6.666667
vt 2.666668 7.833334
vt 4.000002 7.833334
vt 2.666668 6.666667
vt 4.000002 7.833334
vt 4.000001 4.000001
vt 2.666668 6.666667
vt -5.333332 4.000000
vt 0.333335 6.666667
vt 0.333335 5.000001
vt 2.666667 5.000001
vt 2.666668 6.666667
vt 4.000001 4.000001
vt -5.333332 4.000000
vt 0.333335 5.000001
vt 4.000001 4.000001
vt 5.999999 2.666662
vt 6.000000 -0.000005
vt -3.333333 -0.000005
vt 4.666665 7.833333
vt -2.000000 7.833333
vt 1.333333 6.000000
vt -2.000000 7.833333
vt -2.000000 6.083333
vt -0.000001 6.000000
vt 1.333333 6.000000
vt -2.000000 7.833333
vt -0.000001 6.000000
vt -2.000000 6.083333
vt -2.000000 4.000000
vt -0.000001 6.000000
vt -2.000000 4.000000
vt -0.000001 4.000000
vt -0.000001 6.000000
vt 1.333333 4.000000
vt 4.666665 4.000000
vt 1.333333 6.000000
vt 2.666667 4.000000
vt -2.083333 4.000000
vt -2.083333 6.083333
vt 3.424943 0.000000
vt 3.424943 2.666667
vt 3.701754 2.666667
vt 2.666666 6.666666
vt 2.666667 5.000001
vt 0.333335 5.000001
vt 9.791631 2.666667
vt 9.791632 0.000000
vt 3.701757 -0.000001
vt -11.397210 -0.000001
vt -11.397210 2.666666
vt -5.307339 2.666666
vt -2.083333 4.000000
vt -1.916667 4.000000
vt -1.916667 6.000000
vt 4.333333 1.000002
vt 4.333335 4.000001
vt 4.000000 1.000002
vt 4.333335 4.000001
vt -3.333330 4.000001
vt -3.333331 3.500002
vt 4.000000 1.000002
vt 4.333335 4.000001
vt -3.333331 3.500002
vt -4.000000 4.000001
vt -4.000000 7.833334
vt 4.666666 7.833334
vt 0.333333 7.833333
vt 2.666666 7.833333
vt 2.666666 6.666666
vt 4.666665 7.833333
vt 4.666666 4.000000
vt 1.333332 6.000000
vt 4.666666 4.000000
vt 1.333332 4.000000
vt 1.333332 6.000000
vt -0.000001 4.000000
vt -1.833334 4.000000
vt -0.000001 6.000000
vt -1.833334 4.000000
vt -1.833334 7.833333
vt -0.000001 6.000000
vt 4.666665 7.833333
vt 1.333332 6.000000
vt -1.833334 7.833333
vt -1.608010 -3.250001
vt -2.296870 2.666666
vt -4.283268 2.666665
vt -4.283268 2.666665
vt -3.390661 -5.000001
vt -1.608010 -3.250001
vt -1.166667 0.114481
vt -1.166667 0.092449
vt 0.333333 -0.739601
vt -5.030524 2.666658
vt -5.030524 -0.000009
vt -5.307336 -0.000009
vt 4.333334 3.833333
vt 4.333333 -0.000001
vt 2.166666 2.666666
vt 4.333333 -0.000001
vt 2.166667 -0.000001
vt 2.166666 2.666666
vt -3.000000 -0.000001
vt -5.333333 -0.000001
vt -5.333333 3.833333
vt 0.500000 2.666666
vt 0.500000 -0.000001
vt -0.833333 -0.000001
vt -0.833333 -0.000001
vt -3.000000 -0.000001
vt 0.500000 2.666666
vt -3.000000 -0.000001
vt -5.333333 3.833333
vt 0.500000 2.666666
vt -5.333333 3.833333
vt 4.333334 3.833333
vt 0.500000 2.666666
vt 0.000001 4.000000
vt 0.000001 7.833334
vt -1.999999 7.833334
vn 0.0000 0.0000 -1.0000
vn -1.0000 0.0000 0.0000
vn 0.0000 0.0000 1.0000
vn 0.0000 1.0000 0.0000
vn 1.0000 0.0000 0.0000
vn 0.9239 0.0000 0.3827
vn 0.7071 0.0000 0.7071
vn 0.3827 0.0000 0.9239
vn -0.3827 0.0000 0.9239
vn -0.7071 0.0000 0.7071
vn -0.9239 0.0000 0.3827
vn -0.9239 0.0000 -0.3827
vn -0.7071 0.0000 -0.7071
vn -0.3827 0.0000 -0.9239
vn 0.3827 0.0000 -0.9239
vn 0.7071 0.0000 -0.7071
vn 0.9239 0.0000 -0.3827
vn 0.7984 0.0000 0.6021
vn -0.7984 0.0000 0.6021
vc 1.0000 1.0000 1.0000 1.0000
g Main_Phys_Collection_materials/housewall.vmat.008#SFX_A#NoMesh
usemtl materials/housewall.vmat.008
f 90/268/9 89/269/9 88/270/9
fc 5 5 5
f 91/271/10 107/272/10 102/273/10
fc 5 5 5
f 195/274/10 215/275/10 205/276/10
fc 5 5 5
f 120/277/9 116/278/9 117/279/9
fc 5 5 5
f 114/280/11 109/281/11 88/282/11
fc 5 5 5
f 113/283/10 119/284/10 114/285/10
fc 5 5 5
f 213/286/12 129/287/12 105/288/12
fc 5 5 5
f 246/289/10 184/290/10 236/291/10
fc 5 5 5
f 214/292/9 129/293/9 130/294/9
fc 5 5 5
f 213/295/11 131/296/11 128/297/11
fc 5 5 5
f 130/298/13 128/299/13 131/300/13
fc 5 5 5
f 148/301/14 150/302/13 149/303/13
fc 5 5 5
f 147/304/15 151/305/14 148/306/14
fc 5 5 5
f 146/307/16 152/308/15 147/309/15
fc 5 5 5
f 145/310/11 153/311/16 146/312/16
fc 5 5 5
f 144/313/17 154/314/11 145/315/11
fc 5 5 5
f 143/316/18 155/317/17 144/318/17
fc 5 5 5
f 142/319/19 156/320/18 143/321/18
fc 5 5 5
f 141/322/10 157/323/19 142/324/19
fc 5 5 5
f 140/325/20 158/326/10 141/327/10
fc 5 5 5
f 139/328/21 159/329/20 140/330/20
fc 5 5 5
f 138/331/22 160/332/21 139/333/21
fc 5 5 5
f 137/334/9 161/335/22 138/336/22
fc 5 5 5
f 136/337/23 162/338/9 137/339/9
fc 5 5 5
f 135/340/24 163/341/23 136/342/23
fc 5 5 5
f 134/343/25 164/344/24 135/345/24
fc 5 5 5
f 149/346/13 165/347/25 134/348/25
fc 5 5 5
f 171/349/12 211/350/12 170/351/12
fc 5 5 5
f 188/352/11 173/353/11 184/354/11
fc 5 5 5
f 179/355/10 177/356/10 176/357/10
fc 5 5 5
f 176/358/11 99/359/11 96/360/11
fc 5 5 5
f 106/361/13 172/362/13 96/363/13
fc 5 5 5
f 231/364/13 209/365/13 241/366/13
fc 5 5 5
f 98/367/9 232/368/9 240/369/9
fc 5 5 5
f 222/370/9 190/371/9 231/372/9
fc 5 5 5
f 126/373/13 174/374/13 226/375/13
fc 5 5 5
f 238/376/11 226/377/11 174/378/11
fc 5 5 5
f 90/379/9 91/380/9 89/381/9
fc 5 5 5
f 91/382/10 103/383/10 107/384/10
fc 5 5 5
f 195/385/10 98/386/10 215/387/10
fc 5 5 5
f 120/388/9 113/389/9 116/390/9
fc 5 5 5
f 114/391/11 119/392/11 109/393/11
fc 5 5 5
f 113/394/10 120/395/10 119/396/10
fc 5 5 5
f 213/397/12 128/398/12 129/399/12
fc 5 5 5
f 246/400/10 188/401/10 184/402/10
fc 5 5 5
f 214/403/9 105/404/9 129/405/9
fc 5 5 5
f 213/406/11 123/407/11 131/408/11
fc 5 5 5
f 130/409/13 129/410/13 128/411/13
fc 5 5 5
f 148/412/14 151/413/14 150/414/13
fc 5 5 5
f 147/415/15 152/416/15 151/417/14
fc 5 5 5
f 146/418/16 153/419/16 152/420/15
fc 5 5 5
f 145/421/11 154/422/11 153/423/16
fc 5 5 5
f 144/424/17 155/425/17 154/426/11
fc 5 5 5
f 143/427/18 156/428/18 155/429/17
fc 5 5 5
f 142/430/19 157/431/19 156/432/18
fc 5 5 5
f 141/433/10 158/434/10 157/435/19
fc 5 5 5
f 140/436/20 159/437/20 158/438/10
fc 5 5 5
f 139/439/21 160/440/21 159/441/20
fc 5 5 5
f 138/442/22 161/443/22 160/444/21
fc 5 5 5
f 137/445/9 162/446/9 161/447/22
fc 5 5 5
f 136/448/23 163/449/23 162/450/9
fc 5 5 5
f 135/451/24 164/452/24 163/453/23
fc 5 5 5
f 134/454/25 165/455/25 164/456/24
fc 5 5 5
f 149/457/13 150/458/13 165/459/25
fc 5 5 5
f 171/460/12 172/461/12 211/462/12
fc 5 5 5
f 188/463/11 251/464/11 173/465/11
fc 5 5 5
f 176/466/10 171/467/10 179/468/10
fc 5 5 5
f 171/469/10 170/470/10 179/471/10
fc 5 5 5
f 96/472/11 172/473/11 171/474/11
fc 5 5 5
f 171/475/11 176/476/11 96/477/11
fc 5 5 5
f 106/478/13 211/479/13 172/480/13
fc 5 5 5
f 231/481/13 190/482/13 209/483/13
fc 5 5 5
f 98/484/9 195/485/9 232/486/9
fc 5 5 5
f 222/487/9 118/488/9 190/489/9
fc 5 5 5
f 126/490/13 104/491/13 174/492/13
fc 5 5 5
f 238/493/11 228/494/11 226/495/11
fc 5 5 5
g Main_Phys_Collection_materials/lonlonwall.vmat.001#SFX_2#NoMesh
usemtl materials/lonlonwall.vmat.001
f 243/496/9 93/497/9 127/498/9
fc 5 5 5
f 199/499/10 99/500/10 100/501/10
fc 5 5 5
f 235/502/10 229/503/10 210/504/10
fc 5 5 5
f 108/505/10 109/506/10 89/507/10
fc 5 5 5
f 110/508/9 111/509/9 112/510/9
fc 5 5 5
f 221/511/11 187/512/11 206/513/11
fc 5 5 5
f 217/514/13 248/515/13 105/516/13
fc 5 5 5
f 208/517/11 132/518/11 200/519/11
fc 5 5 5
f 124/520/9 211/521/9 106/522/9
fc 5 5 5
f 256/523/11 177/524/11 170/525/11
fc 5 5 5
f 175/526/9 203/527/9 107/528/9
fc 5 5 5
f 245/529/9 196/530/9 133/531/9
fc 5 5 5
f 186/532/10 180/533/10 93/534/10
fc 5 5 5
f 254/535/9 198/536/9 166/537/9
fc 5 5 5
f 219/538/26 192/539/26 191/540/26
fc 5 5 5
f 239/541/9 175/542/9 224/543/9
fc 5 5 5
f 133/544/26 191/545/26 192/546/26
fc 5 5 5
f 237/547/27 193/548/27 223/549/27
fc 5 5 5
f 94/550/11 201/551/11 183/552/11
fc 5 5 5
f 178/553/11 95/554/11 168/555/11
fc 5 5 5
f 187/556/13 182/557/13 230/558/13
fc 5 5 5
f 225/559/9 239/560/9 224/561/9
fc 5 5 5
f 127/562/13 201/563/13 101/564/13
fc 5 5 5
f 125/565/11 256/566/11 170/567/11
fc 5 5 5
f 199/568/13 97/569/13 100/570/13
fc 5 5 5
f 218/571/27 223/572/27 193/573/27
fc 5 5 5
f 253/574/9 218/575/9 204/576/9
fc 5 5 5
f 112/577/10 255/578/10 229/579/10
fc 5 5 5
f 243/580/9 181/581/9 93/582/9
fc 5 5 5
f 100/583/10 97/584/10 199/585/10
fc 5 5 5
f 97/586/10 197/587/10 199/588/10
fc 5 5 5
f 210/589/10 242/590/10 235/591/10
fc 5 5 5
f 242/592/10 169/593/10 235/594/10
fc 5 5 5
f 169/595/10 92/596/10 235/597/10
fc 5 5 5
f 92/598/10 194/599/10 244/600/10
fc 5 5 5
f 235/601/10 92/602/10 244/603/10
fc 5 5 5
f 108/604/10 110/605/10 109/606/10
fc 5 5 5
f 110/607/9 108/608/9 111/609/9
fc 5 5 5
f 248/610/13 233/611/13 213/612/13
fc 5 5 5
f 233/613/13 167/614/13 213/615/13
fc 5 5 5
f 167/616/13 123/617/13 213/618/13
fc 5 5 5
f 105/619/13 214/620/13 234/621/13
fc 5 5 5
f 105/622/13 234/623/13 250/624/13
fc 5 5 5
f 248/625/13 213/626/13 105/627/13
fc 5 5 5
f 105/628/13 250/629/13 217/630/13
fc 5 5 5
f 208/631/11 101/632/11 132/633/11
fc 5 5 5
f 124/634/9 121/635/9 211/636/9
fc 5 5 5
f 256/637/11 126/638/11 177/639/11
fc 5 5 5
f 230/640/9 182/641/9 224/642/9
fc 5 5 5
f 182/643/9 225/644/9 224/645/9
fc 5 5 5
f 227/646/9 102/647/9 239/648/9
fc 5 5 5
f 102/649/9 107/650/9 239/651/9
fc 5 5 5
f 230/652/9 224/653/9 175/654/9
fc 5 5 5
f 203/655/9 239/656/9 107/657/9
fc 5 5 5
f 230/658/9 175/659/9 107/660/9
fc 5 5 5
f 245/661/9 237/662/9 196/663/9
fc 5 5 5
f 180/664/10 189/665/10 93/666/10
fc 5 5 5
f 189/667/10 198/668/10 183/669/10
fc 5 5 5
f 93/670/10 189/671/10 183/672/10
fc 5 5 5
f 198/673/10 185/674/10 183/675/10
fc 5 5 5
f 185/676/10 94/677/10 183/678/10
fc 5 5 5
f 181/679/10 186/680/10 93/681/10
fc 5 5 5
f 254/682/9 185/683/9 198/684/9
fc 5 5 5
f 219/685/26 204/686/26 192/687/26
fc 5 5 5
f 239/688/9 203/689/9 175/690/9
fc 5 5 5
f 133/691/26 196/692/26 191/693/26
fc 5 5 5
f 237/694/27 245/695/27 193/696/27
fc 5 5 5
f 94/697/11 115/698/11 201/699/11
fc 5 5 5
f 207/700/11 122/701/11 168/702/11
fc 5 5 5
f 122/703/11 212/704/11 178/705/11
fc 5 5 5
f 168/706/11 122/707/11 178/708/11
fc 5 5 5
f 187/709/13 221/710/13 182/711/13
fc 5 5 5
f 225/712/9 227/713/9 239/714/9
fc 5 5 5
f 216/715/13 202/716/13 127/717/13
fc 5 5 5
f 202/718/13 243/719/13 127/720/13
fc 5 5 5
f 115/721/13 132/722/13 201/723/13
fc 5 5 5
f 132/724/13 101/725/13 201/726/13
fc 5 5 5
f 216/727/13 127/728/13 101/729/13
fc 5 5 5
f 170/730/11 211/731/11 121/732/11
fc 5 5 5
f 121/733/11 125/734/11 170/735/11
fc 5 5 5
f 199/736/13 197/737/13 97/738/13
fc 5 5 5
f 218/739/27 220/740/27 223/741/27
fc 5 5 5
f 253/742/9 252/743/9 218/744/9
fc 5 5 5
f 252/745/9 220/746/9 218/747/9
fc 5 5 5
f 247/748/9 233/749/9 248/750/9
fc 5 5 5
f 204/751/9 219/752/9 249/753/9
fc 5 5 5
f 249/754/9 247/755/9 204/756/9
fc 5 5 5
f 247/757/9 248/758/9 204/759/9
fc 5 5 5
f 248/760/9 253/761/9 204/762/9
fc 5 5 5
f 112/763/10 111/764/10 255/765/10
fc 5 5 5
