# Blender v5.0.0 OBJ File: 'LinksHouse.blend'
# www.blender.org
mtllib LinksHouse.mtl
g mesh_122_Collection
v 176.853577 259.674103 -64.325989
v 176.853577 292.000092 -32.000023
v 176.853577 292.000092 -64.325989
v 176.853577 259.674103 -32.000023
v 176.520447 247.945023 -12.864143
v 176.520447 279.227753 18.418613
v 176.520447 247.945023 18.418613
v 176.520447 279.227753 -12.864143
v -31.148506 276.198059 -68.814560
v 18.348480 276.198059 -68.814568
v 18.348480 210.202057 -68.814568
v -31.148506 210.202057 -68.814560
v -79.999992 300.800049 179.199921
v -80.000008 153.600052 51.199974
v -204.799988 300.800049 179.199982
v -80.000008 230.400040 -0.000011
v 176.000000 115.200066 118.399971
v -80.000015 153.600052 -76.799980
v -79.999992 153.600052 179.199921
v -67.749039 6.400055 54.949032
v -128.000015 118.400055 -75.320518
v 179.199982 147.200043 -76.799995
v 102.399956 76.800049 -76.800011
v 175.145416 250.786423 15.577240
v 102.399956 76.800049 -51.200020
v 95.999962 76.800049 -51.200020
v -124.800018 76.800049 -76.799995
v 179.199951 147.200043 179.199951
v -118.400017 76.800049 -51.200005
v 102.399940 5.485779 -12.800034
v -185.599976 6.400055 -14.400002
v 179.199921 300.800049 -76.800011
v -127.999969 147.200043 -76.800011
v 95.999962 70.400055 -57.600029
v 102.399925 38.400055 -76.800026
v -67.749031 6.400055 73.050964
v -112.639938 38.400055 -76.800011
v -127.999947 0.000061 -76.800011
v 179.199921 211.200043 19.199970
v -118.400009 0.000061 -51.200012
v 166.399933 211.200043 19.199970
v 179.199921 300.800049 -70.400024
v -81.919975 138.240051 -76.800011
v -64.974327 6.400055 68.898346
v 166.399933 172.800049 19.199959
v 166.399933 172.800049 95.999924
v 179.199951 172.800049 19.199959
v 179.199982 172.800049 95.999924
v 179.199921 230.400040 156.799927
v -112.639938 0.000061 -76.800011
v -204.799988 0.000061 -76.799980
v 102.399956 0.000061 -51.200027
v 19.200005 0.000061 179.199982
v 83.199989 0.000061 179.199982
v -97.279976 145.920044 -76.800011
v 102.399956 0.000061 -76.800026
v -124.800003 0.000061 -76.800011
v 12.799980 256.000031 179.199951
v -81.698349 25.600052 52.174339
v -124.800003 0.000061 -51.200012
v 25.599968 84.480057 -76.800056
v 10.239960 76.800049 -76.800026
v 95.999962 0.000061 -51.200027
v 10.239960 84.480057 -76.800026
v -73.600006 153.600052 15.999989
v 102.399940 16.442902 -25.600029
v -204.799988 0.000061 179.200012
v -81.919975 76.800049 -76.800011
v 179.199921 147.200043 -76.800011
v -5.120026 92.160049 -76.800026
v 10.239960 92.160049 -76.800026
v -204.799957 0.000061 148.799957
v -66.559975 76.800049 -76.800026
v 102.399986 256.000031 179.199936
v -118.400009 6.400055 -51.200012
v -20.480019 99.840057 -76.800026
v -5.120026 99.840057 -76.800026
v 25.599968 0.000061 -76.800026
v 179.199951 0.000061 179.199982
v -97.279976 76.800049 -76.800011
v 147.199951 180.800049 19.199947
v -35.840012 107.520050 -76.800026
v -20.480019 107.520050 -76.800026
v -32.000008 0.000061 179.199997
v -128.000015 38.399963 -153.599945
v 44.799973 180.800049 95.999939
v 153.599945 153.600052 156.799927
v -51.199997 115.200050 -76.800026
v -35.840012 115.200050 -76.800026
v 44.799973 179.200043 95.999939
v -128.000000 153.600052 -153.599945
v -57.600014 76.800049 -76.800011
v -179.199982 0.000061 148.799927
v -66.559975 122.880058 -76.800026
v -51.199997 122.880058 -76.800026
v -179.200012 0.000061 -14.399994
v -127.999969 153.600052 -76.800011
v -112.639938 76.800049 -76.800011
v -128.000015 134.400055 -153.599945
v -81.919975 130.560059 -76.800011
v -66.559975 130.560059 -76.800026
v -73.600021 153.600052 -76.799980
v -112.639923 147.200043 -76.800011
v -70.400017 76.800049 -76.800026
v 153.599945 38.400055 -153.599945
v -97.280006 138.240051 -153.599945
v -191.999969 147.200043 -76.799995
v -191.999969 0.000061 -76.799995
v -127.999947 145.893799 -76.800011
v -127.999924 146.032501 -76.800026
v -112.639908 146.032501 -76.800026
v -112.639938 138.219879 -76.800011
v -97.279953 138.219894 -76.800026
v -97.279953 130.578812 -76.800026
v -81.919968 130.578812 -76.800026
v -81.919968 122.818314 -76.800026
v -66.559967 122.818314 -76.800026
v -66.559975 115.200050 -76.800026
v 153.599976 224.000046 105.599930
v -51.199989 107.508583 -76.800026
v -35.840008 107.508583 -76.800026
v -35.840008 99.846794 -76.800026
v -20.480011 99.846794 -76.800026
v -20.480011 92.131836 -76.800026
v -5.120018 92.131836 -76.800026
v -5.120018 84.440369 -76.800026
v 10.239960 84.440369 -76.800026
v 25.599968 76.800049 -76.800041
v 102.399986 300.800049 179.199936
v -5.120018 76.800049 -76.800026
v 179.199951 230.400040 99.199951
v -20.480011 76.800049 -76.800026
v 179.199890 153.600052 156.799896
v -35.840008 76.800049 -76.800026
v -179.200012 0.000061 -20.799995
v -51.199997 76.800049 -76.800026
v -204.799988 0.000061 159.999985
v 44.799973 180.800049 19.199970
v -54.172585 28.800064 41.372555
v -47.235867 28.800064 51.754097
v -44.800014 28.800064 63.999958
v -47.235867 28.800064 76.245834
v -99.427414 28.800064 86.627388
v -106.364143 28.800064 76.245834
v -108.800011 28.800064 63.999962
v -99.427414 28.800064 41.372559
v -89.045868 28.800064 34.435829
v -76.800011 28.800064 31.999964
v -64.554138 28.800064 34.435825
v -64.554138 28.800064 93.564087
v -76.800011 28.800064 95.999947
v -89.045876 28.800064 93.564087
v -54.172585 25.600052 41.372555
v -47.235867 25.600052 51.754097
v -54.172592 28.800064 86.627373
v -106.364143 28.800064 51.754101
v -89.045868 25.600052 34.435829
v -106.364143 25.600052 76.245834
v -64.554138 25.600052 93.564087
v -44.800014 32.000061 63.999969
v -76.800011 32.000061 95.999969
v -108.800011 32.000061 63.999977
v -76.800011 32.000061 31.999981
v 179.199890 153.600052 -153.600006
v 179.199921 38.400055 -76.800011
v -54.172585 32.000061 41.372566
v -99.427429 32.000061 41.372574
v -99.427429 32.000061 86.627396
v -54.172592 32.000061 86.627380
v -47.235867 25.600052 76.245834
v -89.045876 25.600052 93.564087
v -106.364143 25.600052 51.754101
v -108.800011 25.600052 63.999962
v -76.800011 25.600052 95.999947
v -44.800014 25.600052 63.999958
v 102.399879 46.080063 -153.599976
v 102.399910 46.080063 -76.800056
v -89.045876 32.000061 34.435837
v -47.235867 32.000061 51.754108
v -64.974327 6.400055 59.101646
v -204.799957 153.600052 179.199951
v 95.999992 0.000061 147.199982
v 179.199921 27.428619 -38.400024
v 83.200005 0.000061 134.399963
v -47.235867 32.000061 76.245850
v -54.172592 25.600052 86.627373
v -99.427414 25.600052 86.627388
v -99.427414 25.600052 41.372559
v -50.192284 6.400055 52.978683
v -56.435326 6.400055 43.635300
v -65.778725 6.400055 37.392235
v -76.800003 6.400055 35.199963
v -87.821274 6.400055 37.392235
v -97.164673 6.400055 43.635292
v -103.407722 6.400055 52.978687
v -105.600006 6.400055 63.999962
v -103.407730 6.400055 75.021255
v -97.164673 6.400055 84.364647
v -87.821281 6.400055 90.607666
v -76.800011 6.400055 92.799942
v -65.778717 6.400055 90.607681
v -56.435337 6.400055 84.364632
v -50.192284 6.400055 75.021248
v -48.000015 6.400055 63.999958
v -48.000015 0.000061 63.999958
v -50.192284 0.000061 75.021248
v -56.435337 0.000061 84.364632
v -65.778717 0.000061 90.607681
v -76.800011 0.000061 92.799942
v -87.821281 0.000061 90.607666
v -97.164673 0.000061 84.364647
v -103.407730 0.000061 75.021255
v -105.600006 0.000061 63.999962
v -103.407722 0.000061 52.978687
v -97.164673 0.000061 43.635292
v -87.821274 0.000061 37.392235
v -76.800003 0.000061 35.199963
v -65.778725 0.000061 37.392235
v -56.435326 0.000061 43.635300
v -50.192284 0.000061 52.978683
v -204.799957 300.663849 166.399963
v 147.199951 179.200043 19.199947
v -191.999954 300.663849 179.199951
v -191.999954 300.663849 166.399963
v -191.999954 153.600052 166.399963
v -191.999954 153.600052 179.199951
v 147.199982 179.200043 95.999931
v -204.799957 153.600052 166.399963
v 12.799980 300.800049 179.199951
v 177.324493 215.773834 -21.371056
v 153.599976 230.400040 150.399963
v 12.799988 192.000046 179.199966
v -179.199997 268.800049 176.055847
v 153.599976 153.600052 105.599930
v -128.000015 147.200043 -76.799980
v 177.324493 249.600052 -21.371056
v 147.199982 192.000046 19.199966
v -204.799957 147.200043 -64.000008
v -191.999969 147.200043 -64.000008
v -204.799988 147.200043 -76.799980
v 153.599976 153.600052 99.199928
v -191.999969 0.000061 -64.000008
v -204.799957 0.000061 -64.000008
v 44.799973 192.000046 19.199982
v 166.399933 300.800049 -153.600006
v 166.399933 300.800049 -140.800018
v 179.199921 300.800049 -140.799988
v 44.799973 179.200043 19.199970
v 44.799973 192.000046 95.999969
v 179.199921 38.400055 -140.799988
v 166.399933 38.400055 -140.800018
v 166.399933 38.400055 -153.600006
v 166.399963 300.800049 166.399902
v 166.399963 300.800049 179.199905
v 44.799973 172.800049 95.999939
v 179.199921 300.800049 166.399902
v 179.199921 0.000061 166.399902
v 147.199982 192.000046 95.999954
v 166.399963 0.000061 179.199905
v 166.399963 0.000061 166.399902
v -73.600021 300.800049 -70.400002
v -139.671432 204.800049 176.055847
v -73.599998 300.800049 179.199921
v -64.974327 25.600052 59.101646
v -73.600021 153.600052 -70.400002
v -73.599991 153.600052 179.199951
v -204.799988 76.800049 148.799973
v 175.145416 288.637115 -35.363007
v -80.000008 153.600052 -0.000023
v -80.000008 230.400040 51.199974
v 175.999939 115.200050 38.399979
v 176.000000 51.200073 78.616791
v -73.600006 153.600052 -0.000023
v -73.600006 230.400040 51.199963
v -73.600006 230.400040 -0.000034
v -73.600006 153.600052 51.199963
v 102.399940 21.965927 -38.400032
v -124.800018 76.800049 -51.200005
v 179.199921 0.000061 -76.800011
v -85.850990 25.600052 54.949036
v 102.399971 10.971497 -0.000038
v 147.199982 180.800049 95.999931
v 57.599968 172.800049 19.199966
v 179.199951 153.600052 31.999956
v 179.199951 172.800049 31.999956
v 95.999962 6.400055 -57.600029
v -118.400017 70.400055 -57.600014
v 57.599968 172.800049 95.999939
v 44.799973 153.600052 31.999966
v -185.599976 70.400055 -14.400002
v -185.599945 70.400055 142.399963
v -118.400017 6.400055 -57.600014
v 179.199951 172.800049 83.199951
v 179.199951 153.600052 83.199951
v 166.399994 153.600052 95.999924
v 166.399963 172.800049 83.199944
v 166.399963 153.600052 31.999956
v 166.399963 153.600052 19.199959
v -89.600006 25.600052 64.000000
v -179.200012 70.400055 -14.399994
v 153.599945 153.600052 150.399933
v 179.199921 153.600052 99.199928
v -118.400009 70.400055 -51.200012
v -179.199982 76.800049 148.799973
v -204.799988 76.800049 -20.799995
v 166.399933 179.200043 19.199959
v 44.799973 153.600052 83.199966
v 179.199982 153.600052 95.999924
v 179.199951 153.600052 19.199959
v 166.399963 153.600052 83.199944
v 44.800003 153.600052 19.199970
v 166.399963 172.800049 31.999956
v 179.199921 32.914337 -51.200027
v 57.599968 172.800049 83.199966
v 179.199951 153.600052 179.199951
v 179.199921 153.600052 -70.400024
v 19.199966 102.400055 179.199966
v 44.799973 153.600052 95.999939
v 57.599968 153.600052 31.999966
v 44.799973 172.800049 31.999966
v 57.599968 172.800049 31.999966
v 57.599968 153.600052 83.199966
v 44.799973 172.800049 83.199966
v 57.599968 153.600052 95.999939
v 166.399933 172.800049 95.999924
v 166.399933 172.800049 19.199959
v 179.199921 172.800049 19.199959
v 179.199921 172.800049 95.999924
v -64.554138 25.600052 34.435825
v 102.399986 192.000046 179.199936
v -88.625694 25.600052 68.898338
v -179.199982 0.000061 142.399933
v 25.599968 19.200058 -76.800026
v 179.199921 38.400055 -64.000023
v -204.799988 0.000061 -20.799995
v -85.850983 25.600052 73.050964
v 166.399933 179.200043 95.999924
v -112.639938 153.600052 -76.800026
v 179.199951 211.200043 95.999954
v 175.145416 245.486908 -25.484154
v -80.000015 300.800049 -76.799980
v 166.399963 211.200043 95.999954
v 179.199951 300.800049 179.199921
v 95.999962 70.400055 -51.200027
v -204.800003 300.800049 -153.599976
v 153.599945 224.000046 150.399933
v 175.145386 245.486908 -51.084145
v 179.199921 300.800049 -153.600006
v 44.799973 172.800049 95.999939
v -76.800011 25.600052 31.999964
v 102.399940 10.989853 -12.800034
v -179.200012 76.800049 -20.799995
v 95.999962 6.400055 -51.200027
v -179.199982 6.400055 142.399963
v 153.599976 230.400040 156.799957
v 102.399940 21.942932 -25.600029
v 230.399994 0.000061 374.399902
v 153.599976 230.400040 105.599953
v 153.599976 160.000061 105.599930
v -204.799988 147.200043 179.199982
v -127.999969 102.400032 374.399902
v -127.999962 0.000031 374.399933
v 230.399963 102.400063 374.399872
v -179.200012 6.400055 -14.399994
v 57.599968 153.600052 19.199966
v -204.799957 32.000061 -76.799995
v 83.199959 102.400055 179.199936
v 44.799973 172.800049 19.199970
v 44.799973 172.800049 19.199970
v 159.999939 224.000046 150.399933
v 166.399963 172.800049 19.199959
v 166.399994 172.800049 95.999924
v -88.625694 25.600052 59.101646
v 160.000000 160.000061 105.599930
v 159.999939 160.000061 150.399933
v 102.399971 5.485779 -6.400036
v 176.000031 51.200073 118.399971
v 153.599945 160.000061 150.399933
v -139.671432 268.800049 176.055847
v 160.000000 224.000046 105.599930
v 179.199921 153.600052 -76.800011
v -179.200012 76.800049 -14.399994
v -179.199982 70.400055 142.399963
v -185.599945 6.400055 142.399963
v 179.199921 5.485779 -0.000042
v 102.399940 16.442902 -38.400032
v 102.399940 5.485779 12.799961
v 179.199921 5.485779 12.799957
v 102.399971 5.485779 -0.000038
v 179.199921 16.457184 -12.800034
v -89.600006 6.400055 64.000000
v 102.399971 0.000061 -0.000038
v 179.199921 10.971497 -12.800034
v 102.399940 10.971497 -12.800034
v 102.399956 32.914337 -64.000031
v 179.199921 10.971497 -0.000042
v -88.625694 6.400055 68.898338
v 102.399940 0.000061 -12.800034
v 179.199921 16.457184 -25.600029
v 102.399940 16.457184 -25.600029
v 102.399940 16.457184 -12.800034
v 102.399956 38.400055 -64.000031
v -85.850983 6.400055 73.050964
v 102.399940 0.000061 -25.600029
v 179.199921 21.942932 -38.400024
v 102.399940 21.942932 -38.400032
v -153.600006 0.000061 -76.799980
v 179.199921 21.942932 -25.600029
v -81.698349 6.400055 75.825653
v 102.399940 0.000061 -38.400032
v 179.199921 27.428619 -51.200027
v 102.399956 27.428619 -51.200027
v 102.399940 27.428619 -38.400032
v 96.000008 0.000061 179.200012
v -76.800011 6.400055 76.799995
v 102.399956 21.965927 -51.200027
v 179.199921 32.914337 -64.000023
v 102.399940 10.989853 -25.600029
v 6.399994 0.000061 179.200012
v -6.400009 0.000061 115.199989
v -71.901672 6.400055 75.825653
v 179.199951 153.600052 -76.799995
v 10.239899 92.160049 -153.599945
v -97.279976 138.240051 -76.800011
v -204.799973 153.600052 -153.599976
v -5.120087 99.840057 -153.599945
v -66.560043 122.880058 -153.599945
v -66.560043 130.560059 -153.599945
v -112.639977 145.920044 -153.599945
v -81.920036 130.560059 -153.599945
v -35.840069 115.200050 -153.599945
v -81.920036 138.240051 -153.599945
v -20.480076 99.840057 -153.599945
v -51.200047 115.200050 -153.599945
v -112.639938 145.920044 -76.800011
v -35.840069 107.520050 -153.599945
v -51.199997 115.200050 -76.800026
v 10.239899 84.480057 -153.599945
v -5.120087 92.160049 -153.599945
v 25.599915 84.480057 -153.599945
v -97.280006 145.920044 -153.599945
v -51.200047 122.880058 -153.599945
v -20.480076 107.520050 -153.599945
v -112.639977 153.600052 -153.599945
v 19.200005 0.000061 134.399994
v -140.800003 0.000061 115.200012
v -134.400024 0.000061 -76.799980
v 71.679893 61.440063 -153.599976
v -166.400024 0.000061 -31.999992
v 25.599968 76.800049 -76.800056
v 56.319908 61.440063 -153.599976
v 56.319954 61.440063 -76.800056
v 71.679909 61.440063 -76.800056
v 102.400002 0.000061 -38.400009
v -134.400024 0.000061 -38.399986
v 102.399986 0.000061 -51.200005
v -115.200012 0.000061 -6.399994
v 102.399940 0.000061 12.799969
v 71.679893 53.760071 -153.599976
v -115.199997 0.000061 140.799988
v -76.800011 25.600052 51.199997
v 102.399925 38.400055 -153.600006
v -32.000019 0.000061 -6.400002
v 179.199921 38.400055 -153.599976
v -204.799988 0.000061 -31.999992
v 40.959976 76.800049 -76.800056
v 87.039879 53.760071 -153.599976
v 87.039925 53.760071 -76.800056
v 71.679909 53.760071 -76.800056
v -166.399994 0.000061 160.000000
v 40.959900 69.120056 -153.599976
v 102.399956 32.914337 -51.200027
v 25.599915 76.800049 -153.599976
v 56.319908 69.120056 -153.599976
v 40.959976 69.120056 -76.800056
v 179.199921 0.000061 12.799965
v -6.400002 0.000061 19.199997
v -32.000008 0.000061 140.799988
v 6.399994 0.000061 147.199982
v -140.800018 0.000061 19.200005
v -6.400017 0.000061 179.200012
v -64.554138 32.000061 93.564102
v -106.364143 32.000061 76.245850
v 87.039925 46.080063 -76.800056
v 87.039879 46.080063 -153.599976
v 56.319954 69.120056 -76.800056
v 40.959900 76.800049 -153.599976
v -64.554138 32.000061 34.435837
v -106.364143 32.000061 51.754116
v -89.045883 32.000061 93.564102
v -67.749039 25.600052 54.949032
v -67.749031 25.600052 73.050964
v -71.901672 25.600052 52.174339
v 166.399994 204.800049 95.999977
v -81.698349 25.600052 75.825653
v -64.974327 25.600052 68.898346
v -64.000008 25.600052 63.999996
v -140.800003 0.000061 179.200012
v -64.000008 6.400055 63.999996
v -71.901672 25.600052 75.825653
v 166.399994 204.800049 19.199982
v -76.800011 25.600052 76.799995
v 32.000008 153.600052 179.199982
v -73.599991 153.600052 179.199997
v 179.199982 153.600052 -0.000019
v 31.999992 153.600052 -0.000011
v 63.999977 204.800049 -68.925285
v 63.999977 268.800049 -68.925285
v 127.999977 268.800049 -68.925293
v 127.999977 204.800049 -68.925293
v -81.698349 6.400055 52.174339
v -88.625694 6.400055 59.101646
v -71.901672 6.400055 52.174339
v -85.850990 6.400055 54.949036
v -76.800011 6.400055 51.199997
v 177.324493 249.600052 -55.197250
v 175.145386 263.037109 -60.962997
v 102.400017 256.000031 223.999969
v 12.799995 256.000031 224.000000
v 177.324493 215.773834 -55.197250
v 153.599976 230.400040 99.199951
v 102.400017 192.000046 223.999969
v 12.799995 192.000046 224.000000
v -172.800018 118.400055 -75.320518
v 175.145416 219.886917 -25.484154
v 175.145416 250.786423 -10.022774
v -172.800018 92.800049 -75.320518
v -99.199997 268.800079 176.055832
v -179.199997 204.800034 176.055847
v 175.145386 288.637115 -60.962997
v 175.999908 51.200058 38.399979
v 175.145416 263.037109 -35.363007
v -160.000015 147.200043 -76.799980
v 175.145416 276.386414 15.577240
v -99.199997 204.800064 176.055832
v 176.000000 115.200066 78.616791
v 175.145416 276.386414 -10.022774
v 175.145386 219.886917 -51.084145
v -128.000015 92.800049 -75.320518
v -179.199997 76.800049 142.399994
v -32.394066 272.276337 -67.365639
v 19.594040 272.276337 -67.365646
v 19.594040 214.123795 -67.365646
v -32.394066 214.123795 -67.365639
v 12.799988 256.000031 179.199982
v 12.799988 192.000046 179.199982
v 102.400017 256.000031 179.199982
v 102.400017 192.000046 179.199982
v 57.600014 256.000031 179.199982
v 57.600014 192.000046 179.199982
v 57.600014 224.000046 179.199982
v 12.799988 192.000046 190.399963
v 12.799988 256.000031 190.399963
v 102.399986 256.000031 190.399933
v 102.399986 192.000046 190.399933
v 92.399971 102.400055 191.399933
v 92.399986 0.000061 191.399994
v 10.000008 0.000061 191.399994
v 9.999969 102.400055 191.399963
vt 0.000000 -0.000000
vt 1.000000 -1.000000
vt 1.000000 -0.000000
vt 3.000000 4.000000
vt 2.000000 3.000000
vt 3.000000 3.000000
vt 0.000000 -0.000000
vt 1.000000 -1.000000
vt 1.000000 -0.000000
vt 0.000000 -0.000000
vt 1.000000 -1.000000
vt 1.000000 -0.000000
vt 1.000000 2.000000
vt 0.000000 1.000000
vt 1.000000 1.000000
vt 0.000000 -0.000000
vt 0.000000 -1.000000
vt 1.000000 -1.000000
vt 3.000000 4.000000
vt 2.000000 4.000000
vt 2.000000 3.000000
vt 0.000000 -0.000000
vt 0.000000 -1.000000
vt 1.000000 -1.000000
vt 0.000000 -0.000000
vt 0.000000 -1.000000
vt 1.000000 -1.000000
vt 1.000000 2.000000
vt 0.000000 2.000000
vt 0.000000 1.000000
vt 0.333333 6.666667
vt 2.666666 7.833333
vt 2.666666 6.666666
vt 4.424944 -1.000001
vt 4.822863 1.666667
vt 4.822862 -1.000000
vt -4.333333 3.833333
vt 5.666667 3.833333
vt 1.499999 2.666666
vt -2.000000 4.000000
vt 4.666666 7.833334
vt -3.999999 7.833334
vt 4.666665 7.833333
vt -1.916667 4.000000
vt 4.666665 4.000000
vt -2.000000 0.833333
vt -1.999999 3.833333
vt -0.833333 -0.000000
vt -2.083333 4.000000
vt 4.666665 7.833333
vt 4.666665 4.000000
vt -3.333331 3.500000
vt -3.333332 0.999998
vt 4.000000 1.000000
vt 5.000000 -0.000000
vt 3.333331 -0.000000
vt 3.333332 3.799316
vt 3.333331 -0.000000
vt 2.933331 -0.000000
vt 2.933331 1.000000
vt 2.533332 3.599475
vt 2.933331 2.000000
vt 2.533333 2.000000
vt 2.133332 3.400489
vt 2.533332 2.000000
vt 2.133332 2.000000
vt 2.133331 3.198393
vt 2.133331 2.000000
vt 1.833332 2.000000
vt -0.266665 2.198968
vt 0.133334 2.000002
vt -0.266665 2.000002
vt 0.133333 2.399266
vt 0.533332 2.000001
vt 0.133333 2.000001
vt 0.533334 2.600176
vt 0.933334 2.000000
vt 0.533334 2.000000
vt 0.933332 2.799702
vt 1.333332 2.000000
vt 0.933332 2.000000
vt 1.733332 3.000000
vt 1.733332 2.000000
vt 1.500000 2.000000
vt -3.999999 4.000001
vt 4.666667 7.833334
vt 4.666666 4.000001
vt -3.958333 4.000000
vt -4.833334 5.666666
vt -4.833334 4.000000
vt 4.958332 -3.666662
vt 5.833333 -1.333330
vt 4.958333 -1.333329
vt 3.833335 -3.333332
vt 4.000002 -3.333332
vt 4.000002 -1.916667
vt -1.916669 4.000000
vt -2.083336 6.000000
vt -1.916669 6.000000
vt -2.083333 4.000000
vt -1.916667 6.000000
vt -2.083333 6.000000
vt -0.000004 2.083333
vt 1.333329 1.916667
vt 1.333329 2.083333
vt 1.333332 6.000000
vt -0.000001 6.000000
vt -1.833334 7.833333
vt -5.333332 4.000000
vt 4.666667 7.833334
vt -5.333332 7.833334
vt -1.000000 2.833334
vt -0.999999 3.000001
vt -3.000000 3.000001
vt 0.333334 5.000001
vt 4.666667 4.000001
vt -5.333332 4.000000
vt 5.999998 2.666662
vt -3.333332 -0.000005
vt -3.333333 2.666662
vt -0.666667 -0.000000
vt -1.000000 0.428199
vt -1.000000 -0.000000
vt 0.000004 -0.000000
vt 0.000004 0.142857
vt -0.166662 0.142857
vt -1.000006 -0.000000
vt -1.333339 0.572028
vt -1.333339 -0.000000
vt -0.666667 -0.000000
vt -0.333334 0.286193
vt -0.666667 0.286193
vt 4.666665 7.833333
vt -2.000000 7.833333
vt 1.333333 6.000000
vt 0.333332 5.000000
vt 2.666665 6.666666
vt 2.666666 5.000000
vt 2.666662 4.958333
vt 0.333329 4.666666
vt 0.333329 4.958332
vt 4.958335 5.000000
vt 5.833336 6.666666
vt 4.958335 6.666666
vt -3.666666 5.666666
vt -3.958333 4.000000
vt -3.666667 4.000000
vt 4.666666 -3.666662
vt 4.958333 -1.333329
vt 4.666666 -1.333329
vt 4.666668 5.000000
vt 4.958335 6.666666
vt 4.666668 6.666666
vt 2.666662 4.958333
vt 0.333328 5.833333
vt 2.666661 5.833334
vt -10.397209 1.666666
vt -4.428441 -1.000000
vt -10.397209 -1.000001
vt -4.030523 -1.000000
vt -4.428441 1.666666
vt -4.030523 1.666666
vt 4.822862 -1.000000
vt 10.791630 1.666667
vt 10.791632 -1.000000
vt 0.333333 6.666667
vt 0.333333 7.833333
vt 2.666666 7.833333
vt 4.424944 -1.000001
vt 4.424944 1.666666
vt 4.822863 1.666667
vt -2.666667 -0.000001
vt -4.333334 -0.000001
vt -4.333333 3.833333
vt 5.666667 3.833333
vt 5.666666 -0.000001
vt 3.166666 2.666666
vt 5.666666 -0.000001
vt 3.166666 -0.000001
vt 3.166666 2.666666
vt 0.166666 -0.000001
vt -2.666667 -0.000001
vt 1.499999 2.666666
vt -2.666667 -0.000001
vt -4.333333 3.833333
vt 1.499999 2.666666
vt 1.499999 2.666666
vt 1.500000 -0.000001
vt 0.166666 -0.000001
vt 5.666667 3.833333
vt 3.166666 2.666666
vt 1.499999 2.666666
vt -3.999999 7.833334
vt -3.999999 4.000000
vt -2.000000 4.000000
vt -2.000000 4.000000
vt 4.666667 4.000000
vt 4.666666 7.833334
vt 4.666665 7.833333
vt -1.916667 7.833333
vt -1.916667 4.000000
vt -1.999999 3.833333
vt 4.666667 3.833333
vt -0.833333 -0.000000
vt 4.666667 3.833333
vt 4.666667 -0.000000
vt 4.166666 -0.000000
vt 4.666667 3.833333
vt 4.166666 -0.000000
vt -0.833333 -0.000000
vt -2.000000 -0.000000
vt -2.000000 0.833333
vt -0.833333 -0.000000
vt -2.083333 4.000000
vt -2.083333 7.833333
vt 4.666665 7.833333
vt 4.666667 1.000001
vt 4.666667 4.000000
vt 4.000000 1.000000
vt 4.666667 4.000000
vt -3.333330 4.000000
vt -3.333331 3.500000
vt 4.000000 1.000000
vt 4.666667 4.000000
vt -3.333331 3.500000
vt 3.333332 3.833333
vt 5.000000 3.833333
vt 3.333332 3.799316
vt 5.000000 3.833333
vt 5.000000 -0.000000
vt 3.333332 3.799316
vt 3.333331 -0.000000
vt 3.333331 3.802928
vt 3.333332 3.799316
vt 2.933331 3.802929
vt 3.333331 3.802928
vt 2.933331 1.000000
vt 3.333331 3.802928
vt 3.333331 -0.000000
vt 2.933331 1.000000
vt 2.533332 3.599475
vt 2.933332 3.599475
vt 2.933331 2.000000
vt 2.133332 3.400489
vt 2.533332 3.400489
vt 2.533332 2.000000
vt 1.833332 2.000000
vt 1.733331 2.000000
vt 1.733331 3.198393
vt 1.733331 3.198393
vt 2.133331 3.198393
vt 1.833332 2.000000
vt -0.266665 2.198968
vt 0.133334 2.198968
vt 0.133334 2.000002
vt 0.133333 2.399266
vt 0.533332 2.399266
vt 0.533332 2.000001
vt 0.533334 2.600176
vt 0.933334 2.600176
vt 0.933334 2.000000
vt 0.933332 2.799702
vt 1.333331 2.799702
vt 1.333332 2.000000
vt 1.500000 2.000000
vt 1.333333 2.000000
vt 1.333333 3.000000
vt 1.333333 3.000000
vt 1.733332 3.000000
vt 1.500000 2.000000
vt -3.999999 4.000001
vt -3.999999 7.833334
vt 4.666667 7.833334
vt -3.958333 4.000000
vt -3.958333 5.666666
vt -4.833334 5.666666
vt 4.958332 -3.666662
vt 5.833333 -3.666663
vt 5.833333 -1.333330
vt 4.000002 -1.916667
vt 4.000002 4.666666
vt 3.833335 4.666666
vt 3.833335 4.666666
vt 3.833335 -3.333332
vt 4.000002 -1.916667
vt -1.916669 4.000000
vt -2.083336 4.000000
vt -2.083336 6.000000
vt -2.083333 4.000000
vt -1.916667 4.000000
vt -1.916667 6.000000
vt -0.000004 2.083333
vt -0.000005 1.916667
vt 1.333329 1.916667
vt 4.666665 7.833333
vt 4.666666 4.000000
vt 1.333332 6.000000
vt 4.666666 4.000000
vt 1.333332 4.000000
vt 1.333332 6.000000
vt -0.000001 4.000000
vt -1.833334 4.000000
vt -0.000001 6.000000
vt -1.833334 4.000000
vt -1.833334 7.833333
vt -0.000001 6.000000
vt 4.666665 7.833333
vt 1.333332 6.000000
vt -1.833334 7.833333
vt -5.333332 4.000000
vt 4.666666 4.000000
vt 4.666667 7.833334
vt -3.000000 3.000001
vt -3.000000 0.000000
vt -1.000000 2.833334
vt -3.000000 0.000000
vt -1.000000 0.000000
vt -1.000000 2.833334
vt -1.000000 0.000000
vt -1.000000 -1.000000
vt 5.666667 -1.000000
vt 5.666667 -1.000000
vt 5.666667 2.833334
vt -1.000000 0.000000
vt 5.666667 2.833334
vt -1.000000 2.833334
vt -1.000000 0.000000
vt 2.666667 6.666667
vt 2.666668 7.833334
vt 4.666667 7.833334
vt -5.333332 4.000000
vt -5.333332 7.833334
vt 0.333334 6.666667
vt -5.333332 7.833334
vt 0.333335 7.833334
vt 0.333334 6.666667
vt 2.666667 6.666667
vt 4.666667 7.833334
vt 4.666667 4.000001
vt 2.666667 5.000001
vt 2.666667 6.666667
vt 4.666667 4.000001
vt -5.333332 4.000000
vt 0.333334 6.666667
vt 0.333334 5.000001
vt 0.333334 5.000001
vt 2.666667 5.000001
vt 4.666667 4.000001
vt 5.999998 2.666662
vt 5.999999 -0.000004
vt -3.333332 -0.000005
vt -0.666667 -0.000000
vt -0.666667 0.428199
vt -1.000000 0.428199
vt -0.166662 0.142857
vt -0.333329 0.142857
vt -0.333329 -0.000000
vt -0.333329 -0.000000
vt 0.000004 -0.000000
vt -0.166662 0.142857
vt -1.000006 -0.000000
vt -1.000006 0.572028
vt -1.333339 0.572028
vt -0.666667 -0.000000
vt -0.333334 -0.000000
vt -0.333334 0.286193
vt -2.000000 7.833333
vt -2.000000 4.000000
vt -0.000000 6.000000
vt -2.000000 4.000000
vt -0.000001 4.000000
vt -0.000000 6.000000
vt 1.333333 4.000000
vt 4.666665 4.000000
vt 1.333333 6.000000
vt 4.666665 4.000000
vt 4.666665 7.833333
vt 1.333333 6.000000
vt -2.000000 7.833333
vt -0.000000 6.000000
vt 1.333333 6.000000
vt 0.333332 5.000000
vt 0.333332 6.666667
vt 2.666665 6.666666
vt 2.666662 4.958333
vt 2.666662 4.666666
vt 0.333329 4.666666
vt 4.958335 5.000000
vt 5.833336 5.000000
vt 5.833336 6.666666
vt -3.666666 5.666666
vt -3.958333 5.666666
vt -3.958333 4.000000
vt 4.666666 -3.666662
vt 4.958332 -3.666662
vt 4.958333 -1.333329
vt 4.666668 5.000000
vt 4.958335 5.000000
vt 4.958335 6.666666
vt 2.666662 4.958333
vt 0.333329 4.958332
vt 0.333328 5.833333
vt -10.397209 1.666666
vt -4.428441 1.666666
vt -4.428441 -1.000000
vt -4.030523 -1.000000
vt -4.428441 -1.000000
vt -4.428441 1.666666
vt 4.822862 -1.000000
vt 4.822863 1.666667
vt 10.791630 1.666667
vt 1.000000 -0.755428
vt 0.000000 -0.184000
vt 0.000000 -0.755428
vt 1.000000 -0.755428
vt 1.000000 -0.184000
vt 0.000000 -0.184000
vt -1.390625 -0.000000
vt 0.140625 0.062500
vt -1.390625 0.062500
vt 0.937500 0.750000
vt -1.156250 0.687500
vt 0.937500 0.687500
vt -1.156250 -0.000000
vt 0.937500 0.062500
vt -1.156250 0.062500
vt 0.187500 1.750000
vt 0.937500 1.687500
vt 0.937500 1.750000
vt 2.750000 1.500000
vt 2.500000 2.250000
vt 2.500000 1.500000
vt -0.500000 2.250000
vt -0.750000 1.500000
vt -0.500000 1.500000
vt -0.750000 0.750000
vt -0.500000 -0.000000
vt -0.500000 0.750000
vt 0.270577 1.562500
vt 0.005305 2.187500
vt -0.077813 2.250000
vt 1.468750 1.562500
vt 1.531250 2.250000
vt 1.468750 2.187500
vt 0.437500 1.687500
vt 1.625000 1.750000
vt 1.625000 1.687500
vt -1.218750 -0.000000
vt -1.156250 -0.000000
vt -1.156250 0.062500
vt 0.437500 1.750000
vt 1.625000 1.687500
vt 1.625000 1.750000
vt -1.453125 0.750000
vt -1.390625 0.062500
vt -1.390625 0.687500
vt -2.000000 -0.000000
vt -1.750000 0.750000
vt -1.750000 -0.000000
vt -0.500000 -1.000000
vt -0.750000 -0.250000
vt -0.500000 -0.250000
vt 1.000000 -0.000000
vt 0.250000 -0.000000
vt 0.250000 0.187500
vt 0.140625 0.687500
vt 0.140625 0.062500
vt 0.203125 -0.000000
vt 1.937500 -0.312500
vt 1.937500 -0.937500
vt 2.000000 -1.000000
vt 1.625000 2.062500
vt 1.750000 1.687500
vt 1.750000 2.062500
vt 0.812500 1.687500
vt 0.937500 1.500000
vt 0.937500 1.687500
vt 0.437500 1.500000
vt 0.562500 1.687500
vt 0.562500 1.500000
vt 0.437500 1.687500
vt 0.562500 1.500000
vt 0.562500 1.687500
vt 0.812500 1.500000
vt 0.937500 1.687500
vt 0.937500 1.500000
vt -1.812500 0.062500
vt -1.750000 0.687500
vt -1.812500 0.687500
vt 0.187500 1.750000
vt 0.937500 1.625000
vt 0.187500 1.625000
vt 0.187500 1.687500
vt 0.312500 1.500000
vt 0.312500 1.687500
vt 1.625000 1.687500
vt 1.750000 1.500000
vt 1.750000 1.687500
vt 0.187500 1.687500
vt 0.312500 1.500000
vt 0.312500 1.687500
vt 1.812500 0.687500
vt 1.750000 0.062500
vt 1.812500 0.062500
vt -1.390628 1.812500
vt 0.140622 1.750000
vt 0.140621 1.812500
vt 2.468750 2.187500
vt 2.031250 2.250000
vt 2.031250 2.187500
vt 0.187500 2.062500
vt 0.937500 1.687500
vt 0.937500 2.062500
vt 1.031249 1.500000
vt 1.468749 1.562500
vt 1.031249 1.562500
vt 0.187500 1.500000
vt 0.312500 1.687500
vt 0.312500 1.500000
vt 0.437500 1.687500
vt 0.562500 1.500000
vt 0.562500 1.687500
vt 1.750000 1.687500
vt 1.625000 2.062500
vt 1.750000 2.062500
vt -1.750001 0.750000
vt -2.000001 -0.000000
vt -1.750001 -0.000000
vt 1.625000 1.500000
vt 1.750000 1.687500
vt 1.750000 1.500000
vt 1.625000 1.500000
vt 1.750000 1.687500
vt 1.750000 1.500000
vt 1.625000 1.687500
vt 1.750000 1.500000
vt 1.750000 1.687500
vt 0.812500 1.687500
vt 0.937500 1.500000
vt 0.937500 1.687500
vt 0.140622 -1.750000
vt -1.390628 -1.812500
vt 0.140621 -1.812500
vt -1.156250 0.500000
vt 0.937500 0.562500
vt -1.156250 0.562500
vt 1.500001 -1.031250
vt 1.562501 -1.468750
vt 1.562501 -1.031250
vt 1.468750 -1.562500
vt 1.468750 -1.500000
vt 1.468750 -1.562500
vt 1.031250 -1.562500
vt 1.031250 -1.500000
vt 1.031250 -1.562500
vt -0.562500 0.062500
vt -0.500000 0.687500
vt -0.562500 0.687500
vt 0.937500 1.625000
vt 0.187500 0.437500
vt 0.187500 1.625000
vt 1.562500 1.468750
vt 1.500000 1.031250
vt 1.562500 1.031250
vt 0.562500 0.687500
vt 0.500000 0.062500
vt 0.562500 0.062500
vt 0.937500 -0.562500
vt -1.156250 -0.500000
vt -1.156250 -0.562500
vt 0.437500 1.500000
vt 0.562500 1.687500
vt 0.562500 1.500000
vt 0.937500 0.625000
vt 0.187500 0.750000
vt 0.187500 0.625000
vt -3.000002 4.800000
vt -6.000000 4.500000
vt -6.000000 4.800000
vt 0.599997 -4.000000
vt -0.000003 -6.999997
vt 0.599997 -6.999997
vt -3.000002 4.200000
vt -5.999999 3.900000
vt -5.999999 4.200000
vt -3.000002 3.900000
vt -5.999999 3.600000
vt -5.999999 3.900000
vt 3.199996 -4.000000
vt 2.599996 -6.999997
vt 3.199996 -6.999997
vt 1.199997 -3.000002
vt 0.599998 -5.999999
vt 1.199997 -5.999999
vt -3.000003 5.400000
vt -6.000001 5.099999
vt -6.000001 5.400000
vt 3.599994 -3.000001
vt 2.999995 -5.999998
vt 3.599995 -5.999998
vt -3.000003 5.100000
vt -6.000000 4.800000
vt -6.000000 5.100000
vt 1.799996 -3.999998
vt 1.199997 -6.999994
vt 1.799996 -6.999995
vt 4.799993 -3.000001
vt 4.199994 -5.999999
vt 4.799993 -5.999999
vt -3.000002 4.500000
vt -6.000000 4.200000
vt -6.000000 4.500000
vt 2.399995 -3.000003
vt 1.799996 -6.000000
vt 2.399995 -6.000000
vt -3.000001 3.600000
vt -5.999998 3.300000
vt -5.999998 3.600000
vt -2.000003 6.000000
vt -4.999999 5.699999
vt -4.999999 6.000000
vt 4.399998 -3.000003
vt 3.800000 -6.000001
vt 4.399999 -6.000000
vt 1.999998 -3.000002
vt 1.399999 -5.999999
vt 1.999998 -5.999999
vt -3.000003 5.700000
vt -6.000000 5.400000
vt -6.000000 5.700000
vt 5.000017 -3.999999
vt 4.400017 -6.999996
vt 5.000018 -6.999996
vt 2.499988 -4.000000
vt 1.999978 -7.000000
vt 2.499978 -7.000000
vt 7.000000 -0.785701
vt 4.000000 -0.999992
vt 7.000000 -0.999987
vt 0.999972 -4.000000
vt 0.499951 -6.999999
vt 0.999951 -6.999998
vt 4.000003 0.857143
vt 7.000002 0.642857
vt 7.000003 0.857142
vt 4.000000 1.500000
vt 7.000000 1.285714
vt 7.000000 1.500000
vt -2.000007 3.999994
vt -1.500008 6.999992
vt -2.000008 6.999994
vt 5.000001 0.428575
vt 8.000001 0.214291
vt 8.000002 0.428577
vt 1.499979 -4.999998
vt 0.999965 -7.999996
vt 1.499964 -7.999998
vt 4.000000 1.285714
vt 7.000000 1.071429
vt 7.000000 1.285714
vt 3.499995 -4.999995
vt 2.999994 -7.999993
vt 3.499995 -7.999993
vt 4.000004 0.642859
vt 7.000003 0.428574
vt 7.000004 0.642860
vt 1.999979 -4.000000
vt 1.499964 -7.000000
vt 1.999964 -7.000000
vt 4.000000 1.071427
vt 7.000000 0.857141
vt 7.000000 1.071426
vt 2.999984 -5.000000
vt 2.499971 -7.999997
vt 2.999971 -7.999997
vt -2.400011 -3.000002
vt -3.000010 -5.999999
vt -2.400009 -5.999999
vt -2.999999 1.800000
vt -5.999997 1.500000
vt -5.999997 1.800000
vt -5.999999 3.300000
vt -3.000001 3.000000
vt -5.999999 3.000000
vt -3.000000 2.700000
vt -5.999998 2.400000
vt -5.999998 2.700000
vt -1.800008 -3.999998
vt -2.400007 -6.999995
vt -1.800008 -6.999995
vt -3.000000 2.100000
vt -5.999998 1.800000
vt -5.999998 2.100000
vt -1.000001 -4.000001
vt -1.600000 -6.999999
vt -1.000001 -6.999999
vt -3.000000 3.000000
vt -5.999998 2.700000
vt -5.999998 3.000000
vt -2.200000 -4.000001
vt -2.799998 -6.999998
vt -2.199999 -6.999998
vt -3.000000 2.400000
vt -5.999998 2.100000
vt -5.999998 2.400000
vt -0.600006 -4.000001
vt -1.200005 -6.999998
vt -0.600005 -6.999998
vt 1.031250 0.500001
vt 1.468750 0.500001
vt 1.531250 0.750000
vt -0.500000 -1.156250
vt -0.500000 0.937500
vt -0.750000 1.000000
vt -1.750000 -1.390625
vt -1.750000 0.140625
vt -2.000000 0.203125
vt -1.390625 -0.000000
vt 0.140625 -0.000000
vt 0.140625 0.062500
vt 0.937500 0.750000
vt -1.156250 0.750000
vt -1.156250 0.687500
vt -1.156250 -0.000000
vt 0.937500 -0.000000
vt 0.937500 0.062500
vt 0.187500 1.750000
vt 0.187500 1.687500
vt 0.937500 1.687500
vt 2.750000 1.500000
vt 2.750000 2.250000
vt 2.500000 2.250000
vt -0.500000 2.250000
vt -0.750000 2.250000
vt -0.750000 1.500000
vt -0.750000 0.750000
vt -0.750000 -0.000000
vt -0.500000 -0.000000
vt 0.005305 2.187500
vt -0.021222 2.250000
vt -0.077813 2.250000
vt -0.077813 2.250000
vt 0.240513 1.500000
vt 0.270577 1.562500
vt 0.240513 1.500000
vt 0.297104 1.500000
vt 0.270577 1.562500
vt 1.468750 1.562500
vt 1.468750 1.500000
vt 1.531250 1.500000
vt 1.531250 1.500000
vt 1.531250 2.250000
vt 1.468750 1.562500
vt 1.531250 2.250000
vt 1.468750 2.250000
vt 1.468750 2.187500
vt 0.437500 1.687500
vt 0.437500 1.750000
vt 1.625000 1.750000
vt -1.156250 0.062500
vt -1.156250 0.687500
vt -1.218750 0.750000
vt -1.156250 0.687500
vt -1.156250 0.750000
vt -1.218750 0.750000
vt -1.218750 0.750000
vt -1.218750 -0.000000
vt -1.156250 0.062500
vt 0.437500 1.750000
vt 0.437500 1.687500
vt 1.625000 1.687500
vt -1.453125 0.750000
vt -1.453125 -0.000000
vt -1.390625 0.062500
vt -1.453125 -0.000000
vt -1.390625 -0.000000
vt -1.390625 0.062500
vt 0.140625 0.687500
vt 0.140625 0.750000
vt -1.390625 0.687500
vt 0.140625 0.750000
vt -1.453125 0.750000
vt -1.390625 0.687500
vt -2.000000 -0.000000
vt -2.000000 0.750000
vt -1.750000 0.750000
vt -0.500000 -1.000000
vt -0.750000 -1.000000
vt -0.750000 -0.250000
vt 0.250000 0.187500
vt 0.250000 0.750000
vt 1.000000 0.750000
vt 1.000000 0.750000
vt 1.000000 -0.000000
vt 0.250000 0.187500
vt 0.140625 0.062500
vt 0.140625 -0.000000
vt 0.203125 -0.000000
vt 0.203125 -0.000000
vt 0.203125 0.750000
vt 0.140625 0.687500
vt 0.203125 0.750000
vt 0.140625 0.750000
vt 0.140625 0.687500
vt 1.937500 -0.937500
vt 1.937500 -1.000000
vt 2.000000 -1.000000
vt 2.000000 -1.000000
vt 2.000000 -0.250000
vt 1.937500 -0.312500
vt 2.000000 -0.250000
vt 1.937500 -0.250000
vt 1.937500 -0.312500
vt 1.625000 2.062500
vt 1.625000 1.687500
vt 1.750000 1.687500
vt 0.812500 1.687500
vt 0.812500 1.500000
vt 0.937500 1.500000
vt 0.437500 1.500000
vt 0.437500 1.687500
vt 0.562500 1.687500
vt 0.437500 1.687500
vt 0.437500 1.500000
vt 0.562500 1.500000
vt 0.812500 1.500000
vt 0.812500 1.687500
vt 0.937500 1.687500
vt -1.812500 0.062500
vt -1.750000 0.062500
vt -1.750000 0.687500
vt 0.187500 1.750000
vt 0.937500 1.750000
vt 0.937500 1.625000
vt 0.187500 1.687500
vt 0.187500 1.500000
vt 0.312500 1.500000
vt 1.625000 1.687500
vt 1.625000 1.500000
vt 1.750000 1.500000
vt 0.187500 1.687500
vt 0.187500 1.500000
vt 0.312500 1.500000
vt 1.812500 0.687500
vt 1.750000 0.687500
vt 1.750000 0.062500
vt -1.390628 1.812500
vt -1.390628 1.750000
vt 0.140622 1.750000
vt 2.468750 2.187500
vt 2.468750 2.250000
vt 2.031250 2.250000
vt 0.187500 2.062500
vt 0.187500 1.687500
vt 0.937500 1.687500
vt 1.031249 1.500000
vt 1.468749 1.500000
vt 1.468749 1.562500
vt 0.187500 1.500000
vt 0.187500 1.687500
vt 0.312500 1.687500
vt 0.437500 1.687500
vt 0.437500 1.500000
vt 0.562500 1.500000
vt 1.750000 1.687500
vt 1.625000 1.687500
vt 1.625000 2.062500
vt -1.750001 0.750000
vt -2.000001 0.750000
vt -2.000001 -0.000000
vt 1.625000 1.500000
vt 1.625000 1.687500
vt 1.750000 1.687500
vt 1.625000 1.500000
vt 1.625000 1.687500
vt 1.750000 1.687500
vt 1.625000 1.687500
vt 1.625000 1.500000
vt 1.750000 1.500000
vt 0.812500 1.687500
vt 0.812500 1.500000
vt 0.937500 1.500000
vt 0.140622 -1.750000
vt -1.390628 -1.750000
vt -1.390628 -1.812500
vt -1.156250 0.500000
vt 0.937500 0.500000
vt 0.937500 0.562500
vt 1.500001 -1.031250
vt 1.500001 -1.468750
vt 1.562501 -1.468750
vt 1.468750 -1.562500
vt 1.468750 -1.500000
vt 1.468750 -1.500000
vt 1.031250 -1.562500
vt 1.031250 -1.500000
vt 1.031250 -1.500000
vt -0.562500 0.062500
vt -0.500000 0.062500
vt -0.500000 0.687500
vt 0.937500 1.625000
vt 0.937500 0.437500
vt 0.187500 0.437500
vt 1.562500 1.468750
vt 1.500000 1.468750
vt 1.500000 1.031250
vt 0.562500 0.687500
vt 0.500000 0.687500
vt 0.500000 0.062500
vt 0.937500 -0.562500
vt 0.937500 -0.500000
vt -1.156250 -0.500000
vt 0.437500 1.500000
vt 0.437500 1.687500
vt 0.562500 1.687500
vt 0.937500 0.625000
vt 0.937500 0.750000
vt 0.187500 0.750000
vt -3.000002 4.800000
vt -3.000002 4.500000
vt -6.000000 4.500000
vt 0.599997 -4.000000
vt -0.000003 -4.000001
vt -0.000003 -6.999997
vt -3.000002 4.200000
vt -3.000002 3.900000
vt -5.999999 3.900000
vt -3.000002 3.900000
vt -3.000002 3.600000
vt -5.999999 3.600000
vt 3.199996 -4.000000
vt 2.599996 -4.000000
vt 2.599996 -6.999997
vt 1.199997 -3.000002
vt 0.599997 -3.000002
vt 0.599998 -5.999999
vt -3.000003 5.400000
vt -3.000003 5.099999
vt -6.000001 5.099999
vt 3.599994 -3.000001
vt 2.999995 -3.000001
vt 2.999995 -5.999998
vt -3.000003 5.100000
vt -3.000003 4.800000
vt -6.000000 4.800000
vt 1.799996 -3.999998
vt 1.199997 -3.999997
vt 1.199997 -6.999994
vt 4.799993 -3.000001
vt 4.199992 -3.000001
vt 4.199994 -5.999999
vt -3.000002 4.500000
vt -3.000002 4.200000
vt -6.000000 4.200000
vt 2.399995 -3.000003
vt 1.799996 -3.000003
vt 1.799996 -6.000000
vt -3.000001 3.600000
vt -3.000001 3.300000
vt -5.999998 3.300000
vt -2.000003 6.000000
vt -2.000003 5.699999
vt -4.999999 5.699999
vt 4.399998 -3.000003
vt 3.800000 -3.000003
vt 3.800000 -6.000001
vt 1.999998 -3.000002
vt 1.399998 -3.000002
vt 1.399999 -5.999999
vt -3.000003 5.700000
vt -3.000003 5.400000
vt -6.000000 5.400000
vt 5.000017 -3.999999
vt 4.400016 -3.999999
vt 4.400017 -6.999996
vt 2.499988 -4.000000
vt 1.999988 -4.000000
vt 1.999978 -7.000000
vt 7.000000 -0.785701
vt 4.000001 -0.785707
vt 4.000000 -0.999992
vt 0.999972 -4.000000
vt 0.499972 -4.000000
vt 0.499951 -6.999999
vt 4.000003 0.857143
vt 4.000002 0.642857
vt 7.000002 0.642857
vt 4.000000 1.500000
vt 4.000000 1.285714
vt 7.000000 1.285714
vt -2.000007 3.999994
vt -1.500007 3.999994
vt -1.500008 6.999992
vt 5.000001 0.428575
vt 5.000001 0.214289
vt 8.000001 0.214291
vt 1.499979 -4.999998
vt 0.999979 -4.999998
vt 0.999965 -7.999996
vt 4.000000 1.285714
vt 4.000000 1.071429
vt 7.000000 1.071429
vt 3.499995 -4.999995
vt 2.999995 -4.999995
vt 2.999994 -7.999993
vt 4.000004 0.642859
vt 4.000003 0.428573
vt 7.000003 0.428574
vt 1.999979 -4.000000
vt 1.499979 -4.000000
vt 1.499964 -7.000000
vt 4.000000 1.071427
vt 4.000000 0.857142
vt 7.000000 0.857141
vt 2.999984 -5.000000
vt 2.499984 -4.999997
vt 2.499971 -7.999997
vt -2.400011 -3.000002
vt -3.000010 -3.000002
vt -3.000010 -5.999999
vt -2.999999 1.800000
vt -2.999999 1.500000
vt -5.999997 1.500000
vt -5.999999 3.300000
vt -3.000001 3.300000
vt -3.000001 3.000000
vt -3.000000 2.700000
vt -3.000000 2.400000
vt -5.999998 2.400000
vt -1.800008 -3.999998
vt -2.400008 -3.999998
vt -2.400007 -6.999995
vt -3.000000 2.100000
vt -3.000000 1.800000
vt -5.999998 1.800000
vt -1.000001 -4.000001
vt -1.600001 -4.000001
vt -1.600000 -6.999999
vt -3.000000 3.000000
vt -3.000000 2.700000
vt -5.999998 2.700000
vt -2.200000 -4.000001
vt -2.799998 -4.000001
vt -2.799998 -6.999998
vt -3.000000 2.400000
vt -3.000000 2.100000
vt -5.999998 2.100000
vt -0.600006 -4.000001
vt -1.200005 -4.000001
vt -1.200005 -6.999998
vt 1.468750 0.500001
vt 1.531250 0.500001
vt 1.531250 0.750000
vt 1.531250 0.750000
vt 0.968750 0.750001
vt 1.031250 0.500001
vt 0.968750 0.750001
vt 0.968750 0.500001
vt 1.031250 0.500001
vt -0.500000 0.937500
vt -0.500000 1.000000
vt -0.750000 1.000000
vt -0.750000 1.000000
vt -0.750000 -1.218750
vt -0.500000 -1.156250
vt -0.750000 -1.218750
vt -0.500000 -1.218750
vt -0.500000 -1.156250
vt -1.750000 0.140625
vt -1.750000 0.203125
vt -2.000000 0.203125
vt -2.000000 0.203125
vt -2.000000 -1.453125
vt -1.750000 -1.390625
vt -2.000000 -1.453125
vt -1.750000 -1.453125
vt -1.750000 -1.390625
vt 0.052487 -0.253904
vt 0.168294 -0.817307
vt 0.167993 -0.089824
vt -0.010341 0.531640
vt 0.134008 0.738985
vt -0.041591 0.603809
vt 1.646112 1.267177
vt 1.821995 1.498798
vt 1.614862 1.339346
vt 0.811818 0.394739
vt 0.987702 0.626359
vt 0.780568 0.466908
vt 0.101642 -0.691556
vt 0.245992 -0.484211
vt 0.070392 -0.619388
vt 2.213008 -0.237591
vt 2.328378 -1.406019
vt 1.452056 -1.559845
vt 0.991506 -0.695972
vt 0.838339 -0.160655
vt 0.553695 -0.448711
vt 0.404473 -0.275485
vt 0.251198 -0.056138
vt 0.263657 -0.295629
vt 0.543642 -0.239484
vt 0.390370 -0.020136
vt 0.404473 -0.275485
vt 0.664294 -0.193816
vt 0.531187 -0.000000
vt 0.543642 -0.239484
vt 0.749564 -0.144681
vt 0.656779 -0.001920
vt 0.664294 -0.193816
vt 0.782591 -0.098252
vt 0.750280 -0.032087
vt 0.749564 -0.144681
vt 0.746504 -0.060717
vt 0.794826 -0.096683
vt 0.782591 -0.098252
vt 0.658459 -0.033885
vt 0.755369 -0.172089
vt 0.746504 -0.060717
vt 0.535618 -0.019567
vt 0.664918 -0.225930
vt 0.658459 -0.033885
vt 0.395138 -0.019572
vt 0.540632 -0.260014
vt 0.535618 -0.019567
vt 0.254178 -0.035708
vt 0.399670 -0.276152
vt 0.395138 -0.019572
vt 0.129896 -0.069785
vt 0.259189 -0.276152
vt 0.254178 -0.035708
vt 0.039450 -0.123615
vt 0.136349 -0.261824
vt 0.129896 -0.069785
vt 0.000000 -0.199005
vt 0.048308 -0.234978
vt 0.039450 -0.123615
vt 0.044552 -0.263580
vt 0.012224 -0.197425
vt 0.000000 -0.199005
vt 0.138060 -0.293724
vt 0.045256 -0.150973
vt 0.044552 -0.263580
vt 0.263657 -0.295629
vt 0.130537 -0.101813
vt 0.138060 -0.293724
vt 2.060379 1.586081
vt 1.821995 1.498798
vt 2.029129 1.658249
vt -4.000000 5.000000
vt -3.750000 10.744680
vt -3.750000 5.000000
vt 3.250000 5.000000
vt 3.500000 10.744680
vt 3.500000 5.000000
vt 0.811818 0.394739
vt 0.573435 0.307456
vt 0.780568 0.466908
vt -0.337784 -0.260027
vt -0.576168 -0.347309
vt -0.369035 -0.187858
vt 1.265271 0.743807
vt 1.058422 0.680799
vt 1.234021 0.815975
vt 1.499805 1.154551
vt 1.644155 1.361896
vt 1.468555 1.226720
vt -4.000000 5.750000
vt -3.750000 -0.000000
vt -3.750000 5.750000
vt -1.500000 -0.000000
vt -1.250000 5.750000
vt -1.250000 -0.000000
vt 0.575392 0.212737
vt 0.368543 0.149730
vt 0.544142 0.284906
vt -0.722758 -0.556380
vt -0.929608 -0.619388
vt -0.754008 -0.484211
vt 4.249996 11.750000
vt 4.499996 1.499999
vt 4.499996 11.750000
vt -2.999998 11.750000
vt -2.749998 1.499999
vt -2.749998 11.750000
vt -0.132892 -0.102300
vt -0.339741 -0.165308
vt -0.164142 -0.030132
vt -1.544918 -1.419478
vt -1.783302 -1.506761
vt -1.576168 -1.347309
vt 4.249996 -1.000000
vt 4.499996 10.750001
vt 4.499996 -1.000000
vt 4.249996 11.750000
vt 4.499996 -0.000001
vt 4.499996 11.750000
vt -1.544918 -1.419478
vt -1.369035 -1.187858
vt -1.576168 -1.347310
vt -0.752052 -0.578930
vt -0.576168 -0.347310
vt -0.783302 -0.506761
vt -1.308492 -1.237477
vt -1.164142 -1.030132
vt -1.339742 -1.165308
vt 0.169132 -0.938524
vt 0.058653 -0.359722
vt 0.053199 -0.784344
vt 0.000000 -0.521388
vt 0.059073 -0.677990
vt 0.052487 -0.253904
vt 0.053199 -0.784344
vt 0.015385 -0.520716
vt 0.000000 -0.521388
vt 2.500000 5.000000
vt -2.500002 7.999997
vt 0.687500 2.874999
vt -0.902342 -3.738284
vt -0.187498 -3.500002
vt -0.097654 -3.738283
vt 0.625001 6.999999
vt 2.250001 5.499997
vt 2.750002 6.999997
vt -2.000000 -3.000001
vt -3.500000 -6.000002
vt -2.000000 -6.000001
vt 2.750001 0.749997
vt 2.250001 -0.250003
vt 2.625001 -1.500003
vt 0.678370 -0.075582
vt 0.832000 -0.910194
vt 0.831700 -0.182698
vt 0.831700 -0.182698
vt 0.947508 -0.746118
vt 0.940923 -0.322013
vt 0.167993 -0.089824
vt 0.321621 -0.924427
vt 0.325092 -0.014904
vt 0.325092 -0.014904
vt 0.497632 -0.985110
vt 0.502360 -0.014904
vt 0.502360 -0.014904
vt 0.674899 -0.985112
vt 0.678370 -0.075582
vt 1.499999 2.875001
vt -0.312501 2.875000
vt 0.000000 -1.250000
vt 0.326414 -1.000000
vt 0.167493 -0.211082
vt 0.169132 -0.938524
vt 0.503662 -0.984842
vt 0.320520 -0.090868
vt 0.326414 -1.000000
vt 0.679490 -0.909121
vt 0.496350 -0.015151
vt 0.503662 -0.984842
vt 0.832515 -0.788908
vt 0.673597 -0.000000
vt 0.679490 -0.909121
vt 0.941351 -0.640274
vt 0.830877 -0.061485
vt 0.832515 -0.788908
vt 0.984615 -0.479286
vt 0.946807 -0.215676
vt 0.941351 -0.640274
vt 0.940923 -0.322013
vt 1.000000 -0.478643
vt 0.984615 -0.479286
vt -2.249997 -7.312503
vt -0.097654 -3.738283
vt 1.250002 -7.312500
vt 0.052487 -0.253904
vt 0.059073 -0.677990
vt 0.168294 -0.817307
vt -0.010341 0.531640
vt 0.165258 0.666817
vt 0.134008 0.738985
vt 1.646112 1.267177
vt 1.853245 1.426629
vt 1.821995 1.498798
vt 0.811818 0.394739
vt 1.018952 0.554190
vt 0.987702 0.626359
vt 0.101642 -0.691556
vt 0.277242 -0.556380
vt 0.245992 -0.484211
vt 1.336686 -0.391418
vt 1.520032 -0.177031
vt 2.213008 -0.237591
vt 1.520032 -0.177031
vt 1.750953 -0.072515
vt 2.213008 -0.237591
vt 1.750953 -0.072515
vt 1.994294 -0.093781
vt 2.213008 -0.237591
vt 2.213008 -0.237591
vt 2.373798 -0.482052
vt 2.452185 -0.789947
vt 2.452185 -0.789947
vt 2.436235 -1.114400
vt 2.328378 -1.406019
vt 2.328378 -1.406019
vt 2.145032 -1.620405
vt 1.914111 -1.724921
vt 1.914111 -1.724921
vt 1.670770 -1.703655
vt 2.328378 -1.406019
vt 1.670770 -1.703655
vt 1.452056 -1.559845
vt 2.328378 -1.406019
vt 1.452056 -1.559845
vt 1.291266 -1.315385
vt 1.212879 -1.007490
vt 1.212879 -1.007490
vt 1.228829 -0.683036
vt 1.336686 -0.391418
vt 2.213008 -0.237591
vt 2.452185 -0.789947
vt 2.328378 -1.406019
vt 1.452056 -1.559845
vt 1.212879 -1.007490
vt 1.336686 -0.391418
vt 1.336686 -0.391418
vt 2.213008 -0.237591
vt 1.452056 -1.559845
vt 0.553695 -0.448711
vt 0.545201 -0.615666
vt 0.706862 -0.984026
vt 0.545201 -0.615666
vt 0.571327 -0.776026
vt 0.706862 -0.984026
vt 0.571327 -0.776026
vt 0.628095 -0.905377
vt 0.706862 -0.984026
vt 0.706862 -0.984026
vt 0.795638 -1.000000
vt 0.880906 -0.950867
vt 0.880906 -0.950867
vt 0.949686 -0.844106
vt 0.991506 -0.695972
vt 0.991506 -0.695972
vt 1.000000 -0.529016
vt 0.973874 -0.368655
vt 0.973874 -0.368655
vt 0.917107 -0.239304
vt 0.991506 -0.695972
vt 0.917107 -0.239304
vt 0.838339 -0.160655
vt 0.991506 -0.695972
vt 0.838339 -0.160655
vt 0.749564 -0.144681
vt 0.664294 -0.193816
vt 0.664294 -0.193816
vt 0.595515 -0.300576
vt 0.553695 -0.448711
vt 0.706862 -0.984026
vt 0.880906 -0.950867
vt 0.553695 -0.448711
vt 0.880906 -0.950867
vt 0.991506 -0.695972
vt 0.553695 -0.448711
vt 0.838339 -0.160655
vt 0.664294 -0.193816
vt 0.553695 -0.448711
vt 0.404473 -0.275485
vt 0.390370 -0.020136
vt 0.251198 -0.056138
vt 0.543642 -0.239484
vt 0.531187 -0.000000
vt 0.390370 -0.020136
vt 0.664294 -0.193816
vt 0.656779 -0.001920
vt 0.531187 -0.000000
vt 0.749564 -0.144681
vt 0.750280 -0.032087
vt 0.656779 -0.001920
vt 0.782591 -0.098252
vt 0.794826 -0.096683
vt 0.750280 -0.032087
vt 0.746504 -0.060717
vt 0.755369 -0.172089
vt 0.794826 -0.096683
vt 0.658459 -0.033885
vt 0.664918 -0.225930
vt 0.755369 -0.172089
vt 0.535618 -0.019567
vt 0.540632 -0.260014
vt 0.664918 -0.225930
vt 0.395138 -0.019572
vt 0.399670 -0.276152
vt 0.540632 -0.260014
vt 0.254178 -0.035708
vt 0.259189 -0.276152
vt 0.399670 -0.276152
vt 0.129896 -0.069785
vt 0.136349 -0.261824
vt 0.259189 -0.276152
vt 0.039450 -0.123615
vt 0.048308 -0.234978
vt 0.136349 -0.261824
vt 0.000000 -0.199005
vt 0.012224 -0.197425
vt 0.048308 -0.234978
vt 0.044552 -0.263580
vt 0.045256 -0.150973
vt 0.012224 -0.197425
vt 0.138060 -0.293724
vt 0.130537 -0.101813
vt 0.045256 -0.150973
vt 0.263657 -0.295629
vt 0.251198 -0.056138
vt 0.130537 -0.101813
vt 2.060379 1.586081
vt 1.853245 1.426629
vt 1.821995 1.498798
vt -4.000000 5.000000
vt -4.000000 10.744680
vt -3.750000 10.744680
vt 3.250000 5.000000
vt 3.250000 10.744680
vt 3.500000 10.744680
vt 0.811818 0.394739
vt 0.604685 0.235287
vt 0.573435 0.307456
vt -0.337784 -0.260027
vt -0.544918 -0.419478
vt -0.576168 -0.347309
vt 1.265271 0.743807
vt 1.089672 0.608630
vt 1.058422 0.680799
vt 1.499805 1.154551
vt 1.675405 1.289727
vt 1.644155 1.361896
vt -4.000000 5.750000
vt -4.000000 -0.000000
vt -3.750000 -0.000000
vt -1.500000 -0.000000
vt -1.500000 5.750000
vt -1.250000 5.750000
vt 0.575392 0.212737
vt 0.399793 0.077561
vt 0.368543 0.149730
vt -0.722758 -0.556380
vt -0.898358 -0.691556
vt -0.929608 -0.619388
vt 4.249996 11.750000
vt 4.249996 1.499999
vt 4.499996 1.499999
vt -2.999998 11.750000
vt -2.999998 1.499999
vt -2.749998 1.499999
vt -0.132892 -0.102300
vt -0.308491 -0.237477
vt -0.339741 -0.165308
vt -1.544918 -1.419478
vt -1.752052 -1.578930
vt -1.783302 -1.506761
vt 4.249996 -1.000000
vt 4.249996 10.750001
vt 4.499996 10.750001
vt 4.249996 11.750000
vt 4.249996 -0.000001
vt 4.499996 -0.000001
vt -1.544918 -1.419478
vt -1.337785 -1.260027
vt -1.369035 -1.187858
vt -0.752052 -0.578930
vt -0.544918 -0.419478
vt -0.576168 -0.347310
vt -1.308492 -1.237477
vt -1.132892 -1.102300
vt -1.164142 -1.030132
vt 0.169132 -0.938524
vt 0.167493 -0.211082
vt 0.058653 -0.359722
vt 0.000000 -0.521388
vt 0.015385 -0.520716
vt 0.059073 -0.677990
vt 0.053199 -0.784344
vt 0.058653 -0.359722
vt 0.015385 -0.520716
vt 0.687500 2.874999
vt 2.500000 2.875001
vt 2.500000 5.000000
vt 2.500000 5.000000
vt 3.999999 5.000002
vt 3.999999 8.000003
vt 3.999999 8.000003
vt -2.500002 7.999997
vt 2.500000 5.000000
vt -2.500002 7.999997
vt -2.500001 2.874996
vt 0.687500 2.874999
vt -0.902342 -3.738284
vt -0.812498 -3.500003
vt -0.187498 -3.500002
vt 0.625001 6.999999
vt 0.125001 7.000000
vt 0.625001 5.499999
vt 0.125001 7.000000
vt 0.125001 4.499999
vt 0.625001 5.499999
vt 2.250001 5.499997
vt 2.750001 4.499997
vt 2.750002 6.999997
vt 0.625001 6.999999
vt 0.625001 5.499999
vt 2.250001 5.499997
vt -2.000000 -3.000001
vt -3.500000 -3.000002
vt -3.500000 -6.000002
vt 0.125001 4.499999
vt 0.125001 7.000000
vt -0.124999 5.749999
vt 0.125001 7.000000
vt -0.124999 7.000000
vt -0.124999 5.749999
vt 0.125000 0.749999
vt 0.125001 4.499999
vt -0.375000 5.250000
vt 0.125001 4.499999
vt -0.124999 5.749999
vt -0.375000 5.250000
vt 0.125000 0.749999
vt -0.375000 5.250000
vt -2.000000 0.500000
vt -0.375000 5.250000
vt -1.625000 5.250000
vt -2.000000 0.500000
vt -1.875000 5.750001
vt -1.875000 7.000001
vt -3.500000 7.000002
vt -1.625000 5.250000
vt -1.875000 5.750001
vt -3.500000 0.500001
vt -2.000000 0.500000
vt -1.625000 5.250000
vt -3.500000 0.500001
vt -1.875000 5.750001
vt -3.500000 7.000002
vt -3.500000 0.500001
vt -2.000000 0.500000
vt -2.000000 -1.499999
vt 0.125000 0.749999
vt -2.000000 -1.499999
vt 2.625001 -1.500003
vt 0.625000 -0.250001
vt 2.625001 -1.500003
vt 2.625001 -3.000003
vt 3.000001 -3.000003
vt 3.000001 -3.000003
vt 4.000002 -3.000005
vt 3.250001 -1.250004
vt 4.000002 -3.000005
vt 4.000002 -1.250005
vt 3.250001 -1.250004
vt 2.625001 -1.500003
vt 3.000001 -3.000003
vt 3.250001 -1.250004
vt 3.250002 6.249996
vt 4.000002 6.249995
vt 4.000002 6.999996
vt 2.625001 -1.500003
vt 3.250001 -1.250004
vt 2.750001 0.749997
vt 3.250001 -1.250004
vt 3.250002 6.249996
vt 2.750001 0.749997
vt 0.625000 -0.250001
vt 0.125000 0.749999
vt -2.000000 -1.499999
vt 3.250002 6.249996
vt 4.000002 6.999996
vt 2.750002 6.999997
vt 3.250002 6.249996
vt 2.750002 6.999997
vt 2.750001 4.499997
vt 2.250001 -0.250003
vt 0.625000 -0.250001
vt 2.625001 -1.500003
vt 3.250002 6.249996
vt 2.750001 4.499997
vt 2.750001 0.749997
vt 0.678370 -0.075582
vt 0.674899 -0.985112
vt 0.832000 -0.910194
vt 0.831700 -0.182698
vt 0.832000 -0.910194
vt 0.947508 -0.746118
vt 0.167993 -0.089824
vt 0.168294 -0.817307
vt 0.321621 -0.924427
vt 0.325092 -0.014904
vt 0.321621 -0.924427
vt 0.497632 -0.985110
vt 0.502360 -0.014904
vt 0.497632 -0.985110
vt 0.674899 -0.985112
vt -0.312501 2.875000
vt -3.500001 2.874996
vt -3.500000 -1.250003
vt 0.000000 -1.250000
vt 0.000002 -7.000000
vt 1.500002 -6.999999
vt -0.312501 2.875000
vt -3.500000 -1.250003
vt 0.000000 -1.250000
vt 1.500002 -6.999999
vt 1.499999 2.875001
vt 0.000000 -1.250000
vt 0.326414 -1.000000
vt 0.320520 -0.090868
vt 0.167493 -0.211082
vt 0.503662 -0.984842
vt 0.496350 -0.015151
vt 0.320520 -0.090868
vt 0.679490 -0.909121
vt 0.673597 -0.000000
vt 0.496350 -0.015151
vt 0.832515 -0.788908
vt 0.830877 -0.061485
vt 0.673597 -0.000000
vt 0.941351 -0.640274
vt 0.946807 -0.215676
vt 0.830877 -0.061485
vt 0.984615 -0.479286
vt 1.000000 -0.478643
vt 0.946807 -0.215676
vt 0.940923 -0.322013
vt 0.947508 -0.746118
vt 1.000000 -0.478643
vt -2.249997 -7.312503
vt -0.902342 -3.738284
vt -0.097654 -3.738283
vt -0.000001 0.999998
vt -1.000000 0.000000
vt 0.000000 0.000000
vt -1.000000 0.169504
vt -0.999999 0.017998
vt -0.000001 0.169504
vt 0.000000 1.000000
vt -1.000000 0.000000
vt 0.000000 0.000000
vt 2.000000 11.000000
vt 1.000000 10.000000
vt 2.000000 10.000000
vt 1.000000 11.000000
vt 0.000000 10.000000
vt 1.000000 10.000000
vt -3.000000 15.000000
vt -4.000000 14.000000
vt -3.000000 14.000000
vt 0.000000 12.000000
vt -1.000000 11.000000
vt 0.000000 11.000000
vt -1.000000 14.000000
vt -2.000000 13.000000
vt -1.000000 13.000000
vt 0.000000 1.000000
vt -1.000000 0.000000
vt 0.000000 0.000000
vt -2.000000 14.000000
vt -3.000000 13.000000
vt -2.000000 13.000000
vt 1.971976 1.000000
vt 0.971976 -0.000000
vt 1.971976 -0.000000
vt -2.028024 5.000000
vt -3.028024 4.000000
vt -2.028024 4.000000
vt -0.028024 2.000000
vt -0.028024 1.000000
vt 0.471976 1.000000
vt -0.028024 3.000000
vt -1.028024 2.000000
vt -0.028024 2.000000
vt -1.028024 3.000000
vt -2.028024 2.000000
vt -1.028024 2.000001
vt -0.000001 0.999998
vt -1.000000 1.000000
vt -1.000000 0.000000
vt -1.000000 0.169504
vt -1.000000 0.000000
vt -0.999999 0.017998
vt -0.999999 0.017998
vt -0.000000 0.018000
vt -0.000001 0.169504
vt 0.000000 1.000000
vt -1.000000 1.000000
vt -1.000000 0.000000
vt 2.000000 11.000000
vt 1.000000 11.000000
vt 1.000000 10.000000
vt 1.000000 11.000000
vt 0.000000 11.000000
vt 0.000000 10.000000
vt -3.000000 15.000000
vt -4.000000 15.000000
vt -4.000000 14.000000
vt 0.000000 12.000000
vt -1.000000 12.000000
vt -1.000000 11.000000
vt -1.000000 14.000000
vt -2.000000 14.000000
vt -2.000000 13.000000
vt 0.000000 1.000000
vt -1.000000 1.000000
vt -1.000000 0.000000
vt -2.000000 14.000000
vt -3.000000 14.000000
vt -3.000000 13.000000
vt 1.971976 1.000000
vt 0.971976 1.000000
vt 0.971976 -0.000000
vt -2.028024 5.000000
vt -3.028024 5.000000
vt -3.028024 4.000000
vt 0.471976 1.000000
vt 0.971976 1.000000
vt 0.971976 2.000000
vt 0.971976 2.000000
vt -0.028024 2.000000
vt 0.471976 1.000000
vt -0.028024 3.000000
vt -1.028024 3.000000
vt -1.028024 2.000000
vt -1.028024 3.000000
vt -2.028024 3.000000
vt -2.028024 2.000000
vt -1.200000 -3.500000
vt -1.200000 -3.000000
vt 2.800000 -4.200000
vt -3.000000 -5.000000
vt 3.500000 2.500000
vt 3.500000 -5.000000
vt 3.600000 -6.850000
vt 0.156250 -3.990625
vt 1.443750 -3.990624
vt 0.300000 -3.800000
vt 1.443750 -3.990624
vt 0.156250 -3.990625
vt -1.200000 -3.000000
vt -1.200000 1.800000
vt 2.800000 1.800001
vt 2.800000 1.800001
vt 2.800000 -4.200000
vt -1.200000 -3.000000
vt 2.800000 -4.200000
vt -1.200000 -4.200000
vt -1.200000 -3.500000
vt -3.000000 -5.000000
vt -3.000000 2.500000
vt 3.500000 2.500000
vt 3.600000 -6.850000
vt -2.000000 -6.850000
vt 0.156250 -3.990625
vt 0.300000 -3.800000
vt 1.300000 -3.799999
vt 1.443750 -3.990624
vt 0.840000 1.000000
vt -0.560000 -1.000000
vt 0.840000 -1.000000
vt 7.542205 1.184000
vt 0.225806 -1.000000
vt 7.542205 -1.000000
vt 5.576608 1.184000
vt 0.225806 -1.000000
vt 5.576608 -1.000000
vt 0.840000 1.000000
vt -0.560000 1.000000
vt -0.560000 -1.000000
vt 7.542205 1.184000
vt 0.225806 1.184000
vt 0.225806 -1.000000
vt 5.576608 1.184000
vt 0.225806 1.184000
vt 0.225806 -1.000000
vt 1.765625 -2.875001
vt 1.875000 -0.875001
vt 1.875000 -2.875001
vt -0.937499 -3.531251
vt -0.187499 -3.750000
vt -0.187499 -3.531250
vt 1.765625 -2.875001
vt 1.875000 -0.875001
vt 1.765625 -0.875001
vt -0.556002 0.220388
vt -0.320046 0.318772
vt -0.520355 0.107700
vt -0.108894 0.560491
vt 0.127062 0.658874
vt -0.073247 0.447803
vt -1.277581 -0.585786
vt -1.035720 -0.454235
vt -1.245875 -0.694558
vt -1.840689 -1.147001
vt -1.676028 -0.823242
vt -1.640381 -0.935930
vt 1.548005 1.925471
vt 1.306145 1.793919
vt 1.337850 1.685147
vt 0.306794 1.021112
vt 0.070839 0.922728
vt 0.106486 0.810040
vt -0.949984 -0.932589
vt -1.191845 -1.064140
vt -1.160139 -1.172912
vt -1.496295 -0.461004
vt -1.660956 -0.784764
vt -1.460648 -0.573692
vt 1.220412 2.272274
vt 1.462273 2.403826
vt 1.252118 2.163502
vt 1.239586 1.824656
vt 1.475542 1.923039
vt 1.275234 1.711967
vt -1.659203 -0.869400
vt -1.837651 -1.218495
vt -1.627497 -0.978172
vt -0.499780 -0.043468
vt -0.735736 -0.141851
vt -0.700088 -0.254539
vt 0.869288 1.879423
vt 0.627427 1.747873
vt 0.659133 1.639101
vt 1.795810 2.560800
vt 1.559855 2.462416
vt 1.595502 2.349728
vt -1.751914 -1.696851
vt -1.573465 -1.347756
vt -1.541759 -1.456528
vt 0.713161 1.269518
vt 0.955021 1.401069
vt 0.744867 1.160746
vt 2.145034 -3.430599
vt 2.373801 -1.723071
vt 1.520035 -1.265540
vt 0.187500 0.875000
vt 0.937500 2.875000
vt 0.187500 2.875000
vt 1.765625 -2.875001
vt 1.765625 -0.875001
vt 1.875000 -0.875001
vt -0.937499 -3.531251
vt -0.937499 -3.750001
vt -0.187499 -3.750000
vt 1.765625 -2.875001
vt 1.875000 -2.875001
vt 1.875000 -0.875001
vt -0.556002 0.220388
vt -0.355694 0.431460
vt -0.320046 0.318772
vt -0.108894 0.560491
vt 0.091414 0.771562
vt 0.127062 0.658874
vt -1.277581 -0.585786
vt -1.067426 -0.345463
vt -1.035720 -0.454235
vt -1.840689 -1.147001
vt -1.876336 -1.034313
vt -1.676028 -0.823242
vt 1.548005 1.925471
vt 1.516299 2.034243
vt 1.306145 1.793919
vt 0.306794 1.021112
vt 0.271147 1.133800
vt 0.070839 0.922728
vt -0.949984 -0.932589
vt -0.981690 -0.823817
vt -1.191845 -1.064140
vt -1.496295 -0.461004
vt -1.696603 -0.672076
vt -1.660956 -0.784764
vt 1.220412 2.272274
vt 1.430567 2.512598
vt 1.462273 2.403826
vt 1.239586 1.824656
vt 1.439895 2.035727
vt 1.475542 1.923039
vt -1.659203 -0.869400
vt -1.869357 -1.109724
vt -1.837651 -1.218495
vt -0.499780 -0.043468
vt -0.535427 0.069221
vt -0.735736 -0.141851
vt 0.869288 1.879423
vt 0.837582 1.988195
vt 0.627427 1.747873
vt 1.795810 2.560800
vt 1.760163 2.673488
vt 1.559855 2.462416
vt -1.751914 -1.696851
vt -1.783620 -1.588079
vt -1.573465 -1.347756
vt 0.713161 1.269518
vt 0.923315 1.509841
vt 0.955021 1.401069
vt 1.520035 -1.265540
vt 1.336689 -1.587119
vt 1.228831 -2.024546
vt 1.228831 -2.024546
vt 1.212881 -2.511226
vt 1.520035 -1.265540
vt 1.212881 -2.511226
vt 1.291268 -2.973068
vt 1.520035 -1.265540
vt 1.291268 -2.973068
vt 1.452058 -3.339759
vt 1.670772 -3.555473
vt 1.670772 -3.555473
vt 1.914113 -3.587372
vt 2.145034 -3.430599
vt 2.145034 -3.430599
vt 2.328380 -3.109020
vt 2.436238 -2.671592
vt 2.436238 -2.671592
vt 2.452188 -2.184912
vt 2.145034 -3.430599
vt 2.452188 -2.184912
vt 2.373801 -1.723071
vt 2.145034 -3.430599
vt 2.373801 -1.723071
vt 2.213011 -1.356380
vt 1.520035 -1.265540
vt 2.213011 -1.356380
vt 1.994298 -1.140665
vt 1.520035 -1.265540
vt 1.994298 -1.140665
vt 1.750957 -1.108766
vt 1.520035 -1.265540
vt 1.291268 -2.973068
vt 1.670772 -3.555473
vt 1.520035 -1.265540
vt 1.670772 -3.555473
vt 2.145034 -3.430599
vt 1.520035 -1.265540
vt 0.187500 0.875000
vt 0.937500 0.875000
vt 0.937500 2.875000
vt 3.250000 3.500000
vt 2.875000 3.750000
vt 2.875000 3.500000
vt 3.500000 -0.875001
vt 3.531250 -2.875001
vt 3.531250 -0.875001
vt -0.374998 -3.500000
vt -1.874998 -3.531251
vt -0.374998 -3.531250
vt 3.500000 -2.875001
vt 3.531250 -0.875001
vt 3.531250 -2.875001
vt 3.250000 3.500000
vt 2.875000 3.750000
vt 3.250000 4.000000
vt 0.375000 3.922965
vt 1.875000 3.472270
vt 1.875000 3.922965
vt 3.250000 3.500000
vt 3.250000 4.000000
vt 2.875000 3.750000
vt 3.500000 -0.875001
vt 3.500000 -2.875001
vt 3.531250 -2.875001
vt -0.374998 -3.500000
vt -1.874998 -3.500001
vt -1.874998 -3.531251
vt 3.500000 -2.875001
vt 3.500000 -0.875001
vt 3.531250 -0.875001
vt 3.250000 3.500000
vt 2.875000 3.500000
vt 2.875000 3.750000
vt 0.375000 3.922965
vt 0.375000 3.472270
vt 1.875000 3.472270
vt -1.142873 2.000000
vt -1.142873 3.000000
vt -6.857145 3.000000
vt 10.500002 -0.750000
vt -7.999998 -1.000001
vt 10.500002 -1.500000
vt 0.000001 -1.624999
vt 2.999997 2.125001
vt -0.000003 2.125000
vt 1.225807 0.804174
vt 1.225806 -0.620174
vt 9.202152 0.804174
vt -13.999994 -4.500002
vt 0.000004 -1.625000
vt -14.000000 -1.625001
vt -8.000000 2.285715
vt -6.857145 2.000000
vt -6.857145 3.000000
vt -6.857145 2.000000
vt -1.142873 2.000000
vt -6.857145 3.000000
vt -1.142873 2.000000
vt -0.000017 2.285714
vt -1.142873 3.000000
vt -0.000017 2.285714
vt -0.000017 3.000000
vt -1.142873 3.000000
vt -8.000000 3.000000
vt -8.000000 2.285715
vt -6.857145 3.000000
vt -7.999998 -0.750001
vt -7.999998 -1.000001
vt 10.500002 -0.750000
vt -7.999998 -1.000001
vt -7.999998 -1.500001
vt 10.500002 -1.500000
vt -0.999999 -0.624999
vt 2.000000 -0.624999
vt 1.999997 3.125001
vt 1.225806 -0.620174
vt 2.745111 -1.000000
vt 7.682848 -1.000000
vt 7.682848 -1.000000
vt 9.202152 -0.620174
vt 1.225806 -0.620174
vt 9.202152 -0.620174
vt 9.202152 0.804174
vt 1.225806 -0.620174
vt 9.202152 0.804174
vt 7.682848 1.184000
vt 2.745111 1.184000
vt 2.745111 1.184000
vt 1.225807 0.804174
vt 9.202152 0.804174
vt -13.999994 -4.500002
vt 0.000009 -4.500000
vt 0.000004 -1.625000
vt 0.000000 -0.000000
vt 1.000000 -1.000000
vt 1.000000 -0.000000
vt 0.000000 -0.000000
vt 0.000000 -1.000000
vt 1.000000 -1.000000
vt 0.000000 -0.000000
vt 1.000000 -1.000000
vt 1.000000 -0.000000
vt 0.000000 -0.000000
vt 0.000000 -1.000000
vt 1.000000 -1.000000
vt 1.000000 2.000000
vt 0.000000 1.000000
vt 1.000000 1.000000
vt 1.000000 2.000000
vt 0.000000 2.000000
vt 0.000000 1.000000
vt 0.000000 -0.000000
vt 1.000000 -1.000000
vt 0.000000 -1.000000
vt 1.000000 -0.000000
vt 0.000000 -1.000000
vt 1.000000 -1.000000
vt -1.000000 1.000000
vt -2.000000 0.000000
vt -2.000000 1.000000
vt 1.000000 1.000000
vt 2.000000 0.000000
vt 2.000000 1.000000
vt 0.000000 -0.000000
vt 1.000000 -0.000000
vt 1.000000 -1.000000
vt 1.000000 -0.000000
vt 0.000000 -0.000000
vt 0.000000 -1.000000
vt -1.000000 1.000000
vt -1.000000 0.000000
vt -2.000000 0.000000
vt 1.000000 1.000000
vt 1.000000 0.000000
vt 2.000000 0.000000
vt 0.000000 -0.000000
vt 1.000000 -1.000000
vt 1.000000 -0.000000
vt 0.000000 -0.000000
vt 0.000000 -1.000000
vt 1.000000 -1.000000
vt 0.855469 0.938087
vt 0.060547 0.940819
vt 0.060547 0.458976
vt 1.052734 0.024414
vt 0.052734 0.024414
vt 0.060547 0.458976
vt 0.060547 0.458976
vt 0.052734 0.024414
vt 1.052734 0.024414
vt 1.052734 0.024414
vt 0.855469 0.938087
vt 0.060547 0.458976
vt 0.060547 0.458976
vt 0.060547 0.940819
vt 0.855469 0.938087
vt 0.855469 0.938087
vt 1.052734 0.024414
vt 0.060547 0.458976
vn -1.0000 0.0000 0.0000
vn 0.0000 0.0000 1.0000
vn -0.0000 -0.0000 -1.0000
vn 0.7984 0.0000 0.6021
vn 1.0000 -0.0000 0.0000
vn 0.8673 -0.3888 -0.3108
vn 0.0000 -1.0000 0.0000
vn 0.0000 1.0000 -0.0000
vn -0.7984 0.0000 0.6021
vn 0.2789 -0.0000 0.9603
vn -0.3827 0.0000 -0.9239
vn -0.7071 0.0000 -0.7071
vn -0.9239 0.0000 0.3827
vn -0.7071 -0.0000 0.7071
vn -0.9239 0.0000 -0.3827
vn -0.3827 -0.0000 0.9239
vn 0.9239 0.0000 -0.3827
vn 0.9239 0.0000 0.3827
vn 0.7071 0.0000 0.7071
vn 0.3827 0.0000 0.9239
vn 0.3827 0.0000 -0.9239
vn 0.7071 0.0000 -0.7071
vn -0.2898 0.9571 0.0000
vn -0.5547 0.8321 0.0000
vc 1.0000 1.0000 1.0000 1.0000
vc 0.0000 0.0000 0.0000 1.0000
vc 0.0902 0.0902 0.0902 1.0000
g mesh_122_Collection_materials/gerudomark.vmat.005#NoCollision
usemtl materials/gerudomark.vmat.005
f 8/1/1 7/2/1 6/3/1
fc 1 1 1
f 509/4/2 507/5/2 510/6/2
fc 1 1 1
f 3/7/1 4/8/1 2/9/1
fc 1 1 1
f 516/10/1 230/11/1 236/12/1
fc 1 1 1
f 10/13/2 12/14/2 11/15/2
fc 1 1 1
f 8/16/1 5/17/1 7/18/1
fc 1 1 1
f 509/19/2 508/20/2 507/21/2
fc 1 1 1
f 3/22/1 1/23/1 4/24/1
fc 1 1 1
f 516/25/1 520/26/1 230/27/1
fc 1 1 1
f 10/28/2 9/29/2 12/30/2
fc 1 1 1
g mesh_122_Collection_materials/lonlonwall.vmat.002#NoCollision
usemtl materials/lonlonwall.vmat.002
f 58/31/3 129/32/3 74/33/3
fc 1 1 1
f 53/34/4 559/35/4 558/36/4
fc 1 2 2
f 360/37/3 28/38/3 317/39/3
fc 1 1 1
f 422/40/1 343/41/1 348/42/1
fc 1 1 1
f 42/43/2 265/44/2 316/45/2
fc 1 1 1
f 366/46/5 240/47/5 465/48/5
fc 1 1 1
f 18/49/3 32/50/3 381/51/3
fc 1 1 1
f 99/52/2 85/53/2 105/54/2
fc 1 1 1
f 108/55/2 38/56/2 109/57/6
fc 1 1 1
f 38/58/2 50/59/2 37/60/2
fc 1 1 1
f 113/61/2 98/62/2 80/63/2
fc 1 1 1
f 115/64/2 80/65/2 68/66/2
fc 1 1 1
f 116/67/2 68/68/2 104/69/2
fc 1 1 1
f 127/70/2 130/71/2 62/72/2
fc 1 1 1
f 125/73/2 132/74/2 130/75/2
fc 1 1 1
f 123/76/2 134/77/2 132/78/2
fc 1 1 1
f 121/79/2 136/80/2 134/81/2
fc 1 1 1
f 118/82/2 73/83/2 92/84/2
fc 1 1 1
f 425/85/5 15/86/5 181/87/5
fc 1 1 1
f 552/88/5 519/89/5 523/90/5
fc 2 3 2
f 554/91/7 519/92/7 553/93/7
fc 2 3 2
f 33/94/3 97/95/3 102/96/3
fc 1 1 1
f 276/97/3 270/98/3 274/99/3
fc 1 1 1
f 269/100/2 275/101/2 16/102/2
fc 1 1 1
f 16/103/7 274/104/7 270/105/7
fc 1 1 1
f 274/106/5 275/107/5 261/108/5
fc 1 1 1
f 425/109/2 348/110/2 345/111/2
fc 1 1 1
f 69/112/1 422/113/1 164/114/1
fc 1 1 1
f 232/115/3 315/116/3 181/117/3
fc 1 1 1
f 363/118/3 362/119/3 361/120/3
fc 2 2 2
f 404/121/1 386/122/1 410/123/1
fc 1 1 1
f 392/124/1 389/125/1 376/126/1
fc 1 1 1
f 410/127/1 416/128/1 52/129/1
fc 1 1 1
f 404/130/1 351/131/1 418/132/1
fc 1 1 1
f 13/133/1 341/134/1 270/135/1
fc 1 1 1
f 523/136/3 518/137/3 522/138/3
fc 2 2 2
f 555/139/8 232/140/8 552/141/8
fc 2 1 2
f 555/142/1 518/143/1 554/144/1
fc 2 2 2
f 58/145/5 552/146/5 232/147/5
fc 1 2 1
f 74/148/7 553/149/7 58/150/7
fc 1 2 1
f 330/151/1 554/152/1 74/153/1
fc 1 2 1
f 555/154/8 523/155/8 522/156/8
fc 2 2 2
f 363/157/9 557/158/9 357/159/9
fc 2 2 2
f 54/160/9 556/161/9 367/162/9
fc 1 2 1
f 558/163/4 361/164/4 362/165/4
fc 2 2 2
f 58/166/3 229/167/3 129/168/3
fc 1 1 1
f 53/169/4 317/170/4 559/171/4
fc 1 1 2
f 498/172/3 67/173/3 360/174/3
fc 1 1 1
f 28/175/3 79/176/3 367/177/3
fc 1 1 1
f 79/178/3 54/179/3 367/180/3
fc 1 1 1
f 84/181/3 498/182/3 317/183/3
fc 1 1 1
f 498/184/3 360/185/3 317/186/3
fc 1 1 1
f 317/187/3 53/188/3 84/189/3
fc 1 1 1
f 28/190/3 367/191/3 317/192/3
fc 1 1 1
f 348/193/1 164/194/1 422/195/1
fc 1 1 1
f 422/196/1 315/197/1 343/198/1
fc 1 1 1
f 42/199/2 261/200/2 265/201/2
fc 1 1 1
f 240/202/5 360/203/5 465/204/5
fc 1 1 1
f 360/205/5 67/206/5 137/207/5
fc 1 1 1
f 360/208/5 137/209/5 465/210/5
fc 1 1 1
f 51/211/5 366/212/5 465/213/5
fc 1 1 1
f 18/214/3 341/215/3 32/216/3
fc 1 1 1
f 464/217/2 164/218/2 105/219/2
fc 1 1 1
f 164/220/2 91/221/2 99/222/2
fc 1 1 1
f 105/223/2 164/224/2 99/225/2
fc 1 1 1
f 33/226/2 107/227/2 109/228/6
fc 1 1 1
f 107/229/2 108/230/2 109/231/6
fc 1 1 1
f 38/232/2 110/233/10 109/234/6
fc 1 1 1
f 111/235/2 110/236/10 37/237/2
fc 1 1 1
f 110/238/10 38/239/2 37/240/2
fc 1 1 1
f 113/241/2 112/242/2 98/243/2
fc 1 1 1
f 115/244/2 114/245/2 80/246/2
fc 1 1 1
f 104/247/2 73/248/2 117/249/2
fc 1 1 1
f 117/250/2 116/251/2 104/252/2
fc 1 1 1
f 127/253/2 126/254/2 130/255/2
fc 1 1 1
f 125/256/2 124/257/2 132/258/2
fc 1 1 1
f 123/259/2 122/260/2 134/261/2
fc 1 1 1
f 121/262/2 120/263/2 136/264/2
fc 1 1 1
f 92/265/2 136/266/2 88/267/2
fc 1 1 1
f 88/268/2 118/269/2 92/270/2
fc 1 1 1
f 425/271/5 345/272/5 15/273/5
fc 1 1 1
f 552/274/5 553/275/5 519/276/5
fc 2 2 3
f 554/277/7 518/278/7 519/279/7
fc 2 2 3
f 102/280/3 381/281/3 69/282/3
fc 1 1 1
f 69/283/3 33/284/3 102/285/3
fc 1 1 1
f 276/286/3 14/287/3 270/288/3
fc 1 1 1
f 269/289/2 273/290/2 275/291/2
fc 1 1 1
f 16/292/7 275/293/7 274/294/7
fc 1 1 1
f 263/295/5 266/296/5 274/297/5
fc 1 1 1
f 266/298/5 276/299/5 274/300/5
fc 1 1 1
f 273/301/5 265/302/5 275/303/5
fc 1 1 1
f 265/304/5 261/305/5 275/306/5
fc 1 1 1
f 263/307/5 274/308/5 261/309/5
fc 1 1 1
f 425/310/2 164/311/2 348/312/2
fc 1 1 1
f 164/313/1 464/314/1 69/315/1
fc 1 1 1
f 464/316/1 165/317/1 69/318/1
fc 1 1 1
f 165/319/1 279/320/1 79/321/1
fc 1 1 1
f 79/322/1 28/323/1 165/324/1
fc 1 1 1
f 28/325/1 69/326/1 165/327/1
fc 1 1 1
f 74/328/3 129/329/3 343/330/3
fc 1 1 1
f 181/331/3 15/332/3 58/333/3
fc 1 1 1
f 15/334/3 229/335/3 58/336/3
fc 1 1 1
f 74/337/3 343/338/3 315/339/3
fc 1 1 1
f 330/340/3 74/341/3 315/342/3
fc 1 1 1
f 181/343/3 58/344/3 232/345/3
fc 1 1 1
f 232/346/3 330/347/3 315/348/3
fc 1 1 1
f 363/349/3 357/350/3 362/351/3
fc 2 2 2
f 404/352/1 66/353/1 386/354/1
fc 1 1 1
f 376/355/1 30/356/1 398/357/1
fc 1 1 1
f 398/358/1 392/359/1 376/360/1
fc 1 1 1
f 410/361/1 277/362/1 416/363/1
fc 1 1 1
f 404/364/1 398/365/1 351/366/1
fc 1 1 1
f 341/367/1 18/368/1 16/369/1
fc 1 1 1
f 18/370/1 269/371/1 16/372/1
fc 1 1 1
f 14/373/1 19/374/1 270/375/1
fc 1 1 1
f 19/376/1 13/377/1 270/378/1
fc 1 1 1
f 341/379/1 16/380/1 270/381/1
fc 1 1 1
f 523/382/3 519/383/3 518/384/3
fc 2 3 2
f 555/385/8 330/386/8 232/387/8
fc 2 1 1
f 555/388/1 522/389/1 518/390/1
fc 2 2 2
f 58/391/5 553/392/5 552/393/5
fc 1 2 2
f 74/394/7 554/395/7 553/396/7
fc 1 2 2
f 330/397/1 555/398/1 554/399/1
fc 1 2 2
f 555/400/8 552/401/8 523/402/8
fc 2 2 2
f 363/403/9 556/404/9 557/405/9
fc 2 2 2
f 54/406/9 557/407/9 556/408/9
fc 1 2 2
f 558/409/4 559/410/4 361/411/4
fc 2 2 2
g mesh_122_Collection_materials/mcpainting.vmat.002#NoCollision
usemtl materials/mcpainting.vmat.002
f 539/412/2 524/413/2 527/414/2
fc 1 1 1
f 539/415/2 21/416/2 524/417/2
fc 1 1 1
g mesh_122_Collection_materials/housewall.vmat.002#NoCollision
usemtl materials/housewall.vmat.002
f 332/418/5 364/419/5 354/420/5
fc 1 1 1
f 26/421/2 303/422/2 344/423/2
fc 1 1 1
f 40/424/2 353/425/2 75/426/2
fc 1 1 1
f 248/427/1 255/428/1 90/429/1
fc 1 1 1
f 133/430/2 355/431/2 87/432/2
fc 1 1 1
f 521/433/3 302/434/3 241/435/3
fc 1 1 1
f 27/436/1 60/437/1 278/438/1
fc 1 1 1
f 359/439/1 119/440/1 521/441/1
fc 1 1 1
f 378/442/1 355/443/1 346/444/1
fc 1 1 1
f 368/445/3 306/446/3 45/447/3
fc 1 1 1
f 60/448/2 40/449/2 75/450/2
fc 1 1 1
f 90/451/2 46/452/2 337/453/2
fc 1 1 1
f 304/454/5 354/455/5 383/456/5
fc 1 1 1
f 335/457/3 352/458/3 135/459/3
fc 1 1 1
f 52/460/5 23/461/5 25/462/5
fc 1 1 1
f 56/463/3 78/464/3 333/465/3
fc 1 1 1
f 300/466/5 364/467/5 135/468/5
fc 1 1 1
f 344/469/2 353/470/2 52/471/2
fc 1 1 1
f 342/472/2 328/473/2 339/474/2
fc 1 1 1
f 323/475/1 318/476/1 349/477/1
fc 1 1 1
f 311/478/3 283/479/3 365/480/3
fc 1 1 1
f 320/481/2 319/482/2 321/483/2
fc 1 1 1
f 322/484/5 288/485/5 324/486/5
fc 1 1 1
f 31/487/2 300/488/2 290/489/2
fc 1 1 1
f 47/490/7 46/491/7 45/492/7
fc 1 1 1
f 369/493/1 289/494/1 320/495/1
fc 1 1 1
f 372/496/2 308/497/2 48/498/2
fc 1 1 1
f 371/499/1 297/500/1 312/501/1
fc 1 1 1
f 291/502/3 354/503/3 384/504/3
fc 1 1 1
f 384/505/8 364/506/8 31/507/8
fc 1 1 1
f 346/508/1 358/509/1 119/510/1
fc 1 1 1
f 41/511/1 325/512/1 342/513/1
fc 1 1 1
f 234/514/1 378/515/1 359/516/1
fc 1 1 1
f 365/517/5 321/518/5 319/519/5
fc 1 1 1
f 349/520/2 324/521/2 288/522/2
fc 1 1 1
f 327/523/3 41/524/3 39/525/3
fc 1 1 1
f 304/526/2 72/527/2 93/528/2
fc 1 1 1
f 310/529/3 293/530/3 294/531/3
fc 1 1 1
f 298/532/3 47/533/3 309/534/3
fc 1 1 1
f 312/535/2 284/536/2 285/537/2
fc 1 1 1
f 296/538/1 295/539/1 372/540/1
fc 1 1 1
f 300/541/7 291/542/7 290/543/7
fc 1 1 1
f 75/544/8 286/545/8 292/546/8
fc 1 1 1
f 359/547/8 375/548/8 374/549/8
fc 1 1 1
f 375/550/3 346/551/3 370/552/3
fc 1 1 1
f 380/553/2 359/554/2 374/555/2
fc 1 1 1
f 286/556/1 344/557/1 34/558/1
fc 1 1 1
f 372/559/7 369/560/7 371/561/7
fc 1 1 1
f 370/562/7 119/563/7 380/564/7
fc 1 1 1
f 287/565/5 75/566/5 292/567/5
fc 1 1 1
f 34/568/7 303/569/7 287/570/7
fc 1 1 1
f 307/571/3 314/572/3 322/573/3
fc 1 1 1
f 342/574/8 39/575/8 41/576/8
fc 1 1 1
f 95/577/5 434/578/5 442/579/5
fc 1 1 1
f 64/580/8 440/581/8 438/582/8
fc 1 1 1
f 83/583/5 433/584/5 443/585/5
fc 1 1 1
f 77/586/5 439/587/5 426/588/5
fc 1 1 1
f 100/589/8 428/590/8 430/591/8
fc 1 1 1
f 70/592/8 423/593/8 439/594/8
fc 1 1 1
f 43/595/5 430/596/5 432/597/5
fc 1 1 1
f 94/598/8 442/599/8 427/600/8
fc 1 1 1
f 101/601/5 427/602/5 428/603/5
fc 1 1 1
f 76/604/8 426/605/8 433/606/8
fc 1 1 1
f 424/607/8 432/608/8 106/609/8
fc 1 1 1
f 89/610/5 436/611/5 431/612/5
fc 1 1 1
f 82/613/8 443/614/8 436/615/8
fc 1 1 1
f 71/616/5 438/617/5 423/618/5
fc 1 1 1
f 338/619/5 429/620/5 444/621/5
fc 1 1 1
f 435/622/8 441/623/8 429/624/8
fc 1 1 1
f 437/625/8 431/626/8 434/627/8
fc 1 1 1
f 55/628/5 106/629/5 441/630/5
fc 1 1 1
f 97/631/8 444/632/8 91/633/8
fc 1 1 1
f 406/634/8 408/635/8 405/636/8
fc 1 1 1
f 388/637/2 458/638/2 476/639/2
fc 1 1 1
f 389/640/8 388/641/8 385/642/8
fc 1 1 1
f 356/643/2 399/644/2 408/645/2
fc 1 1 1
f 402/646/2 417/647/2 334/648/2
fc 1 1 1
f 35/649/8 334/650/8 165/651/8
fc 1 1 1
f 281/652/2 385/653/2 396/654/2
fc 1 1 1
f 394/655/8 396/656/8 393/657/8
fc 1 1 1
f 472/658/2 411/659/2 313/660/2
fc 1 1 1
f 395/661/8 313/662/8 417/663/8
fc 1 1 1
f 401/664/2 393/665/2 390/666/2
fc 1 1 1
f 400/667/8 390/668/8 399/669/8
fc 1 1 1
f 413/670/2 405/671/2 183/672/2
fc 1 1 1
f 412/673/8 183/674/8 411/675/8
fc 1 1 1
f 484/676/8 176/677/8 485/678/8
fc 1 1 1
f 177/679/5 462/680/5 176/681/5
fc 1 1 1
f 440/682/5 450/683/5 473/684/5
fc 1 1 1
f 486/685/5 451/686/5 474/687/5
fc 1 1 1
f 469/688/8 467/689/8 459/690/8
fc 1 1 1
f 468/691/5 485/692/5 467/693/5
fc 1 1 1
f 450/694/8 487/695/8 473/696/8
fc 1 1 1
f 466/697/5 471/698/5 487/699/5
fc 1 1 1
f 452/700/8 448/701/8 451/702/8
fc 1 1 1
f 453/703/5 459/704/5 448/705/5
fc 1 1 1
f 475/706/8 474/707/8 471/708/8
fc 1 1 1
f 358/709/8 231/710/8 49/711/8
fc 1 1 1
f 29/712/8 26/713/8 23/714/8
fc 1 1 1
f 540/715/8 382/716/8 305/717/8
fc 1 1 1
f 332/718/5 96/719/5 364/720/5
fc 1 1 1
f 26/721/2 29/722/2 303/723/2
fc 1 1 1
f 40/724/2 63/725/2 353/726/2
fc 1 1 1
f 248/727/1 368/728/1 255/729/1
fc 1 1 1
f 133/730/2 49/731/2 355/732/2
fc 1 1 1
f 521/733/3 131/734/3 302/735/3
fc 1 1 1
f 27/736/1 57/737/1 60/738/1
fc 1 1 1
f 119/739/1 358/740/1 521/741/1
fc 1 1 1
f 521/742/1 241/743/1 359/744/1
fc 1 1 1
f 241/745/1 234/746/1 359/747/1
fc 1 1 1
f 378/748/1 301/749/1 87/750/1
fc 1 1 1
f 87/751/1 355/752/1 378/753/1
fc 1 1 1
f 355/754/1 231/755/1 346/756/1
fc 1 1 1
f 368/757/3 248/758/3 306/759/3
fc 1 1 1
f 75/760/2 303/761/2 278/762/2
fc 1 1 1
f 303/763/2 29/764/2 278/765/2
fc 1 1 1
f 278/766/2 60/767/2 75/768/2
fc 1 1 1
f 90/769/2 255/770/2 46/771/2
fc 1 1 1
f 304/772/5 93/773/5 354/774/5
fc 1 1 1
f 93/775/5 332/776/5 354/777/5
fc 1 1 1
f 300/778/5 382/779/5 383/780/5
fc 1 1 1
f 382/781/5 304/782/5 383/783/5
fc 1 1 1
f 335/784/3 305/785/3 352/786/3
fc 1 1 1
f 52/787/5 56/788/5 23/789/5
fc 1 1 1
f 333/790/3 128/791/3 23/792/3
fc 1 1 1
f 23/793/3 56/794/3 333/795/3
fc 1 1 1
f 364/796/5 96/797/5 135/798/5
fc 1 1 1
f 135/799/5 352/800/5 300/801/5
fc 1 1 1
f 352/802/5 382/803/5 300/804/5
fc 1 1 1
f 353/805/2 63/806/2 52/807/2
fc 1 1 1
f 52/808/2 25/809/2 344/810/2
fc 1 1 1
f 25/811/2 26/812/2 344/813/2
fc 1 1 1
f 342/814/2 325/815/2 328/816/2
fc 1 1 1
f 323/817/1 307/818/1 318/819/1
fc 1 1 1
f 311/820/3 369/821/3 283/822/3
fc 1 1 1
f 320/823/2 289/824/2 319/825/2
fc 1 1 1
f 322/826/5 314/827/5 288/828/5
fc 1 1 1
f 31/829/2 364/830/2 300/831/2
fc 1 1 1
f 47/832/7 48/833/7 46/834/7
fc 1 1 1
f 369/835/1 311/836/1 289/837/1
fc 1 1 1
f 372/838/2 295/839/2 308/840/2
fc 1 1 1
f 371/841/1 298/842/1 297/843/1
fc 1 1 1
f 291/844/3 383/845/3 354/846/3
fc 1 1 1
f 384/847/8 354/848/8 364/849/8
fc 1 1 1
f 346/850/1 231/851/1 358/852/1
fc 1 1 1
f 41/853/1 326/854/1 325/855/1
fc 1 1 1
f 234/856/1 301/857/1 378/858/1
fc 1 1 1
f 365/859/5 283/860/5 321/861/5
fc 1 1 1
f 349/862/2 318/863/2 324/864/2
fc 1 1 1
f 327/865/3 326/866/3 41/867/3
fc 1 1 1
f 304/868/2 267/869/2 72/870/2
fc 1 1 1
f 310/871/3 296/872/3 293/873/3
fc 1 1 1
f 298/874/3 371/875/3 47/876/3
fc 1 1 1
f 312/877/2 297/878/2 284/879/2
fc 1 1 1
f 296/880/1 310/881/1 295/882/1
fc 1 1 1
f 300/883/7 383/884/7 291/885/7
fc 1 1 1
f 75/886/8 353/887/8 286/888/8
fc 1 1 1
f 359/889/8 378/890/8 375/891/8
fc 1 1 1
f 375/892/3 378/893/3 346/894/3
fc 1 1 1
f 380/895/2 119/896/2 359/897/2
fc 1 1 1
f 286/898/1 353/899/1 344/900/1
fc 1 1 1
f 372/901/7 349/902/7 369/903/7
fc 1 1 1
f 370/904/7 346/905/7 119/906/7
fc 1 1 1
f 287/907/5 303/908/5 75/909/5
fc 1 1 1
f 34/910/7 344/911/7 303/912/7
fc 1 1 1
f 307/913/3 323/914/3 314/915/3
fc 1 1 1
f 342/916/8 339/917/8 39/918/8
fc 1 1 1
f 95/919/5 437/920/5 434/921/5
fc 1 1 1
f 64/922/8 61/923/8 440/924/8
fc 1 1 1
f 83/925/5 76/926/5 433/927/5
fc 1 1 1
f 77/928/5 70/929/5 439/930/5
fc 1 1 1
f 100/931/8 101/932/8 428/933/8
fc 1 1 1
f 70/934/8 71/935/8 423/936/8
fc 1 1 1
f 43/937/5 100/938/5 430/939/5
fc 1 1 1
f 94/940/8 95/941/8 442/942/8
fc 1 1 1
f 101/943/5 94/944/5 427/945/5
fc 1 1 1
f 76/946/8 77/947/8 426/948/8
fc 1 1 1
f 424/949/8 43/950/8 432/951/8
fc 1 1 1
f 89/952/5 82/953/5 436/954/5
fc 1 1 1
f 82/955/8 83/956/8 443/957/8
fc 1 1 1
f 71/958/5 64/959/5 438/960/5
fc 1 1 1
f 338/961/5 435/962/5 429/963/5
fc 1 1 1
f 435/964/8 55/965/8 441/966/8
fc 1 1 1
f 437/967/8 89/968/8 431/969/8
fc 1 1 1
f 55/970/5 424/971/5 106/972/5
fc 1 1 1
f 97/973/8 338/974/8 444/975/8
fc 1 1 1
f 406/976/8 356/977/8 408/978/8
fc 1 1 1
f 388/979/2 387/980/2 458/981/2
fc 1 1 1
f 389/982/8 387/983/8 388/984/8
fc 1 1 1
f 356/985/2 400/986/2 399/987/2
fc 1 1 1
f 402/988/2 395/989/2 417/990/2
fc 1 1 1
f 35/991/8 402/992/8 334/993/8
fc 1 1 1
f 281/994/2 389/995/2 385/996/2
fc 1 1 1
f 394/997/8 281/998/8 396/999/8
fc 1 1 1
f 472/1000/2 412/1001/2 411/1002/2
fc 1 1 1
f 395/1003/8 472/1004/8 313/1005/8
fc 1 1 1
f 401/1006/2 394/1007/2 393/1008/2
fc 1 1 1
f 400/1009/8 401/1010/8 390/1011/8
fc 1 1 1
f 413/1012/2 406/1013/2 405/1014/2
fc 1 1 1
f 412/1015/8 413/1016/8 183/1017/8
fc 1 1 1
f 484/1018/8 177/1019/8 176/1020/8
fc 1 1 1
f 177/1021/5 35/1022/5 462/1023/5
fc 1 1 1
f 440/1024/5 61/1025/5 450/1026/5
fc 1 1 1
f 486/1027/5 452/1028/5 451/1029/5
fc 1 1 1
f 469/1030/8 468/1031/8 467/1032/8
fc 1 1 1
f 468/1033/5 484/1034/5 485/1035/5
fc 1 1 1
f 450/1036/8 466/1037/8 487/1038/8
fc 1 1 1
f 466/1039/5 475/1040/5 471/1041/5
fc 1 1 1
f 452/1042/8 453/1043/8 448/1044/8
fc 1 1 1
f 453/1045/5 469/1046/5 459/1047/5
fc 1 1 1
f 475/1048/8 486/1049/8 474/1050/8
fc 1 1 1
f 231/1051/8 355/1052/8 49/1053/8
fc 1 1 1
f 49/1054/8 131/1055/8 358/1056/8
fc 1 1 1
f 131/1057/8 521/1058/8 358/1059/8
fc 1 1 1
f 26/1060/8 25/1061/8 23/1062/8
fc 1 1 1
f 23/1063/8 27/1064/8 29/1065/8
fc 1 1 1
f 27/1066/8 278/1067/8 29/1068/8
fc 1 1 1
f 382/1069/8 352/1070/8 305/1071/8
fc 1 1 1
f 305/1072/8 267/1073/8 540/1074/8
fc 1 1 1
f 267/1075/8 304/1076/8 540/1077/8
fc 1 1 1
g mesh_122_Collection_materials/lonlonwood.vmat.002#NoCollision
usemtl materials/lonlonwood.vmat.002
f 59/1078/11 514/1079/12 280/1080/12
fc 1 1 1
f 158/1081/13 143/1082/14 144/1083/13
fc 1 1 1
f 172/1084/15 145/1085/1 156/1086/15
fc 1 1 1
f 173/1087/1 144/1088/13 145/1089/1
fc 1 1 1
f 187/1090/14 152/1091/16 143/1092/14
fc 1 1 1
f 159/1093/7 158/1094/7 157/1095/7
fc 1 1 1
f 196/1096/8 200/1097/8 204/1098/8
fc 1 1 1
f 204/1099/5 220/1100/17 189/1101/17
fc 1 1 1
f 203/1102/18 205/1103/5 204/1104/5
fc 1 1 1
f 202/1105/19 206/1106/18 203/1107/18
fc 1 1 1
f 201/1108/20 207/1109/19 202/1110/19
fc 1 1 1
f 200/1111/2 208/1112/20 201/1113/20
fc 1 1 1
f 199/1114/16 209/1115/2 200/1116/2
fc 1 1 1
f 198/1117/14 210/1118/16 199/1119/16
fc 1 1 1
f 197/1120/13 211/1121/14 198/1122/14
fc 1 1 1
f 196/1123/1 212/1124/13 197/1125/13
fc 1 1 1
f 195/1126/15 213/1127/1 196/1128/1
fc 1 1 1
f 194/1129/12 214/1130/15 195/1131/15
fc 1 1 1
f 193/1132/11 215/1133/12 194/1134/12
fc 1 1 1
f 192/1135/3 216/1136/11 193/1137/11
fc 1 1 1
f 191/1138/21 217/1139/3 192/1140/3
fc 1 1 1
f 190/1141/22 218/1142/21 191/1143/21
fc 1 1 1
f 189/1144/17 219/1145/22 190/1146/22
fc 1 1 1
f 170/1147/18 141/1148/5 142/1149/18
fc 1 1 1
f 228/1150/3 224/1151/3 225/1152/3
fc 1 1 1
f 225/1153/5 223/1154/5 226/1155/5
fc 1 1 1
f 175/1156/5 140/1157/17 141/1158/5
fc 1 1 1
f 329/1159/21 148/1160/3 149/1161/21
fc 1 1 1
f 186/1162/19 142/1163/18 155/1164/19
fc 1 1 1
f 188/1165/12 156/1166/15 146/1167/12
fc 1 1 1
f 238/1168/2 242/1169/2 239/1170/2
fc 1 1 1
f 108/1171/5 239/1172/5 242/1173/5
fc 1 1 1
f 154/1174/17 139/1175/22 140/1176/17
fc 1 1 1
f 157/1177/11 146/1178/12 147/1179/11
fc 1 1 1
f 246/1180/2 250/1181/2 247/1182/2
fc 1 1 1
f 245/1183/1 251/1184/1 246/1185/1
fc 1 1 1
f 153/1186/22 149/1187/21 139/1188/22
fc 1 1 1
f 350/1189/3 147/1190/11 148/1191/3
fc 1 1 1
f 260/1192/3 256/1193/3 257/1194/3
fc 1 1 1
f 253/1195/1 259/1196/1 254/1197/1
fc 1 1 1
f 174/1198/2 150/1199/20 151/1200/2
fc 1 1 1
f 171/1201/16 151/1202/2 152/1203/16
fc 1 1 1
f 159/1204/20 155/1205/19 150/1206/20
fc 1 1 1
f 491/1207/22 513/1208/21 493/1209/21
fc 1 1 1
f 461/1210/3 511/1211/11 59/1212/11
fc 1 1 1
f 493/1213/21 515/1214/3 461/1215/3
fc 1 1 1
f 97/1216/8 181/1217/8 65/1218/8
fc 1 1 1
f 557/1219/8 53/1220/8 558/1221/8
fc 2 1 2
f 84/1222/8 460/1223/8 498/1224/8
fc 1 1 1
f 35/1225/8 464/1226/8 462/1227/8
fc 1 1 1
f 480/1228/8 457/1229/8 455/1230/8
fc 1 1 1
f 331/1231/13 403/1232/14 336/1233/14
fc 1 1 1
f 336/1234/14 409/1235/16 495/1236/16
fc 1 1 1
f 280/1237/12 512/1238/15 373/1239/15
fc 1 1 1
f 373/1240/15 391/1241/1 299/1242/1
fc 1 1 1
f 299/1243/1 397/1244/13 331/1245/13
fc 1 1 1
f 102/1246/8 65/1247/8 506/1248/8
fc 1 1 1
f 264/1249/17 20/1250/22 491/1251/22
fc 1 1 1
f 497/1252/5 180/1253/17 264/1254/17
fc 1 1 1
f 496/1255/18 499/1256/5 497/1257/5
fc 1 1 1
f 492/1258/19 44/1259/18 496/1260/18
fc 1 1 1
f 500/1261/20 36/1262/19 492/1263/19
fc 1 1 1
f 502/1264/2 421/1265/20 500/1266/20
fc 1 1 1
f 495/1267/16 415/1268/2 502/1269/2
fc 1 1 1
f 357/1270/8 558/1271/8 362/1272/8
fc 2 2 2
f 59/1273/11 511/1274/11 514/1275/12
fc 1 1 1
f 158/1276/13 187/1277/14 143/1278/14
fc 1 1 1
f 172/1279/15 173/1280/1 145/1281/1
fc 1 1 1
f 173/1282/1 158/1283/13 144/1284/13
fc 1 1 1
f 187/1285/14 171/1286/16 152/1287/16
fc 1 1 1
f 154/1288/7 175/1289/7 159/1290/7
fc 1 1 1
f 175/1291/7 170/1292/7 159/1293/7
fc 1 1 1
f 170/1294/7 186/1295/7 159/1296/7
fc 1 1 1
f 159/1297/7 174/1298/7 171/1299/7
fc 1 1 1
f 171/1300/7 187/1301/7 158/1302/7
fc 1 1 1
f 158/1303/7 173/1304/7 172/1305/7
fc 1 1 1
f 172/1306/7 188/1307/7 158/1308/7
fc 1 1 1
f 188/1309/7 157/1310/7 158/1311/7
fc 1 1 1
f 157/1312/7 350/1313/7 329/1314/7
fc 1 1 1
f 329/1315/7 153/1316/7 154/1317/7
fc 1 1 1
f 159/1318/7 171/1319/7 158/1320/7
fc 1 1 1
f 157/1321/7 329/1322/7 154/1323/7
fc 1 1 1
f 154/1324/7 159/1325/7 157/1326/7
fc 1 1 1
f 204/1327/8 189/1328/8 192/1329/8
fc 1 1 1
f 189/1330/8 190/1331/8 192/1332/8
fc 1 1 1
f 190/1333/8 191/1334/8 192/1335/8
fc 1 1 1
f 192/1336/8 193/1337/8 194/1338/8
fc 1 1 1
f 194/1339/8 195/1340/8 196/1341/8
fc 1 1 1
f 196/1342/8 197/1343/8 198/1344/8
fc 1 1 1
f 198/1345/8 199/1346/8 196/1347/8
fc 1 1 1
f 199/1348/8 200/1349/8 196/1350/8
fc 1 1 1
f 200/1351/8 201/1352/8 202/1353/8
fc 1 1 1
f 202/1354/8 203/1355/8 204/1356/8
fc 1 1 1
f 192/1357/8 194/1358/8 204/1359/8
fc 1 1 1
f 194/1360/8 196/1361/8 204/1362/8
fc 1 1 1
f 200/1363/8 202/1364/8 204/1365/8
fc 1 1 1
f 204/1366/5 205/1367/5 220/1368/17
fc 1 1 1
f 203/1369/18 206/1370/18 205/1371/5
fc 1 1 1
f 202/1372/19 207/1373/19 206/1374/18
fc 1 1 1
f 201/1375/20 208/1376/20 207/1377/19
fc 1 1 1
f 200/1378/2 209/1379/2 208/1380/20
fc 1 1 1
f 199/1381/16 210/1382/16 209/1383/2
fc 1 1 1
f 198/1384/14 211/1385/14 210/1386/16
fc 1 1 1
f 197/1387/13 212/1388/13 211/1389/14
fc 1 1 1
f 196/1390/1 213/1391/1 212/1392/13
fc 1 1 1
f 195/1393/15 214/1394/15 213/1395/1
fc 1 1 1
f 194/1396/12 215/1397/12 214/1398/15
fc 1 1 1
f 193/1399/11 216/1400/11 215/1401/12
fc 1 1 1
f 192/1402/3 217/1403/3 216/1404/11
fc 1 1 1
f 191/1405/21 218/1406/21 217/1407/3
fc 1 1 1
f 190/1408/22 219/1409/22 218/1410/21
fc 1 1 1
f 189/1411/17 220/1412/17 219/1413/22
fc 1 1 1
f 170/1414/18 175/1415/5 141/1416/5
fc 1 1 1
f 228/1417/3 221/1418/3 224/1419/3
fc 1 1 1
f 225/1420/5 224/1421/5 223/1422/5
fc 1 1 1
f 175/1423/5 154/1424/17 140/1425/17
fc 1 1 1
f 329/1426/21 350/1427/3 148/1428/3
fc 1 1 1
f 186/1429/19 170/1430/18 142/1431/18
fc 1 1 1
f 188/1432/12 172/1433/15 156/1434/15
fc 1 1 1
f 238/1435/2 243/1436/2 242/1437/2
fc 1 1 1
f 108/1438/5 107/1439/5 239/1440/5
fc 1 1 1
f 154/1441/17 153/1442/22 139/1443/22
fc 1 1 1
f 157/1444/11 188/1445/12 146/1446/12
fc 1 1 1
f 246/1447/2 251/1448/2 250/1449/2
fc 1 1 1
f 245/1450/1 252/1451/1 251/1452/1
fc 1 1 1
f 153/1453/22 329/1454/21 149/1455/21
fc 1 1 1
f 350/1456/3 157/1457/11 147/1458/11
fc 1 1 1
f 260/1459/3 253/1460/3 256/1461/3
fc 1 1 1
f 253/1462/1 260/1463/1 259/1464/1
fc 1 1 1
f 174/1465/2 159/1466/20 150/1467/20
fc 1 1 1
f 171/1468/16 174/1469/2 151/1470/2
fc 1 1 1
f 159/1471/20 186/1472/19 155/1473/19
fc 1 1 1
f 491/1474/22 20/1475/22 513/1476/21
fc 1 1 1
f 461/1477/3 515/1478/3 511/1479/11
fc 1 1 1
f 493/1480/21 513/1481/21 515/1482/3
fc 1 1 1
f 65/1483/8 102/1484/8 97/1485/8
fc 1 1 1
f 97/1486/8 91/1487/8 425/1488/8
fc 1 1 1
f 425/1489/8 181/1490/8 97/1491/8
fc 1 1 1
f 181/1492/8 266/1493/8 65/1494/8
fc 1 1 1
f 557/1495/8 54/1496/8 53/1497/8
fc 2 1 1
f 84/1498/8 481/1499/8 478/1500/8
fc 1 1 1
f 481/1501/8 420/1502/8 478/1503/8
fc 1 1 1
f 460/1504/8 446/1505/8 498/1506/8
fc 1 1 1
f 84/1507/8 478/1508/8 460/1509/8
fc 1 1 1
f 35/1510/8 165/1511/8 464/1512/8
fc 1 1 1
f 420/1513/8 481/1514/8 479/1515/8
fc 1 1 1
f 481/1516/8 419/1517/8 479/1518/8
fc 1 1 1
f 477/1519/8 420/1520/8 445/1521/8
fc 1 1 1
f 420/1522/8 479/1523/8 445/1524/8
fc 1 1 1
f 477/1525/8 445/1526/8 458/1527/8
fc 1 1 1
f 445/1528/8 184/1529/8 458/1530/8
fc 1 1 1
f 182/1531/8 414/1532/8 79/1533/8
fc 1 1 1
f 184/1534/8 182/1535/8 476/1536/8
fc 1 1 1
f 458/1537/8 184/1538/8 476/1539/8
fc 1 1 1
f 182/1540/8 79/1541/8 476/1542/8
fc 1 1 1
f 458/1543/8 454/1544/8 477/1545/8
fc 1 1 1
f 454/1546/8 455/1547/8 463/1548/8
fc 1 1 1
f 455/1549/8 447/1550/8 407/1551/8
fc 1 1 1
f 407/1552/8 51/1553/8 449/1554/8
fc 1 1 1
f 51/1555/8 465/1556/8 449/1557/8
fc 1 1 1
f 455/1558/8 407/1559/8 449/1560/8
fc 1 1 1
f 470/1561/8 137/1562/8 67/1563/8
fc 1 1 1
f 455/1564/8 449/1565/8 480/1566/8
fc 1 1 1
f 449/1567/8 470/1568/8 480/1569/8
fc 1 1 1
f 463/1570/8 477/1571/8 454/1572/8
fc 1 1 1
f 470/1573/8 67/1574/8 498/1575/8
fc 1 1 1
f 470/1576/8 498/1577/8 446/1578/8
fc 1 1 1
f 457/1579/8 463/1580/8 455/1581/8
fc 1 1 1
f 470/1582/8 446/1583/8 480/1584/8
fc 1 1 1
f 331/1585/13 397/1586/13 403/1587/14
fc 1 1 1
f 336/1588/14 403/1589/14 409/1590/16
fc 1 1 1
f 280/1591/12 514/1592/12 512/1593/15
fc 1 1 1
f 373/1594/15 512/1595/15 391/1596/1
fc 1 1 1
f 299/1597/1 391/1598/1 397/1599/13
fc 1 1 1
f 65/1600/8 504/1601/8 503/1602/8
fc 1 1 1
f 506/1603/8 505/1604/8 422/1605/8
fc 1 1 1
f 65/1606/8 503/1607/8 506/1608/8
fc 1 1 1
f 422/1609/8 102/1610/8 506/1611/8
fc 1 1 1
f 264/1612/17 180/1613/17 20/1614/22
fc 1 1 1
f 497/1615/5 499/1616/5 180/1617/17
fc 1 1 1
f 496/1618/18 44/1619/18 499/1620/5
fc 1 1 1
f 492/1621/19 36/1622/19 44/1623/18
fc 1 1 1
f 500/1624/20 421/1625/20 36/1626/19
fc 1 1 1
f 502/1627/2 415/1628/2 421/1629/20
fc 1 1 1
f 495/1630/16 409/1631/16 415/1632/2
fc 1 1 1
f 357/1633/8 557/1634/8 558/1635/8
fc 2 2 2
g mesh_122_Collection_materials/lonlonlog.vmat.002#NoCollision
usemtl materials/lonlonlog.vmat.002
f 55/1636/2 112/1637/2 113/1638/2
fc 1 1 1
f 33/1639/2 110/1640/10 103/1641/2
fc 1 1 1
f 101/1642/2 116/1643/2 117/1644/2
fc 1 1 1
f 61/1645/2 62/1646/2 128/1647/2
fc 1 1 1
f 71/1648/2 126/1649/2 127/1650/2
fc 1 1 1
f 95/1651/2 118/1652/2 88/1653/2
fc 1 1 1
f 77/1654/2 124/1655/2 125/1656/2
fc 1 1 1
f 83/1657/2 122/1658/2 123/1659/2
fc 1 1 1
f 43/1660/2 114/1661/2 115/1662/2
fc 1 1 1
f 89/1663/2 120/1664/2 121/1665/2
fc 1 1 1
f 387/1666/1 392/1667/1 458/1668/1
fc 1 1 1
f 413/1669/1 416/1670/1 277/1671/1
fc 1 1 1
f 394/1672/1 30/1673/1 376/1674/1
fc 1 1 1
f 401/1675/1 418/1676/1 351/1677/1
fc 1 1 1
f 356/1678/1 386/1679/1 66/1680/1
fc 1 1 1
f 55/1681/2 435/1682/2 112/1683/2
fc 1 1 1
f 33/1684/2 109/1685/6 110/1686/10
fc 1 1 1
f 110/1687/10 111/1688/2 103/1689/2
fc 1 1 1
f 101/1690/2 100/1691/2 116/1692/2
fc 1 1 1
f 61/1693/2 64/1694/2 62/1695/2
fc 1 1 1
f 71/1696/2 70/1697/2 126/1698/2
fc 1 1 1
f 95/1699/2 94/1700/2 118/1701/2
fc 1 1 1
f 77/1702/2 76/1703/2 124/1704/2
fc 1 1 1
f 83/1705/2 82/1706/2 122/1707/2
fc 1 1 1
f 43/1708/2 424/1709/2 114/1710/2
fc 1 1 1
f 89/1711/2 88/1712/2 120/1713/2
fc 1 1 1
f 387/1714/1 389/1715/1 392/1716/1
fc 1 1 1
f 413/1717/1 412/1718/1 416/1719/1
fc 1 1 1
f 376/1720/1 389/1721/1 281/1722/1
fc 1 1 1
f 281/1723/1 394/1724/1 376/1725/1
fc 1 1 1
f 401/1726/1 400/1727/1 418/1728/1
fc 1 1 1
f 356/1729/1 406/1730/1 386/1731/1
fc 1 1 1
g mesh_122_Collection_materials/courtyardunpolishedmarble.vmat.002#NoCollision
usemtl materials/courtyardunpolishedmarble.vmat.002
f 533/1732/7 235/1733/7 360/1734/7
fc 1 1 1
f 345/1735/7 343/1736/7 15/1737/7
fc 1 1 1
f 363/1738/7 559/1739/7 556/1740/7
fc 2 2 2
f 317/1741/7 556/1742/7 559/1743/7
fc 1 2 2
f 235/1744/7 22/1745/7 28/1746/7
fc 1 1 1
f 28/1747/7 360/1748/7 235/1749/7
fc 1 1 1
f 360/1750/7 240/1751/7 533/1752/7
fc 1 1 1
f 345/1753/7 348/1754/7 343/1755/7
fc 1 1 1
f 363/1756/7 361/1757/7 559/1758/7
fc 2 2 2
f 317/1759/7 367/1760/7 556/1761/7
fc 1 1 2
g mesh_122_Collection_bookshelf.vmat.002#NoCollision
usemtl bookshelf.vmat.002
f 370/1762/1 374/1763/1 375/1764/1
fc 1 1 1
f 34/1765/2 292/1766/2 286/1767/2
fc 1 1 1
f 290/1768/5 384/1769/5 31/1770/5
fc 1 1 1
f 370/1771/1 380/1772/1 374/1773/1
fc 1 1 1
f 34/1774/2 287/1775/2 292/1776/2
fc 1 1 1
f 290/1777/5 291/1778/5 384/1779/5
fc 1 1 1
g mesh_122_Collection_materials/purplecarpet.vmat.002#NoCollision
usemtl materials/purplecarpet.vmat.002
f 81/1780/3 244/1781/3 237/1782/3
fc 1 1 1
f 86/1783/1 244/1784/1 138/1785/1
fc 1 1 1
f 282/1786/2 249/1787/2 86/1788/2
fc 1 1 1
f 488/1789/21 139/1790/22 149/1791/21
fc 1 1 1
f 166/1792/22 140/1793/17 139/1794/22
fc 1 1 1
f 163/1795/3 149/1796/21 148/1797/3
fc 1 1 1
f 146/1798/12 178/1799/11 147/1800/11
fc 1 1 1
f 145/1801/1 489/1802/15 156/1803/15
fc 1 1 1
f 143/1804/14 483/1805/13 144/1806/13
fc 1 1 1
f 151/1807/2 490/1808/16 152/1809/16
fc 1 1 1
f 169/1810/19 150/1811/20 155/1812/19
fc 1 1 1
f 160/1813/5 142/1814/18 141/1815/5
fc 1 1 1
f 185/1816/18 155/1817/19 142/1818/18
fc 1 1 1
f 482/1819/20 151/1820/2 150/1821/20
fc 1 1 1
f 152/1822/16 168/1823/14 143/1824/14
fc 1 1 1
f 144/1825/13 162/1826/1 145/1827/1
fc 1 1 1
f 156/1828/15 167/1829/12 146/1830/12
fc 1 1 1
f 147/1831/11 163/1832/3 148/1833/3
fc 1 1 1
f 179/1834/17 141/1835/5 140/1836/17
fc 1 1 1
f 162/1837/8 161/1838/8 160/1839/8
fc 1 1 1
f 244/1840/8 258/1841/23 237/1842/23
fc 1 1 1
f 81/1843/3 138/1844/3 244/1845/3
fc 1 1 1
f 86/1846/1 249/1847/1 244/1848/1
fc 1 1 1
f 282/1849/2 258/1850/2 249/1851/2
fc 1 1 1
f 488/1852/21 166/1853/22 139/1854/22
fc 1 1 1
f 166/1855/22 179/1856/17 140/1857/17
fc 1 1 1
f 163/1858/3 488/1859/21 149/1860/21
fc 1 1 1
f 146/1861/12 167/1862/12 178/1863/11
fc 1 1 1
f 145/1864/1 162/1865/1 489/1866/15
fc 1 1 1
f 143/1867/14 168/1868/14 483/1869/13
fc 1 1 1
f 151/1870/2 161/1871/2 490/1872/16
fc 1 1 1
f 169/1873/19 482/1874/20 150/1875/20
fc 1 1 1
f 160/1876/5 185/1877/18 142/1878/18
fc 1 1 1
f 185/1879/18 169/1880/19 155/1881/19
fc 1 1 1
f 482/1882/20 161/1883/2 151/1884/2
fc 1 1 1
f 152/1885/16 490/1886/16 168/1887/14
fc 1 1 1
f 144/1888/13 483/1889/13 162/1890/1
fc 1 1 1
f 156/1891/15 489/1892/15 167/1893/12
fc 1 1 1
f 147/1894/11 178/1895/11 163/1896/3
fc 1 1 1
f 179/1897/17 160/1898/5 141/1899/5
fc 1 1 1
f 160/1900/8 179/1901/8 166/1902/8
fc 1 1 1
f 166/1903/8 488/1904/8 160/1905/8
fc 1 1 1
f 488/1906/8 163/1907/8 160/1908/8
fc 1 1 1
f 163/1909/8 178/1910/8 167/1911/8
fc 1 1 1
f 167/1912/8 489/1913/8 162/1914/8
fc 1 1 1
f 162/1915/8 483/1916/8 168/1917/8
fc 1 1 1
f 168/1918/8 490/1919/8 162/1920/8
fc 1 1 1
f 490/1921/8 161/1922/8 162/1923/8
fc 1 1 1
f 161/1924/8 482/1925/8 160/1926/8
fc 1 1 1
f 482/1927/8 169/1928/8 160/1929/8
fc 1 1 1
f 169/1930/8 185/1931/8 160/1932/8
fc 1 1 1
f 163/1933/8 167/1934/8 160/1935/8
fc 1 1 1
f 167/1936/8 162/1937/8 160/1938/8
fc 1 1 1
f 244/1939/8 249/1940/8 258/1941/23
fc 1 1 1
g mesh_122_Collection_materials/softice.vmat.002#NoCollision
usemtl materials/softice.vmat.002
f 337/1942/2 258/1943/2 227/1944/2
fc 1 1 1
f 90/1945/2 282/1946/2 86/1947/2
fc 1 1 1
f 248/1948/1 86/1949/1 138/1950/1
fc 1 1 1
f 222/1951/3 138/1952/3 81/1953/3
fc 1 1 1
f 306/1954/3 237/1955/3 501/1956/3
fc 1 1 1
f 501/1957/24 258/1958/23 494/1959/24
fc 1 1 1
f 337/1960/2 494/1961/2 258/1962/2
fc 1 1 1
f 90/1963/2 227/1964/2 282/1965/2
fc 1 1 1
f 248/1966/1 90/1967/1 86/1968/1
fc 1 1 1
f 222/1969/3 248/1970/3 138/1971/3
fc 1 1 1
f 306/1972/3 222/1973/3 237/1974/3
fc 1 1 1
f 501/1975/24 237/1976/23 258/1977/23
fc 1 1 1
g mesh_122_Collection_materials/cheapcarpet.vmat.002#NoCollision
usemtl materials/cheapcarpet.vmat.002
f 445/1978/8 53/1979/8 54/1980/8
fc 1 1 1
f 455/1981/8 456/1982/8 447/1983/8
fc 1 1 1
f 449/1984/8 137/1985/8 470/1986/8
fc 1 1 1
f 420/1987/8 477/1988/8 446/1989/8
fc 1 1 1
f 315/1990/8 506/1991/8 503/1992/8
fc 1 1 1
f 182/1993/8 184/1994/8 54/1995/8
fc 1 1 1
f 184/1996/8 445/1997/8 54/1998/8
fc 1 1 1
f 445/1999/8 479/2000/8 53/2001/8
fc 1 1 1
f 479/2002/8 419/2003/8 53/2004/8
fc 1 1 1
f 414/2005/8 182/2006/8 54/2007/8
fc 1 1 1
f 454/2008/8 456/2009/8 455/2010/8
fc 1 1 1
f 456/2011/8 56/2012/8 447/2013/8
fc 1 1 1
f 449/2014/8 465/2015/8 137/2016/8
fc 1 1 1
f 477/2017/8 463/2018/8 457/2019/8
fc 1 1 1
f 457/2020/8 480/2021/8 477/2022/8
fc 1 1 1
f 480/2023/8 446/2024/8 477/2025/8
fc 1 1 1
f 446/2026/8 460/2027/8 478/2028/8
fc 1 1 1
f 478/2029/8 420/2030/8 446/2031/8
fc 1 1 1
f 315/2032/8 505/2033/8 506/2034/8
fc 1 1 1
g mesh_122_Collection_materials/pdiddykong.vmat.002#NoCollision
usemtl materials/pdiddykong.vmat.002
f 347/2035/1 525/2036/1 340/2037/1
fc 1 1 1
f 347/2038/1 538/2039/1 525/2040/1
fc 1 1 1
g mesh_122_Collection_materials/yoshidrawing.vmat.002#NoCollision
usemtl materials/yoshidrawing.vmat.002
f 537/2041/1 24/2042/1 534/2043/1
fc 1 1 1
f 537/2044/1 526/2045/1 24/2046/1
fc 1 1 1
g mesh_122_Collection_materials/paintingfinal.vmat.001#NoCollision
usemtl materials/paintingfinal.vmat.001
f 542/2047/2 544/2048/2 543/2049/2
fc 1 1 1
f 542/2050/2 541/2051/2 544/2052/2
fc 1 1 1
g mesh_122_Collection_materials/window.vmat.002#NoCollision
usemtl materials/window.vmat.002
f 233/2053/3 262/2054/3 529/2055/3
fc 1 1 1
f 379/2056/3 535/2057/3 262/2058/3
fc 1 1 1
f 536/2059/1 377/2060/1 17/2061/1
fc 1 1 1
f 271/2062/1 272/2063/1 536/2064/1
fc 1 1 1
f 233/2065/3 379/2066/3 262/2067/3
fc 1 1 1
f 379/2068/3 528/2069/3 535/2070/3
fc 1 1 1
f 536/2071/1 272/2072/1 377/2073/1
fc 1 1 1
f 271/2074/1 531/2075/1 272/2076/1
fc 1 1 1
g mesh_122_Collection_materials/marioandluigi.vmat.002#NoCollision
usemtl materials/marioandluigi.vmat.002
f 530/2077/1 532/2078/1 268/2079/1
fc 1 1 1
f 530/2080/1 517/2081/1 532/2082/1
fc 1 1 1
g mesh_122_Collection_materials/curtians.vmat.002#NoCollision
usemtl materials/curtians.vmat.002
f 545/2083/3 549/2084/3 551/2085/3
fc 1 1 1
f 548/2086/3 550/2087/3 551/2088/3
fc 1 1 1
f 551/2089/3 550/2090/3 546/2091/3
fc 1 1 1
f 546/2092/3 545/2093/3 551/2094/3
fc 1 1 1
f 551/2095/3 549/2096/3 547/2097/3
fc 1 1 1
f 547/2098/3 548/2099/3 551/2100/3
fc 1 1 1
