# Blender v5.0.0 OBJ File: 'outsidePHYS.blend'
# www.blender.org
mtllib outsidePHYS.mtl
g mesh_115_Collection
v 83.199997 44.818058 76.799995
v -358.399963 188.818039 -12.799969
v 19.199993 44.818058 -63.999992
v 614.400024 0.018063 614.399902
v 19.200005 44.818058 76.799995
v 19.200003 44.818058 64.000000
v 561.425842 243.402557 2267.999756
v 565.497803 0.018063 2348.456787
v 563.389954 0.018063 1785.256958
v 560.902405 243.033569 1885.828003
v -294.399841 217.618042 1599.999878
v 206.185013 243.402557 2194.856689
v 128.000092 0.018063 1356.799927
v -296.416382 219.938202 2843.073242
v -972.799866 0.018063 614.400024
v 422.400024 12.818060 499.199921
v 210.315002 0.005306 2843.073242
v -780.799866 0.018063 1177.600098
v -665.599915 188.818039 -227.199936
v 128.000092 192.018051 1177.599976
v -217.599899 217.618042 1177.599976
v -559.999939 70.418060 -172.799942
v -780.799927 422.418030 -307.199921
v 207.066879 194.464706 3091.168945
v -651.246460 70.418060 -193.626312
v -358.399963 9.618061 -12.799969
v 25.600086 294.418060 1177.599976
v 210.954514 0.000000 3091.199707
v -332.799988 0.018063 -12.799971
v 416.000000 0.018063 463.999939
v -691.199951 0.018063 25.600054
v -140.799896 294.418060 1177.599976
v -307.199890 25.618059 1177.599976
v -230.400009 265.618042 -307.199951
v -230.399979 265.618042 76.800018
v 179.199997 265.618042 76.799988
v 179.199966 265.618042 -307.199982
v 207.434921 0.018063 1887.656982
v -665.599854 0.018063 25.600052
v 83.199997 44.818058 63.999992
v 76.800011 44.818058 191.999985
v 128.000092 192.018051 1356.799927
v 435.200073 0.018063 1177.599976
v -780.799927 0.018063 -307.199921
v 195.200073 0.018063 1177.599976
v 204.800110 192.018051 1599.999878
v -295.113464 0.018063 3091.885742
v 205.851944 243.033569 1951.656738
v 179.199997 0.018063 76.799988
v -217.599899 0.018063 1356.799927
v -887.466553 0.018063 204.800064
v 486.399963 422.418030 -307.200012
v 206.833923 207.392105 2854.399658
v 128.000092 0.018063 1177.599976
v 56.920723 294.504364 3091.002197
v 614.400024 422.418030 614.399902
v 179.199966 0.018063 -307.199982
v -665.599915 0.018063 -227.199936
v -651.246460 70.418060 -151.973587
v -780.799866 422.418030 1177.600098
v -217.599899 0.018063 1177.599976
v -665.599915 9.618061 -12.799946
v -358.400024 57.618057 -227.199966
v 208.776276 0.018063 2246.056885
v -358.400024 0.018063 -227.199966
v -578.072388 70.418060 -135.272018
v -618.680908 70.418060 -126.003456
v -559.999939 12.818060 -172.799942
v -651.246460 12.818060 -151.973587
v -578.072388 12.818060 -135.272018
v -618.680908 12.818060 -126.003456
v -618.680908 70.418060 -219.596436
v -578.072388 70.418060 -210.327881
v -294.994446 0.018063 2843.073242
v -296.818481 220.400925 3090.981445
v -185.335678 297.195923 3090.513672
v -230.399979 120.870255 76.800018
v 204.800110 0.018063 1599.999878
v -319.999939 25.618059 320.000000
v -63.999969 0.018063 403.199982
v 486.399963 0.018063 -307.200012
v -217.599899 217.618042 1356.799927
v -281.599976 25.618059 537.599976
v -268.799866 0.018063 1177.599976
v 435.200073 422.418030 1177.599976
v -927.466553 25.618059 396.800018
v -422.399902 25.618059 1177.599976
v -665.599915 0.018063 -12.799946
v 603.733337 12.818060 537.599915
v 179.199997 44.818058 191.999969
v 179.199997 0.018063 191.999969
v 448.000000 12.818060 559.229675
v -665.599915 188.818039 -12.799946
v -358.399963 0.018063 25.600029
v -230.399979 44.818058 76.800018
v -618.680908 12.818060 -219.596436
v 596.622253 12.818060 486.399933
v -578.072388 12.818060 -210.327881
v 249.600037 0.018063 611.200012
v -371.199951 25.618059 435.183990
v -300.799927 0.018063 262.399994
v 179.199997 44.818058 191.999969
v -651.246460 12.818060 -193.626312
v 76.800011 44.818058 191.999985
v -358.400024 188.818039 -227.199966
v -115.199966 25.618059 422.399963
v 76.800011 0.018063 191.999985
v -332.799988 0.018063 -268.799957
v 83.199989 44.818058 -63.999992
v -230.400009 0.018063 -307.199951
v -230.399979 120.870255 192.000000
v 592.622253 0.018063 457.599945
v 19.199993 147.218048 -63.999992
v 83.199989 147.218048 -63.999992
v -691.199951 188.818039 -268.799927
v 179.199997 44.818058 76.799988
v -230.399979 0.018063 192.000000
v 179.199997 44.818058 191.999969
v -332.799988 188.818039 -268.799957
v -358.399963 0.018063 -12.799969
v -358.400024 9.618061 -227.199966
v -332.799988 188.818039 -12.799971
v 179.199997 44.818058 76.799988
v 294.400085 12.818060 1177.599976
v -230.399979 44.818058 76.800018
v -691.199951 0.018063 -268.799927
v -332.799988 0.018063 25.600027
v 76.800018 0.018063 319.999969
v 179.200012 0.018063 307.199982
v -665.599915 9.618061 -227.199936
v -972.799866 422.418030 614.400024
v 179.200012 0.018063 319.999969
v -898.133240 25.618059 256.000061
v -294.399841 0.018063 1599.999878
v 179.199966 44.818058 -307.199982
v 179.199997 44.818058 76.799988
v -230.399979 44.818058 76.800018
v -230.400009 44.818058 -307.199951
v 83.199997 147.218048 76.799995
v -691.199951 188.818039 -12.799944
v 179.199997 120.870255 76.799988
v 19.200005 147.218048 76.799995
v -230.399979 0.018063 76.800018
v 76.800011 120.870255 191.999985
v -230.399979 44.818058 192.000000
v 230.400070 12.818060 1177.599976
v 268.800049 12.818060 627.200012
v -691.199951 0.018063 -12.799944
v 179.199997 120.870255 191.999969
v -230.399979 44.818058 192.000000
v 76.800018 0.018063 307.199982
v -230.399979 44.818058 192.000031
v 76.800011 120.870255 192.000000
v -230.399979 120.870255 192.000031
v 76.800011 44.818058 192.000000
v -230.151474 120.870255 191.999466
v -230.648392 120.870255 76.800560
v -230.151474 44.818058 191.999466
v -230.648392 44.818058 76.800560
v 179.199982 44.818058 76.799965
v 179.199982 44.818058 191.999939
v 179.199982 120.870255 191.999939
v 179.199982 120.870255 76.799965
vt 1.500000 -1.500000
vt -2.500000 -3.750000
vt 1.500000 -3.750000
vt 0.000000 -2.648703
vt 1.000000 -0.000000
vt 0.000000 -0.000000
vt 0.067797 1.000000
vt 0.000000 -0.000000
vt 0.067797 -0.000000
vt -2.500000 1.000000
vt 0.928572 -0.000000
vt 0.928572 1.000000
vt 0.396040 0.742574
vt -0.000000 0.584158
vt 0.396040 0.584158
vt -0.966100 0.000002
vt -1.033899 -1.000002
vt -0.966101 -0.999998
vt 0.000000 -1.000000
vt 0.567797 -1.000000
vt 0.567797 -0.305085
vt 0.000000 -1.000000
vt 0.567797 -1.000000
vt 0.567797 -0.949153
vt 0.000000 -0.000000
vt 0.813559 -1.000000
vt 0.813559 -0.000000
vt 1.500000 -1.500000
vt -2.500000 -1.500000
vt -2.500000 -3.750000
vt 0.000000 -2.648703
vt 1.000000 -2.648702
vt 1.000000 -0.000000
vt 0.067797 1.000000
vt 0.000000 1.000000
vt 0.000000 -0.000000
vt -2.500000 1.000000
vt -2.500000 -0.000000
vt 0.928572 -0.000000
vt 0.396040 0.742574
vt -0.000000 0.742574
vt -0.000000 0.584158
vt -0.966100 0.000002
vt -1.033898 -0.000002
vt -1.033899 -1.000002
vt 0.567797 -0.305085
vt 0.567797 -0.000000
vt 0.000000 -0.000000
vt 0.000000 -0.000000
vt 0.000000 -1.000000
vt 0.567797 -0.305085
vt 0.567797 -0.949153
vt 0.567797 -0.000000
vt 0.000000 -0.000000
vt 0.000000 -0.000000
vt 0.000000 -1.000000
vt 0.567797 -0.949153
vt 0.000000 -0.000000
vt 0.000000 -1.000000
vt 0.813559 -1.000000
vt 0.000000 -0.000000
vt 0.000000 -1.000000
vt 3.655973 -1.000000
vt 2.817367 -1.000000
vt 0.000001 -0.000000
vt 0.000000 -1.000000
vt -5.142455 -0.000000
vt -6.071228 0.563898
vt -6.071227 0.000000
vt 3.000000 1.000000
vt -3.000000 -0.000000
vt 3.000000 -0.000000
vt 6.000000 0.440000
vt 6.821333 0.000000
vt 6.821334 0.440000
vt 0.000000 -0.000000
vt 0.000000 -1.000000
vt 1.981034 -1.000000
vt 3.757577 1.000000
vt -1.999999 1.000000
vt 0.727273 0.696970
vt 2.798400 -0.000000
vt 0.000000 -1.000000
vt 2.798400 -1.000000
vt 3.655973 -1.000000
vt 4.405523 -1.000000
vt 4.405523 -0.000000
vt 4.405523 -0.000000
vt 0.000000 -0.000000
vt 3.655973 -1.000000
vt 2.817367 -1.000000
vt 2.817367 -0.000000
vt 0.000001 -0.000000
vt -5.142455 -0.000000
vt -5.142456 0.563898
vt -6.071228 0.563898
vt 3.000000 1.000000
vt -3.000000 1.000000
vt -3.000000 -0.000000
vt 6.000000 0.440000
vt 6.000000 0.000000
vt 6.821333 0.000000
vt 1.981034 -1.000000
vt 4.457327 -1.000000
vt 4.457328 -0.000000
vt 4.457328 -0.000000
vt 0.000000 -0.000000
vt 1.981034 -1.000000
vt 1.333332 0.000000
vt 3.757575 0.000000
vt 1.090909 0.515152
vt 3.757575 0.000000
vt 3.757577 1.000000
vt 1.090909 0.515152
vt -1.999999 1.000000
vt -2.000001 0.000000
vt -0.545455 0.454546
vt -2.000001 0.000000
vt -0.863638 0.000000
vt -0.545455 0.454546
vt -0.863638 0.000000
vt -0.545456 0.000000
vt -0.545455 0.454546
vt 1.090908 0.000000
vt 1.333332 0.000000
vt 1.090909 0.515152
vt -1.999999 1.000000
vt -0.545455 0.454546
vt -0.060606 0.696970
vt 0.727273 0.696970
vt 1.090909 0.515152
vt 3.757577 1.000000
vt -1.999999 1.000000
vt -0.060606 0.696970
vt 0.727273 0.696970
vt 2.798400 -0.000000
vt 0.000000 -0.000000
vt 0.000000 -1.000000
vt -1.775000 -4.000000
vt -0.100000 -6.400001
vt -0.100000 -4.000000
vt 1.666667 1.166666
vt 2.000000 1.166666
vt 2.000000 3.833333
vt 2.500000 1.166667
vt 0.833333 3.833333
vt 0.833333 1.166667
vt 1.666667 1.166666
vt -1.666667 1.166666
vt -1.666667 3.833333
vt -1.775000 -4.000000
vt -1.775000 -6.400001
vt -0.100000 -6.400001
vt 2.000000 3.833333
vt -1.666666 3.833333
vt 1.666667 1.166666
vt -1.666666 3.833333
vt -1.666666 1.166666
vt 1.666667 1.166666
vt 2.500000 1.166667
vt 2.500000 3.833333
vt 0.833333 3.833333
vt -1.666667 3.833333
vt 2.000000 3.833333
vt 1.666667 1.166666
vt 2.000000 3.833333
vt 2.000000 1.166666
vt 1.666667 1.166666
vt 5.839753 0.248693
vt 5.081012 0.329861
vt 4.229075 -1.775022
vt 6.858145 -2.079282
vt 7.103313 0.110470
vt 5.839753 0.248693
vt 5.839753 0.248693
vt 6.229426 1.769689
vt 5.037118 1.897238
vt 5.081012 0.329861
vt 4.471279 0.388254
vt 4.229075 -1.775022
vt 4.471279 0.388254
vt 3.919599 0.114465
vt 4.229075 -1.775022
vt 5.839753 0.248693
vt 5.037118 1.897238
vt 5.081012 0.329861
vt 4.229075 -1.775022
vt 6.858145 -2.079282
vt 5.839753 0.248693
vt 3.919599 0.114465
vt 3.751919 -1.383188
vt 4.229075 -1.775022
vt 0.562500 0.463768
vt -0.062500 0.463768
vt -1.000000 1.000000
vt 1.000000 1.000000
vt -2.750000 -0.000000
vt 1.000000 -0.000000
vt 1.000000 -0.000000
vt -2.750000 1.000000
vt 1.000000 1.000000
vt -1.000000 1.000000
vt 3.000000 1.000000
vt 0.562500 0.463768
vt 3.000000 1.000000
vt 3.000000 -0.000000
vt 0.562500 0.463768
vt 3.000000 -0.000000
vt 0.562500 -0.000000
vt 0.562500 0.463768
vt -0.062500 0.463768
vt -0.062500 -0.000000
vt -1.000000 -0.000000
vt -0.062500 0.463768
vt -1.000000 -0.000000
vt -1.000000 1.000000
vt 1.000000 1.000000
vt -2.750000 1.000000
vt -2.750000 -0.000000
vt 1.000000 -0.000000
vt -2.750000 -0.000000
vt -2.750000 1.000000
vt 0.592895 -0.416666
vt -0.491812 1.083331
vt -0.491812 -0.416668
vt -2.915309 1.083318
vt -1.830618 -0.416659
vt -1.830618 1.083319
vt 9.338775 1.083325
vt 10.423479 -0.416666
vt 10.423479 1.083328
vt -4.576523 1.083328
vt -3.491813 -0.416667
vt -3.491815 1.083331
vt 0.254078 1.083321
vt 1.338772 -0.416663
vt 1.338772 1.083324
vt 11.169386 1.083319
vt 12.254076 -0.416661
vt 12.254076 1.083320
vt -12.915307 -0.416658
vt -14.000000 1.083318
vt -14.000000 -0.416658
vt -0.554379 -0.226424
vt -0.313010 0.831089
vt -2.074026 1.679149
vt -0.407105 -0.416666
vt -0.407105 1.083333
vt -1.491812 1.083331
vt -2.915309 1.083318
vt -2.915309 -0.416659
vt -1.830618 -0.416659
vt 9.338775 1.083325
vt 9.338775 -0.416669
vt 10.423479 -0.416666
vt -4.576523 1.083328
vt -4.576521 -0.416670
vt -3.491813 -0.416667
vt 0.254078 1.083321
vt 0.254078 -0.416667
vt 1.338772 -0.416663
vt 11.169386 1.083319
vt 11.169386 -0.416663
vt 12.254076 -0.416661
vt -12.915307 -0.416658
vt -12.915307 1.083318
vt -14.000000 1.083318
vt 0.686990 -0.168911
vt 0.010684 0.679149
vt -1.074026 0.679149
vt -0.074026 1.679149
vt -0.750330 0.831089
vt -0.508959 -0.226424
vt -0.508959 -0.226424
vt 0.468330 -0.697062
vt -0.074026 1.679149
vt -0.531670 -0.697062
vt 0.445621 -0.226424
vt -1.074026 1.679149
vt 0.000000 -0.000000
vt 2.131439 -0.248668
vt 2.131439 -0.000000
vt 0.000000 -0.000000
vt 2.131438 -0.248668
vt 2.131438 -0.000000
vt 0.000000 -0.000000
vt 0.000000 -0.248668
vt 2.131439 -0.248668
vt 0.000000 -0.000000
vt 0.000000 -0.248668
vt 2.131438 -0.248668
vt 3.600000 -1.000000
vt 0.000000 -0.000000
vt 0.000000 -1.000000
vt -3.068359 1.000000
vt 0.531250 -0.000000
vt 0.531250 1.000000
vt -7.156250 1.000000
vt 2.443359 -0.000000
vt 2.443359 1.000000
vt -7.156250 1.000000
vt 2.443359 -0.000000
vt 2.443359 1.000000
vt -3.068359 1.000000
vt 0.531250 -0.000000
vt 0.531250 1.000000
vt 3.600000 -1.000000
vt 0.000000 -0.000000
vt 0.000000 -1.000000
vt 3.600000 -1.000000
vt 3.600000 -0.000000
vt 0.000000 -0.000000
vt -2.068359 1.000000
vt -2.068359 -0.000000
vt 1.531250 -0.000000
vt -4.156250 1.000000
vt -4.156250 -0.000000
vt 5.443359 -0.000000
vt -4.156250 1.000000
vt -4.156250 -0.000000
vt 5.443359 -0.000000
vt -2.068359 1.000000
vt -2.068359 -0.000000
vt 1.531250 -0.000000
vt 3.600000 -1.000000
vt 3.600000 -0.000000
vt 0.000000 -0.000000
vt 3.711864 -0.000000
vt 1.000000 1.000000
vt 1.000000 -0.000000
vt -2.000000 1.000000
vt 0.711864 -0.000000
vt 0.711864 1.000000
vt 3.711864 -0.000000
vt 3.711864 1.000000
vt 1.000000 1.000000
vt -2.000000 1.000000
vt -2.000000 -0.000000
vt 0.711864 -0.000000
vt -0.000000 -0.000000
vt -1.000000 1.000000
vt -1.000000 -0.000000
vt 0.100000 -1.000000
vt 1.000000 -0.000000
vt 0.000000 -1.000000
vt 0.000000 -0.000000
vt 0.900000 -1.000000
vt 1.000000 -1.000000
vt 0.000000 -0.000000
vt 1.000000 -1.000000
vt 1.000000 -0.000000
vt -0.000000 -0.000000
vt -0.000000 1.000000
vt -1.000000 1.000000
vt 0.100000 -1.000000
vt 1.000000 -1.000000
vt 1.000000 -0.000000
vt 0.000000 -0.000000
vt 0.000000 -1.000000
vt 0.900000 -1.000000
vt 0.000000 -0.000000
vt 0.000000 -1.000000
vt 1.000000 -1.000000
vt 0.666962 0.008101
vt 0.260990 0.008095
vt 0.845367 -0.991895
vt 3.295600 -1.071754
vt 2.834313 -0.392213
vt 2.834313 -0.959781
vt -1.547890 -0.300863
vt -2.000000 -1.059322
vt -1.547890 -0.966750
vt 2.008729 -0.454751
vt 2.357718 -0.958448
vt 2.448348 -0.359855
vt -0.979884 -1.046012
vt -0.530646 -1.710172
vt -0.509009 -1.067577
vt 0.912504 2.289755
vt 0.469539 1.609347
vt 0.951820 1.609347
vt -1.793732 -0.654413
vt -2.395814 -0.020317
vt -2.291351 -0.654416
vt 5.090201 -0.621904
vt 4.741396 -0.005581
vt 4.742660 -0.621386
vt 4.741395 -0.005581
vt 3.000000 -0.618785
vt 4.742660 -0.621386
vt 3.572391 0.528155
vt 2.822220 -0.026455
vt 3.564887 0.011408
vt 3.564887 0.011408
vt 3.867331 0.511042
vt 3.572391 0.528154
vt 0.007542 -0.321565
vt -0.002598 -0.973102
vt 0.260990 0.008095
vt -0.002598 -0.973102
vt 0.845367 -0.991895
vt 0.260990 0.008095
vt 0.845367 -0.991895
vt 0.852330 -0.253409
vt 0.666962 0.008101
vt 3.295600 -1.071754
vt 3.295600 -0.504186
vt 2.834313 -0.392213
vt -1.547890 -0.300863
vt -2.000000 -0.393435
vt -2.000000 -1.059322
vt 2.008729 -0.454751
vt 2.000001 -0.932257
vt 2.357718 -0.958448
vt -0.979884 -1.046012
vt -1.013886 -1.710172
vt -0.530646 -1.710172
vt 0.912504 2.289755
vt 0.444520 2.256378
vt 0.469539 1.609347
vt -1.793732 -0.654413
vt -1.662476 -0.021782
vt -2.395814 -0.020317
vt 5.090201 -0.621904
vt 5.090202 -0.004795
vt 4.741396 -0.005581
vt 4.741395 -0.005581
vt 2.998752 -0.009508
vt 3.000000 -0.618785
vt 3.572391 0.528155
vt 2.750801 0.575849
vt 2.822220 -0.026455
vt 3.564887 0.011408
vt 3.873548 0.027145
vt 3.867331 0.511042
vt -0.666670 1.500000
vt 2.999997 -0.166667
vt -0.666670 -0.166667
vt -0.666670 1.500000
vt 2.999997 1.500000
vt 2.999997 -0.166667
vt 0.200000 -2.600000
vt -0.100000 -2.600000
vt -0.100000 -2.800000
vt -0.100000 -5.200000
vt -0.100000 -5.400000
vt 0.200000 -5.400000
vt -0.100000 -2.800000
vt 0.200000 -2.800000
vt 0.200000 -2.600000
vt -1.489673 3.928254
vt 1.472713 -2.460951
vt 2.958478 -0.675354
vt 3.306475 1.114889
vt 9.254869 2.483930
vt 3.155246 0.658542
vt 1.354321 6.903595
vt 2.333991 2.466925
vt 1.844156 2.316811
vt 9.271726 1.439043
vt 5.043182 2.010876
vt 4.901034 1.835653
vt 5.694673 2.551360
vt 5.243696 3.705669
vt 5.208162 2.345835
vt 1.905773 4.341425
vt 0.670786 3.354106
vt 2.322043 2.666096
vt 0.200000 -5.400000
vt 0.200000 -5.199999
vt -0.100000 -5.200000
vt 0.200000 -5.199999
vt -0.100000 -2.800000
vt -0.100000 -5.200000
vt 3.811810 2.960307
vt 4.587516 1.573393
vt 4.740005 1.734982
vt 4.002891 3.309642
vt 3.793185 4.635622
vt 3.706814 3.256376
vt 3.103272 0.686956
vt 1.755125 2.156972
vt 2.233737 2.310146
vt 9.951612 -2.290051
vt 10.555258 0.405725
vt 9.190695 0.484007
vt 9.190695 0.484007
vt 9.308071 1.008186
vt 5.090098 1.679950
vt 4.259852 3.042219
vt 4.519618 4.422718
vt -1.489673 3.928254
vt 9.951612 -2.290051
vt 9.190695 0.484007
vt 8.587049 -2.211769
vt 9.190695 0.484007
vt 5.090098 1.679950
vt 8.587049 -2.211769
vt 5.090098 1.679950
vt 4.259852 3.042219
vt 2.958478 -0.675354
vt 4.259852 3.042219
vt -1.489673 3.928254
vt 2.958478 -0.675354
vt -1.489673 3.928254
vt -3.703043 -5.956258
vt 1.472713 -2.460951
vt -3.703043 -5.956258
vt 0.009396 -7.011951
vt 1.472713 -2.460951
vt 8.587049 -2.211769
vt 5.090098 1.679950
vt 2.958478 -0.675354
vt 2.958478 -0.675354
vt 8.497620 -2.611143
vt 8.587049 -2.211769
vt 3.306475 1.114889
vt 9.251141 2.842138
vt 9.254869 2.483930
vt 1.354321 6.903595
vt 1.799334 6.987859
vt 2.333991 2.466925
vt 9.271726 1.439043
vt 9.299067 1.731661
vt 5.043182 2.010876
vt 5.208162 2.345835
vt 6.084172 1.157730
vt 5.694673 2.551360
vt 6.084172 1.157730
vt 10.333193 0.908539
vt 10.382799 1.408504
vt 5.694673 2.551360
vt 6.084172 1.157730
vt 10.382799 1.408504
vt 5.694673 2.551360
vt 5.647235 3.765945
vt 5.243696 3.705669
vt 2.322043 2.666096
vt 6.862409 2.478068
vt 2.659172 3.591362
vt 6.862409 2.478068
vt 7.015339 3.591230
vt 2.659172 3.591362
vt 2.659103 9.405264
vt 1.761237 9.343336
vt 1.905773 4.341425
vt 1.761237 9.343336
vt 0.670786 3.354106
vt 1.905773 4.341425
vt 2.322043 2.666096
vt 2.659172 3.591362
vt 1.905773 4.341425
vt 0.200000 -5.199999
vt 0.200000 -2.800000
vt -0.100000 -2.800000
vt 3.811810 2.960307
vt 3.518473 2.905180
vt 4.587516 1.573393
vt 4.002891 3.309642
vt 4.040650 4.670041
vt 3.793185 4.635622
vt 3.103272 0.686956
vt 2.925064 0.267835
vt 1.755125 2.156972
vn 0.0000 1.0000 0.0000
vn 0.0000 0.9439 0.3304
vn 0.0000 0.0000 1.0000
vn -1.0000 0.0000 0.0000
vn 1.0000 0.0000 0.0000
vn -0.9905 0.0000 0.1376
vn 0.9465 0.0000 -0.3227
vn 0.9790 0.0000 0.2040
vn -0.0000 0.0000 -1.0000
vn -0.9529 0.0000 -0.3032
vn 0.0181 0.9998 -0.0012
vn -0.0178 0.9998 -0.0031
vn 0.0137 0.9998 -0.0119
vn -0.6235 0.0000 0.7818
vn 0.9010 0.0000 0.4339
vn -0.6235 0.0000 -0.7818
vn 0.2225 0.0000 -0.9749
vn 0.9010 0.0000 -0.4339
vn 0.2225 0.0000 0.9749
vn 1.0000 0.0000 -0.0043
vn 0.0020 -0.0053 -1.0000
vn -0.9536 0.0000 0.3011
vn 0.9536 0.0000 0.3011
vn -0.9999 -0.0068 0.0111
vn -1.0000 -0.0076 0.0041
vn 0.1976 -0.1998 -0.9597
vn 0.2571 -0.3673 0.8939
vn -0.9999 -0.0163 0.0014
vn 1.0000 0.0065 0.0016
vn 1.0000 0.0048 0.0025
vn 1.0000 0.0046 0.0016
vn 1.0000 0.0084 0.0016
vn -0.9999 -0.0169 0.0026
vn -0.9999 -0.0168 0.0001
vn 0.0010 -0.0001 -1.0000
vn -0.0014 -0.0014 -1.0000
vn -0.0014 -0.0041 -1.0000
vn -0.9537 -0.0071 0.3007
vn -0.9999 -0.0042 0.0149
vn -1.0000 0.0000 0.0092
vn 0.2633 -0.2988 -0.9173
vn 0.1765 -0.2496 0.9521
vn -0.9999 -0.0118 0.0037
vn 1.0000 0.0077 0.0005
vn 1.0000 0.0059 -0.0000
vn 1.0000 0.0003 -0.0015
vn 1.0000 0.0000 0.0005
vn -0.9999 -0.0106 0.0004
vn -0.9998 -0.0200 0.0026
vn 0.0000 -1.0000 0.0000
vn 0.3923 0.9197 -0.0188
vn 0.3511 0.9363 0.0000
vn 0.3679 0.9298 0.0019
vn -0.3679 0.9298 0.0019
vn -0.3511 0.9363 0.0000
vn -0.3923 0.9197 -0.0188
vn 0.0089 0.9661 0.2578
vn 0.0000 0.9701 0.2425
vn 0.0239 0.9792 0.2016
vn 0.0730 0.9972 0.0152
vn 0.0037 0.9980 -0.0626
vn 0.4956 0.8594 0.1254
vn 0.5197 0.8408 -0.1513
vn 0.4356 0.8846 0.1665
vn 0.0542 0.9184 -0.3919
vn 0.0528 0.8981 -0.4366
vn -0.0325 0.9265 -0.3748
vn -0.5232 0.8498 -0.0643
vn -0.5286 0.8483 -0.0319
vn -0.5096 0.8603 0.0145
vn -0.0069 1.0000 -0.0005
vn 0.0239 0.9997 0.0088
vn -0.0144 0.9999 0.0078
vn 0.0084 0.9988 0.0474
vn -0.0239 0.9792 0.2016
vn -0.0089 0.9661 0.2578
vn -0.0180 0.9695 0.2445
vn 0.0031 0.9657 0.2598
vn -0.3158 0.8861 -0.3392
vn -0.2343 0.9107 -0.3401
vn -0.3075 0.8780 -0.3667
vn -0.0038 0.9321 -0.3622
vn -0.1971 0.9365 -0.2901
vn 0.0277 0.9569 -0.2891
vn 0.1607 0.9197 -0.3581
vn 0.1772 0.9436 -0.2798
vn 0.2181 0.9190 -0.3286
vn -0.0139 0.9999 -0.0006
vn -0.0115 0.9977 0.0664
vn 0.0579 0.9978 -0.0327
vn -0.0103 0.9822 -0.1875
vn -0.0339 0.9977 0.0583
vn 0.0149 0.9977 -0.0657
vn -0.0657 0.9978 0.0103
vn 0.0571 0.9980 0.0257
vn -0.0270 0.9978 -0.0608
vn 0.0608 0.9980 -0.0150
vn 0.0341 0.9972 -0.0663
vn 0.0157 0.9999 0.0009
vn -0.0593 0.9972 -0.0451
vn -0.0671 0.9977 -0.0058
vn 0.0139 0.9980 0.0611
vn -0.0147 0.9980 0.0609
vn 0.2668 0.9613 0.0692
vn 0.5458 0.8233 0.1557
vn 0.5763 0.8029 0.1521
vn 0.3038 0.9495 0.0783
vn 0.0464 0.9042 -0.4245
vn 0.0490 0.8923 -0.4488
vn 0.0014 0.8942 -0.4476
vn -0.3393 0.9399 -0.0376
vn -0.3400 0.9399 -0.0324
vn -0.3430 0.9393 -0.0049
vn -0.0009 0.9997 0.0254
vn 0.0148 0.9998 -0.0119
vn 0.0008 0.9998 0.0190
vn 0.0087 1.0000 0.0011
vn 0.0183 0.9998 -0.0051
vn -0.0065 1.0000 0.0022
vn -0.0478 0.9988 -0.0053
vn 0.0114 0.9999 -0.0008
vn 0.0112 0.9999 0.0021
vn 0.0135 0.9993 -0.0339
vn 0.0231 0.9993 -0.0281
vn -0.0052 0.9999 0.0155
vn -0.0195 0.9988 0.0440
vn -0.0029 0.9656 0.2599
vn -0.2800 0.9151 -0.2902
vn -0.2879 0.9294 -0.2311
vn -0.2005 0.9232 -0.3278
vn -0.0046 0.9134 -0.4070
vn -0.0296 0.9121 -0.4088
vn -0.0176 0.9751 -0.2212
vn 0.2528 0.8541 -0.4546
vn 0.2025 0.8667 -0.4559
vn 0.3208 0.8607 -0.3953
vc 1.0000 1.0000 1.0000 1.0000
g mesh_115_Collection_materials/lonlonwood.vmat#SFX_A#NoMesh
usemtl materials/lonlonwood.vmat
f 123/1/1 145/2/1 102/3/1
fc 1 1 1
f 128/4/2 102/5/2 104/6/2
fc 1 1 1
f 122/7/3 120/8/3 29/9/3
fc 1 1 1
f 150/10/3 107/11/3 104/12/3
fc 1 1 1
f 5/13/1 40/14/1 6/15/1
fc 1 1 1
f 93/16/3 148/17/3 88/18/3
fc 1 1 1
f 2/19/4 105/20/4 63/21/4
fc 1 1 1
f 88/22/5 58/23/5 130/24/5
fc 1 1 1
f 19/25/3 65/26/3 105/27/3
fc 1 1 1
f 123/28/1 95/29/1 145/30/1
fc 1 1 1
f 128/31/2 132/32/2 102/33/2
fc 1 1 1
f 122/34/3 2/35/3 120/36/3
fc 1 1 1
f 150/37/3 117/38/3 107/39/3
fc 1 1 1
f 5/40/1 1/41/1 40/42/1
fc 1 1 1
f 93/43/3 140/44/3 148/45/3
fc 1 1 1
f 63/46/4 65/47/4 120/48/4
fc 1 1 1
f 120/49/4 2/50/4 63/51/4
fc 1 1 1
f 130/52/5 19/53/5 93/54/5
fc 1 1 1
f 93/55/5 88/56/5 130/57/5
fc 1 1 1
f 19/58/3 58/59/3 65/60/3
fc 1 1 1
g mesh_115_Collection_materials/courtyardwalls.vmat#SFX_2#NoMesh
usemtl materials/courtyardwalls.vmat
f 52/61/6 81/62/6 112/63/6
fc 1 1 1
f 15/64/7 60/65/7 18/66/7
fc 1 1 1
f 61/67/5 82/68/5 50/69/5
fc 1 1 1
f 52/70/3 44/71/3 81/72/3
fc 1 1 1
f 20/73/4 13/74/4 42/75/4
fc 1 1 1
f 131/76/8 15/77/8 51/78/8
fc 1 1 1
f 60/79/9 85/80/9 32/81/9
fc 1 1 1
f 85/82/10 4/83/10 43/84/10
fc 1 1 1
f 112/85/6 4/86/6 56/87/6
fc 1 1 1
f 56/88/6 52/89/6 112/90/6
fc 1 1 1
f 15/91/7 131/92/7 60/93/7
fc 1 1 1
f 61/94/5 21/95/5 82/96/5
fc 1 1 1
f 52/97/3 23/98/3 44/99/3
fc 1 1 1
f 20/100/4 54/101/4 13/102/4
fc 1 1 1
f 51/103/8 44/104/8 23/105/8
fc 1 1 1
f 23/106/8 131/107/8 51/108/8
fc 1 1 1
f 84/109/9 18/110/9 21/111/9
fc 1 1 1
f 18/112/9 60/113/9 21/114/9
fc 1 1 1
f 85/115/9 43/116/9 20/117/9
fc 1 1 1
f 43/118/9 45/119/9 20/120/9
fc 1 1 1
f 45/121/9 54/122/9 20/123/9
fc 1 1 1
f 61/124/9 84/125/9 21/126/9
fc 1 1 1
f 85/127/9 20/128/9 27/129/9
fc 1 1 1
f 32/130/9 21/131/9 60/132/9
fc 1 1 1
f 85/133/9 27/134/9 32/135/9
fc 1 1 1
f 85/136/10 56/137/10 4/138/10
fc 1 1 1
g mesh_115_Collection_materials/lonlonwall.vmat#SFX_2#NoMesh
usemtl materials/lonlonwall.vmat
f 121/139/1 62/140/11 26/141/12
fc 1 1 1
f 40/142/4 1/143/4 139/144/4
fc 1 1 1
f 109/145/3 113/146/3 3/147/3
fc 1 1 1
f 6/148/5 3/149/5 113/150/5
fc 1 1 1
f 121/151/1 130/152/1 62/153/13
fc 1 1 1
f 139/154/4 114/155/4 40/156/4
fc 1 1 1
f 114/157/4 109/158/4 40/159/4
fc 1 1 1
f 109/160/3 114/161/3 113/162/3
fc 1 1 1
f 113/163/5 142/164/5 6/165/5
fc 1 1 1
f 142/166/5 5/167/5 6/168/5
fc 1 1 1
g mesh_115_Collection_materials/goronfloor.vmat#SFX_2#NoMesh
usemtl materials/goronfloor.vmat
f 64/169/1 38/170/1 134/171/1
fc 1 1 1
f 74/172/1 17/173/1 64/174/1
fc 1 1 1
f 64/175/1 8/176/1 9/177/1
fc 1 1 1
f 38/178/1 78/179/1 134/180/1
fc 1 1 1
f 78/181/1 13/182/1 134/183/1
fc 1 1 1
f 64/184/1 9/185/1 38/186/1
fc 1 1 1
f 134/187/1 74/188/1 64/189/1
fc 1 1 1
f 13/190/1 50/191/1 134/192/1
fc 1 1 1
g mesh_115_Collection_materials/housewalloutside.vmat#SFX_2#NoMesh
usemtl materials/housewalloutside.vmat
f 142/193/3 139/194/3 36/195/3
fc 1 1 1
f 35/196/4 138/197/4 137/198/4
fc 1 1 1
f 136/199/5 37/200/5 36/201/5
fc 1 1 1
f 36/202/3 35/203/3 142/204/3
fc 1 1 1
f 35/205/3 137/206/3 142/207/3
fc 1 1 1
f 137/208/3 5/209/3 142/210/3
fc 1 1 1
f 139/211/3 1/212/3 136/213/3
fc 1 1 1
f 139/214/3 136/215/3 36/216/3
fc 1 1 1
f 35/217/4 34/218/4 138/219/4
fc 1 1 1
f 136/220/5 135/221/5 37/222/5
fc 1 1 1
g mesh_115_Collection_materials/bundled_straw.vmat#SFX_D#NoMesh
usemtl materials/bundled_straw.vmat
f 71/223/14 59/224/14 69/225/14
fc 1 1 1
f 66/226/15 68/227/15 22/228/15
fc 1 1 1
f 72/229/16 103/230/16 25/231/16
fc 1 1 1
f 25/232/4 69/233/4 59/234/4
fc 1 1 1
f 73/235/17 96/236/17 72/237/17
fc 1 1 1
f 22/238/18 98/239/18 73/240/18
fc 1 1 1
f 70/241/19 67/242/19 71/243/19
fc 1 1 1
f 66/244/1 22/245/1 72/246/1
fc 1 1 1
f 71/247/14 67/248/14 59/249/14
fc 1 1 1
f 66/250/15 70/251/15 68/252/15
fc 1 1 1
f 72/253/16 96/254/16 103/255/16
fc 1 1 1
f 25/256/4 103/257/4 69/258/4
fc 1 1 1
f 73/259/17 98/260/17 96/261/17
fc 1 1 1
f 22/262/18 68/263/18 98/264/18
fc 1 1 1
f 70/265/19 66/266/19 67/267/19
fc 1 1 1
f 22/268/1 73/269/1 72/270/1
fc 1 1 1
f 72/271/1 25/272/1 59/273/1
fc 1 1 1
f 59/274/1 67/275/1 72/276/1
fc 1 1 1
f 67/277/1 66/278/1 72/279/1
fc 1 1 1
g mesh_115_Collection_materials/courtyardvariedwhitebricks.vmat#SFX_2#NoMesh
usemtl materials/courtyardvariedwhitebricks.vmat
f 57/280/5 123/281/5 49/282/5
fc 1 1 1
f 138/283/4 143/284/4 95/285/4
fc 1 1 1
f 57/286/5 135/287/5 123/288/5
fc 1 1 1
f 138/289/4 110/290/4 143/291/4
fc 1 1 1
g mesh_115_Collection_materials/woodfence.vmat#SFX_9#NoMesh#BackfaceCulling
usemtl materials/woodfence.vmat
f 136/292/5 149/293/5 90/294/5
fc 1 1 1
f 77/295/4 145/296/4 111/297/4
fc 1 1 1
f 111/298/3 41/299/3 144/300/3
fc 1 1 1
f 153/301/9 152/302/9 154/303/9
fc 1 1 1
f 156/304/20 159/305/20 157/306/20
fc 1 1 1
f 161/307/4 163/308/4 160/309/4
fc 1 1 1
f 136/310/5 141/311/5 149/312/5
fc 1 1 1
f 77/313/4 137/314/4 145/315/4
fc 1 1 1
f 111/316/3 145/317/3 41/318/3
fc 1 1 1
f 153/319/9 155/320/9 152/321/9
fc 1 1 1
f 156/322/20 158/323/20 159/324/20
fc 1 1 1
f 161/325/4 162/326/4 163/327/4
fc 1 1 1
g mesh_115_Collection_materials/stable.vmat#SFX_9#NoMesh
usemtl materials/stable.vmat
f 108/328/5 122/329/5 29/330/5
fc 1 1 1
f 115/331/4 148/332/4 140/333/4
fc 1 1 1
f 108/334/5 119/335/5 122/336/5
fc 1 1 1
f 115/337/4 126/338/4 148/339/4
fc 1 1 1
g mesh_115_Collection_materials/lonlonlog.vmat#SFX_A#NoMesh
usemtl materials/lonlonlog.vmat
f 49/340/5 118/341/5 91/342/5
fc 1 1 1
f 129/343/5 90/344/5 132/345/5
fc 1 1 1
f 41/346/4 151/347/4 128/348/4
fc 1 1 1
f 125/349/4 117/350/4 150/351/4
fc 1 1 1
f 49/352/5 116/353/5 118/354/5
fc 1 1 1
f 129/355/5 91/356/5 90/357/5
fc 1 1 1
f 41/358/4 107/359/4 151/360/4
fc 1 1 1
f 125/361/4 143/362/4 117/363/4
fc 1 1 1
g mesh_115_Collection_materials/goroncealing.vmat#SFX_2#NoMesh
usemtl materials/goroncealing.vmat
f 76/364/21 55/365/21 47/366/21
fc 1 1 1
f 78/367/22 42/368/22 13/369/22
fc 1 1 1
f 82/370/23 134/371/23 50/372/23
fc 1 1 1
f 46/373/24 38/374/25 48/375/25
fc 1 1 1
f 7/376/26 64/377/26 12/378/26
fc 1 1 1
f 10/379/27 38/380/27 9/381/27
fc 1 1 1
f 10/382/28 8/383/28 7/384/28
fc 1 1 1
f 75/385/29 74/386/30 14/387/31
fc 1 1 1
f 74/388/32 11/389/29 14/390/32
fc 1 1 1
f 53/391/33 64/392/33 17/393/33
fc 1 1 1
f 17/394/34 24/395/34 53/396/34
fc 1 1 1
f 24/397/35 28/398/35 55/399/35
fc 1 1 1
f 28/400/36 47/401/36 55/402/36
fc 1 1 1
f 47/403/37 75/404/37 76/405/37
fc 1 1 1
f 78/406/22 46/407/38 42/408/22
fc 1 1 1
f 82/409/23 11/410/23 134/411/23
fc 1 1 1
f 46/412/39 78/413/40 38/414/40
fc 1 1 1
f 7/415/41 8/416/41 64/417/41
fc 1 1 1
f 10/418/42 48/419/42 38/420/42
fc 1 1 1
f 10/421/43 9/422/43 8/423/43
fc 1 1 1
f 75/424/44 47/425/44 74/426/45
fc 1 1 1
f 74/427/46 134/428/47 11/429/47
fc 1 1 1
f 53/430/48 12/431/48 64/432/48
fc 1 1 1
f 17/433/49 28/434/49 24/435/49
fc 1 1 1
g mesh_115_Collection_materials/courtyardpillars.vmat#SFX_2#NoMesh
usemtl materials/courtyardpillars.vmat
f 114/436/50 142/437/50 113/438/50
fc 1 1 1
f 114/439/50 139/440/50 142/441/50
fc 1 1 1
g mesh_115_Collection_materials/courtyardgrass.vmat#SFX_8#NoMesh
usemtl materials/courtyardgrass.vmat
f 127/442/51 29/443/52 26/444/53
fc 1 1 1
f 62/445/54 148/446/55 31/447/56
fc 1 1 1
f 26/448/57 94/449/58 127/450/59
fc 1 1 1
f 81/451/1 101/452/60 80/453/61
fc 1 1 1
f 106/454/62 84/455/63 80/456/64
fc 1 1 1
f 51/457/65 79/458/66 101/459/67
fc 1 1 1
f 45/460/68 147/461/69 99/462/70
fc 1 1 1
f 92/463/1 97/464/71 16/465/72
fc 1 1 1
f 83/466/1 106/467/73 79/468/74
fc 1 1 1
f 31/469/75 39/470/58 62/471/76
fc 1 1 1
f 39/472/58 26/473/77 62/474/78
fc 1 1 1
f 16/475/79 99/476/80 147/477/81
fc 1 1 1
f 16/478/82 112/479/83 30/480/84
fc 1 1 1
f 106/481/85 101/482/86 79/483/87
fc 1 1 1
f 50/484/1 13/485/1 54/486/1
fc 1 1 1
f 54/487/1 45/488/88 99/489/89
fc 1 1 1
f 30/490/90 112/491/91 81/492/1
fc 1 1 1
f 50/493/1 54/494/1 61/495/1
fc 1 1 1
f 54/496/1 99/497/92 61/498/1
fc 1 1 1
f 99/499/93 30/500/94 80/501/95
fc 1 1 1
f 30/502/96 81/503/1 80/504/97
fc 1 1 1
f 81/505/1 44/506/1 101/507/98
fc 1 1 1
f 44/508/1 51/509/99 101/510/100
fc 1 1 1
f 61/511/1 99/512/101 80/513/102
fc 1 1 1
f 80/514/103 84/515/104 61/516/1
fc 1 1 1
f 106/517/105 33/518/106 84/519/107
fc 1 1 1
f 51/520/108 133/521/109 79/522/110
fc 1 1 1
f 45/523/111 146/524/112 147/525/113
fc 1 1 1
f 16/526/114 147/527/115 92/528/1
fc 1 1 1
f 147/529/116 146/530/117 124/531/1
fc 1 1 1
f 92/532/1 147/533/118 124/534/1
fc 1 1 1
f 92/535/1 89/536/1 97/537/119
fc 1 1 1
f 79/538/120 133/539/121 100/540/1
fc 1 1 1
f 133/541/122 86/542/1 100/543/1
fc 1 1 1
f 87/544/1 33/545/123 83/546/1
fc 1 1 1
f 33/547/124 106/548/125 83/549/1
fc 1 1 1
f 79/550/126 100/551/1 83/552/1
fc 1 1 1
f 39/553/58 94/554/58 26/555/127
fc 1 1 1
f 16/556/128 30/557/129 99/558/130
fc 1 1 1
f 16/559/131 97/560/132 112/561/133
fc 1 1 1
f 106/562/134 80/563/135 101/564/136
fc 1 1 1
g mesh_118_Collection
v 435.199951 12.818060 1177.599854
v -281.600006 25.618059 537.600037
v 447.999939 12.818060 559.229675
v -780.799988 25.618059 1177.599976
v -422.399963 25.618059 1177.599976
v -371.200012 25.618059 435.200043
v -972.799988 25.618059 614.400085
v 603.733215 12.818060 537.599976
v 614.399963 12.818060 614.399963
v 294.400024 12.818060 1177.599976
v -927.466553 25.618059 396.800110
vt 0.554332 0.000000
vt 0.679190 0.231267
vt 0.705294 1.577499
vt -4.197814 1.131117
vt -4.000000 1.000000
vt -3.000000 1.000000
vt 0.679190 0.231267
vt 0.894586 1.524694
vt 0.705294 1.577499
vt 0.705294 1.577499
vt 0.115594 1.000000
vt 0.000000 0.172547
vt 0.000000 0.172547
vt 0.554332 0.000000
vt 0.705294 1.577499
vt -3.000000 1.000000
vt -3.000000 2.000000
vt -3.936416 2.032754
vt -3.936416 2.032754
vt -4.197814 1.131117
vt -3.000000 1.000000
vn 0.0000 1.0000 0.0000
vc 1.0000 1.0000 1.0000 1.0000
g mesh_118_Collection_materials/sealsig.vmat#SFX_6#NoMesh
usemtl materials/sealsig.vmat
f 165/565/137 169/566/137 170/567/137
fc 2 2 2
f 172/568/137 171/569/137 166/570/137
fc 2 2 2
f 169/571/137 174/572/137 170/573/137
fc 2 2 2
f 170/574/137 167/575/137 168/576/137
fc 2 2 2
f 168/577/137 165/578/137 170/579/137
fc 2 2 2
f 166/580/137 173/581/137 164/582/137
fc 2 2 2
f 164/583/137 172/584/137 166/585/137
fc 2 2 2
g mesh_116_Collection
v 210.954300 0.000003 3091.199707
v -295.113708 0.018063 3091.885986
v 210.314789 0.005307 2843.073242
v -294.994690 0.018063 2843.073242
vt 7.384378 -2.140182
vt 7.103313 0.110470
vt 6.858145 -2.079282
vt 7.384378 -2.140182
vt 7.628463 0.053023
vt 7.103313 0.110470
vn 0.0000 1.0000 0.0000
vc 1.0000 1.0000 1.0000 1.0000
g mesh_116_Collection_materials/goronfloor.vmat.001#SFX_2#Exit01#NoMesh
usemtl materials/goronfloor.vmat.001
f 176/586/138 177/587/138 178/588/138
fc 3 3 3
f 176/589/138 175/590/138 177/591/138
fc 3 3 3
g mesh_117_Collection
v 19.200005 44.818058 64.000000
v 83.199989 44.818058 -64.000000
v 19.199993 44.818058 -63.999992
v 83.199997 44.818058 63.999992
vt -0.000000 -1.000000
vt 0.396040 0.584159
vt -0.000000 0.584159
vt -0.000000 -1.000000
vt 0.396040 -1.000000
vt 0.396040 0.584159
vn 0.0000 1.0000 -0.0000
vc 1.0000 1.0000 1.0000 1.0000
g mesh_117_Collection_materials/lonlonwood.vmat.001#SFX_A#Exit00#NoMesh
usemtl materials/lonlonwood.vmat.001
f 180/592/139 179/593/139 182/594/139
fc 4 4 4
f 180/595/139 181/596/139 179/597/139
fc 4 4 4
