# Blender v5.0.0 OBJ File: 'outside.blend'
# www.blender.org
mtllib outside.mtl
g mesh_114_Collection
v 561.425659 243.402573 2268.000000
v 565.497681 0.018066 2348.457275
v 563.389771 0.018066 1785.257324
v 560.902222 243.033569 1885.828369
v -294.400024 217.618042 1600.000244
v -691.200134 188.818054 -12.799561
v 56.888840 294.418030 1600.000244
v -521.600159 12.818062 -223.999756
v -171.200165 167.576523 78.472900
v -843.034546 588.818054 1254.400391
v -25.600189 390.418030 -115.199707
v 181.652542 169.618073 -25.816406
v -183.466675 294.418030 1600.000244
v 127.999908 192.018051 1177.600220
v -662.400146 12.818062 -95.999756
v -0.000168 233.618042 74.264648
v 181.652496 105.618080 -65.599609
v -1054.896606 588.818054 632.938354
v 89.599823 169.618042 74.264648
v 89.599823 169.618042 76.800293
v 25.599915 294.418030 1177.600220
v -1054.896606 422.418030 632.938354
v -0.000168 169.618042 76.800293
v -618.681091 64.018059 -126.003174
v -691.200134 188.818054 -268.799561
v -843.034668 588.818054 -383.999512
v -651.246643 64.018059 -151.973389
v -230.400177 265.618042 -307.199707
v -230.400146 265.618042 76.800293
v 179.199814 265.618042 76.800293
v 179.199799 265.618042 -307.199707
v -512.000122 304.018066 -140.799561
v -578.072571 64.018059 -135.271729
v 555.254944 588.818054 -383.999512
v -843.034668 422.418030 -383.999512
v -662.400146 12.818062 -223.999756
v 181.652527 169.618073 -65.599609
v -130.728729 167.576508 78.472900
v -332.800171 188.818054 -268.799561
v 204.799927 192.018051 1600.000244
v 696.496399 422.418030 632.938232
v -0.000168 233.618042 38.400391
v 181.652542 105.618073 -25.816406
v 181.652603 169.618042 14.400391
v -618.681091 57.618061 -126.003174
v -171.200165 231.576538 78.472900
v -332.800171 188.818054 -12.799561
v -130.728729 231.576508 78.472900
v 498.758484 422.418030 1254.400269
v -91.200165 167.576508 78.472900
v 181.652618 105.618057 14.400391
v 76.799820 233.618042 74.264648
v 76.799820 169.618042 74.264648
v -91.200165 231.576508 78.472900
v 498.758484 588.818054 1254.400269
v 76.799820 233.618042 76.800293
v 89.599823 169.618042 38.400391
v 89.599823 233.618042 38.400391
v -0.000168 169.618042 38.400391
v -0.000168 169.618042 74.264648
v 44.799820 169.618042 74.264648
v 15.006760 1.049507 435.200317
v 87.393013 1.049507 1075.200317
v -117.406952 1.049507 1075.200317
v 219.806732 1.049507 435.200317
v 89.599823 233.618042 74.264648
v 44.799820 233.618042 74.264648
v -521.600159 12.818062 -95.999756
v 696.496399 588.818054 632.938232
v -843.034546 422.418030 1254.400391
v -651.246643 57.618061 -193.625977
v 555.254944 422.418030 -383.999512
v -618.681091 57.618061 -219.596191
v 25.599915 294.418030 1356.800293
v -140.800079 294.418030 1356.800293
v -217.600067 217.618042 1356.800293
v -281.600128 25.618065 537.600342
v 294.399902 12.818062 1177.600220
v 603.733154 12.818062 537.600342
v -927.466675 25.618065 396.800293
v -422.400085 25.618065 1177.600220
v 614.399780 12.818062 614.400269
v -371.200134 25.618065 435.200317
v -780.800049 25.618065 1177.600342
v 435.199890 12.818062 1177.600220
v 447.999817 12.818062 559.229980
v -972.800049 25.618065 614.400391
v 603.733154 51.218060 537.600342
v -422.400085 64.018059 1177.600220
v -281.600128 64.018059 537.600342
v -972.800049 64.018059 614.400391
v -422.400085 25.618065 1177.600220
v 435.199890 51.218060 1177.600220
v -371.200134 25.618065 435.184326
v 447.999817 51.218060 559.229980
v 294.399902 51.218060 1177.600220
v -371.200134 64.018059 435.200317
v -927.466675 64.018059 396.800293
v 614.399780 51.218060 614.400269
v -780.800049 64.018059 1177.600342
v 447.999817 12.818062 559.229980
v 83.199821 44.818062 76.800293
v 83.199814 44.818062 -63.999756
v 19.199814 44.818062 -63.999756
v 19.199829 44.818062 76.800293
v -678.400146 188.818054 -12.799561
v 19.199814 147.218048 -63.999756
v 83.199814 147.218048 -63.999756
v -691.200134 188.818054 -268.799561
v -128.000153 249.618042 76.800293
v -128.000153 44.818062 76.800293
v -128.000153 265.618042 76.800293
v 179.199799 44.818062 -127.999756
v -358.400146 0.018066 -12.799561
v 76.799820 147.218048 76.800293
v 179.199799 265.618042 -127.999756
v -578.072571 57.618061 -210.327637
v -230.400146 265.618042 -25.599609
v 179.199799 44.818062 -217.599609
v -691.200134 0.018066 -268.799561
v -0.000168 233.618042 76.800293
v -230.400146 265.618042 -127.999756
v -230.400146 44.818062 -127.999756
v 89.599823 233.618042 76.800293
v -651.246643 64.018059 -193.625977
v -618.681091 64.018059 -219.596191
v -578.072571 64.018059 -210.327637
v -560.000122 64.018059 -172.799561
v 179.199799 44.818062 -307.199707
v 179.199814 44.818062 76.800293
v -230.400146 44.818062 76.800293
v -230.400177 44.818062 -307.199707
v 83.199821 147.218048 76.800293
v -691.200134 188.818054 -12.799561
v 179.199814 76.818054 76.800293
v 19.199829 147.218048 76.800293
v -25.600174 44.818062 76.800293
v -25.600174 265.618042 76.800293
v -230.400146 44.818062 192.000244
v -345.600159 188.818054 -12.799561
v -678.400146 0.018066 -12.799561
v 76.799820 169.618042 76.800293
v 179.199829 76.818054 192.000244
v 179.199799 265.618042 -217.599609
v 76.799835 0.018066 307.200439
v -230.400146 44.818062 -25.599609
v 179.199829 44.818062 192.000244
v -665.600159 188.818054 -12.799561
v -665.600159 0.018066 -12.799561
v -345.600159 0.018066 -12.799561
v 76.799835 76.818054 192.000244
v 76.799820 265.618042 76.800293
v -651.246643 57.618061 -151.973389
v -230.400146 76.818054 76.800293
v 76.799835 44.818062 192.000244
v -230.400146 76.818054 192.000244
v 179.199814 265.618042 -25.599609
v 179.199814 44.818062 -25.599609
v -358.400146 188.818054 -12.799561
v -332.800171 0.018066 -268.799561
v -332.800171 188.818054 -12.799561
v -332.800171 188.818054 -268.799561
v -230.400146 44.818062 76.800293
v -230.400146 44.818062 192.000244
v -560.000122 57.618061 -172.799561
v -230.400177 0.018066 -307.199707
v 179.199829 44.818062 192.000244
v -927.466675 25.618065 396.800293
v -230.400146 0.018066 76.800293
v -230.400146 0.018066 192.000244
v 179.199814 44.818062 76.800293
v 603.733154 12.818062 537.600342
v 294.399902 12.818062 1177.600220
v 179.199829 0.018066 307.200439
v 76.799835 0.018066 320.000244
v 179.199814 0.018066 76.800293
v 179.199799 0.018066 -307.199707
v 179.199829 0.018066 192.000244
v 230.399902 12.818062 1177.600220
v 195.199905 0.018066 1177.600220
v 268.799866 12.818062 627.200317
v 592.622070 0.018066 457.600342
v 596.622070 12.818062 486.400269
v -578.072571 25.618065 -210.327637
v 249.599854 0.018066 611.200317
v 422.399902 12.818062 499.200317
v 415.999817 0.018066 464.000366
v -307.200073 25.618065 1177.600220
v -887.466675 0.018066 204.800293
v -268.800049 0.018066 1177.600220
v -115.200134 25.618065 422.400391
v -578.072571 57.618061 -135.271729
v -972.800049 422.418030 614.400391
v -281.600128 25.618065 537.600342
v 76.799835 44.818062 192.000244
v -898.133301 25.618065 256.000244
v -320.000122 25.618065 320.000244
v 179.199829 0.018066 320.000244
v -618.681091 25.618065 -219.596191
v 179.199814 44.818062 76.800293
v 76.799835 0.018066 192.000244
v -230.400146 44.818062 76.800293
v 179.199829 44.818062 192.000244
v 614.399780 0.018066 614.400269
v -300.800110 0.018066 262.400391
v -294.400024 0.018066 1600.000244
v -358.400146 188.818054 -227.199707
v -217.600067 0.018066 1177.600220
v 127.999924 192.018051 1356.800293
v -217.600067 217.618042 1177.600220
v -665.600159 188.818054 -227.199707
v -64.000122 0.018066 403.200439
v 486.399780 0.018066 -307.199707
v 127.999924 0.018066 1356.800293
v -230.400177 265.618042 -217.599609
v -780.800110 422.418030 -307.199707
v -780.800049 0.018066 1177.600342
v 435.199890 0.018066 1177.600220
v -230.400177 44.818062 -217.599609
v -217.600067 0.018066 1356.800293
v -140.800079 294.418030 1177.600220
v 204.799927 0.018066 1600.000122
v -972.800049 0.018066 614.400391
v -780.800110 0.018066 -307.199707
v 486.399780 422.418030 -307.199707
v 127.999908 0.018066 1177.600220
v 614.399780 422.418030 614.400269
v -780.800049 422.418030 1177.600342
v 435.199890 422.418030 1177.600220
v -358.400146 9.618065 -227.199707
v -665.600159 9.618065 -12.799561
v -665.600159 9.618065 -227.199707
v -358.400146 9.618065 -12.799561
v -691.200134 0.018066 -12.799561
v -332.800171 0.018066 -12.799561
v -332.800171 0.018066 25.600342
v -691.200134 0.018066 25.600342
v 207.434738 0.018066 1887.657227
v 208.776108 0.018066 2246.057129
v 205.851761 243.033569 1951.656982
v 206.184845 243.402573 2194.857178
v -358.400146 57.618061 -227.199707
v -345.600159 137.618057 -12.799561
v -358.400146 0.018066 -227.199707
v -665.600159 0.018066 -227.199707
v -578.072571 70.418060 -210.327637
v -618.681091 70.418060 -219.596191
v -651.246643 70.418060 -193.625977
v -651.246643 70.418060 -151.973389
v -618.681091 70.418060 -126.003174
v -578.072571 70.418060 -135.271729
v -560.000122 70.418060 -172.799561
v -560.000122 12.818062 -172.799561
v -578.072571 12.818062 -135.271729
v -618.681091 12.818062 -126.003174
v -651.246643 12.818062 -151.973389
v -651.246643 12.818062 -193.625977
v -618.681091 12.818062 -219.596191
v -578.072571 12.818062 -210.327637
v -578.072571 19.218063 -210.327637
v -618.681091 19.218063 -219.596191
v -651.246643 19.218063 -193.625977
v -651.246643 19.218063 -151.973389
v -618.681091 19.218063 -126.003174
v -578.072571 19.218063 -135.271729
v -560.000122 19.218063 -172.799561
v -560.000122 25.618065 -172.799561
v -578.072571 25.618065 -135.271729
v -618.681091 25.618065 -126.003174
v -651.246643 25.618065 -151.973389
v -651.246643 25.618065 -193.625977
v -185.335815 297.195923 3090.514160
v 56.920547 294.504333 3091.002686
v -296.818665 220.400925 3090.981934
v -295.113617 0.018066 3091.886230
v 207.066711 194.464722 3091.169434
v 210.954346 0.000000 3091.200195
v 83.199821 44.818062 64.000244
v 83.199821 147.218048 64.000244
v 19.199829 147.218048 64.000244
v 19.199829 44.818062 64.000244
v -0.000168 169.618042 70.400391
v -0.000168 233.618042 70.400391
v 89.599823 233.618042 70.400391
v 89.599823 169.618042 70.400391
v 206.833755 207.392120 2854.400146
v 210.314835 0.005310 2843.073486
v -294.994629 0.018066 2843.073730
v -296.416534 219.938202 2843.073730
v -185.025543 296.734802 2843.073730
v 56.915283 294.490021 2843.381348
v -358.400146 0.018066 25.600342
v -665.600037 0.018066 25.600342
vt -7.477761 -0.811502
vt -8.716516 -0.436102
vt -8.716516 -0.811502
vt 1.000000 -2.373802
vt 0.000000 -2.623802
vt 1.000000 -2.623802
vt 7.044728 -0.436102
vt 7.973794 -0.811502
vt 7.973794 -0.436102
vt 6.000000 0.440000
vt 6.821333 0.000000
vt 6.821334 0.440000
vt 2.798400 -0.000000
vt 0.000000 -1.000000
vt 2.798400 -1.000000
vt 2.817367 -1.000000
vt 0.000001 -0.000000
vt 0.000000 -1.000000
vt 5.757577 -0.000000
vt 0.000000 -0.000000
vt 2.727273 -0.303030
vt 0.000000 -0.000000
vt 0.000000 -1.000000
vt 3.655973 -1.000000
vt 0.000000 -0.000000
vt 0.000000 -1.000000
vt 1.981034 -1.000000
vt 3.000000 1.000000
vt -3.000000 -0.000000
vt 3.000000 -0.000000
vt -5.142455 -0.000000
vt -6.071228 0.563898
vt -6.071227 0.000000
vt -7.477761 -0.811502
vt -7.477761 -0.436102
vt -8.716516 -0.436102
vt 1.000000 -2.373802
vt 0.000000 -2.373802
vt 0.000000 -2.623802
vt 7.044728 -0.436102
vt 7.044728 -0.811502
vt 7.973794 -0.811502
vt 6.000000 0.440000
vt 6.000000 0.000000
vt 6.821333 0.000000
vt 2.798400 -0.000000
vt 0.000000 -0.000000
vt 0.000000 -1.000000
vt 2.817367 -1.000000
vt 2.817367 -0.000000
vt 0.000001 -0.000000
vt 3.333333 -1.000000
vt 5.757575 -1.000000
vt 3.090909 -0.484849
vt 5.757575 -1.000000
vt 5.757577 -0.000000
vt 3.090909 -0.484849
vt 0.000000 -0.000000
vt 0.000000 -1.000000
vt 1.454545 -0.545455
vt 0.000000 -1.000000
vt 1.136364 -1.000000
vt 1.454545 -0.545455
vt 1.136364 -1.000000
vt 1.454545 -1.000000
vt 1.454545 -0.545455
vt 3.090909 -1.000000
vt 3.333333 -1.000000
vt 3.090909 -0.484849
vt 0.000000 -0.000000
vt 1.454545 -0.545455
vt 1.939394 -0.303030
vt 2.727273 -0.303030
vt 3.090909 -0.484849
vt 5.757577 -0.000000
vt 0.000000 -0.000000
vt 1.939394 -0.303030
vt 2.727273 -0.303030
vt 3.655973 -1.000000
vt 4.405523 -1.000000
vt 4.405523 -0.000000
vt 4.405523 -0.000000
vt 0.000000 -0.000000
vt 3.655973 -1.000000
vt 1.981034 -1.000000
vt 4.457327 -1.000000
vt 4.457328 -0.000000
vt 4.457328 -0.000000
vt 0.000000 -0.000000
vt 1.981034 -1.000000
vt 3.000000 1.000000
vt -3.000000 1.000000
vt -3.000000 -0.000000
vt -5.142455 -0.000000
vt -5.142456 0.563898
vt -6.071228 0.563898
vt -2.000000 -1.005025
vt -0.596410 -2.000000
vt -0.600000 -1.000000
vt -1.666667 3.833334
vt 1.666667 1.166667
vt 1.666667 3.833334
vt 1.500000 1.166667
vt -0.166667 3.833333
vt -0.166667 1.166667
vt -1.666667 1.166666
vt 1.666667 3.833333
vt 1.666667 1.166666
vt -1.775000 -4.000000
vt -0.100000 -6.400001
vt -0.100000 -4.000000
vt 2.000000 1.166667
vt 1.666667 3.833334
vt 1.666667 1.166667
vt 2.000000 3.833333
vt 1.666667 1.166666
vt 1.666667 3.833333
vt -2.000000 -1.005025
vt -1.996410 -2.005025
vt -0.596410 -2.000000
vt -1.666667 3.833334
vt -1.666667 1.166667
vt 1.666667 1.166667
vt 1.500000 1.166667
vt 1.500000 3.833333
vt -0.166667 3.833333
vt -1.666667 1.166666
vt -1.666667 3.833333
vt 1.666667 3.833333
vt -1.775000 -4.000000
vt -1.775000 -6.400001
vt -0.100000 -6.400001
vt 2.000000 1.166667
vt 2.000000 3.833334
vt 1.666667 3.833334
vt 2.000000 3.833333
vt 2.000000 1.166666
vt 1.666667 1.166666
vt -2.470588 -9.500000
vt -5.999999 -7.558824
vt -6.000000 -9.500000
vt -2.470588 -9.500000
vt -2.470586 -7.558824
vt -5.999999 -7.558824
vt 0.000000 -0.000000
vt 1.000000 -1.000000
vt 1.000000 -0.000000
vt 0.000001 -0.000000
vt 0.999999 -1.000000
vt 0.000000 -1.000000
vt 1.000000 -0.000000
vt 0.000000 -1.000000
vt 0.000000 -0.000000
vt 0.999999 -0.000000
vt 0.000001 -1.000000
vt 1.000000 -1.000000
vt 0.000000 -0.000000
vt 0.000000 -1.000000
vt 1.000000 -1.000000
vt 0.000001 -0.000000
vt 1.000000 -0.000000
vt 0.999999 -1.000000
vt 1.000000 -0.000000
vt 1.000000 -1.000000
vt 0.000000 -1.000000
vt 0.999999 -0.000000
vt 0.000000 -0.000001
vt 0.000001 -1.000000
vt 1.623003 -0.249201
vt 1.519169 -0.124601
vt 1.519169 -0.249201
vt 2.000000 -0.124601
vt 2.623003 -0.249201
vt 2.623003 -0.124601
vt 0.534003 -0.124601
vt 0.000000 -0.124601
vt 0.000000 -0.145367
vt -1.000000 -0.124601
vt -0.896166 -0.249201
vt -0.896166 -0.124601
vt 0.534002 -0.249201
vt 0.623003 -0.249201
vt 0.623003 -0.228435
vt 2.000000 -0.000000
vt 1.000000 1.000000
vt 1.000000 -0.000000
vt 1.000000 -0.000000
vt 0.000000 -1.000000
vt 0.000000 -0.000000
vt 1.000000 -1.000000
vt 0.000000 -0.000000
vt 0.000000 -1.000000
vt 1.000000 -1.000000
vt 0.000000 -1.000000
vt 0.000000 -0.072464
vt 0.125000 -0.434782
vt 0.000000 -0.434782
vt 0.062500 -0.536231
vt 1.000000 -1.000000
vt 0.000000 -0.000000
vt 0.000000 -1.000000
vt 0.750000 -0.434782
vt 0.750002 -0.144928
vt 1.000000 -0.000000
vt 1.000000 -0.000000
vt 0.000000 -1.000000
vt 0.000000 -0.000000
vt 1.000000 -1.000000
vt 0.000000 -0.000000
vt 0.000000 -1.000000
vt 1.000000 -0.000000
vt 0.000000 -0.000000
vt 0.000000 -0.072464
vt 1.000000 1.000000
vt 0.000000 -0.000000
vt 0.000000 1.000000
vt 1.000000 -0.000000
vt 0.000000 -1.000000
vt 0.000000 -0.000000
vt -0.376997 -0.249201
vt -0.896166 -0.124601
vt -0.896166 -0.249201
vt 0.000000 -0.249201
vt 0.623003 -0.145367
vt 0.000000 -0.145367
vt 1.000001 -0.124601
vt 1.519169 -0.249201
vt 1.519169 -0.124601
vt 0.623003 -0.124601
vt 0.000000 -0.228434
vt 0.623003 -0.228435
vt 1.623003 -0.249201
vt 1.623003 -0.124601
vt 1.519169 -0.124601
vt 2.000000 -0.124601
vt 2.000000 -0.249201
vt 2.623003 -0.249201
vt 0.000000 -0.145367
vt 0.623003 -0.145367
vt 0.534003 -0.124601
vt 0.623003 -0.145367
vt 0.623003 -0.124601
vt 0.534003 -0.124601
vt -1.000000 -0.124601
vt -1.000000 -0.249201
vt -0.896166 -0.249201
vt 0.623003 -0.228435
vt 0.000000 -0.228434
vt 0.534002 -0.249201
vt 0.000000 -0.228434
vt 0.000000 -0.249201
vt 0.534002 -0.249201
vt 2.000000 -0.000000
vt 2.000000 1.000000
vt 1.000000 1.000000
vt 1.000000 -0.000000
vt 1.000000 -1.000000
vt 0.000000 -1.000000
vt 1.000000 -1.000000
vt 1.000000 -0.000000
vt 0.000000 -0.000000
vt 0.000000 -0.072464
vt 0.000000 -0.000000
vt 1.000000 -0.000000
vt 1.000000 -0.000000
vt 1.000000 -1.000000
vt 0.000000 -0.072464
vt 1.000000 -0.000000
vt 0.000002 -0.000000
vt 0.125001 -0.144927
vt 0.000002 -0.000000
vt 0.000002 -0.144928
vt 0.125001 -0.144927
vt 0.062499 -1.000000
vt 0.999997 -1.000000
vt 0.062500 -0.536231
vt 0.999997 -1.000000
vt 1.000000 -0.000000
vt 0.125000 -0.434782
vt 0.062500 -0.536231
vt 0.999997 -1.000000
vt 0.125000 -0.434782
vt 0.000000 -0.434782
vt 0.000000 -0.536231
vt 0.062500 -0.536231
vt 1.000000 -0.000000
vt 0.125001 -0.144927
vt 0.125000 -0.434782
vt 1.000000 -1.000000
vt 1.000000 -0.000000
vt 0.000000 -0.000000
vt 1.000000 -0.000000
vt 0.999990 -1.000000
vt 0.750000 -0.434782
vt 0.999990 -1.000000
vt 0.562497 -0.999999
vt 0.562502 -0.536231
vt 0.750000 -0.434782
vt 0.999990 -1.000000
vt 0.562502 -0.536231
vt 0.562502 -0.536231
vt 0.000010 -0.536229
vt 0.000011 -0.434780
vt 0.000002 -0.144930
vt 0.000000 -0.000000
vt 0.750002 -0.144928
vt 0.000000 -0.000000
vt 1.000000 -0.000000
vt 0.750002 -0.144928
vt 0.562502 -0.536231
vt 0.000011 -0.434780
vt 0.750000 -0.434782
vt 1.000000 -0.000000
vt 1.000000 -1.000000
vt 0.000000 -1.000000
vt 1.000000 -1.000000
vt 1.000000 -0.000000
vt 0.000000 -0.000000
vt 0.000000 -0.072464
vt 0.000000 -1.000000
vt 1.000000 -1.000000
vt 1.000000 -1.000000
vt 1.000000 -0.000000
vt 0.000000 -0.072464
vt 1.000000 1.000000
vt 1.000000 -0.000000
vt 0.000000 -0.000000
vt 1.000000 -0.000000
vt 1.000000 -1.000000
vt 0.000000 -1.000000
vt -0.376997 -0.249201
vt -0.376997 -0.124601
vt -0.896166 -0.124601
vt 0.000000 -0.249201
vt 0.623003 -0.249201
vt 0.623003 -0.145367
vt 1.000001 -0.124601
vt 1.000000 -0.249201
vt 1.519169 -0.249201
vt 0.623003 -0.124601
vt 0.000000 -0.124601
vt 0.000000 -0.228434
vt 4.000000 -0.000000
vt 0.000000 -1.000000
vt 7.999999 -1.000000
vt -1.900000 -0.000000
vt -5.900001 -1.000000
vt 2.100000 -1.000000
vt 4.000000 -0.000000
vt 0.000000 -1.000000
vt 8.000001 -1.000000
vt 4.000000 -0.000000
vt 0.000000 -1.000000
vt 8.000000 -1.000000
vt 1.999188 -6.105271
vt 1.000000 -3.055879
vt 1.000000 -6.312000
vt 1.999188 -6.105271
vt 1.999188 -2.849150
vt 1.000000 -3.055879
vt 1.000000 3.000000
vt 0.000000 2.000000
vt 0.000000 3.000000
vt 1.714285 2.000000
vt 1.999997 2.999999
vt 1.714284 2.999999
vt 1.000000 3.000000
vt 1.000000 2.000000
vt 0.000000 2.000000
vt 1.000000 2.999999
vt 1.000002 2.000000
vt 1.714285 2.000000
vt 1.714285 2.000000
vt 1.999999 2.000000
vt 1.999997 2.999999
vt 1.714284 2.999999
vt 1.000000 2.999999
vt 1.714285 2.000000
vt 3.120000 -0.000000
vt 0.000000 -1.560000
vt 6.240000 -1.560000
vt 3.120000 -0.000000
vt 0.000000 -1.560000
vt 6.240000 -1.560000
vt 3.120000 -0.000000
vt 0.000000 -1.560000
vt 6.240000 -1.560000
vt 3.120000 -0.000000
vt 0.000000 -1.560000
vt 6.240001 -1.560000
vt 2.100796 -1.000000
vt 0.000000 -0.000000
vt 0.000000 -1.000000
vt 0.986452 -1.000000
vt 0.000000 -0.000000
vt 0.000000 -1.000000
vt 0.979810 -1.000000
vt 0.000000 -0.000000
vt 0.000000 -1.000000
vt 1.560656 -1.000000
vt 0.000000 -0.000000
vt 0.000000 -1.000000
vt 2.015915 -1.000000
vt 0.000000 -0.000000
vt 0.000000 -1.000000
vt 1.542517 -1.000000
vt 0.000000 -0.000000
vt 0.000000 -1.000000
vt 2.100796 -1.000000
vt 2.100796 -0.000000
vt 0.000000 -0.000000
vt 0.986452 -1.000000
vt 0.986452 -0.000000
vt 0.000000 -0.000000
vt 0.979810 -1.000000
vt 0.979810 -0.000000
vt 0.000000 -0.000000
vt 1.560656 -1.000000
vt 1.560656 -0.000000
vt 0.000000 -0.000000
vt 2.015915 -1.000000
vt 2.015915 -0.000000
vt 0.000000 -0.000000
vt 1.542517 -1.000000
vt 1.542517 -0.000000
vt 0.000000 -0.000000
vt -1.793732 -0.654413
vt -2.395814 -0.020317
vt -2.291351 -0.654416
vt 3.781632 0.547122
vt 4.295600 0.997050
vt 3.788404 0.945743
vt -3.000000 0.997050
vt -2.498966 0.613736
vt -2.505663 0.925347
vt 3.564887 0.011408
vt 3.867333 0.511033
vt 3.572391 0.528155
vt -1.547890 -0.300863
vt -2.000000 -1.059322
vt -1.547890 -0.966750
vt 3.223757 -1.893282
vt 3.625505 -0.968438
vt 3.308838 -0.968438
vt 3.295600 -1.071754
vt 2.834313 -0.392213
vt 2.834313 -0.959781
vt 5.090198 -0.999317
vt 4.742656 -0.619277
vt 4.743312 -0.999009
vt 2.592492 -6.288557
vt 3.043088 -6.297531
vt 2.814978 -5.842461
vt 3.572417 -0.435235
vt 3.865609 -0.004084
vt 3.557478 -0.004576
vt 2.008729 -0.454751
vt 2.357718 -0.958448
vt 2.448348 -0.359855
vt -0.979884 -1.046012
vt -0.530646 -1.710172
vt -0.509009 -1.067577
vt 0.666962 0.008101
vt 0.260992 0.008095
vt 0.845367 -0.991895
vt 5.090201 -0.621904
vt 4.741395 -0.005581
vt 4.742660 -0.621386
vt 0.912504 2.289755
vt 0.469539 1.609347
vt 0.951820 1.609347
vt 3.572391 0.528155
vt 2.822220 -0.026455
vt 3.564887 0.011408
vt 4.741395 -0.005581
vt 3.000000 -0.618785
vt 4.742660 -0.621386
vt 3.000000 -0.618785
vt 4.743312 -0.999009
vt 4.742656 -0.619277
vt 1.447732 -3.998887
vt 2.592492 -6.288557
vt 1.669016 -3.556318
vt 2.010257 -0.007043
vt 2.448930 -0.385778
vt 2.751561 -0.385484
vt -1.793732 -0.654413
vt -1.662476 -0.021782
vt -2.395814 -0.020317
vt 3.781632 0.547122
vt 4.295600 0.495814
vt 4.295600 0.997050
vt -3.000000 0.997050
vt -3.000000 0.606565
vt -2.498966 0.613736
vt 3.564887 0.011408
vt 3.873548 0.027145
vt 3.867333 0.511033
vt -1.547890 -0.300863
vt -2.000000 -0.393435
vt -2.000000 -1.059322
vt 3.223757 -1.893282
vt 3.721377 -1.893282
vt 3.625505 -0.968438
vt 3.295600 -1.071754
vt 3.295600 -0.504186
vt 2.834313 -0.392213
vt 5.090198 -0.999317
vt 5.090197 -0.619375
vt 4.742656 -0.619277
vt 2.592492 -6.288557
vt 2.820472 -6.744549
vt 3.043088 -6.297531
vt 3.572417 -0.435235
vt 3.867096 -0.453095
vt 3.865609 -0.004084
vt 2.008729 -0.454751
vt 2.000001 -0.932257
vt 2.357718 -0.958448
vt -0.979884 -1.046012
vt -1.013886 -1.710172
vt -0.530646 -1.710172
vt 0.007544 -0.321565
vt -0.002597 -0.973102
vt 0.260992 0.008095
vt -0.002597 -0.973102
vt 0.845367 -0.991895
vt 0.260992 0.008095
vt 0.845367 -0.991895
vt 0.852330 -0.253409
vt 0.666962 0.008101
vt 5.090201 -0.621904
vt 5.090202 -0.004795
vt 4.741395 -0.005581
vt 0.912504 2.289755
vt 0.444520 2.256378
vt 0.469539 1.609347
vt 3.572391 0.528155
vt 2.750801 0.575849
vt 2.822220 -0.026455
vt 4.741395 -0.005581
vt 2.998752 -0.009508
vt 3.000000 -0.618785
vt 3.000000 -0.618785
vt 3.000655 -0.997465
vt 4.743312 -0.999009
vt 2.592492 -6.288557
vt 2.814978 -5.842461
vt 1.669016 -3.556318
vt 1.669016 -3.556318
vt 1.405820 -3.187040
vt 1.447732 -3.998887
vt 1.405820 -3.187040
vt 1.252623 -3.493434
vt 1.447732 -3.998887
vt 3.572417 -0.435235
vt 3.557478 -0.004576
vt 2.751561 -0.385484
vt 3.557478 -0.004576
vt 2.010257 -0.007043
vt 2.751561 -0.385484
vt 2.010257 -0.007043
vt 2.011532 -0.454682
vt 2.448930 -0.385778
vt 0.554333 -1.000000
vt 0.678484 -0.923763
vt 0.702662 -0.000000
vt 0.000000 -0.946027
vt 0.000000 -1.000000
vt 1.000000 -1.000000
vt 0.678484 -0.923763
vt 1.000000 -0.479927
vt 0.702662 -0.000000
vt 0.702662 -0.000000
vt 0.115594 -0.000000
vt 0.000000 -0.827453
vt 0.000000 -0.827453
vt 0.554333 -1.000000
vt 0.702662 -0.000000
vt 1.000000 -1.000000
vt 1.000000 -0.000000
vt 0.000000 -0.000000
vt 0.000000 -0.000000
vt 0.000000 -0.946027
vt 1.000000 -1.000000
vt 7.214664 0.500000
vt 2.858498 0.200000
vt 7.214664 0.200000
vt 6.232698 4.656374
vt 5.627390 4.565959
vt 5.674829 3.351373
vt -3.190309 1.956063
vt -2.206051 2.734507
vt -2.000273 7.265914
vt -1.580766 0.200000
vt -0.517751 0.500000
vt -1.580766 0.500000
vt -3.895936 0.400000
vt -2.667591 0.100000
vt -2.667591 0.400000
vt 3.444603 0.100000
vt 8.422426 0.400000
vt 3.444603 0.400000
vt -9.737145 0.500000
vt -4.617575 0.200000
vt -4.617575 0.500000
vt 7.214664 0.500000
vt 2.858490 0.500000
vt 2.858498 0.200000
vt 5.674829 3.351373
vt 10.362955 2.208517
vt 10.472090 3.308441
vt 10.472090 3.308441
vt 6.232698 4.656374
vt 5.674829 3.351373
vt -2.206051 2.734507
vt -0.508077 7.088173
vt -2.000273 7.265914
vt -2.000273 7.265914
vt -6.648909 5.322056
vt -7.560140 2.536855
vt -7.560140 2.536855
vt -3.190309 1.956063
vt -2.000273 7.265914
vt -1.580766 0.200000
vt -0.517657 0.200000
vt -0.517751 0.500000
vt -3.895936 0.400000
vt -3.895936 0.100000
vt -2.667591 0.100000
vt 3.444603 0.100000
vt 8.422426 0.100000
vt 8.422426 0.400000
vt -9.737145 0.500000
vt -9.737145 0.200000
vt -4.617575 0.200000
vt -0.666670 -0.166667
vt 2.666663 1.500000
vt 2.666663 -0.166667
vt 2.999997 1.333333
vt 2.999997 -0.166667
vt 2.666663 -0.166667
vt -0.666670 -0.166667
vt -0.666670 1.500000
vt 2.666663 1.500000
vt 2.666663 -0.166667
vt 2.666663 1.500000
vt 2.999997 1.333333
vt 2.666663 1.500000
vt 2.999997 1.500000
vt 2.999997 1.333333
vt 0.000000 -0.000000
vt 1.000000 -1.000000
vt 1.000000 -0.000000
vt -0.000000 -0.000000
vt -1.000000 1.000000
vt -1.000000 -0.000000
vt 0.100000 -1.000000
vt 1.000000 -0.000000
vt 0.000000 -1.000000
vt 0.000000 -0.000000
vt 0.900000 -1.000000
vt 1.000000 -1.000000
vt 0.000000 -0.000000
vt 0.000000 -1.000000
vt 1.000000 -1.000000
vt -0.000000 -0.000000
vt -0.000000 1.000000
vt -1.000000 1.000000
vt 0.100000 -1.000000
vt 1.000000 -1.000000
vt 1.000000 -0.000000
vt 0.000000 -0.000000
vt 0.000000 -1.000000
vt 0.900000 -1.000000
vt 0.396040 0.742574
vt -0.000000 0.584158
vt 0.396040 0.584158
vt -0.000000 -1.000000
vt 0.396040 0.584158
vt -0.000000 0.584158
vt 0.000000 -1.000000
vt 0.033899 -1.000000
vt 0.033898 -0.271186
vt 0.033899 -0.999998
vt 0.000001 -0.000000
vt 0.000000 -1.000000
vt 0.000000 -1.000000
vt 0.567797 -1.000000
vt 0.567797 -0.305085
vt 0.000000 -1.000000
vt 0.567797 -1.000000
vt 0.567797 -0.949153
vt 0.000000 -0.000000
vt 0.813559 -1.000000
vt 0.813559 -0.000000
vt -2.500000 1.000000
vt 0.928572 -0.000000
vt 0.928572 1.000000
vt 1.500000 -1.500000
vt -2.500000 -3.750000
vt 1.500000 -3.750000
vt 0.000000 -2.648703
vt 1.000000 -0.000000
vt 0.000000 -0.000000
vt 0.396040 0.742574
vt -0.000000 0.742574
vt -0.000000 0.584158
vt -0.000000 -1.000000
vt 0.396040 -1.000000
vt 0.396040 0.584158
vt 0.033898 -0.271186
vt 0.033898 -0.000000
vt 0.000000 -0.000000
vt 0.000000 -0.000000
vt 0.000000 -1.000000
vt 0.033898 -0.271186
vt 0.033899 -0.999998
vt 0.033899 -0.000000
vt 0.000001 -0.000000
vt 0.567797 -0.305085
vt 0.567797 -0.000000
vt 0.000000 -0.000000
vt 0.000000 -0.000000
vt 0.000000 -1.000000
vt 0.567797 -0.305085
vt 0.567797 -0.949153
vt 0.567797 -0.000000
vt 0.000000 -0.000000
vt 0.000000 -0.000000
vt 0.000000 -1.000000
vt 0.567797 -0.949153
vt 0.000000 -0.000000
vt 0.000000 -1.000000
vt 0.813559 -1.000000
vt -2.500000 1.000000
vt -2.500000 -0.000000
vt 0.928572 -0.000000
vt 1.500000 -1.500000
vt -2.500000 -1.500000
vt -2.500000 -3.750000
vt 0.000000 -2.648703
vt 1.000000 -2.648702
vt 1.000000 -0.000000
vt -3.068359 1.000000
vt 0.531250 -0.000000
vt 0.531250 1.000000
vt 3.600000 -1.000000
vt 0.000000 -0.000000
vt 0.000000 -1.000000
vt -7.156250 1.000000
vt 2.443359 -0.000000
vt 2.443359 1.000000
vt -2.068359 1.000000
vt -2.068359 -0.000000
vt 1.531250 -0.000000
vt 3.600000 -1.000000
vt 3.600000 -0.000000
vt 0.000000 -0.000000
vt -4.156250 1.000000
vt -4.156250 -0.000000
vt 5.443359 -0.000000
vt 0.000000 -0.000000
vt 2.131439 -0.248668
vt 2.131439 -0.000000
vt 0.000000 -0.000000
vt 2.131438 -0.248668
vt 2.131438 -0.000000
vt 0.000000 -0.000000
vt 0.000000 -0.248668
vt 2.131439 -0.248668
vt 0.000000 -0.000000
vt 0.000000 -0.248668
vt 2.131438 -0.248668
vt 9.271726 1.439043
vt 5.043182 2.010876
vt 4.901034 1.835653
vt 4.694673 3.551360
vt 4.243696 4.705669
vt 4.208162 3.345834
vt 1.905773 4.341425
vt 0.670786 3.354106
vt 2.322043 2.666097
vt 1.354321 6.903595
vt 2.333991 2.466925
vt 1.844156 2.316811
vt 4.002891 3.309642
vt 3.793185 4.635622
vt 3.706814 3.256376
vt 3.103272 0.686956
vt 1.755125 2.156972
vt 2.233737 2.310146
vt 0.200000 -2.600000
vt -0.100000 -2.600000
vt -0.100000 -2.800000
vt 3.811810 2.960307
vt 4.587516 1.573393
vt 4.740005 1.734982
vt 3.306475 1.114889
vt 9.254869 2.483930
vt 3.155246 0.658542
vt -1.489673 3.928254
vt 1.472713 -2.460951
vt 2.958478 -0.675354
vt 0.200000 -5.199999
vt -0.100000 -2.800000
vt -0.100000 -5.200000
vt -0.100000 -2.800000
vt 0.200000 -2.800000
vt 0.200000 -2.600000
vt -0.100000 -5.200000
vt -0.100000 -5.400000
vt 0.200000 -5.400000
vt 0.200000 -5.400000
vt 0.200000 -5.199999
vt -0.100000 -5.200000
vt 9.271726 1.439043
vt 9.299067 1.731661
vt 5.043182 2.010876
vt 4.208162 3.345834
vt 5.084172 2.157729
vt 4.694673 3.551360
vt 5.084172 2.157729
vt 9.333193 1.908538
vt 9.382799 2.408504
vt 4.694673 3.551360
vt 5.084172 2.157729
vt 9.382799 2.408504
vt 4.694673 3.551360
vt 4.647234 4.765945
vt 4.243696 4.705669
vt 2.322043 2.666097
vt 6.862410 2.478068
vt 2.659172 3.591362
vt 6.862410 2.478068
vt 7.015340 3.591230
vt 2.659172 3.591362
vt 2.659103 9.405264
vt 1.761237 9.343336
vt 1.905773 4.341425
vt 1.761237 9.343336
vt 0.670786 3.354106
vt 1.905773 4.341425
vt 2.322043 2.666097
vt 2.659172 3.591362
vt 1.905773 4.341425
vt 1.354321 6.903595
vt 1.799334 6.987859
vt 2.333991 2.466925
vt 4.002891 3.309642
vt 4.040650 4.670041
vt 3.793185 4.635622
vt 3.103272 0.686956
vt 2.925064 0.267835
vt 1.755125 2.156972
vt 3.811810 2.960307
vt 3.518473 2.905180
vt 4.587516 1.573393
vt 3.306475 1.114889
vt 9.251141 2.842138
vt 9.254869 2.483930
vt 9.951612 -2.290051
vt 10.555258 0.405725
vt 9.190695 0.484007
vt 9.190695 0.484007
vt 9.308071 1.008186
vt 5.090098 1.679950
vt 4.259852 3.042219
vt 4.519618 4.422718
vt -1.489673 3.928254
vt 9.951612 -2.290051
vt 9.190695 0.484007
vt 8.587049 -2.211769
vt 9.190695 0.484007
vt 5.090098 1.679950
vt 8.587049 -2.211769
vt 5.090098 1.679950
vt 4.259852 3.042219
vt 2.958478 -0.675354
vt 4.259852 3.042219
vt -1.489673 3.928254
vt 2.958478 -0.675354
vt -1.489673 3.928254
vt -3.703043 -5.956258
vt 1.472713 -2.460951
vt -3.703043 -5.956258
vt 0.009396 -7.011951
vt 1.472713 -2.460951
vt 8.587049 -2.211769
vt 5.090098 1.679950
vt 2.958478 -0.675354
vt 2.958478 -0.675354
vt 8.497620 -2.611143
vt 8.587049 -2.211769
vt 0.200000 -5.199999
vt 0.200000 -2.800000
vt -0.100000 -2.800000
vt -0.491816 0.749998
vt 0.592894 0.916667
vt -0.491816 0.916665
vt -13.915307 0.916654
vt -15.000000 0.749990
vt -13.915307 0.749990
vt -2.915309 -0.249995
vt -1.830618 -0.083330
vt -2.915309 -0.083331
vt -1.000001 -0.249993
vt 0.084691 -0.083329
vt -1.000001 -0.083329
vt -0.491812 -0.250001
vt 0.592896 -0.083333
vt -0.491812 -0.083335
vt -4.576521 -0.250004
vt -3.491814 -0.083334
vt -4.576521 -0.083337
vt 10.338775 -0.250003
vt 11.423478 -0.083334
vt 10.338775 -0.083337
vt 0.254078 -0.250002
vt 1.338776 -0.083333
vt 0.254078 -0.083337
vt 11.169385 -0.249998
vt 12.254076 -0.083332
vt 11.169385 -0.083333
vt -2.915308 0.749990
vt -1.830617 0.916655
vt -2.915308 0.916654
vt 11.169385 0.749990
vt 12.254076 0.916656
vt 11.169385 0.916654
vt 0.254078 0.749990
vt 1.338772 0.916659
vt 0.254078 0.916656
vt 10.338775 0.749993
vt 11.423477 0.916662
vt 10.338774 0.916659
vt -4.576523 0.749995
vt -3.491815 0.916665
vt -4.576523 0.916661
vt -1.491816 0.749998
vt -0.407106 0.750000
vt -0.407106 0.916667
vt -13.915307 0.916654
vt -15.000000 0.916654
vt -15.000000 0.749990
vt -2.915309 -0.249995
vt -1.830618 -0.249994
vt -1.830618 -0.083330
vt -1.000001 -0.249993
vt 0.084691 -0.249993
vt 0.084691 -0.083329
vt -1.491812 -0.250001
vt -0.407104 -0.249999
vt -0.407104 -0.083333
vt -4.576521 -0.250004
vt -3.491814 -0.250000
vt -3.491814 -0.083334
vt 10.338775 -0.250003
vt 11.423478 -0.250000
vt 11.423478 -0.083334
vt 0.254078 -0.250002
vt 1.338776 -0.249999
vt 1.338776 -0.083333
vt 11.169385 -0.249998
vt 12.254076 -0.249996
vt 12.254076 -0.083332
vt -2.915308 0.749990
vt -1.830617 0.749990
vt -1.830617 0.916655
vt 11.169385 0.749990
vt 12.254076 0.749991
vt 12.254076 0.916656
vt 0.254078 0.749990
vt 1.338772 0.749994
vt 1.338772 0.916659
vt 10.338775 0.749993
vt 11.423478 0.749996
vt 11.423477 0.916662
vt -4.576523 0.749995
vt -3.491815 0.749998
vt -3.491815 0.916665
vt 2.711864 -1.000000
vt 0.000000 -0.000000
vt 0.000000 -1.000000
vt 0.000000 -0.000000
vt 0.135595 -1.000000
vt 0.135593 -0.000000
vt 3.796610 -0.000000
vt 0.000000 -1.000000
vt 3.796610 -1.000000
vt 0.135594 -0.000000
vt 0.000001 -0.000000
vt 0.000000 -0.271186
vt 0.000000 -0.000000
vt 2.711864 -1.000000
vt 2.711864 -0.000000
vt 2.711864 -1.000000
vt 2.711864 -0.000000
vt 0.000000 -0.000000
vt 0.000000 -0.000000
vt 0.000002 -1.000000
vt 0.135595 -1.000000
vt 3.796610 -0.000000
vt 0.000000 -0.000000
vt 0.000000 -1.000000
vt 0.000000 -0.271186
vt 0.000000 -1.000000
vt 0.135593 -1.000000
vt 0.135593 -1.000000
vt 0.135594 -0.000000
vt 0.000000 -0.271186
vt 0.000000 -0.000000
vt 0.000000 -1.000000
vt 2.711864 -1.000000
vt -0.554379 -0.226424
vt -0.313010 0.831089
vt -2.074026 1.679149
vt 0.254078 -0.416667
vt 1.338776 -0.249999
vt 0.254078 -0.250002
vt 10.338775 -0.416669
vt 11.423478 -0.250000
vt 10.338775 -0.250003
vt -4.576521 -0.416670
vt -3.491814 -0.250000
vt -4.576521 -0.250004
vt -0.491812 -0.416668
vt 0.592895 -0.249999
vt -0.491812 -0.250001
vt -1.000001 -0.416657
vt 0.084691 -0.249993
vt -1.000001 -0.249993
vt -2.915309 -0.416659
vt -1.830618 -0.249994
vt -2.915309 -0.249995
vt 11.169385 -0.416663
vt 12.254075 -0.249996
vt 11.169385 -0.249998
vt -1.830617 1.083319
vt -2.915308 0.916654
vt -1.830617 0.916655
vt -13.915307 1.083318
vt -15.000000 0.916654
vt -13.915307 0.916654
vt -0.407106 1.083333
vt -1.491816 0.916665
vt -0.407106 0.916667
vt -3.491816 1.083331
vt -4.576523 0.916661
vt -3.491815 0.916665
vt 11.423477 1.083328
vt 10.338774 0.916659
vt 11.423477 0.916662
vt 1.338772 1.083324
vt 0.254078 0.916656
vt 1.338772 0.916659
vt 12.254076 1.083320
vt 11.169385 0.916654
vt 12.254076 0.916656
vt 11.169385 -0.083333
vt 12.254076 0.749991
vt 11.169385 0.749990
vt 0.254078 -0.083337
vt 1.338772 0.749994
vt 0.254078 0.749990
vt 10.338775 -0.083337
vt 11.423478 0.749996
vt 10.338775 0.749993
vt -4.576521 -0.083337
vt -3.491815 0.749998
vt -4.576523 0.749995
vt -0.491812 -0.083335
vt 0.592894 0.750000
vt -0.491816 0.749998
vt 0.084693 0.749990
vt -1.000001 -0.083329
vt 0.084691 -0.083329
vt -2.915309 -0.083331
vt -1.830617 0.749990
vt -2.915308 0.749990
vt 0.686990 -0.168911
vt 0.010684 0.679149
vt -1.074026 0.679149
vt -0.074026 1.679149
vt -0.750330 0.831089
vt -0.508959 -0.226424
vt -0.508959 -0.226424
vt 0.468330 -0.697062
vt -0.074026 1.679149
vt -0.531670 -0.697062
vt 0.445621 -0.226424
vt -1.074026 1.679149
vt 0.254078 -0.416667
vt 1.338776 -0.416664
vt 1.338776 -0.249999
vt 10.338775 -0.416669
vt 11.423478 -0.416666
vt 11.423478 -0.250000
vt -4.576521 -0.416670
vt -3.491814 -0.416667
vt -3.491814 -0.250000
vt -1.491812 -0.416668
vt -0.407105 -0.416666
vt -0.407105 -0.249999
vt -1.000001 -0.416657
vt 0.084691 -0.416657
vt 0.084691 -0.249993
vt -2.915309 -0.416659
vt -1.830618 -0.416659
vt -1.830618 -0.249994
vt 11.169385 -0.416663
vt 12.254075 -0.416661
vt 12.254075 -0.249996
vt -1.830617 1.083319
vt -2.915308 1.083318
vt -2.915308 0.916654
vt -13.915307 1.083318
vt -15.000000 1.083318
vt -15.000000 0.916654
vt 0.592894 0.083333
vt -0.491816 0.083331
vt -0.491816 -0.083335
vt -3.491816 1.083331
vt -4.576523 1.083328
vt -4.576523 0.916661
vt 11.423477 1.083328
vt 10.338774 1.083325
vt 10.338774 0.916659
vt 1.338772 0.083324
vt 0.254078 0.083321
vt 0.254078 -0.083344
vt 12.254076 1.083320
vt 11.169385 1.083319
vt 11.169385 0.916654
vt 11.169385 -0.083333
vt 12.254076 -0.083332
vt 12.254076 0.749991
vt 0.254078 -0.083337
vt 1.338776 -0.083333
vt 1.338772 0.749994
vt 10.338775 -0.083337
vt 11.423478 -0.083334
vt 11.423478 0.749996
vt -4.576521 -0.083337
vt -3.491814 -0.083334
vt -3.491815 0.749998
vt -1.491812 -0.083335
vt -0.407104 -0.083333
vt -0.407106 0.750000
vt 0.084693 0.749990
vt -1.000000 0.749990
vt -1.000001 -0.083329
vt -2.915309 -0.083331
vt -1.830618 -0.083330
vt -1.830617 0.749990
vt 7.384377 -2.140182
vt 7.103313 0.110470
vt 6.858145 -2.079282
vt 5.839753 0.248693
vt 5.081012 0.329861
vt 4.229075 -1.775022
vt 7.384377 -2.140182
vt 7.628462 0.053023
vt 7.103313 0.110470
vt 6.858145 -2.079282
vt 7.103313 0.110470
vt 5.839753 0.248693
vt 5.839753 0.248693
vt 6.229426 1.769689
vt 5.037118 1.897239
vt 5.081012 0.329861
vt 4.471279 0.388255
vt 4.229075 -1.775022
vt 4.471279 0.388255
vt 3.919599 0.114465
vt 4.229075 -1.775022
vt 5.839753 0.248693
vt 5.037118 1.897239
vt 5.081012 0.329861
vt 4.229075 -1.775022
vt 6.858145 -2.079282
vt 5.839753 0.248693
vt 3.919599 0.114465
vt 3.751920 -1.383188
vt 4.229075 -1.775022
vn 0.7071 -0.7071 0.0000
vn 0.7046 -0.7096 -0.0005
vn 0.7081 -0.7061 -0.0054
vn 0.0000 -1.0000 0.0000
vn -0.0119 -0.9999 -0.0080
vn 0.0002 -1.0000 -0.0003
vn -0.7071 -0.7071 0.0000
vn -0.7099 -0.7043 -0.0035
vn -0.6978 -0.7162 -0.0061
vn -1.0000 0.0000 0.0000
vn -0.9529 0.0000 -0.3032
vn 0.9465 0.0000 -0.3227
vn -0.0000 0.0000 -1.0000
vn -0.9905 0.0000 0.1376
vn 0.9790 0.0000 0.2040
vn 0.0000 0.0000 1.0000
vn 1.0000 0.0000 0.0000
vn 0.7059 -0.7083 -0.0033
vn -0.0030 -0.9999 -0.0141
vn -0.7076 -0.7066 -0.0052
vn 0.0000 1.0000 0.0000
vn 0.0181 0.9998 -0.0012
vn -0.0178 0.9998 -0.0031
vn 0.0137 0.9998 -0.0119
vn 0.0000 0.8384 -0.5450
vn -0.5204 0.8539 -0.0000
vn 0.0000 0.8384 0.5450
vn 0.5204 0.8539 -0.0000
vn 0.5408 0.8412 0.0000
vn 0.0000 0.7433 -0.6690
vn -0.5408 0.8412 0.0000
vn 0.0000 0.7433 0.6690
vn -0.9999 -0.0163 0.0014
vn -0.7077 -0.7005 0.0916
vn -0.6867 -0.7269 0.0067
vn -0.6984 -0.7082 0.1031
vn 0.6921 -0.7214 0.0243
vn 0.7055 -0.6978 0.1243
vn 0.7006 -0.7023 0.1265
vn -0.9999 -0.0168 0.0001
vn 0.9536 0.0000 0.3011
vn 0.0003 -1.0000 0.0015
vn 0.0409 -0.9985 -0.0367
vn 0.0550 -0.9985 -0.0051
vn -0.9536 0.0000 0.3011
vn 0.5676 -0.8233 0.0022
vn -0.0105 -0.9999 0.0026
vn -0.0093 -1.0000 0.0019
vn -0.4990 -0.8666 -0.0001
vn -0.5021 -0.8648 -0.0002
vn -0.5013 -0.8653 0.0007
vn -0.9999 -0.0068 0.0111
vn -1.0000 -0.0076 0.0041
vn 0.1976 -0.1998 -0.9597
vn 0.0020 -0.0053 -1.0000
vn 1.0000 0.0065 0.0016
vn 0.2571 -0.3673 0.8939
vn -0.9999 -0.0169 0.0026
vn 0.5677 -0.8232 0.0103
vn 0.5676 -0.8233 0.0025
vn -0.0818 -0.9961 0.0339
vn -0.0002 -1.0000 -0.0013
vn 0.0956 -0.9949 0.0329
vn -0.3040 -0.9487 0.0865
vn -0.3346 -0.9407 0.0568
vn -0.3302 -0.9424 -0.0538
vn -0.9999 -0.0118 0.0037
vn -0.5611 -0.8076 0.1818
vn -0.5671 -0.8053 0.1729
vn -0.4906 -0.8580 0.1520
vn 0.4813 -0.8644 0.1457
vn 0.5667 -0.8051 0.1752
vn 0.5605 -0.8078 0.1823
vn -0.9998 -0.0200 0.0026
vn -0.0002 -1.0000 0.0010
vn 0.0548 -0.9984 0.0099
vn -0.9537 -0.0071 0.3007
vn 0.5673 -0.8235 0.0025
vn -0.0114 -0.9999 0.0014
vn -0.0111 -0.9999 -0.0003
vn -0.0111 -0.9999 0.0001
vn -0.5517 -0.8327 -0.0477
vn -0.5539 -0.8314 -0.0448
vn -0.5536 -0.8316 -0.0448
vn -0.9999 -0.0042 0.0149
vn -1.0000 0.0000 0.0092
vn 0.2633 -0.2988 -0.9173
vn 0.0010 -0.0001 -1.0000
vn -0.0014 -0.0014 -1.0000
vn -0.0014 -0.0041 -1.0000
vn 1.0000 0.0077 0.0005
vn 0.1765 -0.2496 0.9521
vn -0.9999 -0.0106 0.0004
vn 1.0000 0.0000 0.0005
vn 0.5714 -0.8206 0.0096
vn 0.5356 -0.8390 0.0962
vn 0.5692 -0.8222 0.0022
vn -0.0106 -0.9999 0.0013
vn 0.0054 -0.9948 0.1019
vn 0.0493 -0.9949 -0.0882
vn 0.0001 -1.0000 0.0003
vn -0.0696 -0.9961 -0.0547
vn 0.0003 -1.0000 0.0001
vn -0.0128 -0.9999 0.0066
vn -0.0233 -0.9961 -0.0854
vn -0.4980 -0.8661 -0.0432
vn -0.4985 -0.8656 -0.0479
vn -0.5104 -0.8599 0.0076
vn -0.3235 -0.9462 -0.0013
vn -0.3169 -0.9443 0.0884
vn -0.3425 -0.9381 -0.0517
vn -0.5116 -0.8386 0.1871
vn -0.5688 -0.8126 0.1273
vn -0.5848 -0.8082 0.0692
vn 0.0688 0.0000 -0.9976
vn 0.7526 0.0000 -0.6585
vn -0.1376 0.0000 -0.9905
vn -0.9705 0.0000 -0.2411
vn 0.9766 0.0000 0.2149
vn 0.0689 0.0004 -0.9976
vn 0.7526 0.0003 -0.6584
vn 0.0000 0.9439 0.3304
vn -0.5232 0.8498 -0.0643
vn -0.5286 0.8483 -0.0319
vn -0.4890 0.8723 0.0023
vn -0.0069 1.0000 -0.0005
vn 0.0239 0.9997 0.0088
vn -0.0158 0.9999 -0.0043
vn 0.0359 0.9988 0.0320
vn 0.0542 0.9184 -0.3919
vn 0.0012 0.9063 -0.4227
vn -0.0083 0.9398 -0.3415
vn -0.0038 0.9321 -0.3622
vn -0.1971 0.9365 -0.2901
vn 0.0277 0.9569 -0.2891
vn 0.1624 0.9185 -0.3605
vn 0.2125 0.9340 -0.2874
vn 0.2085 0.9013 -0.3798
vn 0.3923 0.9197 -0.0188
vn 0.3511 0.9363 0.0000
vn 0.3679 0.9298 0.0019
vn -0.3158 0.8861 -0.3392
vn -0.2313 0.8995 -0.3706
vn -0.3075 0.8780 -0.3667
vn 0.4835 0.8636 0.1431
vn 0.5197 0.8408 -0.1513
vn 0.4356 0.8846 0.1665
vn 0.0713 0.9972 -0.0218
vn 0.0037 0.9980 -0.0626
vn 0.0000 0.9701 0.2425
vn -0.0180 0.9695 0.2445
vn 0.0031 0.9657 0.2598
vn 0.0089 0.9661 0.2578
vn 0.0239 0.9792 0.2016
vn -0.3679 0.9298 0.0019
vn -0.3511 0.9363 0.0000
vn -0.3923 0.9197 -0.0188
vn -0.0239 0.9792 0.2016
vn -0.0089 0.9661 0.2578
vn -0.3393 0.9399 -0.0376
vn -0.3400 0.9399 -0.0324
vn -0.3430 0.9393 -0.0049
vn -0.0009 0.9997 0.0254
vn 0.0148 0.9998 -0.0119
vn 0.0008 0.9998 0.0190
vn 0.0087 1.0000 0.0011
vn 0.0183 0.9998 -0.0051
vn -0.0065 1.0000 0.0022
vn -0.0337 0.9988 0.0343
vn 0.0114 0.9999 -0.0008
vn 0.0112 0.9999 0.0021
vn 0.0135 0.9993 -0.0339
vn 0.0231 0.9993 -0.0281
vn -0.0121 0.9999 0.0111
vn 0.0003 0.9988 0.0481
vn 0.0464 0.9042 -0.4245
vn 0.0490 0.8923 -0.4488
vn 0.0008 0.8957 -0.4446
vn -0.0046 0.9134 -0.4070
vn -0.0296 0.9121 -0.4088
vn -0.0176 0.9751 -0.2212
vn 0.2731 0.8492 -0.4520
vn 0.2025 0.8667 -0.4559
vn 0.3243 0.8573 -0.3998
vn -0.2800 0.9151 -0.2902
vn -0.2879 0.9294 -0.2311
vn -0.2028 0.9216 -0.3309
vn 0.5453 0.8237 0.1555
vn 0.5763 0.8029 0.1521
vn 0.3038 0.9495 0.0783
vn -0.0139 0.9999 -0.0006
vn -0.0086 0.9977 0.0668
vn 0.0579 0.9978 -0.0327
vn -0.0103 0.9822 -0.1875
vn -0.0227 0.9977 0.0635
vn -0.0310 0.9977 -0.0598
vn -0.0657 0.9978 0.0103
vn 0.0571 0.9980 0.0257
vn -0.0270 0.9978 -0.0608
vn 0.0608 0.9980 -0.0150
vn -0.0173 0.9972 -0.0725
vn 0.0157 0.9999 0.0009
vn -0.0708 0.9972 -0.0232
vn -0.0599 0.9977 0.0308
vn 0.0139 0.9980 0.0611
vn -0.0147 0.9980 0.0609
vn 0.2668 0.9613 0.0692
vn -0.0029 0.9656 0.2599
vn -0.6235 0.0000 0.7818
vn 0.2225 0.0000 0.9749
vn 0.9010 0.0000 0.4339
vn -0.6235 0.0000 -0.7818
vn 0.2225 0.0000 -0.9749
vn 0.9010 0.0000 -0.4339
vc 1.0000 1.0000 1.0000 1.0000
vc 0.0000 0.0000 0.0000 1.0000
vc 0.7294 0.7294 0.7294 1.0000
g mesh_114_Collection_materials/courtyardwalls.vmat#NoCollision
usemtl materials/courtyardwalls.vmat
f 210/1/1 75/2/2 76/3/3
fc 1 1 1
f 221/4/4 74/5/5 75/6/6
fc 1 1 1
f 21/7/7 209/8/8 74/9/9
fc 1 1 1
f 14/10/10 214/11/10 209/12/10
fc 1 1 1
f 229/13/11 204/14/11 218/15/11
fc 1 1 1
f 223/16/12 228/17/12 217/18/12
fc 1 1 1
f 228/19/13 229/20/13 221/21/13
fc 1 1 1
f 225/22/14 213/23/14 182/24/14
fc 1 1 1
f 193/25/15 223/26/15 189/27/15
fc 1 1 1
f 225/28/16 224/29/16 213/30/16
fc 1 1 1
f 208/31/17 76/32/17 220/33/17
fc 1 1 1
f 210/34/1 221/35/1 75/36/18
fc 1 1 1
f 221/37/4 21/38/4 74/39/19
fc 1 1 1
f 21/40/7 14/41/7 209/42/20
fc 1 1 1
f 14/43/10 226/44/10 214/45/10
fc 1 1 1
f 229/46/11 227/47/11 204/48/11
fc 1 1 1
f 223/49/12 193/50/12 228/51/12
fc 1 1 1
f 190/52/13 217/53/13 210/54/13
fc 1 1 1
f 217/55/13 228/56/13 210/57/13
fc 1 1 1
f 229/58/13 218/59/13 14/60/13
fc 1 1 1
f 218/61/13 180/62/13 14/63/13
fc 1 1 1
f 180/64/13 226/65/13 14/66/13
fc 1 1 1
f 208/67/13 190/68/13 210/69/13
fc 1 1 1
f 229/70/13 14/71/13 21/72/13
fc 1 1 1
f 221/73/13 210/74/13 228/75/13
fc 1 1 1
f 229/76/13 21/77/13 221/78/13
fc 1 1 1
f 182/79/14 204/80/14 227/81/14
fc 1 1 1
f 227/82/14 225/83/14 182/84/14
fc 1 1 1
f 189/85/15 224/86/15 216/87/15
fc 1 1 1
f 216/88/15 193/89/15 189/90/15
fc 1 1 1
f 225/91/16 216/92/16 224/93/16
fc 1 1 1
f 208/94/17 210/95/17 76/96/17
fc 1 1 1
g mesh_114_Collection_materials/lonlonwall.vmat#NoCollision
usemtl materials/lonlonwall.vmat
f 6/97/4 39/98/4 47/99/4
fc 1 2 1
f 108/100/10 278/101/10 279/102/10
fc 2 2 2
f 103/103/16 107/104/16 104/105/16
fc 2 2 2
f 104/106/17 280/107/17 281/108/17
fc 2 2 2
f 230/109/21 231/110/22 233/111/23
fc 1 1 3
f 102/112/10 279/113/10 278/114/10
fc 1 2 2
f 136/115/17 281/116/17 280/117/17
fc 1 2 2
f 6/118/4 25/119/4 39/120/4
fc 1 2 2
f 108/121/10 103/122/10 278/123/10
fc 2 2 2
f 103/124/16 108/125/16 107/126/16
fc 2 2 2
f 104/127/17 107/128/17 280/129/17
fc 2 2 2
f 230/130/21 232/131/21 231/132/24
fc 1 1 1
f 102/133/10 133/134/10 279/135/10
fc 1 1 2
f 136/136/17 105/137/17 281/138/17
fc 1 1 2
g mesh_114_Collection_materials/stray_straw.vmat#NoCollision
usemtl materials/stray_straw.vmat
f 15/139/21 8/140/21 36/141/21
fc 1 1 1
f 15/142/21 68/143/21 8/144/21
fc 1 1 1
g mesh_114_Collection_materials/window.vmat#NoCollision
usemtl materials/window.vmat
f 44/145/17 43/146/17 12/147/17
fc 1 1 1
f 54/148/16 38/149/16 50/150/16
fc 1 1 1
f 12/151/17 17/152/17 37/153/17
fc 1 1 1
f 48/154/16 9/155/16 38/156/16
fc 1 1 1
f 44/157/17 51/158/17 43/159/17
fc 1 1 1
f 54/160/16 48/161/16 38/162/16
fc 1 1 1
f 12/163/17 43/164/17 17/165/17
fc 1 1 1
f 48/166/16 46/167/16 9/168/16
fc 1 1 1
g mesh_114_Collection_materials/housewalloutside.vmat#NoCollision
usemtl materials/housewalloutside.vmat
f 20/169/10 284/170/10 285/171/10
fc 1 2 2
f 59/172/16 58/173/16 42/174/16
fc 2 2 2
f 56/175/4 121/176/4 283/177/4
fc 1 1 2
f 121/178/17 282/179/17 283/180/17
fc 1 2 2
f 142/181/21 20/182/21 285/183/21
fc 1 1 2
f 113/184/17 157/185/17 158/186/17
fc 1 1 1
f 122/187/10 146/188/10 118/189/10
fc 1 1 1
f 123/190/10 215/191/10 219/192/10
fc 1 1 1
f 131/193/16 111/194/16 110/195/16
fc 1 1 1
f 20/196/16 142/197/16 133/198/16
fc 1 1 1
f 129/199/17 144/200/17 119/201/17
fc 1 1 1
f 23/202/16 121/203/16 138/204/16
fc 1 1 1
f 116/205/17 119/206/17 144/207/17
fc 1 1 1
f 131/208/10 118/209/10 146/210/10
fc 1 1 1
f 138/211/16 112/212/16 110/213/16
fc 1 1 1
f 30/214/17 158/215/17 157/216/17
fc 1 1 1
f 28/217/10 219/218/10 215/219/10
fc 1 1 1
f 59/220/17 283/221/17 282/222/17
fc 2 2 2
f 42/223/4 284/224/4 283/225/4
fc 2 2 2
f 58/226/10 285/227/10 284/228/10
fc 2 2 2
f 57/229/21 282/230/21 285/231/21
fc 2 2 2
f 20/232/10 124/233/10 284/234/10
fc 1 1 2
f 59/235/16 57/236/16 58/237/16
fc 2 2 2
f 283/238/4 284/239/4 56/240/4
fc 2 2 1
f 284/241/4 124/242/4 56/243/4
fc 2 1 1
f 121/244/17 23/245/17 282/246/17
fc 1 1 2
f 285/247/21 282/248/21 142/249/21
fc 2 2 1
f 282/250/21 23/251/21 142/252/21
fc 2 1 1
f 113/253/17 116/254/17 157/255/17
fc 1 1 1
f 122/256/10 123/257/10 146/258/10
fc 1 1 1
f 123/259/10 122/260/10 215/261/10
fc 1 1 1
f 110/262/16 112/263/16 29/264/16
fc 1 1 1
f 29/265/16 131/266/16 110/267/16
fc 1 1 1
f 30/268/16 152/269/16 124/270/16
fc 1 1 1
f 152/271/16 56/272/16 124/273/16
fc 1 1 1
f 102/274/16 130/275/16 133/276/16
fc 1 1 1
f 130/277/16 30/278/16 20/279/16
fc 1 1 1
f 133/280/16 130/281/16 20/282/16
fc 1 1 1
f 142/283/16 115/284/16 133/285/16
fc 1 1 1
f 30/286/16 124/287/16 20/288/16
fc 1 1 1
f 129/289/17 31/290/17 144/291/17
fc 1 1 1
f 138/292/16 137/293/16 23/294/16
fc 1 1 1
f 137/295/16 105/296/16 136/297/16
fc 1 1 1
f 23/298/16 137/299/16 136/300/16
fc 1 1 1
f 136/301/16 115/302/16 142/303/16
fc 1 1 1
f 56/304/16 152/305/16 121/306/16
fc 1 1 1
f 152/307/16 138/308/16 121/309/16
fc 1 1 1
f 136/310/16 142/311/16 23/312/16
fc 1 1 1
f 116/313/17 113/314/17 119/315/17
fc 1 1 1
f 131/316/10 29/317/10 118/318/10
fc 1 1 1
f 110/319/16 111/320/16 137/321/16
fc 1 1 1
f 137/322/16 138/323/16 110/324/16
fc 1 1 1
f 30/325/17 130/326/17 158/327/17
fc 1 1 1
f 28/328/10 132/329/10 219/330/10
fc 1 1 1
f 59/331/17 42/332/17 283/333/17
fc 2 2 2
f 42/334/4 58/335/4 284/336/4
fc 2 2 2
f 58/337/10 57/338/10 285/339/10
fc 2 2 2
f 57/340/21 59/341/21 282/342/21
fc 2 2 2
g mesh_114_Collection_materials/rooftile.vmat#NoCollision
usemtl materials/rooftile.vmat
f 11/343/25 31/344/25 28/345/25
fc 1 1 1
f 11/346/26 28/347/26 29/348/26
fc 1 1 1
f 11/349/27 29/350/27 30/351/27
fc 1 1 1
f 11/352/28 30/353/28 31/354/28
fc 1 1 1
g mesh_114_Collection_materials/path1.vmat#NoCollision
usemtl materials/path1.vmat
f 63/355/21 62/356/21 64/357/21
fc 1 1 1
f 63/358/21 65/359/21 62/360/21
fc 1 1 1
g mesh_114_Collection_materials/curtians.vmat#NoCollision
usemtl materials/curtians.vmat
f 16/361/16 61/362/16 67/363/16
fc 1 1 1
f 53/364/16 66/365/16 52/366/16
fc 1 1 1
f 16/367/16 60/368/16 61/369/16
fc 1 1 1
f 67/370/16 61/371/16 53/372/16
fc 1 1 1
f 53/373/16 19/374/16 66/375/16
fc 1 1 1
f 52/376/16 67/377/16 53/378/16
fc 1 1 1
g mesh_114_Collection_materials/kakarikoroof.vmat#NoCollision
usemtl materials/kakarikoroof.vmat
f 32/379/29 47/380/29 39/381/29
fc 1 1 2
f 32/382/30 39/383/30 25/384/30
fc 1 2 2
f 32/385/31 25/386/31 6/387/31
fc 1 2 1
f 32/388/32 6/389/32 47/390/32
fc 1 1 1
g mesh_114_Collection_materials/courtyardbackroundtrees.vmat#NoCollision
usemtl materials/courtyardbackroundtrees.vmat
f 72/391/16 26/392/16 35/393/16
fc 1 1 1
f 22/394/12 10/395/12 70/396/12
fc 1 1 1
f 49/397/11 69/398/11 41/399/11
fc 1 1 1
f 35/400/15 18/401/15 22/402/15
fc 1 1 1
f 70/403/13 55/404/13 49/405/13
fc 1 1 1
f 41/406/14 34/407/14 72/408/14
fc 1 1 1
f 72/409/16 34/410/16 26/411/16
fc 1 1 1
f 22/412/12 18/413/12 10/414/12
fc 1 1 1
f 49/415/11 55/416/11 69/417/11
fc 1 1 1
f 35/418/15 26/419/15 18/420/15
fc 1 1 1
f 70/421/13 10/422/13 55/423/13
fc 1 1 1
f 41/424/14 69/425/14 34/426/14
fc 1 1 1
g mesh_114_Collection_materials/goroncealing.vmat#NoCollision
usemtl materials/goroncealing.vmat
f 4/427/33 2/428/33 1/429/33
fc 1 1 1
f 209/430/34 7/431/35 74/432/36
fc 1 1 1
f 13/433/37 76/434/38 75/435/39
fc 1 1 1
f 287/436/40 276/437/40 286/438/40
fc 1 1 1
f 76/439/41 206/440/41 220/441/41
fc 1 1 1
f 4/442/42 241/443/43 240/444/44
fc 1 1 1
f 222/445/45 209/446/45 214/447/45
fc 1 1 1
f 272/448/46 289/449/46 290/450/46
fc 1 1 1
f 291/451/47 272/452/48 290/453/48
fc 1 1 1
f 286/454/49 273/455/50 291/456/51
fc 1 1 1
f 40/457/52 238/458/53 240/459/53
fc 1 1 1
f 1/460/54 239/461/54 241/462/54
fc 1 1 1
f 272/463/55 273/464/55 275/465/55
fc 1 1 1
f 274/466/56 288/467/56 289/468/56
fc 1 1 1
f 4/469/57 238/470/57 3/471/57
fc 1 1 1
f 286/472/58 239/473/58 287/474/58
fc 1 1 1
f 288/475/56 5/476/56 289/477/56
fc 1 1 1
f 5/478/59 290/479/60 289/480/60
fc 1 1 1
f 7/481/61 291/482/62 13/483/63
fc 1 1 1
f 7/484/64 240/485/65 241/486/66
fc 1 1 1
f 4/487/67 3/488/67 2/489/67
fc 1 1 1
f 209/490/68 40/491/69 7/492/70
fc 1 1 1
f 13/493/71 5/494/72 76/495/73
fc 1 1 1
f 287/496/74 277/497/74 276/498/74
fc 1 1 1
f 76/499/41 5/500/41 206/501/41
fc 1 1 1
f 4/502/75 1/503/75 241/504/76
fc 1 1 1
f 222/505/45 40/506/77 209/507/45
fc 1 1 1
f 272/508/78 274/509/78 289/510/78
fc 1 1 1
f 291/511/79 273/512/80 272/513/81
fc 1 1 1
f 286/514/82 276/515/83 273/516/84
fc 1 1 1
f 40/517/85 222/518/86 238/519/86
fc 1 1 1
f 1/520/87 2/521/87 239/522/87
fc 1 1 1
f 276/523/88 277/524/88 273/525/88
fc 1 1 1
f 277/526/89 275/527/89 273/528/89
fc 1 1 1
f 275/529/90 274/530/90 272/531/90
fc 1 1 1
f 274/532/91 275/533/91 288/534/91
fc 1 1 1
f 4/535/92 240/536/92 238/537/92
fc 1 1 1
f 286/538/93 241/539/93 239/540/93
fc 1 1 1
f 288/541/94 206/542/94 5/543/94
fc 1 1 1
f 5/544/95 13/545/96 290/546/97
fc 1 1 1
f 291/547/98 290/548/48 13/549/99
fc 1 1 1
f 13/550/100 75/551/101 7/552/102
fc 1 1 1
f 75/553/103 74/554/104 7/555/105
fc 1 1 1
f 286/556/106 291/557/107 241/558/108
fc 1 1 1
f 291/559/109 7/560/110 241/561/111
fc 1 1 1
f 7/562/112 40/563/113 240/564/114
fc 1 1 1
g mesh_114_Collection_materials/sealsig.vmat
usemtl materials/sealsig.vmat
f 77/565/21 83/566/21 87/567/21
fc 1 1 1
f 82/568/21 79/569/21 86/570/21
fc 1 1 1
f 83/571/21 80/572/21 87/573/21
fc 1 1 1
f 87/574/21 84/575/21 81/576/21
fc 1 1 1
f 81/577/21 77/578/21 87/579/21
fc 1 1 1
f 86/580/21 78/581/21 85/582/21
fc 1 1 1
f 85/583/21 82/584/21 86/585/21
fc 1 1 1
g mesh_114_Collection_materials/walkinggrass.vmat#NoCollision
usemtl materials/walkinggrass.vmat
f 98/586/115 94/587/115 80/588/115
fc 1 1 1
f 99/589/21 88/590/21 95/591/21
fc 1 1 1
f 90/592/21 97/593/21 91/594/21
fc 1 1 1
f 77/595/116 97/596/116 90/597/116
fc 1 1 1
f 88/598/117 101/599/117 95/600/117
fc 1 1 1
f 101/601/118 96/602/118 95/603/118
fc 1 1 1
f 89/604/119 77/605/119 90/606/119
fc 1 1 1
f 98/607/120 97/608/120 94/609/120
fc 1 1 1
f 95/610/21 96/611/21 93/612/21
fc 1 1 1
f 93/613/21 99/614/21 95/615/21
fc 1 1 1
f 97/616/21 98/617/21 91/618/21
fc 1 1 1
f 91/619/21 100/620/21 89/621/21
fc 1 1 1
f 89/622/21 90/623/21 91/624/21
fc 1 1 1
f 77/625/121 94/626/121 97/627/121
fc 1 1 1
f 88/628/117 79/629/117 101/630/117
fc 1 1 1
f 101/631/118 78/632/118 96/633/118
fc 1 1 1
f 89/634/119 92/635/119 77/636/119
fc 1 1 1
g mesh_114_Collection_materials/courtyardpillars.vmat#NoCollision
usemtl materials/courtyardpillars.vmat
f 107/637/4 279/638/4 280/639/4
fc 2 2 2
f 115/640/4 136/641/4 280/642/4
fc 1 1 2
f 107/643/4 108/644/4 279/645/4
fc 2 2 2
f 280/646/4 279/647/4 115/648/4
fc 2 2 1
f 279/649/4 133/650/4 115/651/4
fc 2 1 1
g mesh_114_Collection_materials/lonlonlog.vmat#NoCollision
usemtl materials/lonlonlog.vmat
f 163/652/10 170/653/10 164/654/10
fc 1 1 1
f 176/655/17 167/656/17 178/657/17
fc 1 1 1
f 174/658/17 147/659/17 198/660/17
fc 1 1 1
f 155/661/10 145/662/10 175/663/10
fc 1 1 1
f 163/664/10 169/665/10 170/666/10
fc 1 1 1
f 176/667/17 171/668/17 167/669/17
fc 1 1 1
f 174/670/17 178/671/17 147/672/17
fc 1 1 1
f 155/673/10 201/674/10 145/675/10
fc 1 1 1
g mesh_114_Collection_materials/lonlonwood.vmat#NoCollision
usemtl materials/lonlonwood.vmat
f 105/676/21 278/677/21 281/678/21
fc 1 2 2
f 103/679/21 281/680/21 278/681/21
fc 2 2 2
f 114/682/16 150/683/16 243/684/16
fc 1 1 1
f 149/685/16 106/686/16 141/687/16
fc 1 1 1
f 159/688/10 207/689/10 242/690/10
fc 1 2 1
f 149/691/17 245/692/17 232/693/17
fc 1 1 1
f 211/694/16 244/695/16 207/696/16
fc 2 1 2
f 164/697/16 201/698/16 195/699/16
fc 1 1 1
f 200/700/21 139/701/21 203/702/21
fc 1 1 1
f 175/703/122 203/704/122 195/705/122
fc 1 1 1
f 105/706/21 102/707/21 278/708/21
fc 1 1 2
f 103/709/21 104/710/21 281/711/21
fc 2 2 2
f 243/712/16 140/713/16 159/714/16
fc 1 1 1
f 159/715/16 114/716/16 243/717/16
fc 1 1 1
f 149/718/16 148/719/16 106/720/16
fc 1 1 1
f 242/721/10 244/722/10 114/723/10
fc 1 1 1
f 114/724/10 159/725/10 242/726/10
fc 1 1 1
f 232/727/17 211/728/17 148/729/17
fc 1 2 1
f 148/730/17 149/731/17 232/732/17
fc 1 1 1
f 211/733/16 245/734/16 244/735/16
fc 2 1 1
f 164/736/16 170/737/16 201/738/16
fc 1 1 1
f 200/739/21 202/740/21 139/741/21
fc 1 1 1
f 175/742/122 198/743/122 203/744/122
fc 1 1 1
g mesh_114_Collection_materials/woodfence.vmat#NoCollision#BackfaceCulling
usemtl materials/woodfence.vmat
f 154/745/10 139/746/10 156/747/10
fc 1 1 1
f 130/748/17 143/749/17 147/750/17
fc 1 1 1
f 156/751/16 155/752/16 151/753/16
fc 1 1 1
f 154/754/10 131/755/10 139/756/10
fc 1 1 1
f 130/757/17 135/758/17 143/759/17
fc 1 1 1
f 156/760/16 139/761/16 155/762/16
fc 1 1 1
g mesh_114_Collection_materials/courtyardvariedwhitebricks.vmat#NoCollision
usemtl materials/courtyardvariedwhitebricks.vmat
f 177/763/17 200/764/17 176/765/17
fc 1 1 1
f 132/766/10 169/767/10 202/768/10
fc 1 1 1
f 177/769/17 129/770/17 200/771/17
fc 1 1 1
f 132/772/10 166/773/10 169/774/10
fc 1 1 1
g mesh_114_Collection_materials/courtyardgrass.vmat#NoCollision
usemtl materials/courtyardgrass.vmat
f 180/775/123 181/776/124 185/777/125
fc 1 1 1
f 86/778/21 183/779/126 186/780/127
fc 1 1 1
f 194/781/21 191/782/128 197/783/129
fc 1 1 1
f 189/784/130 197/785/131 205/786/132
fc 1 1 1
f 186/787/133 182/788/134 187/789/135
fc 1 1 1
f 191/790/136 205/791/137 197/792/138
fc 1 1 1
f 236/793/139 235/794/140 233/795/141
fc 1 1 3
f 186/796/142 185/797/143 181/798/144
fc 1 1 1
f 191/799/145 190/800/146 212/801/147
fc 1 1 1
f 213/802/21 205/803/148 212/804/149
fc 1 1 1
f 293/805/150 233/806/151 231/807/152
fc 1 3 1
f 233/808/153 292/809/150 236/810/154
fc 3 1 1
f 231/811/155 234/812/156 237/813/157
fc 1 1 1
f 237/814/158 293/815/150 231/816/159
fc 1 1 1
f 180/817/160 179/818/161 181/819/162
fc 1 1 1
f 186/820/163 181/821/164 86/822/21
fc 1 1 1
f 181/823/165 179/824/166 173/825/21
fc 1 1 1
f 86/826/21 181/827/167 173/828/21
fc 1 1 1
f 86/829/21 172/830/21 183/831/168
fc 1 1 1
f 197/832/169 196/833/170 94/834/21
fc 1 1 1
f 196/835/171 168/836/21 94/837/21
fc 1 1 1
f 81/838/21 188/839/172 194/840/21
fc 1 1 1
f 188/841/173 191/842/174 194/843/21
fc 1 1 1
f 197/844/175 94/845/21 194/846/21
fc 1 1 1
f 189/847/176 196/848/177 197/849/178
fc 1 1 1
f 186/850/179 183/851/180 182/852/181
fc 1 1 1
f 191/853/182 212/854/183 205/855/184
fc 1 1 1
f 186/856/185 187/857/186 185/858/187
fc 1 1 1
f 191/859/188 188/860/189 190/861/190
fc 1 1 1
f 220/862/21 214/863/21 226/864/21
fc 1 1 1
f 226/865/21 180/866/191 185/867/192
fc 1 1 1
f 187/868/193 182/869/194 213/870/21
fc 1 1 1
f 220/871/21 226/872/21 208/873/21
fc 1 1 1
f 226/874/21 185/875/195 208/876/21
fc 1 1 1
f 185/877/196 187/878/197 212/879/198
fc 1 1 1
f 187/880/199 213/881/21 212/882/200
fc 1 1 1
f 213/883/21 224/884/21 205/885/201
fc 1 1 1
f 224/886/21 189/887/202 205/888/203
fc 1 1 1
f 208/889/21 185/890/204 212/891/205
fc 1 1 1
f 212/892/206 190/893/207 208/894/21
fc 1 1 1
f 293/895/150 292/896/150 233/897/208
fc 1 1 3
g mesh_114_Collection_materials/insideredcarpetcenter.vmat#NoCollision
usemtl materials/insideredcarpetcenter.vmat
f 153/898/209 24/899/209 27/900/209
fc 1 1 1
f 33/901/210 45/902/210 192/903/210
fc 1 1 1
f 265/904/211 267/905/211 268/906/211
fc 1 1 1
f 264/907/210 268/908/210 269/909/210
fc 1 1 1
f 263/910/209 269/911/209 270/912/209
fc 1 1 1
f 262/913/10 270/914/10 271/915/10
fc 1 1 1
f 261/916/212 271/917/212 199/918/212
fc 1 1 1
f 260/919/213 199/920/213 184/921/213
fc 1 1 1
f 266/922/214 184/923/214 267/924/214
fc 1 1 1
f 192/925/211 128/926/211 33/927/211
fc 1 1 1
f 165/928/214 127/929/214 128/930/214
fc 1 1 1
f 117/931/213 126/932/213 127/933/213
fc 1 1 1
f 73/934/212 125/935/212 126/936/212
fc 1 1 1
f 71/937/10 27/938/10 125/939/10
fc 1 1 1
f 153/940/209 45/941/209 24/942/209
fc 1 1 1
f 33/943/210 24/944/210 45/945/210
fc 1 1 1
f 265/946/211 266/947/211 267/948/211
fc 1 1 1
f 264/949/210 265/950/210 268/951/210
fc 1 1 1
f 263/952/209 264/953/209 269/954/209
fc 1 1 1
f 262/955/10 263/956/10 270/957/10
fc 1 1 1
f 261/958/212 262/959/212 271/960/212
fc 1 1 1
f 260/961/213 261/962/213 199/963/213
fc 1 1 1
f 266/964/214 260/965/214 184/966/214
fc 1 1 1
f 192/967/211 165/968/211 128/969/211
fc 1 1 1
f 165/970/214 117/971/214 127/972/214
fc 1 1 1
f 117/973/213 73/974/213 126/975/213
fc 1 1 1
f 73/976/212 71/977/212 125/978/212
fc 1 1 1
f 71/979/10 153/980/10 27/981/10
fc 1 1 1
g mesh_114_Collection_materials/stable.vmat#NoCollision
usemtl materials/stable.vmat
f 160/982/17 161/983/17 235/984/17
fc 1 1 1
f 134/985/16 141/986/16 106/987/16
fc 1 1 1
f 109/988/13 160/989/13 120/990/13
fc 2 1 1
f 161/991/16 140/992/16 243/993/16
fc 1 1 1
f 109/994/10 234/995/10 134/996/10
fc 2 1 1
f 160/997/17 162/998/17 161/999/17
fc 1 2 1
f 134/1000/16 234/1001/16 141/1002/16
fc 1 1 1
f 109/1003/13 162/1004/13 160/1005/13
fc 2 2 1
f 243/1006/16 150/1007/16 235/1008/16
fc 1 1 1
f 235/1009/16 161/1010/16 243/1011/16
fc 1 1 1
f 109/1012/10 120/1013/10 234/1014/10
fc 2 1 1
g mesh_114_Collection_materials/bundled_straw.vmat#NoCollision
usemtl materials/bundled_straw.vmat
f 251/1015/21 252/1016/21 247/1017/21
fc 1 1 1
f 259/1018/213 261/1019/213 260/1020/213
fc 1 1 1
f 258/1021/212 262/1022/212 261/1023/212
fc 1 1 1
f 257/1024/10 263/1025/10 262/1026/10
fc 1 1 1
f 256/1027/209 264/1028/209 263/1029/209
fc 1 1 1
f 255/1030/210 265/1031/210 264/1032/210
fc 1 1 1
f 254/1033/211 266/1034/211 265/1035/211
fc 1 1 1
f 253/1036/214 260/1037/214 266/1038/214
fc 1 1 1
f 252/1039/211 33/1040/211 128/1041/211
fc 1 1 1
f 251/1042/210 24/1043/210 33/1044/210
fc 1 1 1
f 250/1045/209 27/1046/209 24/1047/209
fc 1 1 1
f 249/1048/10 125/1049/10 27/1050/10
fc 1 1 1
f 248/1051/212 126/1052/212 125/1053/212
fc 1 1 1
f 247/1054/213 127/1055/213 126/1056/213
fc 1 1 1
f 246/1057/214 128/1058/214 127/1059/214
fc 1 1 1
f 267/1060/214 117/1061/214 165/1062/214
fc 1 1 1
f 184/1063/213 73/1064/213 117/1065/213
fc 1 1 1
f 199/1066/212 71/1067/212 73/1068/212
fc 1 1 1
f 271/1069/10 153/1070/10 71/1071/10
fc 1 1 1
f 270/1072/209 45/1073/209 153/1074/209
fc 1 1 1
f 192/1075/210 269/1076/210 268/1077/210
fc 1 1 1
f 268/1078/211 165/1079/211 192/1080/211
fc 1 1 1
f 252/1081/21 246/1082/21 247/1083/21
fc 1 1 1
f 247/1084/21 248/1085/21 249/1086/21
fc 1 1 1
f 249/1087/21 250/1088/21 247/1089/21
fc 1 1 1
f 250/1090/21 251/1091/21 247/1092/21
fc 1 1 1
f 259/1093/213 258/1094/213 261/1095/213
fc 1 1 1
f 258/1096/212 257/1097/212 262/1098/212
fc 1 1 1
f 257/1099/10 256/1100/10 263/1101/10
fc 1 1 1
f 256/1102/209 255/1103/209 264/1104/209
fc 1 1 1
f 255/1105/210 254/1106/210 265/1107/210
fc 1 1 1
f 254/1108/211 253/1109/211 266/1110/211
fc 1 1 1
f 253/1111/214 259/1112/214 260/1113/214
fc 1 1 1
f 252/1114/211 251/1115/211 33/1116/211
fc 1 1 1
f 251/1117/210 250/1118/210 24/1119/210
fc 1 1 1
f 250/1120/209 249/1121/209 27/1122/209
fc 1 1 1
f 249/1123/10 248/1124/10 125/1125/10
fc 1 1 1
f 248/1126/212 247/1127/212 126/1128/212
fc 1 1 1
f 247/1129/213 246/1130/213 127/1131/213
fc 1 1 1
f 246/1132/214 252/1133/214 128/1134/214
fc 1 1 1
f 267/1135/214 184/1136/214 117/1137/214
fc 1 1 1
f 184/1138/213 199/1139/213 73/1140/213
fc 1 1 1
f 199/1141/212 271/1142/212 71/1143/212
fc 1 1 1
f 271/1144/10 270/1145/10 153/1146/10
fc 1 1 1
f 270/1147/209 269/1148/209 45/1149/209
fc 1 1 1
f 192/1150/210 45/1151/210 269/1152/210
fc 1 1 1
f 268/1153/211 267/1154/211 165/1155/211
fc 1 1 1
g mesh_114_Collection_materials/goronfloor.vmat#NoCollision
usemtl materials/goronfloor.vmat
f 275/1156/21 287/1157/21 288/1158/21
fc 1 1 1
f 239/1159/21 238/1160/21 206/1161/21
fc 1 1 1
f 275/1162/21 277/1163/21 287/1164/21
fc 1 1 1
f 288/1165/21 287/1166/21 239/1167/21
fc 1 1 1
f 239/1168/21 2/1169/21 3/1170/21
fc 1 1 1
f 238/1171/21 222/1172/21 206/1173/21
fc 1 1 1
f 222/1174/21 214/1175/21 206/1176/21
fc 1 1 1
f 239/1177/21 3/1178/21 238/1179/21
fc 1 1 1
f 206/1180/21 288/1181/21 239/1182/21
fc 1 1 1
f 214/1183/21 220/1184/21 206/1185/21
fc 1 1 1
