# Blender v4.5.3 LTS OBJ File: ''
# www.blender.org
mtllib testmap.mtl
g mesh_4_Collection
v -409.600006 51.200016 -409.599945
v -409.599945 51.200016 409.600006
v 409.600006 51.199978 409.599945
v 409.599945 51.199978 -409.600006
v 409.599945 -0.000018 -409.600006
v 409.600006 -0.000018 409.599945
v -409.599945 0.000018 409.600006
v -409.600006 0.000018 -409.599945
v 153.600006 204.799988 -256.000000
v 153.600021 204.799988 -51.199997
v 204.800003 204.799973 -51.200001
v 204.799988 204.799973 -256.000000
v 204.799973 51.199989 -256.000000
v 204.799988 51.199989 -51.200001
v 153.600006 51.199989 -51.199997
v 153.599991 51.199989 -256.000000
v 153.599991 51.199989 -179.199997
v 153.599991 127.999985 -127.999992
v 153.599991 127.999985 -179.199997
v 153.599991 51.199989 -127.999992
v 204.799973 51.199989 -127.999992
v 204.799973 127.999985 -179.199997
v 204.799973 127.999985 -127.999992
v 204.799973 51.199989 -179.199997
v 153.600006 204.799988 102.400002
v 153.600021 204.799988 358.399994
v 204.800018 204.799973 358.399963
v 204.800003 204.799973 102.400002
v 204.799988 51.199989 102.400002
v 204.800003 51.199989 358.399963
v 153.600006 51.199989 358.399994
v 153.599991 51.199989 102.400002
v 153.599991 51.199989 204.800003
v 153.599991 153.599991 255.999985
v 153.599991 153.599991 204.800003
v 153.599991 51.199989 255.999985
v 204.799988 51.199989 255.999985
v 204.799988 153.599976 204.800003
v 204.799988 153.599976 255.999985
v 204.799988 51.199989 204.800003
v -102.400002 204.799973 -153.599976
v -102.399979 204.799973 102.399994
v -51.199989 204.799973 102.399994
v -51.200008 204.799973 -153.599991
v -51.200016 51.199989 -153.599991
v -51.199997 51.199989 102.399994
v -102.399986 51.199989 102.399994
v -102.400009 51.199989 -153.599976
v -102.400002 51.199989 -51.199997
v -102.399986 127.999985 0.000002
v -102.399994 127.999985 -51.199997
v -102.399994 51.199989 0.000002
v -51.200005 51.199989 -0.000002
v -51.200005 127.999985 -51.200001
v -51.200001 127.999985 -0.000002
v -51.200008 51.199989 -51.200001
v -153.599991 102.399994 -307.199982
v -153.599976 102.399994 -255.999969
v -102.399971 102.399994 -255.999969
v -102.399971 102.399994 -307.199982
v -102.399979 51.199989 -307.199982
v -102.399979 51.199989 -255.999969
v -153.599976 51.199993 -255.999969
v -153.599991 51.199993 -307.199982
vt 8.000000 -8.000000
vt -8.000000 8.000000
vt -8.000000 -8.000000
vt 42.000000 22.000000
vt -22.000000 -42.000000
vt -22.000000 22.000000
vt -42.000000 -1.000000
vt 22.000000 3.000000
vt 22.000000 -1.000000
vt -42.000000 2.000000
vt 22.000000 -2.000000
vt 22.000000 2.000000
vt -42.000000 -1.000000
vt 22.000000 3.000000
vt 22.000000 -1.000000
vt -42.000000 2.000000
vt 22.000000 -2.000000
vt 22.000000 2.000000
vt -5.000000 3.000000
vt -1.000000 4.000000
vt -5.000000 4.000000
vt -2.500000 4.000000
vt -2.500000 3.000000
vt -3.500000 3.000000
vt 3.000000 1.000000
vt 4.000000 4.000000
vt 4.000000 1.000000
vt 4.000000 1.000000
vt 3.000000 4.000000
vt 3.000000 1.000000
vt -5.000000 4.000000
vt -1.000000 4.000000
vt -3.500000 2.500000
vt -1.000000 4.000000
vt -5.000000 4.000000
vt -2.500000 2.500000
vt -3.500000 1.000000
vt -2.500000 2.500000
vt -3.500000 2.500000
vt -2.500000 2.500000
vt -3.500000 1.000000
vt -2.500000 1.000000
vt -3.500000 2.500000
vt -2.500000 1.500000
vt -2.500000 2.500000
vt 2.000000 3.000000
vt 7.000000 4.000000
vt 2.000000 4.000000
vt 5.000000 4.000000
vt 5.000000 3.000000
vt 4.000000 3.000000
vt 3.000000 1.000000
vt 4.000000 4.000000
vt 4.000000 1.000000
vt 4.000000 1.000000
vt 3.000000 4.000000
vt 3.000000 1.000000
vt 2.000000 4.000000
vt 7.000000 4.000000
vt 4.000000 3.000000
vt 7.000000 4.000000
vt 2.000000 4.000000
vt 5.000000 3.000000
vt 4.000000 3.000000
vt 5.000000 1.000000
vt 4.000000 1.000000
vt 5.000000 3.000000
vt 4.000000 1.000000
vt 5.000000 1.000000
vt 4.000000 3.000000
vt 5.000000 2.000000
vt 5.000000 3.000000
vt -3.000000 -2.000000
vt 2.000000 -1.000000
vt -3.000000 -1.000000
vt 0.000000 -1.000000
vt 0.000000 -2.000000
vt -1.000000 -2.000000
vt -2.000000 1.000000
vt -1.000000 4.000000
vt -1.000000 1.000000
vt -1.000000 1.000000
vt -2.000000 4.000000
vt -2.000000 1.000000
vt -3.000000 4.000000
vt 2.000000 4.000000
vt -1.000000 2.500000
vt 2.000000 4.000000
vt -3.000000 4.000000
vt 0.000000 2.500000
vt -1.000000 2.500000
vt 0.000000 1.000000
vt -1.000000 1.000000
vt 0.000000 2.500000
vt -1.000000 1.000000
vt 0.000000 1.000000
vt -1.000000 2.500000
vt 0.000000 1.500000
vt 0.000000 2.500000
vt -5.000000 -3.000000
vt -6.000000 -2.000000
vt -6.000000 -3.000000
vt -5.000000 -2.000000
vt -6.000000 -3.000000
vt -6.000000 -2.000000
vt -3.000000 1.000000
vt -2.000000 2.000000
vt -2.000000 1.000000
vt -3.000000 2.000000
vt -2.000000 1.000000
vt -2.000000 2.000000
vt -6.000000 1.000000
vt -5.000000 2.000000
vt -5.000000 1.000000
vt -6.000000 2.000000
vt -5.000000 1.000000
vt -5.000000 2.000000
vt 8.000000 -8.000000
vt 8.000000 8.000000
vt -8.000000 8.000000
vt 22.000000 42.000000
vt 22.000000 -22.000000
vt -42.000000 -22.000000
vt -22.000000 -2.000000
vt -22.000000 2.000000
vt 42.000000 2.000000
vt -22.000000 3.000000
vt -22.000000 -1.000000
vt 42.000000 -1.000000
vt -22.000000 -2.000000
vt -22.000000 2.000000
vt 42.000000 2.000000
vt -22.000000 3.000000
vt -22.000000 -1.000000
vt 42.000000 -1.000000
vt -5.000000 3.000000
vt -1.000000 3.000000
vt -1.000000 4.000000
vt -5.000000 3.000000
vt -5.000000 4.000000
vt -3.500000 4.000000
vt -2.500000 4.000000
vt -1.000000 4.000000
vt -1.000000 3.000000
vt -5.000000 3.000000
vt -3.500000 4.000000
vt -3.500000 3.000000
vt -3.500000 4.000000
vt -2.500000 4.000000
vt -3.500000 3.000000
vt -2.500000 4.000000
vt -1.000000 3.000000
vt -2.500000 3.000000
vt 3.000000 1.000000
vt 3.000000 4.000000
vt 4.000000 4.000000
vt 4.000000 1.000000
vt 4.000000 4.000000
vt 3.000000 4.000000
vt -1.000000 4.000000
vt -1.000000 1.000000
vt -2.500000 2.500000
vt -1.000000 1.000000
vt -2.500000 1.000000
vt -2.500000 2.500000
vt -3.500000 1.000000
vt -5.000000 1.000000
vt -3.500000 2.500000
vt -5.000000 1.000000
vt -5.000000 4.000000
vt -3.500000 2.500000
vt -1.000000 4.000000
vt -2.500000 2.500000
vt -3.500000 2.500000
vt -5.000000 4.000000
vt -5.000000 1.000000
vt -3.500000 2.500000
vt -5.000000 1.000000
vt -3.500000 1.000000
vt -3.500000 2.500000
vt -2.500000 1.000000
vt -1.000000 1.000000
vt -2.500000 2.500000
vt -1.000000 1.000000
vt -1.000000 4.000000
vt -2.500000 2.500000
vt -5.000000 4.000000
vt -3.500000 2.500000
vt -2.500000 2.500000
vt -3.500000 1.000000
vt -2.500000 1.000000
vt -2.500000 2.500000
vt -2.500000 2.500000
vt -3.500000 2.500000
vt -3.500000 1.000000
vt -3.500000 2.500000
vt -3.500000 1.500000
vt -2.500000 1.500000
vt 2.000000 3.000000
vt 7.000000 3.000000
vt 7.000000 4.000000
vt 2.000000 3.000000
vt 2.000000 4.000000
vt 4.000000 4.000000
vt 5.000000 4.000000
vt 7.000000 4.000000
vt 7.000000 3.000000
vt 2.000000 3.000000
vt 4.000000 4.000000
vt 4.000000 3.000000
vt 4.000000 4.000000
vt 5.000000 4.000000
vt 4.000000 3.000000
vt 5.000000 4.000000
vt 7.000000 3.000000
vt 5.000000 3.000000
vt 3.000000 1.000000
vt 3.000000 4.000000
vt 4.000000 4.000000
vt 4.000000 1.000000
vt 4.000000 4.000000
vt 3.000000 4.000000
vt 7.000000 4.000000
vt 7.000000 1.000000
vt 5.000000 3.000000
vt 7.000000 1.000000
vt 5.000000 1.000000
vt 5.000000 3.000000
vt 4.000000 1.000000
vt 2.000000 1.000000
vt 4.000000 3.000000
vt 2.000000 1.000000
vt 2.000000 4.000000
vt 4.000000 3.000000
vt 7.000000 4.000000
vt 5.000000 3.000000
vt 4.000000 3.000000
vt 2.000000 4.000000
vt 2.000000 1.000000
vt 4.000000 3.000000
vt 2.000000 1.000000
vt 4.000000 1.000000
vt 4.000000 3.000000
vt 5.000000 1.000000
vt 7.000000 1.000000
vt 5.000000 3.000000
vt 7.000000 1.000000
vt 7.000000 4.000000
vt 5.000000 3.000000
vt 2.000000 4.000000
vt 4.000000 3.000000
vt 5.000000 3.000000
vt 4.000000 3.000000
vt 5.000000 3.000000
vt 5.000000 1.000000
vt 5.000000 3.000000
vt 4.000000 3.000000
vt 4.000000 1.000000
vt 4.000000 3.000000
vt 4.000000 2.000000
vt 5.000000 2.000000
vt -3.000000 -2.000000
vt 2.000000 -2.000000
vt 2.000000 -1.000000
vt -3.000000 -2.000000
vt -3.000000 -1.000000
vt -1.000000 -1.000000
vt 0.000000 -1.000000
vt 2.000000 -1.000000
vt 2.000000 -2.000000
vt -3.000000 -2.000000
vt -1.000000 -1.000000
vt -1.000000 -2.000000
vt -1.000000 -1.000000
vt 0.000000 -1.000000
vt -1.000000 -2.000000
vt 0.000000 -1.000000
vt 2.000000 -2.000000
vt 0.000000 -2.000000
vt -2.000000 1.000000
vt -2.000000 4.000000
vt -1.000000 4.000000
vt -1.000000 1.000000
vt -1.000000 4.000000
vt -2.000000 4.000000
vt 2.000000 4.000000
vt 2.000000 1.000000
vt 0.000000 2.500000
vt 2.000000 1.000000
vt 0.000000 1.000000
vt 0.000000 2.500000
vt -1.000000 1.000000
vt -3.000000 1.000000
vt -1.000000 2.500000
vt -3.000000 1.000000
vt -3.000000 4.000000
vt -1.000000 2.500000
vt 2.000000 4.000000
vt 0.000000 2.500000
vt -1.000000 2.500000
vt -3.000000 4.000000
vt -3.000000 1.000000
vt -1.000000 2.500000
vt -3.000000 1.000000
vt -1.000000 1.000000
vt -1.000000 2.500000
vt 0.000000 1.000000
vt 2.000000 1.000000
vt 0.000000 2.500000
vt 2.000000 1.000000
vt 2.000000 4.000000
vt 0.000000 2.500000
vt -3.000000 4.000000
vt -1.000000 2.500000
vt 0.000000 2.500000
vt -1.000000 2.500000
vt 0.000000 2.500000
vt 0.000000 1.000000
vt 0.000000 2.500000
vt -1.000000 2.500000
vt -1.000000 1.000000
vt -1.000000 2.500000
vt -1.000000 1.500000
vt 0.000000 1.500000
vt -5.000000 -3.000000
vt -5.000000 -2.000000
vt -6.000000 -2.000000
vt -5.000000 -2.000000
vt -5.000000 -3.000000
vt -6.000000 -3.000000
vt -3.000000 1.000000
vt -3.000000 2.000000
vt -2.000000 2.000000
vt -3.000000 2.000000
vt -3.000000 1.000000
vt -2.000000 1.000000
vt -6.000000 1.000000
vt -6.000000 2.000000
vt -5.000000 2.000000
vt -6.000000 2.000000
vt -6.000000 1.000000
vt -5.000000 1.000000
vn 0.0000 1.0000 -0.0000
vn -0.0000 -1.0000 0.0000
vn -0.0000 0.0000 -1.0000
vn 0.0000 0.0000 1.0000
vn 1.0000 0.0000 -0.0000
vn -1.0000 0.0000 0.0000
vc 1.0000 1.0000 1.0000 1.0000
g mesh_4_Collection_materials/insidecheckerboardflooring.vmat#SFX_2
usemtl materials/insidecheckerboardflooring.vmat
f 2/1/1 4/2/1 1/3/1
fc 1 1 1
f 6/4/2 8/5/2 5/6/2
fc 1 1 1
f 8/7/3 4/8/3 5/9/3
fc 1 1 1
f 2/10/4 6/11/4 3/12/4
fc 1 1 1
f 5/13/5 3/14/5 6/15/5
fc 1 1 1
f 1/16/6 7/17/6 2/18/6
fc 1 1 1
f 9/19/1 11/20/1 12/21/1
fc 1 1 1
f 21/22/2 20/23/2 17/24/2
fc 1 1 1
f 16/25/3 12/26/3 13/27/3
fc 1 1 1
f 14/28/4 10/29/4 15/30/4
fc 1 1 1
f 12/31/5 11/32/5 22/33/5
fc 1 1 1
f 10/34/6 9/35/6 18/36/6
fc 1 1 1
f 17/37/4 22/38/4 19/39/4
fc 1 1 1
f 18/40/3 21/41/3 20/42/3
fc 1 1 1
f 19/43/2 23/44/2 18/45/2
fc 1 1 1
f 25/46/1 27/47/1 28/48/1
fc 1 1 1
f 37/49/2 36/50/2 33/51/2
fc 1 1 1
f 32/52/3 28/53/3 29/54/3
fc 1 1 1
f 30/55/4 26/56/4 31/57/4
fc 1 1 1
f 28/58/5 27/59/5 38/60/5
fc 1 1 1
f 26/61/6 25/62/6 34/63/6
fc 1 1 1
f 38/64/4 33/65/4 40/66/4
fc 1 1 1
f 34/67/3 37/68/3 36/69/3
fc 1 1 1
f 35/70/2 39/71/2 34/72/2
fc 1 1 1
f 41/73/1 43/74/1 44/75/1
fc 1 1 1
f 53/76/2 52/77/2 49/78/2
fc 1 1 1
f 48/79/3 44/80/3 45/81/3
fc 1 1 1
f 46/82/4 42/83/4 47/84/4
fc 1 1 1
f 44/85/5 43/86/5 54/87/5
fc 1 1 1
f 42/88/6 41/89/6 50/90/6
fc 1 1 1
f 54/91/4 49/92/4 56/93/4
fc 1 1 1
f 50/94/3 53/95/3 52/96/3
fc 1 1 1
f 51/97/2 55/98/2 50/99/2
fc 1 1 1
f 58/100/1 60/101/1 57/102/1
fc 1 1 1
f 62/103/2 64/104/2 61/105/2
fc 1 1 1
f 64/106/3 60/107/3 61/108/3
fc 1 1 1
f 58/109/4 62/110/4 59/111/4
fc 1 1 1
f 61/112/5 59/113/5 62/114/5
fc 1 1 1
f 57/115/6 63/116/6 58/117/6
fc 1 1 1
f 2/118/1 3/119/1 4/120/1
fc 1 1 1
f 6/121/2 7/122/2 8/123/2
fc 1 1 1
f 8/124/3 1/125/3 4/126/3
fc 1 1 1
f 2/127/4 7/128/4 6/129/4
fc 1 1 1
f 5/130/5 4/131/5 3/132/5
fc 1 1 1
f 1/133/6 8/134/6 7/135/6
fc 1 1 1
f 9/136/1 10/137/1 11/138/1
fc 1 1 1
f 16/139/2 13/140/2 24/141/2
fc 1 1 1
f 21/142/2 14/143/2 15/144/2
fc 1 1 1
f 16/145/2 24/146/2 17/147/2
fc 1 1 1
f 24/148/2 21/149/2 17/150/2
fc 1 1 1
f 21/151/2 15/152/2 20/153/2
fc 1 1 1
f 16/154/3 9/155/3 12/156/3
fc 1 1 1
f 14/157/4 11/158/4 10/159/4
fc 1 1 1
f 11/160/5 14/161/5 23/162/5
fc 1 1 1
f 14/163/5 21/164/5 23/165/5
fc 1 1 1
f 24/166/5 13/167/5 22/168/5
fc 1 1 1
f 13/169/5 12/170/5 22/171/5
fc 1 1 1
f 11/172/5 23/173/5 22/174/5
fc 1 1 1
f 9/175/6 16/176/6 19/177/6
fc 1 1 1
f 16/178/6 17/179/6 19/180/6
fc 1 1 1
f 20/181/6 15/182/6 18/183/6
fc 1 1 1
f 15/184/6 10/185/6 18/186/6
fc 1 1 1
f 9/187/6 19/188/6 18/189/6
fc 1 1 1
f 17/190/4 24/191/4 22/192/4
fc 1 1 1
f 18/193/3 23/194/3 21/195/3
fc 1 1 1
f 19/196/2 22/197/2 23/198/2
fc 1 1 1
f 25/199/1 26/200/1 27/201/1
fc 1 1 1
f 32/202/2 29/203/2 40/204/2
fc 1 1 1
f 37/205/2 30/206/2 31/207/2
fc 1 1 1
f 32/208/2 40/209/2 33/210/2
fc 1 1 1
f 40/211/2 37/212/2 33/213/2
fc 1 1 1
f 37/214/2 31/215/2 36/216/2
fc 1 1 1
f 32/217/3 25/218/3 28/219/3
fc 1 1 1
f 30/220/4 27/221/4 26/222/4
fc 1 1 1
f 27/223/5 30/224/5 39/225/5
fc 1 1 1
f 30/226/5 37/227/5 39/228/5
fc 1 1 1
f 40/229/5 29/230/5 38/231/5
fc 1 1 1
f 29/232/5 28/233/5 38/234/5
fc 1 1 1
f 27/235/5 39/236/5 38/237/5
fc 1 1 1
f 25/238/6 32/239/6 35/240/6
fc 1 1 1
f 32/241/6 33/242/6 35/243/6
fc 1 1 1
f 36/244/6 31/245/6 34/246/6
fc 1 1 1
f 31/247/6 26/248/6 34/249/6
fc 1 1 1
f 25/250/6 35/251/6 34/252/6
fc 1 1 1
f 38/253/4 35/254/4 33/255/4
fc 1 1 1
f 34/256/3 39/257/3 37/258/3
fc 1 1 1
f 35/259/2 38/260/2 39/261/2
fc 1 1 1
f 41/262/1 42/263/1 43/264/1
fc 1 1 1
f 48/265/2 45/266/2 56/267/2
fc 1 1 1
f 53/268/2 46/269/2 47/270/2
fc 1 1 1
f 48/271/2 56/272/2 49/273/2
fc 1 1 1
f 56/274/2 53/275/2 49/276/2
fc 1 1 1
f 53/277/2 47/278/2 52/279/2
fc 1 1 1
f 48/280/3 41/281/3 44/282/3
fc 1 1 1
f 46/283/4 43/284/4 42/285/4
fc 1 1 1
f 43/286/5 46/287/5 55/288/5
fc 1 1 1
f 46/289/5 53/290/5 55/291/5
fc 1 1 1
f 56/292/5 45/293/5 54/294/5
fc 1 1 1
f 45/295/5 44/296/5 54/297/5
fc 1 1 1
f 43/298/5 55/299/5 54/300/5
fc 1 1 1
f 41/301/6 48/302/6 51/303/6
fc 1 1 1
f 48/304/6 49/305/6 51/306/6
fc 1 1 1
f 52/307/6 47/308/6 50/309/6
fc 1 1 1
f 47/310/6 42/311/6 50/312/6
fc 1 1 1
f 41/313/6 51/314/6 50/315/6
fc 1 1 1
f 54/316/4 51/317/4 49/318/4
fc 1 1 1
f 50/319/3 55/320/3 53/321/3
fc 1 1 1
f 51/322/2 54/323/2 55/324/2
fc 1 1 1
f 58/325/1 59/326/1 60/327/1
fc 1 1 1
f 62/328/2 63/329/2 64/330/2
fc 1 1 1
f 64/331/3 57/332/3 60/333/3
fc 1 1 1
f 58/334/4 63/335/4 62/336/4
fc 1 1 1
f 61/337/5 60/338/5 59/339/5
fc 1 1 1
f 57/340/6 64/341/6 63/342/6
fc 1 1 1
