# Blender v4.5.2 LTS OBJ File: 'IceCavernMini.blend'
# www.blender.org
mtllib IceCavernMinitest.mtl
g mesh_37_#Door#NoMesh
v 66.471123 -5.538887 -461.831116
v 66.471130 -5.538887 -397.831116
v 66.471115 -101.538887 -461.831116
v 66.471123 -101.538887 -397.831116
vt -11.000000 1.500000
vt -10.000000 -0.000000
vt -10.000000 1.500000
vt -11.000000 1.500000
vt -11.000000 -0.000000
vt -10.000000 -0.000000
vn -1.0000 0.0000 0.0000
vc 1.0000 1.0000 1.0000 1.0000
g mesh_37_#Door#NoMesh_materials/dev/reflectivity_30.vmat.006#SFX_2
usemtl materials/dev/reflectivity_30.vmat.006
f 1/1/1 4/2/1 2/3/1
fc 1 1 1
f 1/4/1 3/5/1 4/6/1
fc 1 1 1
g mesh_38_#Door#NoMesh
v 498.471069 -5.538887 370.168854
v 498.471069 -5.538887 434.168854
v 498.471069 -101.538887 370.168854
v 498.471069 -101.538887 434.168854
vt 2.000000 1.500000
vt 3.000000 -0.000000
vt 3.000000 1.500000
vt 2.000000 1.500000
vt 2.000000 -0.000000
vt 3.000000 -0.000000
vn -1.0000 0.0000 0.0000
vc 1.0000 1.0000 1.0000 1.0000
g mesh_38_#Door#NoMesh_materials/dev/reflectivity_30.vmat.007#SFX_2
usemtl materials/dev/reflectivity_30.vmat.007
f 5/7/2 8/8/2 6/9/2
fc 2 2 2
f 5/10/2 7/11/2 8/12/2
fc 2 2 2
g No_Collision_#Room0#
v 482.471130 154.461090 242.168823
v 482.471161 154.461090 594.168823
v -125.528900 154.461121 146.168884
v -477.528870 154.461136 306.168915
v -477.528870 -101.538864 306.168915
v -477.528870 154.461136 178.168900
v -125.528870 154.461121 338.168884
v -477.528870 -101.538864 178.168900
vt 0.000000 8.750002
vt 1.500000 -0.750000
vt -1.500000 -0.750000
vt 1.000000 -6.250000
vt -1.500000 -0.750000
vt 1.500000 -0.750000
vt 0.000000 8.750002
vt 5.500001 8.750002
vt 1.500000 -0.750000
vt 1.000000 -6.250000
vt -1.000000 -6.250000
vt -1.500000 -0.750000
vt -0.500000 0.015625
vt 0.500000 0.991235
vt 0.500000 0.015625
vt -0.500000 0.015625
vt -0.500000 0.991235
vt 0.500000 0.991235
vn -0.0000 -1.0000 -0.0000
vn 1.0000 0.0000 0.0000
vc 1.0000 1.0000 1.0000 1.0000
g No_Collision_#Room0#_materials/frostyfloor.vmat.001#NoCollision
usemtl materials/frostyfloor.vmat.001
f 9/13/3 15/14/3 11/15/3
fc 3 3 3
f 12/16/3 11/17/3 15/18/3
fc 3 3 3
f 9/19/3 10/20/3 15/21/3
fc 3 3 3
f 12/22/3 14/23/3 11/24/3
fc 3 3 3
g No_Collision_#Room0#_materials/newice.vmat.001#NoCollision
usemtl materials/newice.vmat.001
f 16/25/4 12/26/4 13/27/4
fc 3 3 3
f 16/28/4 14/29/4 12/30/4
fc 3 3 3
g mesh_33_#Room0#
v -477.528900 -101.538887 178.168884
v -477.528900 -101.538887 306.168884
v -301.528900 -101.538895 162.168869
v -301.528900 -101.538895 322.168884
vt -1.000000 -6.250000
vt 1.250000 -3.500000
vt -1.250000 -3.500000
vt -1.000000 -6.250000
vt 1.000000 -6.250000
vt 1.250000 -3.500000
vn 0.0000 1.0000 0.0000
vc 1.0000 1.0000 1.0000 1.0000
g mesh_33_#Room0#_materials/softice.vmat.001#SFX_2#Exit00
usemtl materials/softice.vmat.001
f 17/31/5 20/32/5 19/33/5
fc 4 4 4
f 17/34/5 18/35/5 20/36/5
fc 4 4 4
g mesh_33a_#Room0#
v -125.528900 -101.538902 338.168854
v -125.528900 -101.538902 146.168854
v -301.528900 -101.538895 162.168869
v -301.528900 -101.538895 322.168884
v -477.528900 -101.538887 178.168884
v -477.528870 154.461105 178.168884
v -125.528885 154.461090 146.168854
v -477.528870 154.461105 306.168884
v -477.528900 -101.538887 306.168884
v -125.528885 154.461090 338.168854
v -125.528900 -101.538902 338.168854
v -125.528900 -101.538902 146.168854
v 482.471100 154.461075 594.168823
v 482.471100 -101.538925 370.168823
v 482.471100 -5.538925 434.168823
v 482.471100 -5.538925 370.168823
v 482.471100 -101.538925 434.168823
v 482.471100 154.461075 242.168808
v 482.471100 -101.538925 594.168823
v 482.471100 -101.538925 242.168808
vt -1.250000 -3.500000
vt 1.500000 -0.750000
vt -1.500000 -0.750000
vt -1.250000 -3.500000
vt 1.250000 -3.500000
vt 1.500000 -0.750000
vt -3.066899 0.991235
vt -0.305558 0.015625
vt -0.305558 0.991235
vt -3.066899 0.015625
vt -0.305558 0.991235
vt -0.305558 0.015625
vt -0.054571 0.015625
vt 5.099312 0.991235
vt 5.099312 0.015625
vt -0.487383 0.991235
vt 4.321464 0.015625
vt 4.321464 0.991235
vt 0.000000 0.991235
vt 1.000000 0.381479
vt 1.500000 0.381479
vt -3.066899 0.991235
vt -3.066899 0.015625
vt -0.305558 0.015625
vt -3.066899 0.015625
vt -3.066899 0.991235
vt -0.305558 0.991235
vt -0.054571 0.015625
vt -0.054571 0.991235
vt 5.099312 0.991235
vt -0.487383 0.991235
vt -0.487383 0.015625
vt 4.321464 0.015625
vt 2.750000 0.015625
vt 2.750000 0.991235
vt 1.500000 0.381479
vt 2.750000 0.991235
vt 0.000000 0.991235
vt 1.500000 0.381479
vt 0.000000 0.991235
vt 0.000000 0.015625
vt 1.000000 0.381479
vt 0.000000 0.015625
vt 1.000000 0.015625
vt 1.000000 0.381479
vt 1.500000 0.381479
vt 1.500000 0.015625
vt 2.750000 0.015625
vt 2.000000 8.750000
vt 0.000000 8.750000
vt 1.500000 -0.750000
vt -1.500000 -0.750000
vt 1.500000 -0.750000
vt 0.000000 8.750000
vt 1.500000 -0.750000
vt 5.500000 8.750000
vt 3.000000 8.750000
vt 1.500000 -0.750000
vt 3.000000 8.750000
vt 2.000000 8.750000
vn 0.0000 1.0000 0.0000
vn 0.0905 -0.0000 0.9959
vn -0.0329 -0.0000 0.9995
vn 0.0905 -0.0000 -0.9959
vn 0.2422 -0.0000 -0.9702
vn 0.3881 0.0000 -0.9216
vn -0.0330 0.0000 0.9995
vn -0.1560 0.0000 0.9878
vn -1.0000 -0.0000 0.0000
vc 1.0000 1.0000 1.0000 1.0000
g mesh_33a_#Room0#_materials/softice.vmat#SFX_D
usemtl materials/softice.vmat
f 23/37/6 21/38/6 22/39/6
fc 5 5 5
f 23/40/6 24/41/6 21/42/6
fc 5 5 5
g mesh_33a_#Room0#_materials/newice.vmat#SFX_C#WALLPROPERTY_NO_LEDGE_GRAB
usemtl materials/newice.vmat
f 26/43/7 32/44/8 27/45/8
fc 5 5 5
f 29/46/9 30/47/10 31/48/10
fc 5 5 5
f 31/49/10 33/50/11 39/51/11
fc 5 5 5
f 27/52/12 40/53/13 38/54/13
fc 5 5 5
f 38/55/14 36/56/14 35/57/14
fc 5 5 5
f 26/58/7 25/59/7 32/60/8
fc 5 5 5
f 29/61/9 28/62/9 30/63/10
fc 5 5 5
f 31/64/10 30/65/10 33/66/11
fc 5 5 5
f 27/67/12 32/68/12 40/69/13
fc 5 5 5
f 39/70/14 33/71/14 35/72/14
fc 5 5 5
f 33/73/14 38/74/14 35/75/14
fc 5 5 5
f 38/76/14 40/77/14 36/78/14
fc 5 5 5
f 40/79/14 34/80/14 36/81/14
fc 5 5 5
f 35/82/14 37/83/14 39/84/14
fc 5 5 5
g mesh_33a_#Room0#_materials/softice.vmat#SFX_D
usemtl materials/softice.vmat
f 34/85/6 40/86/6 31/87/6
fc 5 5 5
f 32/88/6 31/89/6 40/90/6
fc 5 5 5
f 31/91/6 39/92/6 37/93/6
fc 5 5 5
f 31/94/6 37/95/6 34/96/6
fc 5 5 5
g No_Collision0_#Room1#
v 786.471069 90.461098 242.168808
v 786.471069 90.461098 594.168823
v 514.471069 90.461113 594.168823
v 514.471069 90.461113 242.168839
v 642.471008 90.461105 -365.831177
v 642.471069 90.461105 242.168823
v 514.471008 90.461113 -365.831177
v 642.471008 90.461105 -493.831177
v 82.471008 90.461128 -493.831116
v 82.471008 90.461128 -365.831116
v 482.471069 -5.538887 370.168823
v 482.471069 -5.538887 434.168823
v 514.471069 -5.538887 370.168823
v 514.471069 -5.538887 434.168823
vt 5.500000 13.500000
vt 0.000000 9.250000
vt 0.000000 13.500000
vt 0.000000 11.250000
vt -9.500000 9.250000
vt -9.500000 11.250000
vt -9.500000 11.250000
vt -11.500000 2.500000
vt -11.500000 11.250000
vt 5.500000 13.500000
vt 5.500000 9.250000
vt 0.000000 9.250000
vt 0.000000 11.250000
vt 0.000000 9.250000
vt -9.500000 9.250000
vt -9.500000 11.250000
vt -9.500000 2.500000
vt -11.500000 2.500000
vt 3.000000 4.625000
vt 2.000000 4.375000
vt 2.000000 4.625000
vt 3.000000 4.625000
vt 3.000000 4.375000
vt 2.000000 4.375000
vn -0.0000 -1.0000 0.0000
vc 1.0000 1.0000 1.0000 1.0000
g No_Collision0_#Room1#_materials/frostyfloor.vmat.001#NoCollision
usemtl materials/frostyfloor.vmat.001
f 42/97/15 44/98/15 41/99/15
fc 6 6 6
f 46/100/15 47/101/15 45/102/15
fc 6 6 6
f 45/103/15 49/104/15 48/105/15
fc 6 6 6
f 42/106/15 43/107/15 44/108/15
fc 6 6 6
f 46/109/15 44/110/15 47/111/15
fc 6 6 6
f 45/112/15 50/113/15 49/114/15
fc 6 6 6
g No_Collision0_#Room1#_materials/newice.vmat.001#NoCollision
usemtl materials/newice.vmat.001
f 54/115/15 51/116/15 53/117/15
fc 6 6 6
f 54/118/15 52/119/15 51/120/15
fc 6 6 6
g mesh_21_#Room1#
v 641.971191 90.461060 242.168823
v 786.471252 90.461060 594.168823
v 641.971191 -101.538933 242.168823
v 514.471191 -101.538925 434.168823
v 82.471130 -101.538910 -493.831146
v 82.471130 -101.538910 -365.831146
v 786.471130 -101.538940 242.168823
v 642.971130 -101.538933 -493.831177
v 82.471130 -5.538910 -397.831146
v 82.471130 -5.538910 -461.831146
v 82.471130 90.461090 -493.831146
v 514.471191 -101.538925 594.168823
v 642.971130 90.461060 -493.831177
v 82.471130 90.461090 -365.831146
v 786.471252 -101.538940 594.168823
v 82.471130 -101.538910 -461.831146
v 50.471130 -101.538910 -461.831146
v 50.471130 -5.538910 -397.831146
v 786.471130 90.461060 242.168823
v 50.471130 -101.538910 -397.831146
v 514.471191 -5.538925 370.168823
v 514.471191 90.461075 594.168823
v 82.471130 -101.538910 -397.831146
v 482.471191 -101.538925 434.168823
v 514.471130 -101.538925 -365.831177
v 514.471130 90.461075 -365.831177
v 50.471130 -5.538910 -461.831146
v 482.471191 -101.538925 370.168823
v 482.471191 -5.538925 370.168823
v 514.471191 -5.538925 434.168823
v 482.471191 -5.538925 434.168823
v 514.471191 -101.538925 370.168823
vt 2.000000 9.250000
vt 0.000000 11.242188
vt -9.500000 9.250000
vt -11.500000 11.257812
vt -11.500000 2.500000
vt -9.500000 9.250000
vt -11.500000 2.500000
vt -11.000000 2.500000
vt -9.500000 9.250000
vt -11.000000 2.500000
vt -11.000000 2.000000
vt -10.000000 2.000000
vt -10.000000 2.500000
vt -9.500000 2.500000
vt -9.500000 9.250000
vt -11.000000 2.500000
vt -10.000000 2.000000
vt -10.000000 2.500000
vt 5.500000 13.500000
vt 0.000000 13.500000
vt 0.000000 11.242188
vt 3.000000 9.250000
vt 5.500000 9.250000
vt 5.500000 13.500000
vt 2.000000 8.750000
vt 3.000000 8.750000
vt 3.000000 9.250000
vt 2.000000 9.250000
vt 2.000000 8.750000
vt 3.000000 9.250000
vt 3.000000 9.250000
vt 5.500000 13.500000
vt 0.000000 11.242188
vt -11.000000 2.500000
vt -10.000000 2.500000
vt -9.500000 9.250000
vt 3.000000 9.250000
vt 0.000000 11.242188
vt 2.000000 9.250000
vt 0.000000 11.242188
vt -11.500000 11.257812
vt -9.500000 9.250000
vt 2.000000 -0.000000
vt 2.500000 0.750000
vt 2.500000 -0.000000
vt -7.666667 1.000000
vt -6.333333 1.000000
vt -7.333333 0.500000
vt 7.505208 0.015625
vt 1.666667 0.999232
vt 1.666667 0.015625
vt 9.000000 0.015625
vt 7.494792 0.999232
vt 7.494792 0.015625
vt 1.666667 -0.000000
vt 6.166667 1.000000
vt 6.166667 -0.000000
vt 2.000000 0.750000
vt 2.500000 -0.000000
vt 2.500000 0.750000
vt -7.676857 0.015625
vt -0.010183 0.999232
vt -7.676857 0.999232
vt 9.999995 4.999990
vt 10.999994 3.999989
vt 10.999994 4.999989
vt 3.666667 0.999232
vt 2.000000 0.507428
vt 1.333333 0.507428
vt 0.000000 0.999232
vt 3.666667 0.015625
vt 3.666667 0.999232
vt 5.833333 0.500000
vt 6.166667 -0.000000
vt 6.166667 0.500000
vt 5.833333 -0.000000
vt 6.166667 0.500000
vt 6.166667 -0.000000
vt 9.000000 0.999232
vt 6.166667 0.015625
vt 6.166667 0.999232
vt 2.000000 -0.000000
vt 2.000000 0.750000
vt 2.500000 0.750000
vt -6.333333 1.000000
vt -6.333333 -0.000000
vt -6.666667 0.500000
vt -6.333333 -0.000000
vt -6.666667 -0.000000
vt -6.666667 0.500000
vt -7.333333 -0.000000
vt -7.666667 -0.000000
vt -7.333333 0.500000
vt -7.666667 -0.000000
vt -7.666667 1.000000
vt -7.333333 0.500000
vt -6.333333 1.000000
vt -6.666667 0.500000
vt -7.333333 0.500000
vt 7.505208 0.015625
vt 7.505208 0.999232
vt 1.666667 0.999232
vt 9.000000 0.015625
vt 9.000000 0.999232
vt 7.494792 0.999232
vt 1.666667 -0.000000
vt 1.666667 1.000000
vt 6.166667 1.000000
vt 2.000000 0.750000
vt 2.000000 -0.000000
vt 2.500000 -0.000000
vt -7.676857 0.015625
vt -0.010183 0.015625
vt -0.010183 0.999232
vt 9.999995 4.999990
vt 9.999995 3.999990
vt 10.999994 3.999989
vt 3.666667 0.999232
vt 3.666667 0.015625
vt 2.000000 0.507428
vt 3.666667 0.015625
vt 2.000000 0.015625
vt 2.000000 0.507428
vt -6.333333 0.015625
vt -6.333333 0.999232
vt 1.333333 0.507428
vt -6.333333 0.999232
vt 3.666667 0.999232
vt 1.333333 0.507428
vt 1.333333 0.507428
vt 1.333333 0.015625
vt -6.333333 0.015625
vt 0.000000 0.999232
vt 0.000000 0.015625
vt 3.666667 0.015625
vt 5.833333 0.500000
vt 5.833333 -0.000000
vt 6.166667 -0.000000
vt 5.833333 -0.000000
vt 5.833333 0.500000
vt 6.166667 0.500000
vt 9.000000 0.999232
vt 9.000000 0.015625
vt 6.166667 0.015625
vn 0.0000 1.0000 0.0000
vn 0.0000 0.0000 -1.0000
vn 1.0000 0.0000 0.0000
vn 0.0000 0.0000 1.0000
vn -1.0000 0.0000 -0.0014
vn 0.0000 -1.0000 0.0000
vn -1.0000 0.0000 0.0000
vc 1.0000 1.0000 1.0000 1.0000
g mesh_21_#Room1#_materials/softice.vmat#SFX_D
usemtl materials/softice.vmat
f 86/121/16 57/122/16 79/123/16
fc 7 7 7
f 62/124/16 59/125/16 79/126/16
fc 7 7 7
f 59/127/16 70/128/16 79/129/16
fc 7 7 7
f 70/130/16 71/131/16 74/132/16
fc 7 7 7
f 77/133/16 60/134/16 79/135/16
fc 7 7 7
f 70/136/16 74/137/16 77/138/16
fc 7 7 7
f 69/139/16 61/140/16 57/141/16
fc 7 7 7
f 58/142/16 66/143/16 69/144/16
fc 7 7 7
f 82/145/16 78/146/16 58/147/16
fc 7 7 7
f 86/148/16 82/149/16 58/150/16
fc 7 7 7
f 58/151/16 69/152/16 57/153/16
fc 7 7 7
f 70/154/16 77/155/16 79/156/16
fc 7 7 7
f 58/157/16 57/158/16 86/159/16
fc 7 7 7
f 57/160/16 62/161/16 79/162/16
fc 7 7 7
g mesh_21_#Room1#_materials/newice.vmat#SFX_C#WALLPROPERTY_NO_LEDGE_GRAB
usemtl materials/newice.vmat
f 74/163/17 63/164/17 77/165/17
fc 7 7 7
f 65/166/18 68/167/18 64/168/18
fc 7 7 7
f 62/169/19 65/170/19 59/171/19
fc 7 7 7
f 61/172/19 55/173/19 57/174/19
fc 7 7 7
f 60/175/17 80/176/17 79/177/17
fc 7 7 7
f 81/178/19 70/179/19 64/180/19
fc 7 7 7
f 62/181/20 55/182/20 67/183/20
fc 7 7 7
f 63/184/21 81/185/21 64/186/21
fc 7 7 7
f 76/187/18 84/188/18 75/189/18
fc 7 7 7
f 73/190/22 69/191/22 56/192/22
fc 7 7 7
f 83/193/19 86/194/19 75/195/19
fc 7 7 7
f 78/196/17 84/197/17 58/198/17
fc 7 7 7
f 56/199/17 66/200/17 76/201/17
fc 7 7 7
f 74/202/17 72/203/17 63/204/17
fc 7 7 7
f 68/205/18 60/206/18 63/207/18
fc 7 7 7
f 60/208/18 77/209/18 63/210/18
fc 7 7 7
f 70/211/18 59/212/18 64/213/18
fc 7 7 7
f 59/214/18 65/215/18 64/216/18
fc 7 7 7
f 68/217/18 63/218/18 64/219/18
fc 7 7 7
f 62/220/19 67/221/19 65/222/19
fc 7 7 7
f 61/223/19 73/224/19 55/225/19
fc 7 7 7
f 60/226/17 68/227/17 80/228/17
fc 7 7 7
f 81/229/19 71/230/19 70/231/19
fc 7 7 7
f 62/232/20 57/233/20 55/234/20
fc 7 7 7
f 63/235/21 72/236/21 81/237/21
fc 7 7 7
f 76/238/18 66/239/18 84/240/18
fc 7 7 7
f 66/241/18 58/242/18 84/243/18
fc 7 7 7
f 79/244/18 80/245/18 75/246/18
fc 7 7 7
f 80/247/18 76/248/18 75/249/18
fc 7 7 7
f 75/250/18 86/251/18 79/252/18
fc 7 7 7
f 73/253/22 61/254/22 69/255/22
fc 7 7 7
f 83/256/19 82/257/19 86/258/19
fc 7 7 7
f 78/259/17 85/260/17 84/261/17
fc 7 7 7
f 56/262/17 69/263/17 66/264/17
fc 7 7 7
g mesh_22_#Room2#
v -509.528870 -113.538879 -237.831100
v -29.528885 -113.538910 -237.831131
v -509.528931 -113.538879 -621.831116
v -29.528915 -113.538910 -621.831116
v -509.528900 -164.538879 -237.831100
v -29.528900 -164.538910 -237.831131
v -509.528931 -164.538879 -621.831116
v -29.528931 -164.538910 -621.831116
v -589.528931 218.461121 -717.831055
v -589.528870 218.461121 -141.831085
v 50.471130 218.461090 -141.831146
v 50.471069 218.461090 -717.831177
v 50.471069 -101.538910 -717.831177
v 50.471130 -101.538910 -141.831146
v -589.528870 -101.538879 -141.831085
v -589.528931 -101.538879 -717.831055
v 50.471100 -101.538910 -461.831146
v 50.471100 -5.538912 -397.831146
v -413.528900 -113.538895 -429.831116
v 50.471100 -101.538910 -397.831146
v -29.528915 -101.538910 -621.831116
v -589.528931 -101.538879 -237.831085
v -509.528870 -101.538879 -237.831100
v -29.528885 -101.538910 -237.831131
v -589.528931 -101.538879 -621.831055
v -509.528931 -101.538879 -621.831116
v -509.528900 -69.538887 -525.831116
v -413.528900 -69.538887 -333.831116
v -397.528900 -69.538887 -429.831116
v -397.528900 -69.538887 -525.831116
v -397.528900 -113.538895 -525.831116
v -397.528900 -113.538895 -429.831116
v -509.528900 -69.538887 -333.831116
v -509.528900 -113.538879 -525.831116
v -125.528900 -69.538902 -333.831116
v -125.528885 -69.538902 -237.831131
v -29.528885 -69.538902 -237.831131
v -29.528900 -69.538902 -333.831116
v -29.528900 -113.538910 -333.831116
v -509.528900 -113.538879 -333.831116
v -125.528885 -113.538895 -237.831131
v -125.528900 -113.538895 -333.831116
v -221.528915 -69.538895 -621.831116
v -221.528915 -69.538895 -525.831116
v -125.528900 -69.538902 -525.831116
v -125.528915 -69.538902 -621.831116
v -125.528915 -113.538895 -621.831116
v -125.528900 -113.538895 -525.831116
v -221.528915 -113.538895 -525.831116
v -221.528931 -113.538895 -621.831116
v 50.471100 -5.538912 -461.831146
v -413.528900 -113.538895 -333.831116
v -413.528900 -69.538887 -429.831116
v -589.528870 58.461117 -141.831085
v 50.471130 58.461090 -141.831146
v -589.528870 138.461121 -141.831085
v 50.471130 138.461090 -141.831146
v -589.528870 -21.538881 -141.831085
v 50.471130 -21.538912 -141.831146
v -269.528870 -101.538895 -141.831116
v -269.528870 218.461105 -141.831116
v -269.528870 58.461105 -141.831116
v -269.528870 138.461105 -141.831116
v -269.528870 -21.538897 -141.831116
v -109.528870 218.461105 -141.831116
v -109.528885 58.461098 -141.831116
v -109.528885 138.461090 -141.831116
v -109.528885 -21.538904 -141.831116
v -109.528885 -101.538895 -141.831116
v -429.528870 -101.538895 -141.831116
v -429.528870 218.461105 -141.831116
v -429.528870 58.461113 -141.831116
v -429.528870 138.461105 -141.831116
v -429.528870 -21.538889 -141.831116
v -509.528870 -101.538879 -141.831085
v -509.528870 218.461121 -141.831085
v -509.528870 58.461113 -141.831085
v -509.528870 138.461105 -141.831085
v -509.528870 -21.538885 -141.831085
v -189.528885 -101.538895 -141.831116
v -189.528870 218.461105 -141.831116
v -189.528870 58.461098 -141.831116
v -189.528870 138.461105 -141.831116
v -189.528870 -21.538900 -141.831116
v -349.528870 218.461105 -141.831116
v -349.528870 58.461105 -141.831116
v -349.528870 138.461105 -141.831116
v -349.528870 -21.538893 -141.831116
v -349.528870 -101.538895 -141.831116
v -29.528870 218.461090 -141.831146
v -29.528885 58.461090 -141.831146
v -29.528885 138.461090 -141.831146
v -29.528885 -21.538908 -141.831146
v -29.528885 -101.538910 -141.831146
vt -6.596153 -0.287565
vt -7.753075 -4.085641
vt -3.596152 -2.885641
vt -6.596153 -0.287565
vt -10.753075 -1.487565
vt -7.753075 -4.085641
vt 0.450000 1.000000
vt -1.550000 -0.000000
vt 0.450000 -0.000000
vt 0.300000 1.000000
vt 0.050000 0.750000
vt 0.300000 0.750000
vt -3.000000 1.000000
vt -3.000000 -0.000000
vt -2.200000 0.300000
vt -3.000000 1.000000
vt -1.200000 1.000000
vt -1.200000 0.750000
vt 0.300000 0.500000
vt 0.050000 0.250000
vt 0.300000 0.250000
vt 0.300000 0.750000
vt 0.050000 0.500000
vt 0.300000 0.500000
vt 0.300000 0.250000
vt 0.050000 -0.000000
vt 0.300000 0.000000
vt 1.300000 0.250000
vt 1.050000 0.000000
vt 1.300000 0.000000
vt 1.300000 0.750000
vt 1.050000 0.500000
vt 1.300000 0.500000
vt 1.300000 0.500000
vt 1.050000 0.250000
vt 1.300000 0.250000
vt 1.300000 1.000000
vt 1.050000 0.750000
vt 1.300000 0.750000
vt 0.800000 0.250000
vt 0.550000 0.000000
vt 0.800000 0.000000
vt 0.800000 0.750000
vt 0.550000 0.500000
vt 0.800000 0.500000
vt 0.800000 0.500000
vt 0.550000 0.250000
vt 0.800000 0.250000
vt 0.800000 1.000000
vt 0.550000 0.750000
vt 0.800000 0.750000
vt 1.800000 1.000000
vt 1.550000 0.750000
vt 1.800000 0.750000
vt 1.800000 0.500000
vt 1.550000 0.250000
vt 1.800000 0.250000
vt 1.800000 0.750000
vt 1.550000 0.500000
vt 1.800000 0.500000
vt 1.800000 0.250000
vt 1.550000 0.000000
vt 1.800000 0.000000
vt 2.050000 0.250000
vt 1.800000 0.000000
vt 2.050000 -0.000000
vt 2.050000 0.750000
vt 1.800000 0.500000
vt 2.050000 0.500000
vt 2.050000 0.500000
vt 1.800000 0.250000
vt 2.050000 0.250000
vt 2.050000 1.000000
vt 1.800000 0.750000
vt 2.050000 0.750000
vt 1.050000 1.000000
vt 0.800000 0.750000
vt 1.050000 0.750000
vt 1.050000 0.500000
vt 0.800000 0.250000
vt 1.050000 0.250000
vt 1.050000 0.750000
vt 0.800000 0.500000
vt 1.050000 0.500000
vt 1.050000 0.250000
vt 0.800000 0.000000
vt 1.050000 0.000000
vt 1.550000 1.000000
vt 1.300000 0.750000
vt 1.550000 0.750000
vt 1.550000 0.500000
vt 1.300000 0.250000
vt 1.550000 0.250000
vt 1.550000 0.750000
vt 1.300000 0.500000
vt 1.550000 0.500000
vt 1.550000 0.250000
vt 1.300000 0.000000
vt 1.550000 0.000000
vt 0.550000 0.250000
vt 0.300000 0.000000
vt 0.550000 0.000000
vt 0.550000 0.750000
vt 0.300000 0.500000
vt 0.550000 0.500000
vt 0.550000 0.500000
vt 0.300000 0.250000
vt 0.550000 0.250000
vt 0.550000 1.000000
vt 0.300000 0.750000
vt 0.550000 0.750000
vt 0.450000 1.000000
vt -1.550000 1.000000
vt -1.550000 -0.000000
vt 0.300000 1.000000
vt 0.050000 1.000000
vt 0.050000 0.750000
vt -2.000000 -0.000000
vt -1.200000 -0.000000
vt -1.200000 0.250000
vt -2.000000 -0.000000
vt -1.200000 0.250000
vt -2.000000 0.300000
vt -1.200000 0.250000
vt -1.200000 0.500000
vt -2.000000 0.300000
vt -1.200000 0.750000
vt -1.200000 1.000000
vt -2.000000 0.300000
vt -1.200000 1.000000
vt -3.000000 1.000000
vt -2.200000 0.300000
vt -2.000000 0.300000
vt -1.200000 0.500000
vt -1.200000 0.750000
vt -3.000000 -0.000000
vt -2.200000 -0.000000
vt -2.200000 0.300000
vt -2.200000 0.300000
vt -2.000000 0.300000
vt -1.200000 1.000000
vt -1.200000 0.250000
vt -1.200000 -0.000000
vt -1.500000 -0.000000
vt -2.700000 -0.000000
vt -3.000000 -0.000000
vt -3.000000 1.000000
vt -1.200000 0.250000
vt -1.500000 -0.000000
vt -1.200000 0.500000
vt -1.500000 -0.000000
vt -2.700000 -0.000000
vt -1.200000 0.750000
vt -1.200000 0.500000
vt -1.500000 -0.000000
vt -1.200000 0.750000
vt -2.700000 -0.000000
vt -3.000000 1.000000
vt -1.200000 0.750000
vt 0.300000 0.500000
vt 0.050000 0.500000
vt 0.050000 0.250000
vt 0.300000 0.750000
vt 0.050000 0.750000
vt 0.050000 0.500000
vt 0.300000 0.250000
vt 0.050000 0.250000
vt 0.050000 -0.000000
vt 1.300000 0.250000
vt 1.050000 0.250000
vt 1.050000 0.000000
vt 1.300000 0.750000
vt 1.050000 0.750000
vt 1.050000 0.500000
vt 1.300000 0.500000
vt 1.050000 0.500000
vt 1.050000 0.250000
vt 1.300000 1.000000
vt 1.050000 1.000000
vt 1.050000 0.750000
vt 0.800000 0.250000
vt 0.550000 0.250000
vt 0.550000 0.000000
vt 0.800000 0.750000
vt 0.550000 0.750000
vt 0.550000 0.500000
vt 0.800000 0.500000
vt 0.550000 0.500000
vt 0.550000 0.250000
vt 0.800000 1.000000
vt 0.550000 1.000000
vt 0.550000 0.750000
vt 1.800000 1.000000
vt 1.550000 1.000000
vt 1.550000 0.750000
vt 1.800000 0.500000
vt 1.550000 0.500000
vt 1.550000 0.250000
vt 1.800000 0.750000
vt 1.550000 0.750000
vt 1.550000 0.500000
vt 1.800000 0.250000
vt 1.550000 0.250000
vt 1.550000 0.000000
vt 2.050000 0.250000
vt 1.800000 0.250000
vt 1.800000 0.000000
vt 2.050000 0.750000
vt 1.800000 0.750000
vt 1.800000 0.500000
vt 2.050000 0.500000
vt 1.800000 0.500000
vt 1.800000 0.250000
vt 2.050000 1.000000
vt 1.800000 1.000000
vt 1.800000 0.750000
vt 1.050000 1.000000
vt 0.800000 1.000000
vt 0.800000 0.750000
vt 1.050000 0.500000
vt 0.800000 0.500000
vt 0.800000 0.250000
vt 1.050000 0.750000
vt 0.800000 0.750000
vt 0.800000 0.500000
vt 1.050000 0.250000
vt 0.800000 0.250000
vt 0.800000 0.000000
vt 1.550000 1.000000
vt 1.300000 1.000000
vt 1.300000 0.750000
vt 1.550000 0.500000
vt 1.300000 0.500000
vt 1.300000 0.250000
vt 1.550000 0.750000
vt 1.300000 0.750000
vt 1.300000 0.500000
vt 1.550000 0.250000
vt 1.300000 0.250000
vt 1.300000 0.000000
vt 0.550000 0.250000
vt 0.300000 0.250000
vt 0.300000 0.000000
vt 0.550000 0.750000
vt 0.300000 0.750000
vt 0.300000 0.500000
vt 0.550000 0.500000
vt 0.300000 0.500000
vt 0.300000 0.250000
vt 0.550000 1.000000
vt 0.300000 1.000000
vt 0.300000 0.750000
vt -13.500000 -8.000000
vt -7.500000 -6.750000
vt -13.500000 -6.750000
vt -7.500000 0.750000
vt -6.000000 -0.500000
vt -6.000000 0.750000
vt -10.031250 -5.250000
vt -11.531250 -5.000000
vt -11.531250 -6.750000
vt -7.031250 -0.750000
vt -8.531250 0.750000
vt -8.531250 -0.750000
vt -11.531250 -2.250000
vt -13.031250 -0.750000
vt -13.031250 -2.250000
vt -13.500000 -8.000000
vt -7.500000 -8.000000
vt -7.500000 -6.750000
vt -6.000000 0.750000
vt -6.000000 2.000000
vt -7.500000 0.750000
vt -6.000000 2.000000
vt -10.000000 2.000000
vt -7.500000 0.750000
vt -10.000000 2.000000
vt -11.000000 2.000000
vt -7.500000 0.750000
vt -11.000000 2.000000
vt -15.000000 2.000000
vt -13.500000 0.750000
vt -7.500000 0.750000
vt -11.000000 2.000000
vt -13.500000 0.750000
vt -15.000000 2.000000
vt -15.000000 -8.000000
vt -13.500000 -6.750000
vt -15.000000 -8.000000
vt -13.500000 -8.000000
vt -13.500000 -6.750000
vt -7.500000 -8.000000
vt -6.000000 -8.000000
vt -6.000000 -6.750000
vt -7.500000 -6.750000
vt -7.500000 -8.000000
vt -6.000000 -6.750000
vt -7.500000 -6.750000
vt -6.000000 -6.750000
vt -6.000000 -5.500000
vt -7.500000 0.750000
vt -7.500000 -6.750000
vt -6.000000 -3.000000
vt -7.500000 -6.750000
vt -6.000000 -5.500000
vt -6.000000 -4.250000
vt -7.500000 -6.750000
vt -6.000000 -4.250000
vt -6.000000 -3.000000
vt -15.000000 2.000000
vt -13.500000 -6.750000
vt -13.500000 0.750000
vt -7.500000 0.750000
vt -6.000000 -3.000000
vt -6.000000 -1.750000
vt -7.500000 0.750000
vt -6.000000 -1.750000
vt -6.000000 -0.500000
vt -11.531250 -6.750000
vt -8.531250 -6.750000
vt -10.031250 -5.250000
vt -8.531250 -6.750000
vt -8.531250 -5.250000
vt -10.031250 -5.250000
vt -10.031250 -5.250000
vt -10.031250 -5.000000
vt -11.531250 -5.000000
vt -7.031250 -0.750000
vt -7.031250 0.750000
vt -8.531250 0.750000
vt -11.531250 -2.250000
vt -11.531250 -0.750000
vt -13.031250 -0.750000
vt 0.968752 9.000000
vt 0.281253 12.000000
vt 0.281252 9.000000
vt 0.281252 10.500000
vt 0.968752 9.000000
vt 0.281252 9.000000
vt -0.015623 7.500001
vt 0.968753 13.500002
vt -0.015622 13.500002
vt -0.015625 -6.750000
vt 0.968750 0.750000
vt -0.015625 0.750000
vt -0.015625 -0.750000
vt 0.968753 6.750001
vt -0.015622 6.750001
vt -0.015634 -13.499996
vt 0.968745 -7.499998
vt -0.015630 -7.499998
vt 0.968752 6.750000
vt 0.281251 5.250000
vt 0.968751 5.250000
vt 0.281252 6.750000
vt 0.968751 5.000000
vt 0.281251 5.000000
vt 0.281251 5.000000
vt 0.968751 5.250000
vt 0.281251 5.250000
vt 0.281252 12.000000
vt 0.968752 10.500000
vt 0.281252 10.500000
vt 0.968753 9.000000
vt 0.281252 7.500000
vt 0.968752 7.500000
vt 0.281250 0.750000
vt 0.968750 -0.750000
vt 0.281250 -0.750000
vt 0.968750 0.750000
vt 0.281250 -0.750000
vt 0.968750 -0.750000
vt 0.281252 9.000000
vt 0.968752 7.500000
vt 0.281252 7.500000
vt 0.968753 13.500000
vt 0.281253 12.000000
vt 0.968753 12.000000
vt 0.281251 2.250000
vt 0.968750 0.750000
vt 0.281250 0.750000
vt 0.968751 2.250000
vt 0.281250 0.750000
vt 0.968750 0.750000
vt 0.281253 13.500000
vt 0.968753 12.000000
vt 0.281253 12.000000
vt 0.968752 9.000000
vt 0.968753 12.000000
vt 0.281253 12.000000
vt 0.281252 10.500000
vt 0.968752 10.500000
vt 0.968752 9.000000
vt -0.015623 7.500001
vt 0.968752 7.500001
vt 0.968753 13.500002
vt -0.015625 -6.750000
vt 0.968750 -6.750000
vt 0.968750 0.750000
vt -0.015625 -0.750000
vt 0.968750 -0.750000
vt 0.968753 6.750001
vt -0.015634 -13.499996
vt 0.968741 -13.499997
vt 0.968745 -7.499998
vt 0.968752 6.750000
vt 0.281252 6.750000
vt 0.281251 5.250000
vt 0.281252 6.750000
vt 0.968752 6.750000
vt 0.968751 5.000000
vt 0.281251 5.000000
vt 0.968751 5.000000
vt 0.968751 5.250000
vt 0.281252 12.000000
vt 0.968752 12.000000
vt 0.968752 10.500000
vt 0.968753 9.000000
vt 0.281253 9.000000
vt 0.281252 7.500000
vt 0.281250 0.750000
vt 0.968750 0.750000
vt 0.968750 -0.750000
vt 0.968750 0.750000
vt 0.281250 0.750000
vt 0.281250 -0.750000
vt 0.281252 9.000000
vt 0.968752 9.000000
vt 0.968752 7.500000
vt 0.968753 13.500000
vt 0.281253 13.500000
vt 0.281253 12.000000
vt 0.281251 2.250000
vt 0.968751 2.250000
vt 0.968750 0.750000
vt 0.968751 2.250000
vt 0.281251 2.250000
vt 0.281250 0.750000
vt 0.281253 13.500000
vt 0.968753 13.500000
vt 0.968753 12.000000
vn 0.0000 1.0000 0.0000
vn 0.0000 0.0000 1.0000
vn -0.0000 0.0000 -1.0000
vn -1.0000 -0.0000 0.0000
vn 1.0000 0.0000 -0.0000
vc 0.0000 0.0000 0.0000 0.8588
vc 0.0353 0.2039 0.2118 0.8588
vc 0.0196 0.1804 0.2392 0.8588
vc 0.1569 0.5176 0.4667 0.8588
vc 0.5922 0.8392 0.6510 1.0000
vc 0.4706 0.6588 0.4941 1.0000
vc 0.6235 0.8706 0.6588 1.0000
vc 0.6980 0.9451 0.6902 1.0000
vc 0.4863 0.6863 0.5216 1.0000
vc 0.9216 1.0000 0.9725 1.0000
vc 0.2549 0.3765 0.2863 1.0000
vc 0.2902 0.4118 0.3020 1.0000
vc 0.5804 0.8275 0.6431 1.0000
vc 0.2784 0.4039 0.3059 1.0000
vc 0.3765 0.5412 0.4118 1.0000
vc 0.5137 0.7255 0.5569 1.0000
vc 1.0000 1.0000 1.0000 1.0000
vc 0.9255 1.0000 0.9765 1.0000
vc 0.9176 1.0000 0.9765 1.0000
vc 0.9490 1.0000 1.0000 1.0000
vc 0.7647 1.0000 0.8431 1.0000
vc 0.6078 0.8510 0.6431 1.0000
vc 0.5608 0.8000 0.6235 1.0000
vc 0.8000 1.0000 0.8784 1.0000
vc 0.6039 0.8588 0.6706 1.0000
vc 0.6000 0.8588 0.6745 1.0000
vc 0.7569 1.0000 0.8353 1.0000
vc 0.5059 0.7059 0.5333 1.0000
vc 0.4549 0.6471 0.4941 1.0000
vc 0.5608 0.7961 0.6196 1.0000
vc 0.9255 1.0000 0.9843 1.0000
vc 0.8118 1.0000 0.8706 1.0000
vc 0.4980 0.6902 0.5098 1.0000
vc 0.8157 1.0000 0.8745 1.0000
vc 0.2941 0.4275 0.3255 1.0000
vc 0.5176 0.7333 0.5725 1.0000
vc 0.4078 0.5843 0.4471 1.0000
vc 0.4667 0.6706 0.5176 1.0000
vc 0.5686 0.8157 0.6431 1.0000
vc 0.3333 0.4784 0.3647 1.0000
vc 0.3922 0.5686 0.4471 1.0000
vc 0.5725 0.8157 0.6392 1.0000
vc 0.4706 0.6745 0.5255 1.0000
vc 0.3294 0.4706 0.3569 1.0000
vc 0.5137 0.7176 0.5373 1.0000
vc 0.3020 0.4275 0.3137 1.0000
vc 0.4745 0.6706 0.5098 1.0000
vc 0.2980 0.4235 0.3098 1.0000
vc 0.4275 0.6000 0.4431 1.0000
vc 0.2510 0.3647 0.2745 1.0000
vc 0.4039 0.5804 0.4431 1.0000
vc 0.3294 0.4745 0.3608 1.0000
vc 0.4706 0.6667 0.5059 1.0000
vc 0.3412 0.4941 0.3804 1.0000
vc 0.4078 0.5922 0.4627 1.0000
vc 0.2471 0.3647 0.2745 1.0000
vc 0.6353 0.8980 0.6980 1.0000
vc 0.4588 0.6549 0.4980 1.0000
vc 0.8078 1.0000 0.8863 1.0000
vc 0.4627 0.6549 0.4980 1.0000
vc 0.4157 0.5843 0.4471 1.0000
vc 0.5608 0.8000 0.6196 1.0000
vc 0.5255 0.7490 0.5804 1.0000
vc 0.5647 0.8039 0.6314 1.0000
vc 0.5647 0.8118 0.6392 1.0000
vc 0.5294 0.7569 0.5843 1.0000
vc 0.6039 0.8627 0.6745 1.0000
vc 0.5529 0.7922 0.6157 1.0000
vc 0.6078 0.8549 0.6431 1.0000
vc 0.5137 0.7216 0.5412 1.0000
vc 0.6824 0.9490 0.7176 1.0000
vc 0.9216 1.0000 0.9765 1.0000
vc 0.4667 0.6627 0.5137 1.0000
vc 0.6157 0.8667 0.6627 1.0000
vc 0.4980 0.6941 0.5255 1.0000
vc 0.7608 1.0000 0.8078 1.0000
vc 0.7216 1.0000 0.7843 1.0000
vc 0.8078 1.0000 0.8627 1.0000
vc 0.5137 0.7294 0.5569 1.0000
vc 0.4431 0.6275 0.4784 1.0000
vc 0.3882 0.5490 0.4118 1.0000
vc 0.4000 0.5647 0.4235 1.0000
vc 0.3216 0.4510 0.3294 1.0000
vc 0.2627 0.3765 0.2784 1.0000
vc 0.6235 0.8824 0.6863 1.0000
vc 0.9098 1.0000 0.9725 1.0000
vc 0.4863 0.6902 0.5216 1.0000
vc 0.8118 1.0000 0.8902 1.0000
vc 0.6510 0.9216 0.7098 1.0000
vc 0.6863 0.9529 0.7176 1.0000
vc 0.4078 0.5882 0.4510 1.0000
vc 0.5765 0.8235 0.6431 1.0000
vc 0.5176 0.7373 0.5725 1.0000
vc 0.5608 0.8039 0.6314 1.0000
vc 0.3294 0.4745 0.3647 1.0000
vc 0.3882 0.5686 0.4431 1.0000
vc 0.4706 0.6745 0.5216 1.0000
vc 0.2980 0.4353 0.3216 1.0000
vc 0.4941 0.6863 0.5098 1.0000
vc 0.5647 0.8039 0.6235 1.0000
vc 0.9294 1.0000 0.9804 1.0000
vc 0.6980 0.9490 0.6902 1.0000
vc 0.3647 0.5020 0.3490 1.0000
vc 0.6039 0.8353 0.6235 1.0000
vc 0.4588 0.6431 0.4706 1.0000
vc 0.5765 0.8039 0.5922 1.0000
vc 0.5098 0.7059 0.5216 1.0000
vc 0.5176 0.7255 0.5412 1.0000
vc 0.5961 0.8235 0.6118 1.0000
vc 0.5490 0.7647 0.5686 1.0000
vc 0.5333 0.7373 0.5451 1.0000
vc 0.4510 0.6235 0.4588 1.0000
vc 0.9647 1.0000 1.0000 1.0000
vc 0.7216 1.0000 0.7490 1.0000
vc 0.6902 0.8275 0.6196 1.0000
vc 0.4157 0.5804 0.4275 1.0000
vc 0.6118 0.8510 0.6353 1.0000
vc 0.3765 0.5294 0.3882 1.0000
vc 0.4549 0.6353 0.4667 1.0000
vc 0.3529 0.4863 0.3490 1.0000
vc 0.4627 0.6431 0.4745 1.0000
vc 0.4157 0.5804 0.4235 1.0000
vc 0.5216 0.7255 0.5373 1.0000
vc 0.5765 0.8039 0.6000 1.0000
vc 0.6078 0.8471 0.6314 1.0000
vc 0.7647 1.0000 0.7922 1.0000
vc 0.5569 0.7725 0.5686 1.0000
vc 0.5647 0.7843 0.5804 1.0000
vc 0.5569 0.7647 0.5608 1.0000
vc 0.6353 0.8784 0.6549 1.0000
vc 0.4902 0.6902 0.5216 1.0000
vc 0.0000 0.0000 0.0000 1.0000
vc 0.0902 0.0745 0.0431 1.0000
vc 0.4196 0.5608 0.2941 1.0000
vc 0.8510 1.0000 0.9843 1.0000
vc 0.4549 0.5843 0.3373 1.0000
vc 0.0471 0.0863 0.0549 1.0000
vc 0.5412 0.7765 0.6235 1.0000
vc 0.1725 0.2549 0.1843 1.0000
vc 0.0745 0.1176 0.0745 1.0000
vc 0.0627 0.1059 0.0627 1.0000
vc 0.2667 0.3804 0.2784 1.0000
vc 0.3725 0.5373 0.4118 1.0000
vc 0.1843 0.2706 0.1922 1.0000
vc 0.1843 0.2745 0.1961 1.0000
vc 0.7490 1.0000 0.8235 1.0000
vc 0.1216 0.1765 0.1176 1.0000
vc 0.5882 0.8431 0.6510 1.0000
vc 0.3882 0.5176 0.3333 1.0000
vc 0.6549 0.9490 0.7686 1.0000
vc 0.0745 0.1137 0.0510 1.0000
vc 0.3647 0.5529 0.4510 1.0000
vc 0.1569 0.2157 0.1216 1.0000
vc 0.3725 0.4745 0.2863 1.0000
vc 0.8000 1.0000 0.9059 1.0000
vc 0.4392 0.5804 0.3333 1.0000
vc 0.3529 0.4549 0.2588 1.0000
vc 0.8000 1.0000 0.9137 1.0000
vc 0.4118 0.5373 0.3176 1.0000
vc 0.4980 0.8667 0.8000 1.0000
vc 0.1255 0.1765 0.0745 1.0000
vc 0.9216 1.0000 1.0000 1.0000
vc 0.1608 0.1961 0.1098 1.0000
vc 0.5176 0.7255 0.5725 1.0000
vc 0.1725 0.2275 0.1294 1.0000
vc 0.0980 0.0824 0.0471 1.0000
vc 0.4039 0.5922 0.4667 1.0000
vc 0.1529 0.2275 0.1451 1.0000
vc 0.3529 0.5647 0.4824 1.0000
vc 0.4745 0.6706 0.5020 1.0000
vc 0.8706 1.0000 1.0000 1.0000
vc 0.4000 0.4784 0.2784 1.0000
vc 0.9098 1.0000 1.0000 1.0000
vc 0.2078 0.2941 0.1686 1.0000
vc 0.5412 0.7765 0.6353 1.0000
vc 0.2314 0.3137 0.2078 1.0000
vc 0.3922 0.5569 0.4157 1.0000
vc 0.8549 1.0000 0.9569 1.0000
vc 0.0549 0.0431 0.0196 1.0000
vc 0.4510 0.6706 0.5373 1.0000
vc 0.7333 1.0000 0.8196 1.0000
vc 0.3882 0.5686 0.4471 1.0000
vc 0.2549 0.3098 0.1725 1.0000
vc 0.3725 0.5412 0.4118 1.0000
vc 0.7569 1.0000 0.8588 1.0000
vc 0.6588 0.9569 0.7529 1.0000
vc 0.1961 0.2706 0.1608 1.0000
vc 0.4235 0.6784 0.5922 1.0000
vc 0.8745 1.0000 0.9255 1.0000
vc 0.1176 0.1569 0.0745 1.0000
vc 0.4667 0.6627 0.5020 1.0000
vc 0.5333 0.6902 0.4275 1.0000
vc 0.4980 0.7137 0.5647 1.0000
g mesh_22_#Room2#_materials/icecaverngeo.vmat#SFX_C#FLOORSPECIAL_SLIPPERY#AlphaAF
usemtl materials/icecaverngeo.vmat
f 88/265/23 89/266/23 87/267/23
fc 8 9 10
f 88/268/23 90/269/23 89/270/23
fc 8 11 9
g mesh_22_#Room2#_materials/icewall2.vmat#SFX_C#WALLPROPERTY_NO_LEDGE_GRAB
usemtl materials/icewall2.vmat
f 98/271/24 102/272/24 99/273/24
fc 12 13 14
f 176/274/25 143/275/25 178/276/25
fc 15 16 17
f 98/277/26 99/278/26 137/279/26
fc 18 19 20
f 95/280/27 96/281/27 142/282/27
fc 21 22 23
f 177/283/25 145/284/25 179/285/25
fc 24 24 24
f 178/286/25 141/287/25 177/288/25
fc 25 26 24
f 179/289/25 100/290/25 180/291/25
fc 24 27 24
f 174/292/25 146/293/25 175/294/25
fc 28 24 29
f 173/295/25 148/296/25 172/297/25
fc 30 31 32
f 172/298/25 150/299/25 174/300/25
fc 33 24 34
f 171/301/25 149/302/25 173/303/25
fc 35 36 37
f 170/304/25 155/305/25 166/306/25
fc 24 24 38
f 169/307/25 152/308/25 168/309/25
fc 39 24 24
f 168/310/25 154/311/25 170/312/25
fc 24 24 24
f 167/313/25 153/314/25 169/315/25
fc 40 24 41
f 162/316/25 159/317/25 164/318/25
fc 42 43 44
f 163/319/25 160/320/25 165/321/25
fc 45 46 47
f 164/322/25 158/323/25 163/324/25
fc 48 49 50
f 165/325/25 156/326/25 161/327/25
fc 51 52 53
f 144/328/25 161/329/25 101/330/25
fc 54 55 56
f 142/331/25 163/332/25 140/333/25
fc 57 50 58
f 140/334/25 165/335/25 144/336/25
fc 44 59 60
f 96/337/25 164/338/25 142/339/25
fc 61 62 63
f 147/340/25 169/341/25 149/342/25
fc 64 39 65
f 148/343/25 170/344/25 150/345/25
fc 66 24 24
f 149/346/25 168/347/25 148/348/25
fc 67 24 66
f 150/349/25 166/350/25 146/351/25
fc 24 38 24
f 157/352/25 173/353/25 159/354/25
fc 68 69 70
f 158/355/25 174/356/25 160/357/25
fc 71 34 72
f 159/358/25 172/359/25 158/360/25
fc 73 74 71
f 160/361/25 175/362/25 156/363/25
fc 75 76 77
f 154/364/25 180/365/25 155/366/25
fc 24 24 24
f 153/367/25 177/368/25 152/369/25
fc 24 24 24
f 152/370/25 179/371/25 154/372/25
fc 24 24 24
f 151/373/25 178/374/25 153/375/25
fc 78 79 24
f 98/376/24 95/377/24 102/378/24
fc 12 80 13
f 176/379/25 97/380/25 143/381/25
fc 15 81 16
f 106/382/26 100/383/26 145/384/26
fc 82 83 27
f 106/385/26 145/386/26 104/387/26
fc 82 27 84
f 145/388/26 141/389/26 104/390/26
fc 27 24 84
f 143/391/26 97/392/26 104/393/26
fc 85 86 84
f 97/394/26 98/395/26 137/396/26
fc 86 18 20
f 104/397/26 141/398/26 143/399/26
fc 84 24 85
f 99/400/26 103/401/26 137/402/26
fc 19 13 20
f 137/403/26 104/404/26 97/405/26
fc 20 84 86
f 144/406/27 101/407/27 108/408/27
fc 87 88 89
f 111/409/27 102/410/27 95/411/27
fc 90 91 21
f 144/412/27 108/413/27 140/414/27
fc 87 89 92
f 108/415/27 111/416/27 142/417/27
fc 89 90 23
f 140/418/27 108/419/27 142/420/27
fc 92 89 23
f 111/421/27 95/422/27 142/423/27
fc 90 21 23
f 177/424/25 141/425/25 145/426/25
fc 24 93 24
f 178/427/25 143/428/25 141/429/25
fc 25 94 26
f 179/430/25 145/431/25 100/432/25
fc 24 24 27
f 174/433/25 150/434/25 146/435/25
fc 28 24 24
f 173/436/25 149/437/25 148/438/25
fc 30 36 31
f 172/439/25 148/440/25 150/441/25
fc 33 95 24
f 171/442/25 147/443/25 149/444/25
fc 35 96 36
f 170/445/25 154/446/25 155/447/25
fc 24 24 24
f 169/448/25 153/449/25 152/450/25
fc 39 24 24
f 168/451/25 152/452/25 154/453/25
fc 24 24 24
f 167/454/25 151/455/25 153/456/25
fc 40 97 24
f 162/457/25 157/458/25 159/459/25
fc 42 98 43
f 163/460/25 158/461/25 160/462/25
fc 45 99 46
f 164/463/25 159/464/25 158/465/25
fc 48 100 49
f 165/466/25 160/467/25 156/468/25
fc 51 101 52
f 144/469/25 165/470/25 161/471/25
fc 54 102 55
f 142/472/25 164/473/25 163/474/25
fc 57 103 50
f 140/475/25 163/476/25 165/477/25
fc 44 104 59
f 96/478/25 162/479/25 164/480/25
fc 61 105 62
f 147/481/25 167/482/25 169/483/25
fc 64 106 39
f 148/484/25 168/485/25 170/486/25
fc 66 24 24
f 149/487/25 169/488/25 168/489/25
fc 67 41 24
f 150/490/25 170/491/25 166/492/25
fc 24 24 38
f 157/493/25 171/494/25 173/495/25
fc 68 35 69
f 158/496/25 172/497/25 174/498/25
fc 71 33 34
f 159/499/25 173/500/25 172/501/25
fc 73 107 74
f 160/502/25 174/503/25 175/504/25
fc 75 34 76
f 154/505/25 179/506/25 180/507/25
fc 24 24 24
f 153/508/25 178/509/25 177/510/25
fc 24 108 24
f 152/511/25 177/512/25 179/513/25
fc 24 24 24
f 151/514/25 176/515/25 178/516/25
fc 78 109 79
g mesh_22_#Room2#_materials/softice.vmat#SFX_D
usemtl materials/softice.vmat
f 111/517/23 109/518/23 112/519/23
fc 110 111 112
f 110/520/23 155/521/23 180/522/23
fc 24 24 24
f 139/523/23 116/524/23 113/525/23
fc 113 114 115
f 122/526/23 124/527/23 121/528/23
fc 24 24 24
f 130/529/23 132/530/23 129/531/23
fc 116 117 118
f 111/532/23 108/533/23 109/534/23
fc 110 119 111
f 180/535/23 100/536/23 110/537/23
fc 24 120 24
f 100/538/23 106/539/23 110/540/23
fc 120 121 24
f 106/541/23 103/542/23 110/543/23
fc 121 122 24
f 103/544/23 99/545/23 107/546/23
fc 122 123 124
f 110/547/23 103/548/23 107/549/23
fc 24 122 124
f 99/550/23 102/551/23 112/552/23
fc 123 125 126
f 102/553/23 111/554/23 112/555/23
fc 125 127 126
f 108/556/23 101/557/23 161/558/23
fc 128 129 130
f 109/559/23 108/560/23 161/561/23
fc 131 128 130
f 109/562/23 161/563/23 156/564/23
fc 131 130 132
f 110/565/23 109/566/23 146/567/23
fc 24 131 24
f 109/568/23 156/569/23 175/570/23
fc 131 132 133
f 109/571/23 175/572/23 146/573/23
fc 131 133 24
f 99/574/23 112/575/23 107/576/23
fc 123 126 124
f 110/577/23 146/578/23 166/579/23
fc 24 24 24
f 110/580/23 166/581/23 155/582/23
fc 24 24 24
f 113/583/23 119/584/23 139/585/23
fc 115 134 113
f 119/586/23 114/587/23 139/588/23
fc 134 135 113
f 139/589/23 115/590/23 116/591/23
fc 113 136 114
f 122/592/23 123/593/23 124/594/23
fc 24 24 24
f 130/595/23 131/596/23 132/597/23
fc 116 137 117
g mesh_22_#Room2#_materials/whitenedfrostyfloor.vmat#SFX_2
usemtl materials/whitenedfrostyfloor.vmat
f 119/598/26 120/599/26 126/600/26
fc 138 139 140
f 105/601/27 114/602/27 138/603/27
fc 141 142 143
f 92/604/26 107/605/26 94/606/26
fc 144 145 146
f 91/607/25 110/608/25 92/609/25
fc 147 139 148
f 94/610/24 112/611/24 93/612/24
fc 149 150 151
f 93/613/27 109/614/27 91/615/27
fc 152 153 154
f 119/616/24 138/617/24 114/618/24
fc 155 156 157
f 120/619/25 116/620/25 117/621/25
fc 158 159 160
f 118/622/24 139/623/24 105/624/24
fc 161 162 163
f 117/625/27 115/626/27 118/627/27
fc 164 165 166
f 121/628/26 127/629/26 122/630/26
fc 167 168 169
f 128/631/25 124/632/25 125/633/25
fc 170 171 172
f 122/634/24 88/635/24 123/636/24
fc 24 139 24
f 125/637/27 123/638/27 88/639/27
fc 139 24 173
f 129/640/26 135/641/26 130/642/26
fc 174 175 176
f 136/643/25 132/644/25 133/645/25
fc 139 177 139
f 130/646/24 134/647/24 131/648/24
fc 178 179 180
f 133/649/27 131/650/27 134/651/27
fc 181 182 183
f 119/652/26 113/653/26 120/654/26
fc 138 184 139
f 105/655/27 139/656/27 114/657/27
fc 141 185 142
f 92/658/26 110/659/26 107/660/26
fc 144 186 145
f 91/661/25 109/662/25 110/663/25
fc 147 187 139
f 94/664/24 107/665/24 112/666/24
fc 149 188 150
f 93/667/27 112/668/27 109/669/27
fc 152 189 153
f 119/670/24 126/671/24 138/672/24
fc 155 190 156
f 120/673/25 113/674/25 116/675/25
fc 158 191 159
f 118/676/24 115/677/24 139/678/24
fc 161 192 162
f 117/679/27 116/680/27 115/681/27
fc 164 193 165
f 121/682/26 128/683/26 127/684/26
fc 167 194 168
f 128/685/25 121/686/25 124/687/25
fc 170 195 171
f 122/688/24 127/689/24 88/690/24
fc 24 139 139
f 125/691/27 124/692/27 123/693/27
fc 139 196 24
f 129/694/26 136/695/26 135/696/26
fc 174 197 175
f 136/697/25 129/698/25 132/699/25
fc 139 198 177
f 130/700/24 135/701/24 134/702/24
fc 178 199 179
f 133/703/27 132/704/27 131/705/27
fc 181 200 182
g No_Collision1_#Room2#
v 50.471069 218.461090 -717.831177
v -589.528870 218.461121 -141.831085
v -589.528931 218.461121 -717.831055
v 50.471130 218.461090 -141.831146
v -509.528900 -164.538879 -237.831100
v -29.528900 -164.538910 -237.831131
v -509.528931 -164.538879 -621.831116
v -29.528931 -164.538910 -621.831116
vt -8.000000 -6.000000
vt 2.000002 -15.000000
vt 2.000001 -6.000000
vt -7.500000 0.750000
vt -13.500000 -6.750000
vt -7.500000 -6.750000
vt -8.000000 -6.000000
vt -7.999999 -15.000000
vt 2.000002 -15.000000
vt -7.500000 0.750000
vt -13.500000 0.750000
vt -13.500000 -6.750000
vn -0.0000 -1.0000 0.0000
vn 0.0000 1.0000 -0.0000
vc 1.0000 1.0000 1.0000 1.0000
g No_Collision1_#Room2#_materials/frostyfloor.vmat.001#NoCollision
usemtl materials/frostyfloor.vmat.001
f 182/706/28 181/707/28 184/708/28
fc 201 201 201
f 186/709/29 187/710/29 185/711/29
fc 201 201 201
f 182/712/28 183/713/28 181/714/28
fc 201 201 201
f 186/715/29 188/716/29 187/717/29
fc 201 201 201
