# Blender v4.5.2 LTS OBJ File: 'IceCavernMini.blend'
# www.blender.org
mtllib IceCavernMini.mtl
g mesh_37_#Door#NoMesh
v 66.471123 -5.538887 -461.831116
v 66.471130 -5.538887 -397.831116
v 66.471115 -101.538887 -461.831116
v 66.471123 -101.538887 -397.831116
vt -11.000000 1.500000
vt -10.000000 -0.000000
vt -10.000000 1.500000
vt -11.000000 1.500000
vt -11.000000 -0.000000
vt -10.000000 -0.000000
vn -1.0000 0.0000 0.0000
vc 1.0000 1.0000 1.0000 1.0000
g mesh_37_#Door#NoMesh_materials/dev/reflectivity_30.vmat.006#SFX_2
usemtl materials/dev/reflectivity_30.vmat.006
f 1/1/1 4/2/1 2/3/1
fc 1 1 1
f 1/4/1 3/5/1 4/6/1
fc 1 1 1
g mesh_38_#Door#NoMesh
v 498.471069 -5.538887 370.168854
v 498.471069 -5.538887 434.168854
v 498.471069 -101.538887 370.168854
v 498.471069 -101.538887 434.168854
vt 2.000000 1.500000
vt 3.000000 -0.000000
vt 3.000000 1.500000
vt 2.000000 1.500000
vt 2.000000 -0.000000
vt 3.000000 -0.000000
vn -1.0000 0.0000 0.0000
vc 1.0000 1.0000 1.0000 1.0000
g mesh_38_#Door#NoMesh_materials/dev/reflectivity_30.vmat.007#SFX_2
usemtl materials/dev/reflectivity_30.vmat.007
f 5/7/2 8/8/2 6/9/2
fc 2 2 2
f 5/10/2 7/11/2 8/12/2
fc 2 2 2
g No_Collision_#Room0#
v 482.471130 154.461090 242.168823
v 482.471161 154.461090 594.168823
v -125.528900 154.461121 146.168884
v -477.528870 154.461136 306.168915
v -477.528870 -101.538864 306.168915
v -477.528870 154.461136 178.168900
v -125.528870 154.461121 338.168884
v -477.528870 -101.538864 178.168900
vt 0.000000 8.750002
vt 1.500000 -0.750000
vt -1.500000 -0.750000
vt 1.000000 -6.250000
vt -1.500000 -0.750000
vt 1.500000 -0.750000
vt 0.000000 8.750002
vt 5.500001 8.750002
vt 1.500000 -0.750000
vt 1.000000 -6.250000
vt -1.000000 -6.250000
vt -1.500000 -0.750000
vt -0.500000 0.015625
vt 0.500000 0.991235
vt 0.500000 0.015625
vt -0.500000 0.015625
vt -0.500000 0.991235
vt 0.500000 0.991235
vn -0.0000 -1.0000 -0.0000
vn 1.0000 0.0000 0.0000
vc 1.0000 1.0000 1.0000 1.0000
g No_Collision_#Room0#_materials/frostyfloor.vmat.001#NoCollision
usemtl materials/frostyfloor.vmat.001
f 9/13/3 15/14/3 11/15/3
fc 3 3 3
f 12/16/3 11/17/3 15/18/3
fc 3 3 3
f 9/19/3 10/20/3 15/21/3
fc 3 3 3
f 12/22/3 14/23/3 11/24/3
fc 3 3 3
g No_Collision_#Room0#_materials/newice.vmat.001#NoCollision
usemtl materials/newice.vmat.001
f 16/25/4 12/26/4 13/27/4
fc 3 3 3
f 16/28/4 14/29/4 12/30/4
fc 3 3 3
g mesh_33_#Room0#
v -477.528900 -101.538887 178.168884
v -477.528900 -101.538887 306.168884
v -301.528900 -101.538895 162.168869
v -301.528900 -101.538895 322.168884
vt -1.000000 -6.250000
vt 1.250000 -3.500000
vt -1.250000 -3.500000
vt -1.000000 -6.250000
vt 1.000000 -6.250000
vt 1.250000 -3.500000
vn 0.0000 1.0000 0.0000
vc 1.0000 1.0000 1.0000 1.0000
g mesh_33_#Room0#_materials/softice.vmat.001#SFX_2#Exit00
usemtl materials/softice.vmat.001
f 17/31/5 20/32/5 19/33/5
fc 4 4 4
f 17/34/5 18/35/5 20/36/5
fc 4 4 4
g mesh_33a_#Room0#
v -125.528900 -101.538902 338.168854
v -125.528900 -101.538902 146.168854
v -301.528900 -101.538895 162.168869
v -301.528900 -101.538895 322.168884
v -477.528900 -101.538887 178.168884
v -477.528870 154.461105 178.168884
v -125.528885 154.461090 146.168854
v -477.528870 154.461105 306.168884
v -477.528900 -101.538887 306.168884
v -125.528885 154.461090 338.168854
v -125.528900 -101.538902 338.168854
v -125.528900 -101.538902 146.168854
v 482.471100 154.461075 594.168823
v 482.471100 -101.538925 370.168823
v 482.471100 -5.538925 434.168823
v 482.471100 -5.538925 370.168823
v 482.471100 -101.538925 434.168823
v 482.471100 154.461075 242.168808
v 482.471100 -101.538925 594.168823
v 482.471100 -101.538925 242.168808
vt -1.250000 -3.500000
vt 1.500000 -0.750000
vt -1.500000 -0.750000
vt -1.250000 -3.500000
vt 1.250000 -3.500000
vt 1.500000 -0.750000
vt -3.066899 0.991235
vt -0.305558 0.015625
vt -0.305558 0.991235
vt -3.066899 0.015625
vt -0.305558 0.991235
vt -0.305558 0.015625
vt -0.054571 0.015625
vt 5.099312 0.991235
vt 5.099312 0.015625
vt -0.487383 0.991235
vt 4.321464 0.015625
vt 4.321464 0.991235
vt 0.000000 0.991235
vt 1.000000 0.381479
vt 1.500000 0.381479
vt -3.066899 0.991235
vt -3.066899 0.015625
vt -0.305558 0.015625
vt -3.066899 0.015625
vt -3.066899 0.991235
vt -0.305558 0.991235
vt -0.054571 0.015625
vt -0.054571 0.991235
vt 5.099312 0.991235
vt -0.487383 0.991235
vt -0.487383 0.015625
vt 4.321464 0.015625
vt 2.750000 0.015625
vt 2.750000 0.991235
vt 1.500000 0.381479
vt 2.750000 0.991235
vt 0.000000 0.991235
vt 1.500000 0.381479
vt 0.000000 0.991235
vt 0.000000 0.015625
vt 1.000000 0.381479
vt 0.000000 0.015625
vt 1.000000 0.015625
vt 1.000000 0.381479
vt 1.500000 0.381479
vt 1.500000 0.015625
vt 2.750000 0.015625
vt 2.000000 8.750000
vt 0.000000 8.750000
vt 1.500000 -0.750000
vt -1.500000 -0.750000
vt 1.500000 -0.750000
vt 0.000000 8.750000
vt 1.500000 -0.750000
vt 5.500000 8.750000
vt 3.000000 8.750000
vt 1.500000 -0.750000
vt 3.000000 8.750000
vt 2.000000 8.750000
vn 0.0000 1.0000 0.0000
vn 0.0905 -0.0000 0.9959
vn -0.0329 -0.0000 0.9995
vn 0.0905 -0.0000 -0.9959
vn 0.2422 -0.0000 -0.9702
vn 0.3881 0.0000 -0.9216
vn -0.0330 0.0000 0.9995
vn -0.1560 0.0000 0.9878
vn -1.0000 -0.0000 0.0000
vc 1.0000 1.0000 1.0000 1.0000
g mesh_33a_#Room0#_materials/softice.vmat#SFX_D
usemtl materials/softice.vmat
f 23/37/6 21/38/6 22/39/6
fc 5 5 5
f 23/40/6 24/41/6 21/42/6
fc 5 5 5
g mesh_33a_#Room0#_materials/newice.vmat#SFX_C#WALLPROPERTY_NO_LEDGE_GRAB
usemtl materials/newice.vmat
f 26/43/7 32/44/8 27/45/8
fc 5 5 5
f 29/46/9 30/47/10 31/48/10
fc 5 5 5
f 31/49/10 33/50/11 39/51/11
fc 5 5 5
f 27/52/12 40/53/13 38/54/13
fc 5 5 5
f 38/55/14 36/56/14 35/57/14
fc 5 5 5
f 26/58/7 25/59/7 32/60/8
fc 5 5 5
f 29/61/9 28/62/9 30/63/10
fc 5 5 5
f 31/64/10 30/65/10 33/66/11
fc 5 5 5
f 27/67/12 32/68/12 40/69/13
fc 5 5 5
f 39/70/14 33/71/14 35/72/14
fc 5 5 5
f 33/73/14 38/74/14 35/75/14
fc 5 5 5
f 38/76/14 40/77/14 36/78/14
fc 5 5 5
f 40/79/14 34/80/14 36/81/14
fc 5 5 5
f 35/82/14 37/83/14 39/84/14
fc 5 5 5
g mesh_33a_#Room0#_materials/softice.vmat#SFX_D
usemtl materials/softice.vmat
f 34/85/6 40/86/6 31/87/6
fc 5 5 5
f 32/88/6 31/89/6 40/90/6
fc 5 5 5
f 31/91/6 39/92/6 37/93/6
fc 5 5 5
f 31/94/6 37/95/6 34/96/6
fc 5 5 5
g No_Collision0_#Room1#
v 786.471069 90.461098 242.168808
v 786.471069 90.461098 594.168823
v 514.471069 90.461113 594.168823
v 514.471069 90.461113 242.168839
v 642.471008 90.461105 -365.831177
v 642.471069 90.461105 242.168823
v 514.471008 90.461113 -365.831177
v 642.471008 90.461105 -493.831177
v 82.471008 90.461128 -493.831116
v 82.471008 90.461128 -365.831116
v 482.471069 -5.538887 370.168823
v 482.471069 -5.538887 434.168823
v 514.471069 -5.538887 370.168823
v 514.471069 -5.538887 434.168823
vt 5.500000 13.500000
vt 0.000000 9.250000
vt 0.000000 13.500000
vt 0.000000 11.250000
vt -9.500000 9.250000
vt -9.500000 11.250000
vt -9.500000 11.250000
vt -11.500000 2.500000
vt -11.500000 11.250000
vt 5.500000 13.500000
vt 5.500000 9.250000
vt 0.000000 9.250000
vt 0.000000 11.250000
vt 0.000000 9.250000
vt -9.500000 9.250000
vt -9.500000 11.250000
vt -9.500000 2.500000
vt -11.500000 2.500000
vt 3.000000 4.625000
vt 2.000000 4.375000
vt 2.000000 4.625000
vt 3.000000 4.625000
vt 3.000000 4.375000
vt 2.000000 4.375000
vn -0.0000 -1.0000 0.0000
vc 1.0000 1.0000 1.0000 1.0000
g No_Collision0_#Room1#_materials/frostyfloor.vmat.001#NoCollision
usemtl materials/frostyfloor.vmat.001
f 42/97/15 44/98/15 41/99/15
fc 6 6 6
f 46/100/15 47/101/15 45/102/15
fc 6 6 6
f 45/103/15 49/104/15 48/105/15
fc 6 6 6
f 42/106/15 43/107/15 44/108/15
fc 6 6 6
f 46/109/15 44/110/15 47/111/15
fc 6 6 6
f 45/112/15 50/113/15 49/114/15
fc 6 6 6
g No_Collision0_#Room1#_materials/newice.vmat.001#NoCollision
usemtl materials/newice.vmat.001
f 54/115/15 51/116/15 53/117/15
fc 6 6 6
f 54/118/15 52/119/15 51/120/15
fc 6 6 6
g mesh_21_#Room1#
v 641.971191 90.461060 242.168823
v 786.471252 90.461060 594.168823
v 641.971191 -101.538933 242.168823
v 514.471191 -101.538925 434.168823
v 82.471130 -101.538910 -493.831146
v 82.471130 -101.538910 -365.831146
v 786.471130 -101.538940 242.168823
v 642.971130 -101.538933 -493.831177
v 82.471130 -5.538910 -397.831146
v 82.471130 -5.538910 -461.831146
v 82.471130 90.461090 -493.831146
v 514.471191 -101.538925 594.168823
v 642.971130 90.461060 -493.831177
v 82.471130 90.461090 -365.831146
v 786.471252 -101.538940 594.168823
v 82.471130 -101.538910 -461.831146
v 50.471130 -101.538910 -461.831146
v 50.471130 -5.538910 -397.831146
v 786.471130 90.461060 242.168823
v 50.471130 -101.538910 -397.831146
v 514.471191 -5.538925 370.168823
v 514.471191 90.461075 594.168823
v 82.471130 -101.538910 -397.831146
v 482.471191 -101.538925 434.168823
v 514.471130 -101.538925 -365.831177
v 514.471130 90.461075 -365.831177
v 50.471130 -5.538910 -461.831146
v 482.471191 -101.538925 370.168823
v 482.471191 -5.538925 370.168823
v 514.471191 -5.538925 434.168823
v 482.471191 -5.538925 434.168823
v 514.471191 -101.538925 370.168823
vt 2.000000 9.250000
vt 0.000000 11.242188
vt -9.500000 9.250000
vt -11.500000 11.257812
vt -11.500000 2.500000
vt -9.500000 9.250000
vt -11.500000 2.500000
vt -11.000000 2.500000
vt -9.500000 9.250000
vt -11.000000 2.500000
vt -11.000000 2.000000
vt -10.000000 2.000000
vt -10.000000 2.500000
vt -9.500000 2.500000
vt -9.500000 9.250000
vt -11.000000 2.500000
vt -10.000000 2.000000
vt -10.000000 2.500000
vt 5.500000 13.500000
vt 0.000000 13.500000
vt 0.000000 11.242188
vt 3.000000 9.250000
vt 5.500000 9.250000
vt 5.500000 13.500000
vt 2.000000 8.750000
vt 3.000000 8.750000
vt 3.000000 9.250000
vt 2.000000 9.250000
vt 2.000000 8.750000
vt 3.000000 9.250000
vt 3.000000 9.250000
vt 5.500000 13.500000
vt 0.000000 11.242188
vt -11.000000 2.500000
vt -10.000000 2.500000
vt -9.500000 9.250000
vt 3.000000 9.250000
vt 0.000000 11.242188
vt 2.000000 9.250000
vt 0.000000 11.242188
vt -11.500000 11.257812
vt -9.500000 9.250000
vt 2.000000 -0.000000
vt 2.500000 0.750000
vt 2.500000 -0.000000
vt -7.666667 1.000000
vt -6.333333 1.000000
vt -7.333333 0.500000
vt 7.505208 0.015625
vt 1.666667 0.999232
vt 1.666667 0.015625
vt 9.000000 0.015625
vt 7.494792 0.999232
vt 7.494792 0.015625
vt 1.666667 -0.000000
vt 6.166667 1.000000
vt 6.166667 -0.000000
vt 2.000000 0.750000
vt 2.500000 -0.000000
vt 2.500000 0.750000
vt -7.676857 0.015625
vt -0.010183 0.999232
vt -7.676857 0.999232
vt 9.999995 4.999990
vt 10.999994 3.999989
vt 10.999994 4.999989
vt 3.666667 0.999232
vt 2.000000 0.507428
vt 1.333333 0.507428
vt 0.000000 0.999232
vt 3.666667 0.015625
vt 3.666667 0.999232
vt 5.833333 0.500000
vt 6.166667 -0.000000
vt 6.166667 0.500000
vt 5.833333 -0.000000
vt 6.166667 0.500000
vt 6.166667 -0.000000
vt 9.000000 0.999232
vt 6.166667 0.015625
vt 6.166667 0.999232
vt 2.000000 -0.000000
vt 2.000000 0.750000
vt 2.500000 0.750000
vt -6.333333 1.000000
vt -6.333333 -0.000000
vt -6.666667 0.500000
vt -6.333333 -0.000000
vt -6.666667 -0.000000
vt -6.666667 0.500000
vt -7.333333 -0.000000
vt -7.666667 -0.000000
vt -7.333333 0.500000
vt -7.666667 -0.000000
vt -7.666667 1.000000
vt -7.333333 0.500000
vt -6.333333 1.000000
vt -6.666667 0.500000
vt -7.333333 0.500000
vt 7.505208 0.015625
vt 7.505208 0.999232
vt 1.666667 0.999232
vt 9.000000 0.015625
vt 9.000000 0.999232
vt 7.494792 0.999232
vt 1.666667 -0.000000
vt 1.666667 1.000000
vt 6.166667 1.000000
vt 2.000000 0.750000
vt 2.000000 -0.000000
vt 2.500000 -0.000000
vt -7.676857 0.015625
vt -0.010183 0.015625
vt -0.010183 0.999232
vt 9.999995 4.999990
vt 9.999995 3.999990
vt 10.999994 3.999989
vt 3.666667 0.999232
vt 3.666667 0.015625
vt 2.000000 0.507428
vt 3.666667 0.015625
vt 2.000000 0.015625
vt 2.000000 0.507428
vt -6.333333 0.015625
vt -6.333333 0.999232
vt 1.333333 0.507428
vt -6.333333 0.999232
vt 3.666667 0.999232
vt 1.333333 0.507428
vt 1.333333 0.507428
vt 1.333333 0.015625
vt -6.333333 0.015625
vt 0.000000 0.999232
vt 0.000000 0.015625
vt 3.666667 0.015625
vt 5.833333 0.500000
vt 5.833333 -0.000000
vt 6.166667 -0.000000
vt 5.833333 -0.000000
vt 5.833333 0.500000
vt 6.166667 0.500000
vt 9.000000 0.999232
vt 9.000000 0.015625
vt 6.166667 0.015625
vn 0.0000 1.0000 0.0000
vn 0.0000 0.0000 -1.0000
vn 1.0000 0.0000 0.0000
vn 0.0000 0.0000 1.0000
vn -1.0000 0.0000 -0.0014
vn 0.0000 -1.0000 0.0000
vn -1.0000 0.0000 0.0000
vc 1.0000 1.0000 1.0000 1.0000
g mesh_21_#Room1#_materials/softice.vmat#SFX_D
usemtl materials/softice.vmat
f 86/121/16 57/122/16 79/123/16
fc 7 7 7
f 62/124/16 59/125/16 79/126/16
fc 7 7 7
f 59/127/16 70/128/16 79/129/16
fc 7 7 7
f 70/130/16 71/131/16 74/132/16
fc 7 7 7
f 77/133/16 60/134/16 79/135/16
fc 7 7 7
f 70/136/16 74/137/16 77/138/16
fc 7 7 7
f 69/139/16 61/140/16 57/141/16
fc 7 7 7
f 58/142/16 66/143/16 69/144/16
fc 7 7 7
f 82/145/16 78/146/16 58/147/16
fc 7 7 7
f 86/148/16 82/149/16 58/150/16
fc 7 7 7
f 58/151/16 69/152/16 57/153/16
fc 7 7 7
f 70/154/16 77/155/16 79/156/16
fc 7 7 7
f 58/157/16 57/158/16 86/159/16
fc 7 7 7
f 57/160/16 62/161/16 79/162/16
fc 7 7 7
g mesh_21_#Room1#_materials/newice.vmat#SFX_C#WALLPROPERTY_NO_LEDGE_GRAB
usemtl materials/newice.vmat
f 74/163/17 63/164/17 77/165/17
fc 7 7 7
f 65/166/18 68/167/18 64/168/18
fc 7 7 7
f 62/169/19 65/170/19 59/171/19
fc 7 7 7
f 61/172/19 55/173/19 57/174/19
fc 7 7 7
f 60/175/17 80/176/17 79/177/17
fc 7 7 7
f 81/178/19 70/179/19 64/180/19
fc 7 7 7
f 62/181/20 55/182/20 67/183/20
fc 7 7 7
f 63/184/21 81/185/21 64/186/21
fc 7 7 7
f 76/187/18 84/188/18 75/189/18
fc 7 7 7
f 73/190/22 69/191/22 56/192/22
fc 7 7 7
f 83/193/19 86/194/19 75/195/19
fc 7 7 7
f 78/196/17 84/197/17 58/198/17
fc 7 7 7
f 56/199/17 66/200/17 76/201/17
fc 7 7 7
f 74/202/17 72/203/17 63/204/17
fc 7 7 7
f 68/205/18 60/206/18 63/207/18
fc 7 7 7
f 60/208/18 77/209/18 63/210/18
fc 7 7 7
f 70/211/18 59/212/18 64/213/18
fc 7 7 7
f 59/214/18 65/215/18 64/216/18
fc 7 7 7
f 68/217/18 63/218/18 64/219/18
fc 7 7 7
f 62/220/19 67/221/19 65/222/19
fc 7 7 7
f 61/223/19 73/224/19 55/225/19
fc 7 7 7
f 60/226/17 68/227/17 80/228/17
fc 7 7 7
f 81/229/19 71/230/19 70/231/19
fc 7 7 7
f 62/232/20 57/233/20 55/234/20
fc 7 7 7
f 63/235/21 72/236/21 81/237/21
fc 7 7 7
f 76/238/18 66/239/18 84/240/18
fc 7 7 7
f 66/241/18 58/242/18 84/243/18
fc 7 7 7
f 79/244/18 80/245/18 75/246/18
fc 7 7 7
f 80/247/18 76/248/18 75/249/18
fc 7 7 7
f 75/250/18 86/251/18 79/252/18
fc 7 7 7
f 73/253/22 61/254/22 69/255/22
fc 7 7 7
f 83/256/19 82/257/19 86/258/19
fc 7 7 7
f 78/259/17 85/260/17 84/261/17
fc 7 7 7
f 56/262/17 69/263/17 66/264/17
fc 7 7 7
g mesh_22_#Room2#
v -509.528870 -113.538879 -237.831100
v -29.528885 -113.538910 -237.831131
v -509.528931 -113.538879 -621.831116
v -29.528915 -113.538910 -621.831116
v -509.528900 -164.538879 -237.831100
v -29.528900 -164.538910 -237.831131
v -509.528931 -164.538879 -621.831116
v -29.528931 -164.538910 -621.831116
v -589.528931 218.461121 -717.831055
v -589.528870 218.461121 -141.831085
v 50.471130 218.461090 -141.831146
v 50.471069 218.461090 -717.831177
v 50.471069 -101.538910 -717.831177
v 50.471130 -101.538910 -141.831146
v -589.528870 -101.538879 -141.831085
v -589.528931 -101.538879 -717.831055
v 50.471100 -101.538910 -461.831146
v 50.471100 -5.538912 -397.831146
v -413.528900 -113.538895 -429.831116
v 50.471100 -101.538910 -397.831146
v -29.528915 -101.538910 -621.831116
v -589.528931 -101.538879 -237.831085
v -509.528870 -101.538879 -237.831100
v -29.528885 -101.538910 -237.831131
v -589.528931 -101.538879 -621.831055
v -509.528931 -101.538879 -621.831116
v -509.528900 -69.538887 -525.831116
v -413.528900 -69.538887 -333.831116
v -397.528900 -69.538887 -429.831116
v -397.528900 -69.538887 -525.831116
v -397.528900 -113.538895 -525.831116
v -397.528900 -113.538895 -429.831116
v -509.528900 -69.538887 -333.831116
v -509.528900 -113.538879 -525.831116
v -125.528900 -69.538902 -333.831116
v -125.528885 -69.538902 -237.831131
v -29.528885 -69.538902 -237.831131
v -29.528900 -69.538902 -333.831116
v -29.528900 -113.538910 -333.831116
v -509.528900 -113.538879 -333.831116
v -125.528885 -113.538895 -237.831131
v -125.528900 -113.538895 -333.831116
v -221.528915 -69.538895 -621.831116
v -221.528915 -69.538895 -525.831116
v -125.528900 -69.538902 -525.831116
v -125.528915 -69.538902 -621.831116
v -125.528915 -113.538895 -621.831116
v -125.528900 -113.538895 -525.831116
v -221.528915 -113.538895 -525.831116
v -221.528931 -113.538895 -621.831116
v 50.471100 -5.538912 -461.831146
v -413.528900 -113.538895 -333.831116
v -413.528900 -69.538887 -429.831116
vt -6.596153 -0.287565
vt -7.753075 -4.085641
vt -3.596152 -2.885641
vt -6.596153 -0.287565
vt -10.753075 -1.487565
vt -7.753075 -4.085641
vt 0.450000 1.000000
vt -1.550000 -0.000000
vt 0.450000 -0.000000
vt 2.050000 1.000000
vt 0.050000 -0.000000
vt 2.050000 -0.000000
vt -1.200000 1.000000
vt -2.200000 0.300000
vt -2.000000 0.300000
vt -2.700000 -0.000000
vt -3.000000 1.000000
vt -1.200000 1.000000
vt 0.450000 1.000000
vt -1.550000 1.000000
vt -1.550000 -0.000000
vt 2.050000 1.000000
vt 0.050000 1.000000
vt 0.050000 -0.000000
vt -2.000000 -0.000000
vt -1.200000 -0.000000
vt -2.000000 0.300000
vt -1.200000 -0.000000
vt -1.200000 1.000000
vt -2.000000 0.300000
vt -1.200000 1.000000
vt -3.000000 1.000000
vt -2.200000 0.300000
vt -3.000000 1.000000
vt -3.000000 -0.000000
vt -2.200000 0.300000
vt -3.000000 -0.000000
vt -2.200000 -0.000000
vt -2.200000 0.300000
vt -1.200000 1.000000
vt -1.200000 -0.000000
vt -1.500000 -0.000000
vt -2.700000 -0.000000
vt -3.000000 -0.000000
vt -3.000000 1.000000
vt -1.200000 1.000000
vt -1.500000 -0.000000
vt -2.700000 -0.000000
vt -13.500000 -8.000000
vt -7.500000 -6.750000
vt -13.500000 -6.750000
vt -6.000000 2.000000
vt -7.500000 0.750000
vt -6.000000 -8.000000
vt -10.031250 -5.250000
vt -11.531250 -5.000000
vt -11.531250 -6.750000
vt -7.031250 -0.750000
vt -8.531250 0.750000
vt -8.531250 -0.750000
vt -11.531250 -2.250000
vt -13.031250 -0.750000
vt -13.031250 -2.250000
vt -13.500000 -8.000000
vt -7.500000 -8.000000
vt -7.500000 -6.750000
vt -15.000000 2.000000
vt -15.000000 -8.000000
vt -13.500000 -6.750000
vt -15.000000 -8.000000
vt -13.500000 -8.000000
vt -13.500000 -6.750000
vt -15.000000 2.000000
vt -13.500000 -6.750000
vt -13.500000 0.750000
vt -15.000000 2.000000
vt -13.500000 0.750000
vt -11.000000 2.000000
vt -13.500000 0.750000
vt -7.500000 0.750000
vt -11.000000 2.000000
vt -7.500000 -6.750000
vt -7.500000 -8.000000
vt -6.000000 -8.000000
vt -10.000000 2.000000
vt -11.000000 2.000000
vt -7.500000 0.750000
vt -7.500000 0.750000
vt -7.500000 -6.750000
vt -6.000000 -8.000000
vt -6.000000 2.000000
vt -10.000000 2.000000
vt -7.500000 0.750000
vt -11.531250 -6.750000
vt -8.531250 -6.750000
vt -10.031250 -5.250000
vt -8.531250 -6.750000
vt -8.531250 -5.250000
vt -10.031250 -5.250000
vt -10.031250 -5.250000
vt -10.031250 -5.000000
vt -11.531250 -5.000000
vt -7.031250 -0.750000
vt -7.031250 0.750000
vt -8.531250 0.750000
vt -11.531250 -2.250000
vt -11.531250 -0.750000
vt -13.031250 -0.750000
vt 0.968752 9.000000
vt 0.281253 12.000000
vt 0.281252 9.000000
vt 0.281252 10.500000
vt 0.968752 9.000000
vt 0.281252 9.000000
vt -0.015623 7.500001
vt 0.968753 13.500002
vt -0.015622 13.500002
vt -0.015625 -6.750000
vt 0.968750 0.750000
vt -0.015625 0.750000
vt -0.015625 -0.750000
vt 0.968753 6.750001
vt -0.015622 6.750001
vt -0.015634 -13.499996
vt 0.968745 -7.499998
vt -0.015630 -7.499998
vt 0.968752 6.750000
vt 0.281251 5.250000
vt 0.968751 5.250000
vt 0.281252 6.750000
vt 0.968751 5.000000
vt 0.281251 5.000000
vt 0.281251 5.000000
vt 0.968751 5.250000
vt 0.281251 5.250000
vt 0.281252 12.000000
vt 0.968752 10.500000
vt 0.281252 10.500000
vt 0.968753 9.000000
vt 0.281252 7.500000
vt 0.968752 7.500000
vt 0.281250 0.750000
vt 0.968750 -0.750000
vt 0.281250 -0.750000
vt 0.968750 0.750000
vt 0.281250 -0.750000
vt 0.968750 -0.750000
vt 0.281252 9.000000
vt 0.968752 7.500000
vt 0.281252 7.500000
vt 0.968753 13.500000
vt 0.281253 12.000000
vt 0.968753 12.000000
vt 0.281251 2.250000
vt 0.968750 0.750000
vt 0.281250 0.750000
vt 0.968751 2.250000
vt 0.281250 0.750000
vt 0.968750 0.750000
vt 0.281253 13.500000
vt 0.968753 12.000000
vt 0.281253 12.000000
vt 0.968752 9.000000
vt 0.968753 12.000000
vt 0.281253 12.000000
vt 0.281252 10.500000
vt 0.968752 10.500000
vt 0.968752 9.000000
vt -0.015623 7.500001
vt 0.968752 7.500001
vt 0.968753 13.500002
vt -0.015625 -6.750000
vt 0.968750 -6.750000
vt 0.968750 0.750000
vt -0.015625 -0.750000
vt 0.968750 -0.750000
vt 0.968753 6.750001
vt -0.015634 -13.499996
vt 0.968741 -13.499997
vt 0.968745 -7.499998
vt 0.968752 6.750000
vt 0.281252 6.750000
vt 0.281251 5.250000
vt 0.281252 6.750000
vt 0.968752 6.750000
vt 0.968751 5.000000
vt 0.281251 5.000000
vt 0.968751 5.000000
vt 0.968751 5.250000
vt 0.281252 12.000000
vt 0.968752 12.000000
vt 0.968752 10.500000
vt 0.968753 9.000000
vt 0.281253 9.000000
vt 0.281252 7.500000
vt 0.281250 0.750000
vt 0.968750 0.750000
vt 0.968750 -0.750000
vt 0.968750 0.750000
vt 0.281250 0.750000
vt 0.281250 -0.750000
vt 0.281252 9.000000
vt 0.968752 9.000000
vt 0.968752 7.500000
vt 0.968753 13.500000
vt 0.281253 13.500000
vt 0.281253 12.000000
vt 0.281251 2.250000
vt 0.968751 2.250000
vt 0.968750 0.750000
vt 0.968751 2.250000
vt 0.281251 2.250000
vt 0.281250 0.750000
vt 0.281253 13.500000
vt 0.968753 13.500000
vt 0.968753 12.000000
vn 0.0000 1.0000 0.0000
vn 0.0000 0.0000 1.0000
vn -0.0000 0.0000 -1.0000
vn -1.0000 -0.0000 0.0000
vn 1.0000 0.0000 -0.0000
vc 1.0000 1.0000 1.0000 1.0000
g mesh_22_#Room2#_materials/icecaverngeo.vmat#SFX_C#FLOORSPECIAL_SLIPPERY#AlphaAF
usemtl materials/icecaverngeo.vmat
f 88/265/23 89/266/23 87/267/23
fc 8 8 8
f 88/268/23 90/269/23 89/270/23
fc 8 8 8
g mesh_22_#Room2#_materials/icewall2.vmat#SFX_C#WALLPROPERTY_NO_LEDGE_GRAB
usemtl materials/icewall2.vmat
f 98/271/24 102/272/24 99/273/24
fc 8 8 8
f 96/274/25 100/275/25 101/276/25
fc 8 8 8
f 97/277/26 137/278/26 104/279/26
fc 8 8 8
f 111/280/27 95/281/27 96/282/27
fc 8 8 8
f 98/283/24 95/284/24 102/285/24
fc 8 8 8
f 96/286/25 97/287/25 100/288/25
fc 8 8 8
f 106/289/26 100/290/26 104/291/26
fc 8 8 8
f 100/292/26 97/293/26 104/294/26
fc 8 8 8
f 97/295/26 98/296/26 137/297/26
fc 8 8 8
f 98/298/26 99/299/26 137/300/26
fc 8 8 8
f 99/301/26 103/302/26 137/303/26
fc 8 8 8
f 96/304/27 101/305/27 108/306/27
fc 8 8 8
f 111/307/27 102/308/27 95/309/27
fc 8 8 8
f 96/310/27 108/311/27 111/312/27
fc 8 8 8
g mesh_22_#Room2#_materials/softice.vmat#SFX_D
usemtl materials/softice.vmat
f 111/313/23 109/314/23 112/315/23
fc 8 8 8
f 100/316/23 110/317/23 101/318/23
fc 8 8 8
f 139/319/23 116/320/23 113/321/23
fc 8 8 8
f 122/322/23 124/323/23 121/324/23
fc 8 8 8
f 130/325/23 132/326/23 129/327/23
fc 8 8 8
f 111/328/23 108/329/23 109/330/23
fc 8 8 8
f 99/331/23 102/332/23 112/333/23
fc 8 8 8
f 102/334/23 111/335/23 112/336/23
fc 8 8 8
f 99/337/23 112/338/23 107/339/23
fc 8 8 8
f 99/340/23 107/341/23 103/342/23
fc 8 8 8
f 107/343/23 110/344/23 103/345/23
fc 8 8 8
f 109/346/23 108/347/23 101/348/23
fc 8 8 8
f 106/349/23 103/350/23 110/351/23
fc 8 8 8
f 110/352/23 109/353/23 101/354/23
fc 8 8 8
f 100/355/23 106/356/23 110/357/23
fc 8 8 8
f 113/358/23 119/359/23 139/360/23
fc 8 8 8
f 119/361/23 114/362/23 139/363/23
fc 8 8 8
f 139/364/23 115/365/23 116/366/23
fc 8 8 8
f 122/367/23 123/368/23 124/369/23
fc 8 8 8
f 130/370/23 131/371/23 132/372/23
fc 8 8 8
g mesh_22_#Room2#_materials/whitenedfrostyfloor.vmat#SFX_2
usemtl materials/whitenedfrostyfloor.vmat
f 119/373/26 120/374/26 126/375/26
fc 8 8 8
f 105/376/27 114/377/27 138/378/27
fc 8 8 8
f 92/379/26 107/380/26 94/381/26
fc 8 8 8
f 91/382/25 110/383/25 92/384/25
fc 8 8 8
f 94/385/24 112/386/24 93/387/24
fc 8 8 8
f 93/388/27 109/389/27 91/390/27
fc 8 8 8
f 119/391/24 138/392/24 114/393/24
fc 8 8 8
f 120/394/25 116/395/25 117/396/25
fc 8 8 8
f 118/397/24 139/398/24 105/399/24
fc 8 8 8
f 117/400/27 115/401/27 118/402/27
fc 8 8 8
f 121/403/26 127/404/26 122/405/26
fc 8 8 8
f 128/406/25 124/407/25 125/408/25
fc 8 8 8
f 122/409/24 88/410/24 123/411/24
fc 8 8 8
f 125/412/27 123/413/27 88/414/27
fc 8 8 8
f 129/415/26 135/416/26 130/417/26
fc 8 8 8
f 136/418/25 132/419/25 133/420/25
fc 8 8 8
f 130/421/24 134/422/24 131/423/24
fc 8 8 8
f 133/424/27 131/425/27 134/426/27
fc 8 8 8
f 119/427/26 113/428/26 120/429/26
fc 8 8 8
f 105/430/27 139/431/27 114/432/27
fc 8 8 8
f 92/433/26 110/434/26 107/435/26
fc 8 8 8
f 91/436/25 109/437/25 110/438/25
fc 8 8 8
f 94/439/24 107/440/24 112/441/24
fc 8 8 8
f 93/442/27 112/443/27 109/444/27
fc 8 8 8
f 119/445/24 126/446/24 138/447/24
fc 8 8 8
f 120/448/25 113/449/25 116/450/25
fc 8 8 8
f 118/451/24 115/452/24 139/453/24
fc 8 8 8
f 117/454/27 116/455/27 115/456/27
fc 8 8 8
f 121/457/26 128/458/26 127/459/26
fc 8 8 8
f 128/460/25 121/461/25 124/462/25
fc 8 8 8
f 122/463/24 127/464/24 88/465/24
fc 8 8 8
f 125/466/27 124/467/27 123/468/27
fc 8 8 8
f 129/469/26 136/470/26 135/471/26
fc 8 8 8
f 136/472/25 129/473/25 132/474/25
fc 8 8 8
f 130/475/24 135/476/24 134/477/24
fc 8 8 8
f 133/478/27 132/479/27 131/480/27
fc 8 8 8
g No_Collision1_#Room2#
v 50.471069 218.461090 -717.831177
v -589.528870 218.461121 -141.831085
v -589.528931 218.461121 -717.831055
v 50.471130 218.461090 -141.831146
v -509.528900 -164.538879 -237.831100
v -29.528900 -164.538910 -237.831131
v -509.528931 -164.538879 -621.831116
v -29.528931 -164.538910 -621.831116
vt -8.000000 -6.000000
vt 2.000002 -15.000000
vt 2.000001 -6.000000
vt -7.500000 0.750000
vt -13.500000 -6.750000
vt -7.500000 -6.750000
vt -8.000000 -6.000000
vt -7.999999 -15.000000
vt 2.000002 -15.000000
vt -7.500000 0.750000
vt -13.500000 0.750000
vt -13.500000 -6.750000
vn -0.0000 -1.0000 0.0000
vn 0.0000 1.0000 -0.0000
vc 1.0000 1.0000 1.0000 1.0000
g No_Collision1_#Room2#_materials/frostyfloor.vmat.001#NoCollision
usemtl materials/frostyfloor.vmat.001
f 141/481/28 140/482/28 143/483/28
fc 9 9 9
f 145/484/29 146/485/29 144/486/29
fc 9 9 9
f 141/487/28 142/488/28 140/489/28
fc 9 9 9
f 145/490/29 147/491/29 146/492/29
fc 9 9 9
