# Blender v4.5.2 LTS OBJ File: 'IceCavernMiniPHYS.blend'
# www.blender.org
mtllib IceCavernMiniPHYS.mtl
g mesh_32_#Room0#
v -112.000000 0.000000 63.999992
v -384.000000 0.000008 64.000015
v 560.000000 95.999969 127.999939
v 560.000000 -0.000031 -32.000061
v 560.000000 -0.000031 351.999939
v 576.000000 -0.000031 127.999939
v 576.000000 95.999969 127.999939
v 576.000000 95.999969 191.999939
v -111.999992 96.000000 102.399994
v 560.000000 -0.000031 127.999939
v 560.000000 95.999969 191.999939
v 576.000000 -0.000031 191.999939
v 560.000000 -0.000031 191.999939
v -384.000000 96.000008 102.400017
v -384.000000 96.000008 217.600021
v -111.999985 96.000000 217.599991
v -111.999977 96.000000 352.000000
v 560.000000 95.999969 351.999939
v -384.000000 0.000008 256.000000
v -112.000000 96.000000 -32.000008
v -111.999985 0.000000 352.000000
v -112.000008 0.000000 -32.000008
v -111.999985 0.000000 255.999985
v 560.000000 95.999969 -32.000061
vt 2.187500 -0.000000
vt 2.250000 0.375000
vt 2.250000 -0.000000
vt 2.250000 -0.000000
vt 2.187500 0.375000
vt 2.187500 -0.000000
vt 1.375000 0.375000
vt 1.000000 -0.000000
vt 0.850000 0.375000
vt -0.125000 -0.000000
vt 0.500000 0.375000
vt -0.125000 0.375000
vt -1.500000 0.092848
vt -0.437500 0.496735
vt -1.500000 0.496735
vt -0.437500 -0.000000
vt 2.187500 0.375000
vt -0.437500 0.375000
vt 2.187500 -0.000000
vt -0.437500 0.375000
vt 2.187500 0.375000
vt 0.437500 -0.371391
vt 1.500000 0.032497
vt 0.437500 0.032497
vt 0.250000 -0.000000
vt -0.125000 0.375000
vt 0.400000 0.375000
vt 0.750000 -0.000000
vt 1.375000 0.375000
vt 0.750000 0.375000
vt 2.187500 -0.000000
vt 2.187500 0.375000
vt 2.250000 0.375000
vt 2.250000 -0.000000
vt 2.250000 0.375000
vt 2.187500 0.375000
vt 1.375000 0.375000
vt 1.375000 -0.000000
vt 1.000000 -0.000000
vt -0.125000 -0.000000
vt 0.500000 -0.000000
vt 0.500000 0.375000
vt -1.500000 0.092848
vt -0.437500 0.092848
vt -0.437500 0.496735
vt -0.437500 -0.000000
vt 2.187500 -0.000000
vt 2.187500 0.375000
vt 2.187500 -0.000000
vt -0.437500 -0.000000
vt -0.437500 0.375000
vt 0.437500 -0.371391
vt 1.500000 -0.371391
vt 1.500000 0.032497
vt 0.250000 -0.000000
vt -0.125000 -0.000000
vt -0.125000 0.375000
vt 0.750000 -0.000000
vt 1.375000 -0.000000
vt 1.375000 0.375000
vt 1.000000 -1.750000
vt 4.000000 -1.750000
vt 5.500000 8.750000
vt 2.000000 8.750000
vt 3.000000 9.000000
vt 2.000000 9.000000
vt 4.000000 -1.750000
vt 5.500000 -1.750000
vt 5.500000 8.750000
vt 5.500000 8.750000
vt -0.500000 8.750000
vt 1.000000 -1.750000
vt -0.500000 8.750000
vt -0.500000 -1.750000
vt 1.000000 -1.750000
vt 2.000000 8.750000
vt 3.000000 8.750000
vt 3.000000 9.000000
vn 0.0000 0.0000 -1.0000
vn 0.0000 0.0000 1.0000
vn 1.0000 0.0000 -0.0000
vn -1.0000 0.0000 0.0000
vn 0.0000 -0.3714 0.9285
vn -0.0000 -0.3714 -0.9285
vn 0.0000 1.0000 0.0000
vc 1.0000 1.0000 1.0000 1.0000
g mesh_32_#Room0#_materials/dev/reflectivity_30.vmat#SFX_2
usemtl materials/dev/reflectivity_30.vmat
f 13/1/1 8/2/1 12/3/1
fc 1 1 1
f 6/4/2 3/5/2 10/6/2
fc 1 1 1
f 17/7/3 23/8/3 16/9/3
fc 1 1 1
f 4/10/4 3/11/4 24/12/4
fc 1 1 1
f 2/13/5 9/14/5 14/15/5
fc 1 1 1
f 22/16/2 24/17/2 20/18/2
fc 1 1 1
f 5/19/1 17/20/1 18/21/1
fc 1 1 1
f 23/22/6 15/23/6 16/24/6
fc 1 1 1
f 1/25/3 20/26/3 9/27/3
fc 1 1 1
f 13/28/4 18/29/4 11/30/4
fc 1 1 1
f 13/31/1 11/32/1 8/33/1
fc 1 1 1
f 6/34/2 7/35/2 3/36/2
fc 1 1 1
f 17/37/3 21/38/3 23/39/3
fc 1 1 1
f 4/40/4 10/41/4 3/42/4
fc 1 1 1
f 2/43/5 1/44/5 9/45/5
fc 1 1 1
f 22/46/2 4/47/2 24/48/2
fc 1 1 1
f 5/49/1 21/50/1 17/51/1
fc 1 1 1
f 23/52/6 19/53/6 15/54/6
fc 1 1 1
f 1/55/3 22/56/3 20/57/3
fc 1 1 1
f 13/58/4 5/59/4 18/60/4
fc 1 1 1
g mesh_32_#Room0#_materials/dev/dev_measuregeneric.vmat#SFX_D
usemtl materials/dev/dev_measuregeneric.vmat
f 1/61/7 23/62/7 5/63/7
fc 1 1 1
f 10/64/7 12/65/7 6/66/7
fc 1 1 1
f 23/67/7 21/68/7 5/69/7
fc 1 1 1
f 5/70/7 4/71/7 1/72/7
fc 1 1 1
f 4/73/7 22/74/7 1/75/7
fc 1 1 1
f 10/76/7 13/77/7 12/78/7
fc 1 1 1
g mesh_147_#Room0#
v -112.000000 -0.000006 63.999977
v -384.000000 0.000006 63.999992
v -384.000000 0.000006 256.000000
v -112.000000 -0.000006 255.999969
vt 4.000000 -1.750000
vt 1.000000 -6.000000
vt 4.000000 -6.000000
vt 4.000000 -1.750000
vt 1.000000 -1.750000
vt 1.000000 -6.000000
vn 0.0000 1.0000 0.0000
vc 1.0000 1.0000 1.0000 1.0000
g mesh_147_#Room0#_materials/dev/dev_measuregeneric01.vmat#SFX_2#Exit00
usemtl materials/dev/dev_measuregeneric01.vmat
f 28/79/8 26/80/8 27/81/8
fc 2 2 2
f 28/82/8 25/83/8 26/84/8
fc 2 2 2
g mesh_21_#Room1#
v 864.000000 95.999954 -0.000061
v 592.000061 95.999969 351.999939
v 719.500061 -0.000039 -0.000061
v 592.000061 -0.000034 191.999939
v 160.000000 -0.000015 -736.000000
v 160.000000 -0.000015 -608.000000
v 864.000000 -0.000045 -0.000061
v 720.500000 -0.000039 -736.000061
v 160.000000 95.999985 -640.000000
v 160.000000 95.999985 -704.000000
v 160.000000 95.999985 -608.000000
v 592.000061 -0.000034 351.999939
v 719.500061 95.999962 -0.000061
v 592.000000 95.999969 -608.000061
v 864.000122 -0.000045 351.999939
v 160.000000 -0.000015 -704.000000
v 144.000000 95.999985 -704.000000
v 144.000000 -0.000014 -704.000000
v 864.000122 95.999954 351.999939
v 144.000000 95.999985 -640.000000
v 592.000061 95.999969 127.999939
v 720.500000 95.999962 -736.000061
v 160.000000 -0.000015 -640.000000
v 576.000061 -0.000033 191.999939
v 592.000000 -0.000034 -608.000061
v 160.000000 95.999985 -736.000000
v 144.000000 -0.000014 -640.000000
v 576.000061 -0.000033 127.999939
v 576.000061 95.999969 127.999939
v 592.000061 95.999969 191.999939
v 576.000061 95.999969 191.999939
v 592.000061 -0.000034 127.999939
v 768.000122 95.999962 543.999878
v 672.000122 95.999962 543.999878
v 768.000061 -0.000041 351.999939
v 768.000122 -0.000041 543.999878
v 768.000061 95.999962 351.999939
v 672.000122 -0.000037 543.999878
v 672.000061 95.999962 351.999939
v 672.000061 -0.000037 351.999939
vt 0.625000 -0.000000
vt 0.562500 0.375000
vt 0.625000 0.375000
vt -2.750000 -0.000000
vt -2.875000 0.375000
vt -2.750000 0.375000
vt 2.810547 -0.000000
vt 3.375000 0.375000
vt 2.810547 0.375000
vt -1.375000 -0.000000
vt -2.125000 0.375000
vt -1.375000 0.375000
vt 1.375000 -0.000000
vt 2.125000 0.375000
vt 2.125000 -0.000000
vt 0.625000 -0.000000
vt 2.814453 0.375000
vt 0.625000 0.375000
vt 0.000000 -0.000000
vt 1.375000 0.375000
vt 0.000000 0.375000
vt 3.375000 -0.000000
vt 3.000000 0.375000
vt 3.375000 0.375000
vt 0.625000 -0.000000
vt 0.562500 0.375000
vt 0.562500 -0.000000
vt 1.375000 -0.000000
vt 0.750000 0.375000
vt 1.375000 0.375000
vt 2.312500 -0.000000
vt 2.250000 0.375000
vt 2.250000 -0.000000
vt 2.312500 -0.000000
vt 2.250000 0.375000
vt 2.312500 0.375000
vt -2.878821 -0.000000
vt -0.003819 0.375000
vt -2.878821 0.375000
vt 2.625000 -0.000000
vt 2.312500 0.375000
vt 2.625000 0.375000
vt 3.000000 -0.000000
vt 2.625000 0.375000
vt 3.000000 0.375000
vt 0.500000 -0.000000
vt -2.375000 0.375000
vt 0.500000 0.375000
vt 2.312500 -0.000000
vt 0.625000 0.375000
vt 2.312500 0.375000
vt -2.375000 -0.000000
vt -2.500000 0.375000
vt -2.375000 0.375000
vt 0.625000 -0.000000
vt 0.562500 -0.000000
vt 0.562500 0.375000
vt -2.750000 -0.000000
vt -2.875000 -0.000000
vt -2.875000 0.375000
vt 2.810547 -0.000000
vt 3.375000 -0.000000
vt 3.375000 0.375000
vt -1.375000 -0.000000
vt -2.125000 -0.000000
vt -2.125000 0.375000
vt 1.375000 -0.000000
vt 1.375000 0.375000
vt 2.125000 0.375000
vt 0.625000 -0.000000
vt 2.814453 -0.000000
vt 2.814453 0.375000
vt 0.000000 -0.000000
vt 1.375000 -0.000000
vt 1.375000 0.375000
vt 3.375000 -0.000000
vt 3.000000 -0.000000
vt 3.000000 0.375000
vt 0.625000 -0.000000
vt 0.625000 0.375000
vt 0.562500 0.375000
vt 1.375000 -0.000000
vt 0.750000 -0.000000
vt 0.750000 0.375000
vt 2.312500 -0.000000
vt 2.312500 0.375000
vt 2.250000 0.375000
vt 2.312500 -0.000000
vt 2.250000 -0.000000
vt 2.250000 0.375000
vt -2.878821 -0.000000
vt -0.003819 -0.000000
vt -0.003819 0.375000
vt 2.625000 -0.000000
vt 2.312500 -0.000000
vt 2.312500 0.375000
vt 3.000000 -0.000000
vt 2.625000 -0.000000
vt 2.625000 0.375000
vt 0.500000 -0.000000
vt -2.375000 -0.000000
vt -2.375000 0.375000
vt 2.312500 -0.000000
vt 0.625000 -0.000000
vt 0.625000 0.375000
vt -2.375000 -0.000000
vt -2.500000 -0.000000
vt -2.500000 0.375000
vt -11.000000 2.500000
vt -10.000000 2.500000
vt -9.500000 9.250000
vt 5.500000 12.000000
vt 5.500000 13.500000
vt 0.000000 13.500000
vt 5.500000 12.000000
vt 0.000000 13.500000
vt 0.000000 11.242188
vt 8.500000 10.500000
vt 8.500000 12.000000
vt 5.500000 12.000000
vt 3.000000 9.250000
vt 5.500000 9.250000
vt 5.500000 10.500000
vt 5.500000 10.500000
vt 8.500000 10.500000
vt 5.500000 12.000000
vt 5.500000 10.500000
vt 5.500000 12.000000
vt 3.000000 9.250000
vt 5.500000 12.000000
vt 0.000000 11.242188
vt 3.000000 9.250000
vt 2.000000 9.000000
vt 3.000000 9.000000
vt 3.000000 9.250000
vt -11.500000 11.257812
vt -11.500000 2.500000
vt -9.500000 9.250000
vt -11.500000 2.500000
vt -11.000000 2.500000
vt -9.500000 9.250000
vt -11.000000 2.500000
vt -11.000000 2.250000
vt -10.000000 2.250000
vt -10.000000 2.500000
vt -9.500000 2.500000
vt -9.500000 9.250000
vt -11.000000 2.500000
vt -10.000000 2.250000
vt -10.000000 2.500000
vt 3.000000 9.250000
vt 0.000000 11.242188
vt 2.000000 9.250000
vt 0.000000 11.242188
vt -11.500000 11.257812
vt -9.500000 9.250000
vt 2.000000 9.250000
vt 0.000000 11.242188
vt -9.500000 9.250000
vt 2.000000 9.250000
vt 2.000000 9.000000
vt 3.000000 9.250000
vn 0.0000 0.0000 -1.0000
vn 1.0000 0.0000 0.0000
vn 0.0000 0.0000 1.0000
vn -1.0000 0.0000 0.0000
vn -1.0000 0.0000 -0.0014
vn 0.0000 1.0000 0.0000
vc 1.0000 1.0000 1.0000 1.0000
g mesh_21_#Room1#_materials/dev/reflectivity_30.vmat#SFX_2
usemtl materials/dev/reflectivity_30.vmat
f 51/85/9 48/86/9 37/87/9
fc 3 3 3
f 44/88/10 54/89/10 38/90/10
fc 3 3 3
f 31/91/11 29/92/11 41/93/11
fc 3 3 3
f 63/94/12 61/95/12 65/96/12
fc 3 3 3
f 68/97/10 62/98/10 66/99/10
fc 3 3 3
f 33/100/11 50/101/11 54/102/11
fc 3 3 3
f 35/103/12 47/104/12 29/105/12
fc 3 3 3
f 43/106/9 65/107/9 47/108/9
fc 3 3 3
f 44/109/11 45/110/11 46/111/11
fc 3 3 3
f 40/112/10 58/113/10 30/114/10
fc 3 3 3
f 60/115/11 57/116/11 56/117/11
fc 3 3 3
f 32/118/9 59/119/9 58/120/9
fc 3 3 3
f 36/121/13 41/122/13 50/123/13
fc 3 3 3
f 68/124/9 30/125/9 67/126/9
fc 3 3 3
f 64/127/9 62/128/9 61/129/9
fc 3 3 3
f 60/130/10 42/131/10 49/132/10
fc 3 3 3
f 53/133/9 39/134/9 42/135/9
fc 3 3 3
f 34/136/10 37/137/10 39/138/10
fc 3 3 3
f 51/139/9 55/140/9 48/141/9
fc 3 3 3
f 44/142/10 33/143/10 54/144/10
fc 3 3 3
f 31/145/11 35/146/11 29/147/11
fc 3 3 3
f 63/148/12 64/149/12 61/150/12
fc 3 3 3
f 68/151/10 67/152/10 62/153/10
fc 3 3 3
f 33/154/11 36/155/11 50/156/11
fc 3 3 3
f 35/157/12 43/158/12 47/159/12
fc 3 3 3
f 43/160/9 63/161/9 65/162/9
fc 3 3 3
f 44/163/11 38/164/11 45/165/11
fc 3 3 3
f 40/166/10 32/167/10 58/168/10
fc 3 3 3
f 60/169/11 49/170/11 57/171/11
fc 3 3 3
f 32/172/9 52/173/9 59/174/9
fc 3 3 3
f 36/175/13 31/176/13 41/177/13
fc 3 3 3
f 68/178/9 40/179/9 30/180/9
fc 3 3 3
f 64/181/9 66/182/9 62/183/9
fc 3 3 3
f 60/184/10 53/185/10 42/186/10
fc 3 3 3
f 53/187/9 34/188/9 39/189/9
fc 3 3 3
f 34/190/10 51/191/10 37/192/10
fc 3 3 3
g mesh_21_#Room1#_materials/dev/dev_measuregeneric.vmat#SFX_D
usemtl materials/dev/dev_measuregeneric.vmat
f 44/193/14 51/194/14 53/195/14
fc 3 3 3
f 63/196/14 43/197/14 35/198/14
fc 3 3 3
f 63/199/14 35/200/14 31/201/14
fc 3 3 3
f 66/202/14 64/203/14 63/204/14
fc 3 3 3
f 32/205/14 40/206/14 68/207/14
fc 3 3 3
f 68/208/14 66/209/14 63/210/14
fc 3 3 3
f 68/211/14 63/212/14 32/213/14
fc 3 3 3
f 63/214/14 31/215/14 32/216/14
fc 3 3 3
f 56/217/14 52/218/14 32/219/14
fc 3 3 3
f 36/220/14 33/221/14 53/222/14
fc 3 3 3
f 33/223/14 44/224/14 53/225/14
fc 3 3 3
f 44/226/14 46/227/14 55/228/14
fc 3 3 3
f 51/229/14 34/230/14 53/231/14
fc 3 3 3
f 44/232/14 55/233/14 51/234/14
fc 3 3 3
f 32/235/14 31/236/14 60/237/14
fc 3 3 3
f 31/238/14 36/239/14 53/240/14
fc 3 3 3
f 60/241/14 31/242/14 53/243/14
fc 3 3 3
f 60/244/14 56/245/14 32/246/14
fc 3 3 3
g mesh_113_#Room2#
v -544.000000 80.000000 -704.000000
v -544.000000 80.000000 -640.000000
v -496.000000 96.000000 -640.000000
v -496.000000 96.000000 -704.000000
v -496.000000 0.000000 -704.000000
v -496.000000 0.000000 -640.000000
v -576.000000 0.000004 -640.000000
v -576.000000 0.000004 -704.000000
v 80.000000 -15.999901 -736.000061
v -496.000000 0.000000 -608.000000
v 80.000000 -15.999901 -384.000000
v 80.000000 -15.999901 -608.000061
v 144.000000 -0.000031 -640.000061
v 144.000000 95.999969 -640.000061
v 80.000000 -0.000027 -704.000061
v 80.000000 95.999969 -704.000061
v 144.000000 -0.000031 -704.000061
v -496.000000 -15.999874 -608.000000
v -496.000000 -15.999874 -736.000000
v 144.000000 95.999969 -704.000061
v -432.000000 -0.000004 -736.000000
v -495.999969 0.000000 -384.000000
v -496.000031 0.000000 -960.000000
v 80.000000 95.999969 -640.000061
v -496.000000 0.000000 -736.000000
v 80.000000 -0.000027 -640.000061
v -495.999969 -15.999874 -383.999969
v -432.000000 -0.000004 -608.000000
v -496.000031 96.000000 -960.000000
v -495.999969 96.000000 -384.000000
v 80.000000 95.999969 -384.000031
v 80.000000 95.999969 -960.000000
v -432.000000 -15.999878 -608.000000
v -496.000000 -16.000000 -736.000000
v -432.000000 -16.000008 -608.000000
v 80.000000 -0.000027 -960.000000
v 80.000000 -0.000027 -384.000031
v -432.000000 -15.999878 -736.000000
v 80.000000 -16.000023 -384.000031
v 80.000000 -16.000023 -960.000000
v -496.000000 -16.000000 -608.000000
v -495.999969 -16.000000 -384.000000
v 80.000000 -15.999901 -960.000000
v -496.000031 -15.999874 -960.000000
v -496.000031 -16.000000 -960.000000
v -432.000000 -16.000008 -736.000000
vt 0.000000 1.937500
vt -0.062500 1.687500
vt -0.062500 1.937500
vt 0.000001 3.750000
vt -0.062499 2.875000
vt -0.062499 3.750000
vt -1.937500 -0.000000
vt -2.125000 0.312500
vt -2.250000 -0.000000
vt -2.125000 0.312500
vt -1.937500 -0.000000
vt -2.250000 -0.000000
vt -2.750000 -0.499056
vt -2.500000 -0.835629
vt -2.750000 -0.835629
vt -2.875000 -0.000000
vt -3.750000 -0.000000
vt -3.750000 0.375000
vt 0.562500 0.375000
vt 0.312500 -0.000000
vt 0.312500 0.375000
vt -3.750000 -0.000000
vt -2.750000 0.375000
vt -3.750000 0.375000
vt 0.562500 0.375000
vt 0.312500 -0.000000
vt 0.562500 -0.000000
vt 0.000000 1.937500
vt -0.062500 -0.312500
vt -0.062500 1.937500
vt 0.000001 2.875000
vt -0.062499 2.375000
vt -0.062499 2.875000
vt -1.937500 -0.000000
vt 0.312500 0.375000
vt -1.937500 0.375000
vt 0.000000 1.500000
vt -0.062499 3.750000
vt -0.062500 1.500000
vt 0.000001 2.375000
vt -0.062500 1.500000
vt -0.062499 2.375000
vt -0.000000 -0.312500
vt -0.062500 1.937500
vt -0.062500 -0.312500
vt 0.000000 1.687500
vt -0.062500 1.937500
vt -0.062500 1.687500
vt -2.375000 -0.000000
vt -2.500000 -0.000000
vt -2.500000 0.375000
vt -2.500000 -0.000000
vt -1.500000 0.375000
vt -2.500000 0.375000
vt 0.312500 -0.000000
vt -1.937500 0.375000
vt 0.312500 0.375000
vt 0.000000 1.937500
vt 0.000000 1.687500
vt -0.062500 1.687500
vt 0.000001 3.750000
vt 0.000001 2.875000
vt -0.062499 2.875000
vt -1.937500 -0.000000
vt -1.937500 0.375000
vt -2.125000 0.312500
vt -2.125000 0.312500
vt -1.937500 0.375000
vt -1.937500 -0.000000
vt -2.750000 -0.499056
vt -2.500000 -0.499056
vt -2.500000 -0.835629
vt -3.750000 0.375000
vt -2.750000 0.375000
vt -2.875000 -0.000000
vt -2.750000 0.375000
vt -2.750000 -0.000000
vt -2.875000 -0.000000
vt 0.562500 0.375000
vt 0.562500 -0.000000
vt 0.312500 -0.000000
vt -3.750000 -0.000000
vt -2.750000 -0.000000
vt -2.750000 0.375000
vt 0.562500 0.375000
vt 0.312500 0.375000
vt 0.312500 -0.000000
vt 0.000000 1.937500
vt -0.000000 -0.312500
vt -0.062500 -0.312500
vt 0.000001 2.875000
vt 0.000001 2.375000
vt -0.062499 2.375000
vt -1.937500 -0.000000
vt 0.312500 -0.000000
vt 0.312500 0.375000
vt 0.000000 1.500000
vt 0.000001 3.750000
vt -0.062499 3.750000
vt 0.000001 2.375000
vt 0.000000 1.500000
vt -0.062500 1.500000
vt -0.000000 -0.312500
vt 0.000000 1.937500
vt -0.062500 1.937500
vt 0.000000 1.687500
vt 0.000000 1.937500
vt -0.062500 1.937500
vt -2.500000 0.375000
vt -1.500000 0.375000
vt -2.375000 -0.000000
vt -1.500000 0.375000
vt -1.500000 -0.000000
vt -2.375000 -0.000000
vt -2.500000 -0.000000
vt -1.500000 -0.000000
vt -1.500000 0.375000
vt 0.312500 -0.000000
vt -1.937500 -0.000000
vt -1.937500 0.375000
vt -11.000000 2.250000
vt -10.000000 1.250000
vt -10.000000 2.250000
vt -11.000000 -7.750000
vt -10.000000 -7.750000
vt -9.500000 -6.750000
vt -11.000000 2.250000
vt -11.000000 1.250000
vt -10.000000 1.250000
vt -11.500000 -6.750000
vt -11.500000 -7.750000
vt -11.000000 -7.750000
vt -11.000000 -7.750000
vt -11.000000 -9.000000
vt -10.000000 -9.000000
vt -10.000000 -7.750000
vt -9.500000 -7.750000
vt -9.500000 -6.750000
vt -11.000000 -7.750000
vt -10.000000 -9.000000
vt -10.000000 -7.750000
vt -9.500000 -6.750000
vt -11.500000 -6.750000
vt -11.000000 -7.750000
vt 0.337087 -3.402952
vt -1.872621 -2.430681
vt -0.281631 -4.021670
vt -0.486136 -2.872621
vt -2.253903 -1.811961
vt -0.839689 -3.226174
vt 1.309360 -3.430679
vt -0.900350 -2.458408
vt 0.690642 -4.049398
vt 0.337087 -3.402952
vt -1.253903 -1.811962
vt -1.872621 -2.430681
vt -0.486136 -2.872621
vt -1.900349 -1.458408
vt -2.253903 -1.811961
vt 1.309360 -3.430679
vt -0.281631 -1.839689
vt -0.900350 -2.458408
vn -0.0000 0.0000 -1.0000
vn 1.0000 0.0000 -0.0000
vn -0.0000 0.0000 1.0000
vn 0.9285 -0.3714 0.0000
vn -1.0000 0.0000 0.0000
vn 0.0000 1.0000 0.0000
vc 1.0000 1.0000 1.0000 1.0000
g mesh_113_#Room2#_materials/dev/reflectivity_30.vmat#SFX_2
usemtl materials/dev/reflectivity_30.vmat
f 93/247/15 114/248/15 102/249/15
fc 4 4 4
f 91/250/16 102/251/16 113/252/16
fc 4 4 4
f 73/253/17 69/254/17 76/255/17
fc 4 4 4
f 70/256/15 74/257/15 75/258/15
fc 4 4 4
f 69/259/18 75/260/18 76/261/18
fc 4 4 4
f 93/262/16 91/263/16 97/264/16
fc 4 4 4
f 82/265/15 94/266/15 92/267/15
fc 4 4 4
f 104/268/19 84/269/19 100/270/19
fc 4 4 4
f 88/271/17 83/272/17 85/273/17
fc 4 4 4
f 90/274/15 107/275/15 110/276/15
fc 4 4 4
f 89/277/16 103/278/16 114/279/16
fc 4 4 4
f 91/280/17 100/281/17 97/282/17
fc 4 4 4
f 105/283/19 108/284/19 107/285/19
fc 4 4 4
f 78/286/16 110/287/16 109/288/16
fc 4 4 4
f 104/289/17 113/290/17 108/291/17
fc 4 4 4
f 96/292/17 109/293/17 103/294/17
fc 4 4 4
f 78/295/16 74/296/16 71/297/16
fc 4 4 4
f 94/298/19 99/299/19 92/300/19
fc 4 4 4
f 105/301/15 98/302/15 99/303/15
fc 4 4 4
f 93/304/15 89/305/15 114/306/15
fc 4 4 4
f 91/307/16 93/308/16 102/309/16
fc 4 4 4
f 73/310/17 72/311/17 69/312/17
fc 4 4 4
f 70/313/15 71/314/15 74/315/15
fc 4 4 4
f 69/316/18 70/317/18 75/318/18
fc 4 4 4
f 97/319/16 72/320/16 93/321/16
fc 4 4 4
f 72/322/16 73/323/16 93/324/16
fc 4 4 4
f 82/325/15 81/326/15 94/327/15
fc 4 4 4
f 104/328/19 83/329/19 84/330/19
fc 4 4 4
f 88/331/17 84/332/17 83/333/17
fc 4 4 4
f 90/334/15 105/335/15 107/336/15
fc 4 4 4
f 89/337/16 96/338/16 103/339/16
fc 4 4 4
f 91/340/17 104/341/17 100/342/17
fc 4 4 4
f 105/343/19 104/344/19 108/345/19
fc 4 4 4
f 78/346/16 90/347/16 110/348/16
fc 4 4 4
f 104/349/17 91/350/17 113/351/17
fc 4 4 4
f 96/352/17 78/353/17 109/354/17
fc 4 4 4
f 71/355/16 98/356/16 78/357/16
fc 4 4 4
f 98/358/16 90/359/16 78/360/16
fc 4 4 4
f 94/361/19 105/362/19 99/363/19
fc 4 4 4
f 105/364/15 90/365/15 98/366/15
fc 4 4 4
g mesh_113_#Room2#_materials/dev/dev_measuregeneric.vmat#SFX_D
usemtl materials/dev/dev_measuregeneric.vmat
f 85/367/20 94/368/20 81/369/20
fc 4 4 4
f 73/370/20 74/371/20 96/372/20
fc 4 4 4
f 85/373/20 83/374/20 94/375/20
fc 4 4 4
f 89/376/20 93/377/20 73/378/20
fc 4 4 4
f 73/379/20 76/380/20 75/381/20
fc 4 4 4
f 74/382/20 78/383/20 96/384/20
fc 4 4 4
f 73/385/20 75/386/20 74/387/20
fc 4 4 4
f 96/388/20 89/389/20 73/390/20
fc 4 4 4
g mesh_113_#Room2#_materials/dev/color_purple.vmat#SFX_C#FLOORSPECIAL_SLIPPERY
usemtl materials/dev/color_purple.vmat
f 87/391/20 111/392/20 112/393/20
fc 4 4 4
f 101/394/20 77/395/20 106/396/20
fc 4 4 4
f 95/397/20 80/398/20 86/399/20
fc 4 4 4
f 87/400/20 77/401/20 111/402/20
fc 4 4 4
f 101/403/20 80/404/20 77/405/20
fc 4 4 4
f 95/406/20 79/407/20 80/408/20
fc 4 4 4
