# Blender v4.5.2 LTS OBJ File: 'UnderwaterVilliage.blend'
# www.blender.org
mtllib UnderwaterVilliage.mtl
g mesh_23_#Room0#
v 173.984283 -3.908829 102.200256
v 173.984283 -3.908829 -89.799744
v -18.015736 -3.908821 -89.799728
v -18.015720 -3.908821 102.200272
vt 1.500000 3.875000
vt -1.500000 0.875000
vt 1.500000 0.875000
vt 1.500000 3.875000
vt -1.500000 3.875000
vt -1.500000 0.875000
vn 0.0000 1.0000 -0.0000
vc 0.0000 0.0000 0.0000 1.0000
vc 0.5020 0.5020 0.5020 1.0000
g mesh_23_#Room0#_materials/underwatergrass.vmat#SFX_2#Exit00
usemtl materials/underwatergrass.vmat
f 1/1/1 3/2/1 4/3/1
fc 1 2 2
f 1/4/1 2/5/1 3/6/1
fc 1 1 2
g mesh_24_#Room0#
v -1132.015625 168.091187 278.200287
v -1132.015625 68.091179 278.200287
v -1192.015625 168.091187 278.200287
v -1192.015625 68.091179 278.200287
v -986.015625 132.091171 -25.799713
v -986.015625 68.091171 38.200272
v -986.015625 132.091171 38.200272
v -986.015625 228.091171 38.200272
v -1226.015625 260.091187 -89.799713
v -1226.015625 260.091187 262.200287
v -986.015625 260.091156 262.200287
v -986.015625 260.091156 -89.799713
v -986.015625 68.091171 -89.799713
v -986.015625 68.091171 262.200287
v -1226.015625 68.091187 262.200287
v -1226.015625 68.091187 -89.799713
v -1226.015625 68.091187 102.200287
v -986.015625 228.091171 -25.799713
v -1132.015625 68.091179 262.200287
v -1192.015625 168.091187 262.200287
v -1132.015625 168.091187 262.200287
v -1192.015625 68.091179 262.200287
v -986.015625 68.091171 102.200272
v -1221.730347 116.091187 150.200317
v -1221.730347 116.091187 54.200302
v -1221.730347 212.091187 54.200302
v -1221.730347 212.091187 150.200317
v -1221.730347 212.091187 102.200302
v -1221.730347 116.091187 102.200302
v -986.015625 68.091171 -25.799713
v -970.015625 228.091156 38.200302
v -986.015625 132.091156 38.200302
v -970.015625 324.091156 166.200302
v -970.015625 324.091156 -153.799683
v -970.015625 132.091156 -153.799683
v -970.015625 132.091156 166.200302
v -986.015625 228.091156 -25.799683
v -986.015625 228.091156 38.200302
v -970.015625 132.091156 38.200302
v -970.015625 228.091156 -25.799683
v -986.015625 132.091156 -25.799683
v -970.015625 132.091156 -25.799683
v -970.015625 324.091156 -153.799683
v -970.015625 324.091156 166.200302
v -338.015625 124.091133 -89.799744
v -338.015625 -3.908867 102.200256
v -466.015686 -3.908859 -153.799744
v -466.015625 -3.908859 166.200256
v -970.015625 132.091156 166.200302
v -970.015625 132.091156 -153.799683
v -466.015686 156.091141 -153.799744
v -466.015625 156.091141 166.200256
v 173.984375 124.091110 102.200211
v 173.984375 124.091110 -89.799774
v 173.984375 -3.908890 -89.799774
v 173.984375 -3.908890 102.200211
v -338.015625 -3.908867 -89.799744
v -338.015625 124.091133 102.200256
v -18.015625 -3.908882 -89.799774
v -18.015625 -3.908882 102.200226
v -778.015625 132.091141 166.200287
v -778.015747 132.091171 -153.799713
vt 0.468746 -0.250000
vt -0.468754 0.000000
vt -0.468754 -0.250000
vt 11.729729 -12.316483
vt 10.589104 -10.340862
vt 8.424040 -11.590862
vt -0.531254 -0.250000
vt -0.531254 0.000000
vt -1.468754 0.000000
vt 8.424040 -11.590862
vt 10.299040 -14.838458
vt 11.729729 -12.316483
vt 10.299040 -14.838458
vt 12.464104 -13.588457
vt 12.198479 -13.128382
vt 10.299040 -14.838458
vt 12.198479 -13.128382
vt 11.729729 -12.316483
vt 0.333333 1.666667
vt 2.666667 2.000000
vt -1.000000 2.000000
vt 9.500076 -1.999656
vt 12.000000 0.000435
vt 9.500000 0.000344
vt 12.000000 1.999999
vt 11.020834 1.041666
vt 11.645834 1.041666
vt 0.333333 -0.000000
vt -0.333333 0.666667
vt -0.333333 -0.000000
vt 1.000000 0.000035
vt -0.999925 -2.000035
vt 2.666741 -1.999907
vt -0.000104 2.833333
vt 1.041569 2.666705
vt 1.041563 2.833372
vt 1.041669 -2.833324
vt 0.000003 -2.666667
vt 0.000003 -2.833333
vt 0.333333 0.666667
vt 0.333333 -0.000000
vt 1.000000 -0.000000
vt 1.000000 -0.000000
vt 2.666667 -0.000000
vt 2.666667 2.000000
vt -1.000000 2.000000
vt -1.000000 -0.000000
vt -0.333333 0.666667
vt -1.000000 -0.000000
vt -0.333333 -0.000000
vt -0.333333 0.666667
vt 0.333333 0.666667
vt 1.000000 -0.000000
vt 0.333333 1.666667
vt 1.000000 -0.000000
vt 2.666667 2.000000
vt 0.333333 1.666667
vt -1.000000 2.000000
vt -0.333333 0.666667
vt -0.333333 1.666667
vt -0.333333 1.666667
vt 0.333333 1.666667
vt -1.000000 2.000000
vt 9.500076 -1.999656
vt 12.000075 -1.999565
vt 12.000000 0.000435
vt 12.000000 1.999999
vt 9.500000 1.999999
vt 11.020834 1.041666
vt 9.500000 1.999999
vt 9.500000 -0.000001
vt 11.020834 1.041666
vt 9.500000 -0.000001
vt 11.020834 -0.000001
vt 11.020834 1.041666
vt 11.645834 1.041666
vt 11.645834 -0.000001
vt 12.000000 -0.000001
vt 11.645834 1.041666
vt 12.000000 -0.000001
vt 12.000000 1.999999
vt 0.333333 -0.000000
vt 0.333333 0.666667
vt -0.333333 0.666667
vt 2.666741 -1.999907
vt 2.666667 0.000093
vt 1.000000 0.000035
vt 1.000000 0.000035
vt -1.000000 -0.000035
vt -0.999925 -2.000035
vt -0.000104 2.833333
vt -0.000098 2.666667
vt 1.041569 2.666705
vt 1.041669 -2.833324
vt 1.041669 -2.666658
vt 0.000003 -2.666667
vt 1.116030 -0.045431
vt -0.616022 -0.295431
vt 1.401928 -2.169230
vt 0.383978 0.704569
vt -1.348072 0.454569
vt 2.401928 -1.169230
vt -1.598072 -1.169230
vt 3.598080 -0.419229
vt -1.883970 0.954569
vt 3.598080 -1.419229
vt -0.151920 0.204569
vt -1.883970 -0.045431
vt 0.000000 -0.000000
vt 1.000000 -1.000000
vt 1.000000 -0.000000
vt 0.000000 -1.000000
vt 1.000000 -0.000000
vt 1.000000 -1.000000
vt 0.000000 -0.000000
vt 0.000000 -1.000000
vt 1.000000 -1.000000
vt 0.000000 -1.000000
vt 0.000000 -0.000000
vt 1.000000 -0.000000
vt -9.500000 0.666667
vt -9.333334 1.666667
vt -9.333334 0.666667
vt 0.333333 -9.500000
vt -0.333333 -9.333334
vt -0.333333 -9.500000
vt -9.500000 1.666667
vt -9.333334 0.666667
vt -9.333334 1.666667
vt -1.666667 2.666667
vt 1.666667 2.666667
vt -0.333333 1.666667
vt 1.666667 -4.183740
vt -1.666667 -9.701426
vt -1.666667 -4.183740
vt -1.666667 -9.315944
vt 1.666667 -7.343156
vt -1.666667 -7.343156
vt -9.333334 2.666667
vt -9.333334 0.666667
vt -7.333334 0.666667
vt -7.333333 0.666667
vt -9.333334 2.666667
vt -4.083333 0.916667
vt -1.000000 2.583333
vt 1.000000 -2.750000
vt -1.000000 -2.750000
vt -1.000000 -2.750000
vt 1.666667 -4.083333
vt 1.000000 -2.750000
vt 0.583333 -0.750000
vt 2.583333 0.583333
vt -2.750000 0.583333
vt -4.397601 -0.750000
vt -2.906888 0.583333
vt -2.906888 -0.750000
vt 1.666667 -4.183740
vt -1.000000 -2.809371
vt 1.000000 -2.809371
vt -2.906888 0.583333
vt -4.397600 -0.750000
vt -2.906888 -0.750000
vt 2.583333 0.583333
vt 2.583333 -0.750000
vt 0.583333 -0.750000
vt 1.666667 -3.904476
vt -1.666667 -7.343156
vt 1.666667 -7.343156
vt -9.500000 0.666667
vt -9.500000 1.666667
vt -9.333334 1.666667
vt 0.333333 -9.500000
vt 0.333333 -9.333334
vt -0.333333 -9.333334
vt -9.500000 1.666667
vt -9.500000 0.666667
vt -9.333334 0.666667
vt 1.666667 2.666667
vt 1.666667 0.666667
vt 0.333333 1.666667
vt 1.666667 0.666667
vt 0.333333 0.666667
vt 0.333333 1.666667
vt -0.333333 0.666667
vt -1.666667 0.666667
vt -0.333333 1.666667
vt -1.666667 0.666667
vt -1.666667 2.666667
vt -0.333333 1.666667
vt 1.666667 2.666667
vt 0.333333 1.666667
vt -0.333333 1.666667
vt 1.666667 -4.183740
vt 1.666667 -9.701426
vt -1.666667 -9.701426
vt -1.666667 -9.315944
vt 1.666667 -9.315944
vt 1.666667 -7.343156
vt -4.083333 -0.750000
vt -4.083333 0.916667
vt -7.333334 0.666667
vt -4.083333 0.916667
vt -9.333334 2.666667
vt -7.333334 0.666667
vt -4.083333 0.916667
vt -4.083333 -0.750000
vt -7.333333 0.666667
vt -7.333333 0.666667
vt -9.333334 0.666667
vt -9.333334 2.666667
vt -1.000000 2.583333
vt 1.000000 2.583333
vt 1.000000 -2.750000
vt 1.000000 0.583333
vt -1.000000 0.583333
vt -1.000000 -2.750000
vt -1.000000 -2.750000
vt -1.666667 -4.083333
vt 1.666667 -4.083333
vt 1.000000 -2.750000
vt 1.000000 0.583333
vt -1.000000 -2.750000
vt -2.750000 0.583333
vt -2.750000 -0.750000
vt 0.583333 -0.750000
vt 0.583333 -0.750000
vt 2.583333 -0.750000
vt 2.583333 0.583333
vt -4.397601 -0.750000
vt -4.397601 0.916667
vt -2.906888 0.583333
vt 1.666667 -4.183740
vt -1.666667 -4.183740
vt -1.000000 -2.809371
vt -2.906888 0.583333
vt -4.397600 0.916667
vt -4.397600 -0.750000
vt -2.750000 -0.750000
vt -2.750000 0.583333
vt 0.583333 -0.750000
vt -2.750000 0.583333
vt 2.583333 0.583333
vt 0.583333 -0.750000
vt 1.666667 -3.904476
vt -1.666667 -3.904476
vt -1.666667 -7.343156
vn 0.0000 1.0000 0.0000
vn -1.0000 0.0000 0.0000
vn -0.0000 0.0000 1.0000
vn 0.0000 0.0000 -1.0000
vn 1.0000 0.0000 0.0000
vn -0.2796 -0.9601 -0.0000
vn -0.3162 -0.9487 0.0000
vn 0.2041 0.9790 -0.0000
vn -0.2295 0.0000 -0.9733
vn -0.0000 -1.0000 0.0000
vn -0.1221 -0.9925 -0.0000
vn -0.1223 -0.9925 0.0000
vn 0.2040 0.9790 0.0000
vn -0.2296 -0.0000 0.9733
vn -0.2298 -0.0000 -0.9732
vn -0.2296 0.0000 -0.9733
vn -0.2298 -0.0000 0.9732
vn -0.2295 -0.0000 0.9733
vn 0.2041 0.9789 -0.0000
vc 1.0000 1.0000 1.0000 1.0000
vc 0.5020 0.5020 0.5020 1.0000
vc 0.2863 0.2863 0.2863 1.0000
vc 0.5686 0.5686 0.5686 1.0000
vc 0.7529 0.7529 0.7529 1.0000
vc 0.3804 0.3804 0.3804 1.0000
vc 0.0000 0.0000 0.0000 1.0000
vc 0.3725 0.3725 0.3725 1.0000
vc 0.5176 0.5176 0.5176 1.0000
g mesh_24_#Room0#_materials/walltest.vmat#SFX_2
usemtl materials/walltest.vmat
f 6/7/2 26/8/2 8/9/2
fc 3 4 3
f 23/10/2 18/11/2 27/12/2
fc 4 4 3
f 6/13/2 23/14/2 26/15/2
fc 3 4 4
f 27/16/2 21/17/2 23/18/2
fc 3 3 4
f 21/19/2 19/20/2 26/21/2
fc 3 4 4
f 21/22/2 26/23/2 23/24/2
fc 3 4 4
g mesh_24_#Room0#_materials/housewall.vmat#SFX_A
usemtl materials/housewall.vmat
f 12/25/3 15/26/3 16/27/3
fc 5 4 4
f 16/28/4 20/29/4 17/30/4
fc 4 4 4
f 14/31/5 25/32/5 24/33/5
fc 4 4 4
f 10/34/3 9/35/3 34/36/3
fc 3 4 3
f 21/37/6 13/38/6 14/39/6
fc 3 4 4
f 8/40/6 24/41/6 7/42/6
fc 3 4 3
f 5/43/3 23/44/3 6/45/3
fc 3 4 3
f 11/46/3 10/47/3 27/48/3
fc 4 3 3
f 27/49/3 18/50/3 15/51/3
fc 3 4 4
f 16/52/3 17/53/3 9/54/3
fc 4 4 4
f 17/55/3 34/56/3 9/57/3
fc 4 3 4
f 11/58/3 27/59/3 12/60/3
fc 4 3 5
f 27/61/3 15/62/3 12/63/3
fc 3 4 5
f 16/64/3 9/65/3 22/66/3
fc 4 4 4
f 22/67/3 12/68/3 16/69/3
fc 4 5 4
f 16/70/4 13/71/4 20/72/4
fc 4 4 4
f 14/73/5 15/74/5 25/75/5
fc 4 4 4
f 15/76/5 18/77/5 25/78/5
fc 4 4 4
f 18/79/5 23/80/5 25/81/5
fc 4 4 4
f 24/82/5 26/83/5 19/84/5
fc 4 4 4
f 24/85/5 19/86/5 14/87/5
fc 4 4 4
f 10/88/3 11/89/3 9/90/3
fc 3 4 4
f 14/91/6 19/92/6 21/93/6
fc 4 4 3
f 21/94/6 20/95/6 13/96/6
fc 3 4 4
f 8/97/6 26/98/6 24/99/6
fc 3 4 4
f 5/100/3 25/101/3 23/102/3
fc 3 4 4
g mesh_24_#Room0#_materials/cheapcarpet.vmat#SFX_D
usemtl materials/cheapcarpet.vmat
f 10/103/2 34/104/2 20/105/2
fc 3 3 4
f 34/106/2 17/107/2 20/108/2
fc 3 4 4
f 20/109/2 21/110/2 10/111/2
fc 4 3 3
f 21/112/2 27/113/2 10/114/2
fc 3 3 3
g mesh_24_#Room0#_materials/window.vmat#NoCollision
usemtl materials/window.vmat
f 31/115/6 33/116/6 32/117/6
fc 3 3 3
f 29/118/6 32/119/6 33/120/6
fc 3 3 3
f 31/121/6 28/122/6 33/123/6
fc 3 3 3
f 29/124/6 30/125/6 32/126/6
fc 3 3 3
g mesh_24_#Room0#_materials/underwatergrass.vmat.003#SFX_1
usemtl materials/underwatergrass.vmat.003
f 36/127/5 35/128/5 43/129/5
fc 4 6 7
f 36/130/2 46/131/2 45/132/2
fc 4 7 4
f 41/133/4 46/134/4 44/135/4
fc 4 7 6
f 38/136/6 37/137/6 44/138/6
fc 4 8 6
f 56/139/7 47/140/8 55/141/7
fc 4 4 4
f 54/142/2 65/143/9 66/144/9
fc 7 7 7
f 47/145/4 54/146/4 66/147/4
fc 4 7 7
f 65/148/5 48/149/5 56/150/10
fc 7 8 4
f 58/151/11 62/152/12 49/153/13
fc 9 4 4
f 61/154/2 52/155/14 50/156/2
fc 10 4 4
f 63/157/4 58/158/4 49/159/15
fc 4 9 4
f 52/160/16 62/161/17 50/162/16
fc 4 4 4
f 56/163/7 49/164/13 62/165/12
fc 4 4 4
f 49/166/15 51/167/18 61/168/18
fc 4 4 10
f 57/169/5 60/170/5 64/171/5
fc 9 9 11
f 52/172/14 66/173/9 65/174/9
fc 4 7 7
f 36/175/5 42/176/5 35/177/5
fc 4 5 6
f 36/178/2 43/179/2 46/180/2
fc 4 7 7
f 41/181/4 45/182/4 46/183/4
fc 4 4 7
f 37/184/6 40/185/6 35/186/6
fc 8 7 6
f 40/187/6 43/188/6 35/189/6
fc 7 7 6
f 46/190/6 39/191/6 44/192/6
fc 7 7 6
f 39/193/6 38/194/6 44/195/6
fc 7 4 6
f 37/196/6 35/197/6 44/198/6
fc 8 6 6
f 56/199/7 48/200/8 47/201/8
fc 4 8 4
f 54/202/2 53/203/2 65/204/9
fc 7 7 7
f 51/205/18 55/206/19 66/207/4
fc 4 4 7
f 55/208/19 47/209/4 66/210/4
fc 4 4 7
f 56/211/10 52/212/16 65/213/5
fc 4 4 7
f 65/214/5 53/215/5 48/216/5
fc 7 7 8
f 58/217/11 57/218/11 62/219/12
fc 9 9 4
f 64/220/2 63/221/2 61/222/2
fc 11 4 10
f 61/223/2 51/224/20 52/225/14
fc 10 4 4
f 50/226/2 64/227/2 61/228/2
fc 4 11 10
f 49/229/15 61/230/18 63/231/4
fc 4 10 4
f 63/232/4 59/233/4 58/234/4
fc 4 9 9
f 52/235/16 56/236/10 62/237/17
fc 4 4 4
f 56/238/7 55/239/7 49/240/13
fc 4 4 4
f 49/241/15 55/242/19 51/243/18
fc 4 4 4
f 50/244/16 62/245/17 64/246/5
fc 4 4 11
f 62/247/17 57/248/5 64/249/5
fc 4 9 11
f 52/250/14 51/251/20 66/252/9
fc 4 4 7
g mesh_94_#Room0#
v -778.015564 132.091187 -185.799713
v -778.015564 132.091187 198.200287
v 181.984436 132.091141 198.200226
v 181.984436 132.091141 -185.799774
vt 3.000000 -11.000000
vt -3.000000 4.000000
vt -3.000000 -11.000000
vt 3.000000 -11.000000
vt 3.000000 4.000000
vt -3.000000 4.000000
vn 0.0000 1.0000 0.0000
vc 1.0000 1.0000 1.0000 1.0000
g mesh_94_#Room0#_materials/water.vmat#NoCollision#BackfaceCulling#Alpha7D#Animated8#MultiAlpha7D
usemtl materials/water.vmat
f 68/253/21 70/254/21 67/255/21
fc 12 12 12
f 68/256/21 69/257/21 70/258/21
fc 12 12 12
g mesh_24.001_#Room0#
v -1132.015625 168.091187 278.200287
v -1192.015625 168.091187 278.200287
v -1192.015625 168.091187 262.200287
v -1132.015625 168.091187 262.200287
v -970.015625 228.091156 38.200317
v -986.015625 228.091156 -25.799652
v -986.015625 228.091156 38.200317
v -970.015625 228.091156 -25.799652
v 173.984375 124.091118 102.200241
v 173.984375 124.091118 -89.799744
v 173.984375 -3.908890 -89.799744
v 173.984375 -3.908890 102.200241
v -1226.015625 260.091187 -89.799713
v -1226.015625 260.091187 262.200317
v -986.015625 260.091156 262.200317
v -986.015625 260.091156 -89.799713
vt -1.200000 -14.400001
vt 3.200000 -11.400001
vt 3.200000 -14.400001
vt -1.200000 -14.400001
vt -1.200000 -11.400001
vt 3.200000 -11.400001
vt -2.833045 -11.645908
vt -2.666394 -11.020905
vt -2.833060 -11.020908
vt -2.833045 -11.645908
vt -2.666378 -11.645905
vt -2.666394 -11.020905
vt 0.333333 -9.333334
vt -0.333333 -9.500000
vt -0.333333 -9.333334
vt -1.000000 0.583333
vt 1.000000 -0.750000
vt 1.000000 0.583333
vt 0.333333 -9.333334
vt 0.333333 -9.500000
vt -0.333333 -9.500000
vt -1.000000 0.583333
vt -1.000000 -0.750000
vt 1.000000 -0.750000
vn -0.0000 -1.0000 0.0000
vn -1.0000 0.0000 0.0000
vc 1.0000 1.0000 1.0000 1.0000
vc 0.0000 0.0000 0.0000 1.0000
g mesh_24.001_#Room0#_materials/walltest.vmat.003#NoCollision
usemtl materials/walltest.vmat.003
f 83/259/22 85/260/22 84/261/22
fc 13 13 13
f 83/262/22 86/263/22 85/264/22
fc 13 13 13
g mesh_24.001_#Room0#_materials/housewall.vmat.003#NoCollision
usemtl materials/housewall.vmat.003
f 72/265/22 74/266/22 71/267/22
fc 13 13 13
f 72/268/22 73/269/22 74/270/22
fc 13 13 13
g mesh_24.001_#Room0#_materials/underwatergrass.vmat.001#NoCollision
usemtl materials/underwatergrass.vmat.001
f 75/271/22 76/272/22 78/273/22
fc 13 13 13
f 80/274/23 82/275/23 79/276/23
fc 14 14 14
f 75/277/22 77/278/22 76/279/22
fc 13 13 13
f 80/280/23 81/281/23 82/282/23
fc 14 14 14
g mesh_76_#Room1#
v -1356.015625 -87.908798 222.200272
v -1356.015625 -187.908798 222.200272
v -1416.015625 -87.908798 222.200256
v -1416.015625 -187.908798 222.200256
v -1338.015625 -187.908798 214.200256
v -1434.015625 -187.908798 214.200256
v -1434.015625 -59.908798 214.200256
v -1338.015625 -59.908798 214.200256
v -1434.015625 100.091202 -9.799744
v -1338.015625 100.091202 86.200249
v -1338.015625 -187.908798 -9.799744
v -1338.015625 -187.908798 86.200256
v -1434.015625 -187.908798 86.200272
v -1434.015625 -187.908798 -9.799744
v -1338.015625 -59.908798 86.200256
v -1434.015625 -59.908798 86.200272
v -1416.015625 -187.908798 214.200256
v -1356.015625 -87.908798 214.200256
v -1416.015625 -87.908798 214.200256
v -1356.015625 -187.908798 214.200256
v -1226.015625 324.091187 278.200256
v -1226.015625 68.091187 -89.799698
v -1338.015625 68.091202 -89.799683
v -1226.015625 324.091187 -89.799698
v -1994.015625 324.091248 486.200287
v -1930.015625 324.091248 486.200287
v -1930.015625 324.091248 230.200287
v -1994.015625 324.091248 230.200378
v -1994.015625 68.091232 230.200378
v -1930.015625 68.091232 230.200287
v -1930.015625 68.091232 486.200287
v -1994.015625 68.091232 486.200287
v -1930.015625 68.091232 388.200317
v -1434.015625 204.091202 26.886536
v -1930.015625 68.091232 328.200317
v -1434.015625 215.404922 38.200241
v -1930.015625 168.091232 328.200317
v -1930.015625 168.091232 388.200317
v -970.015869 324.091187 278.200256
v -1386.015747 324.091187 618.200439
v -1192.015747 168.091202 278.200256
v -1338.015625 204.091202 49.513939
v -1132.015747 168.091202 278.200256
v -1132.015747 68.091187 278.200256
v -1338.015625 204.091202 26.886528
v -970.015869 68.091187 278.200256
v -970.015869 68.091187 646.200195
v -1544.015747 68.091202 618.200317
v -1226.015625 68.091187 278.200256
v -1192.015747 68.091187 278.200256
v -1434.015625 192.777481 38.200241
v -1338.015625 215.404922 38.200233
v -1544.015747 168.091202 618.200317
v -1642.015625 324.091187 646.200256
v -970.015808 324.091187 646.200195
v -1484.015747 68.091202 618.200378
v -1642.015625 68.091217 618.200317
v -1994.015625 324.091248 -89.799606
v -1994.015625 324.091248 646.200317
v -1484.015747 168.091202 618.200378
v -1386.015747 68.091202 618.200317
v -1386.015747 68.091202 646.200256
v -1642.015625 68.091217 646.200256
v -1994.015625 68.091232 646.200317
v -1994.015625 68.091232 -89.799606
v -1642.015747 324.091187 618.200317
v -1434.015625 68.091202 86.200256
v -1386.015747 324.091187 646.200256
v -1768.015625 68.091217 66.200348
v -1708.015625 68.091217 66.200340
v -1866.015625 324.091248 -89.799622
v -1866.015625 324.091248 70.200378
v -1610.015625 324.091187 70.200333
v -1610.015625 324.091187 -89.799637
v -1610.015625 68.091217 -89.799637
v -1610.015625 68.091217 70.200333
v -1866.015625 68.091217 70.200378
v -1866.015625 68.091217 -89.799622
v -1768.015625 68.091217 70.200348
v -1338.015625 192.777481 38.200233
v -1708.015625 68.091217 70.200340
v -1434.015625 204.091202 49.513947
v -1708.015625 168.091202 70.200340
v -1768.015625 168.091232 70.200348
v -1434.015625 68.091202 -89.799683
v -1434.015625 68.091202 -9.799744
v -1338.015625 68.091202 -9.799744
v -1338.015625 68.091202 86.200256
v -1466.015625 212.091202 30.200249
v -1466.015625 212.091202 46.200249
v -1450.015625 212.091202 46.200241
v -1450.015625 212.091202 30.200241
v -1450.015625 100.091202 30.200241
v -1450.015625 100.091202 46.200241
v -1466.015625 100.091202 46.200249
v -1466.015625 100.091202 30.200249
v -1322.015625 212.091202 30.200233
v -1322.015625 212.091202 46.200233
v -1306.015625 212.091202 46.200233
v -1306.015625 212.091202 30.200233
v -1306.015625 100.091202 30.200233
v -1306.015625 100.091202 46.200233
v -1322.015625 100.091202 46.200233
v -1322.015625 100.091202 30.200233
v -1308.349976 100.091202 -18.227112
v -1356.349976 100.091202 -53.101196
v -1415.681274 100.091202 -53.101196
v -1463.681274 100.091202 -18.227173
v -1482.015625 100.091202 38.200233
v -1463.681274 100.091202 94.627609
v -1415.681274 100.091202 129.501663
v -1356.349976 100.091202 129.501663
v -1308.349976 100.091202 94.627617
v -1290.015625 100.091202 38.200233
v -1290.015625 68.091202 38.200233
v -1308.349976 68.091202 94.627617
v -1356.349976 68.091202 129.501663
v -1415.681274 68.091202 129.501663
v -1463.681274 68.091202 94.627609
v -1482.015625 68.091202 38.200233
v -1463.681274 68.091202 -18.227173
v -1415.681274 68.091202 -53.101196
v -1356.349976 68.091202 -53.101196
v -1308.349976 68.091202 -18.227112
v -1386.015625 100.091202 129.501663
v -1386.015625 100.091202 -53.101196
v -1386.015625 100.091202 86.200226
v -1434.015625 100.091202 86.200256
v -1386.015625 100.091202 -9.799774
v -1338.015625 100.091202 -9.799744
vt -1.468750 0.000000
vt -0.531250 -1.000000
vt -0.531250 -0.000004
vt -0.468750 0.000000
vt -0.468750 -0.999996
vt 0.468750 -1.000000
vt -0.548100 -2.500000
vt -0.048100 0.500000
vt -0.548100 0.500000
vt -2.500000 0.462312
vt 0.500000 0.962312
vt 0.500000 0.462312
vt -0.048100 -2.500000
vt -0.548100 0.500000
vt -0.048100 0.500000
vt -2.500000 0.962311
vt 0.500000 0.462311
vt 0.500000 0.962311
vt -0.548100 -1.500000
vt -0.048100 -1.500000
vt -0.048100 1.500000
vt -1.500000 0.462312
vt -1.500000 0.962312
vt 1.500000 0.962312
vt -0.048100 -1.500000
vt -0.548100 -1.500000
vt -0.548100 1.500000
vt -1.500000 0.962311
vt -1.500000 0.462311
vt 1.500000 0.462311
vt -10.875000 0.250000
vt -10.750000 1.125000
vt -10.750000 0.250000
vt -10.875000 1.125000
vt -10.750000 0.250000
vt -10.750000 1.125000
vt 0.187503 0.250000
vt 0.312503 1.125000
vt 0.312503 0.250000
vt 0.187503 1.125000
vt 0.312503 0.250000
vt 0.312503 1.125000
vt -9.750000 0.250000
vt -9.625000 1.125000
vt -9.625000 0.250000
vt -9.750000 1.125000
vt -9.625000 0.250000
vt -9.625000 1.125000
vt 0.187503 0.250000
vt 0.312503 1.125000
vt 0.312503 0.250000
vt 0.187503 1.125000
vt 0.312503 0.250000
vt 0.312503 1.125000
vt -10.875000 0.250000
vt -10.875000 1.125000
vt -10.750000 1.125000
vt -10.875000 1.125000
vt -10.875000 0.250000
vt -10.750000 0.250000
vt 0.187503 0.250000
vt 0.187503 1.125000
vt 0.312503 1.125000
vt 0.187503 1.125000
vt 0.187503 0.250000
vt 0.312503 0.250000
vt -9.750000 0.250000
vt -9.750000 1.125000
vt -9.625000 1.125000
vt -9.750000 1.125000
vt -9.750000 0.250000
vt -9.625000 0.250000
vt 0.187503 0.250000
vt 0.187503 1.125000
vt 0.312503 1.125000
vt 0.187503 1.125000
vt 0.187503 0.250000
vt 0.312503 0.250000
vt -10.484375 -1.687500
vt -10.015625 -1.625000
vt -10.015625 -1.687500
vt -10.484375 -1.218750
vt -10.625000 -1.000000
vt -9.875000 -1.000000
vt -0.125000 0.250000
vt 0.625000 0.250000
vt 0.625000 -1.000000
vt 0.625000 -10.625000
vt -0.125000 -9.875000
vt -0.125000 -10.625000
vt -10.625000 0.250000
vt -9.875000 -2.000000
vt -9.875000 0.250000
vt -10.625000 0.250000
vt -9.875000 -1.000000
vt -10.625000 -1.000000
vt -0.125000 -2.000000
vt 0.625000 -2.000000
vt 0.625000 -1.000000
vt -0.625000 -1.000000
vt -1.625000 -2.000000
vt -1.625000 -1.000000
vt -10.625000 -0.625000
vt -9.875000 -1.625000
vt -10.625000 -1.625000
vt 0.625000 -2.000000
vt 1.625000 -1.000000
vt 1.625000 -2.000000
vt -9.875000 0.625000
vt -10.484375 1.625000
vt -10.015625 1.625000
vt 1.687500 -2.000000
vt 1.625000 -1.218750
vt 1.687500 -1.218750
vt -1.687500 -1.218750
vt -1.625000 -2.000000
vt -1.687500 -2.000000
vt 0.624996 -10.625000
vt -0.125003 -10.625000
vt 0.249996 -11.000000
vt -0.124997 -9.875000
vt 0.625003 -9.875000
vt 0.250003 -9.500000
vt 3.636948 -0.000000
vt 3.173423 0.250000
vt 3.636948 0.250000
vt -8.671134 0.250000
vt -8.207608 -0.000000
vt -8.207608 0.250000
vt -10.250000 0.250000
vt -10.481763 -0.000000
vt -10.018237 -0.000000
vt -8.377240 -0.000000
vt -7.913715 0.250000
vt -8.377240 0.250000
vt -3.161421 0.250000
vt -2.697895 -0.000000
vt -2.697895 0.250000
vt 3.173421 -0.000000
vt 3.636947 0.250000
vt 3.173421 0.250000
vt -8.207609 0.250000
vt -8.671135 -0.000000
vt -8.671135 0.250000
vt -10.250000 0.250000
vt -10.018237 -0.000000
vt -10.481763 -0.000000
vt -7.913712 -0.000000
vt -8.377237 0.250000
vt -7.913712 0.250000
vt -2.697897 0.250000
vt -3.161422 -0.000000
vt -3.161422 0.250000
vt -10.484375 -1.687500
vt -10.484375 -1.625000
vt -10.015625 -1.625000
vt -9.875000 -1.000000
vt -9.875000 -2.000000
vt -10.015625 -1.218750
vt -9.875000 -2.000000
vt -10.015625 -2.000000
vt -10.015625 -1.218750
vt -10.484375 -2.000000
vt -10.625000 -2.000000
vt -10.484375 -1.218750
vt -10.625000 -2.000000
vt -10.625000 -1.000000
vt -10.484375 -1.218750
vt -9.875000 -1.000000
vt -10.015625 -1.218750
vt -10.484375 -1.218750
vt 0.625000 -1.000000
vt 0.625000 -2.000000
vt -0.125000 -2.000000
vt -0.125000 -2.000000
vt -0.125000 0.250000
vt 0.625000 -1.000000
vt 0.625000 -10.625000
vt 0.625000 -9.875000
vt -0.125000 -9.875000
vt -10.625000 0.250000
vt -10.625000 -2.000000
vt -9.875000 -2.000000
vt -10.625000 0.250000
vt -9.875000 0.250000
vt -9.875000 -1.000000
vt 0.625000 -1.000000
vt 0.625000 0.250000
vt -0.125000 0.250000
vt -0.125000 0.250000
vt -0.125000 -2.000000
vt 0.625000 -1.000000
vt -0.625000 -1.000000
vt -0.625000 -2.000000
vt -1.625000 -2.000000
vt -10.625000 -0.625000
vt -9.875000 -0.625000
vt -9.875000 -1.625000
vt 0.625000 -2.000000
vt 0.625000 -1.000000
vt 1.625000 -1.000000
vt -10.015625 1.625000
vt -9.875000 1.625000
vt -9.875000 0.625000
vt -9.875000 0.625000
vt -10.625000 0.625000
vt -10.484375 1.625000
vt -10.625000 0.625000
vt -10.625000 1.625000
vt -10.484375 1.625000
vt -10.484375 1.625000
vt -10.484375 1.687500
vt -10.015625 1.687500
vt -10.484375 1.625000
vt -10.015625 1.687500
vt -10.015625 1.625000
vt 1.687500 -2.000000
vt 1.625000 -2.000000
vt 1.625000 -1.218750
vt -1.687500 -1.218750
vt -1.625000 -1.218750
vt -1.625000 -2.000000
vt -0.125003 -10.625000
vt -0.125004 -10.250000
vt -0.463296 -10.481763
vt -0.125004 -10.250000
vt -0.463296 -10.250000
vt -0.463296 -10.481763
vt -0.463296 -10.481763
vt -0.190843 -10.856763
vt -0.125003 -10.625000
vt -0.190843 -10.856763
vt 0.249996 -11.000000
vt -0.125003 -10.625000
vt 0.249996 -11.000000
vt 0.690835 -10.856763
vt 0.624996 -10.625000
vt 0.690835 -10.856763
vt 0.963289 -10.481763
vt 0.624996 -10.625000
vt 0.963289 -10.481763
vt 0.963289 -10.250000
vt 0.624996 -10.250000
vt 0.624996 -10.625000
vt 0.963289 -10.481763
vt 0.624996 -10.250000
vt 0.625003 -9.875000
vt 0.625003 -10.250000
vt 0.963295 -10.018237
vt 0.625003 -10.250000
vt 0.963295 -10.250000
vt 0.963295 -10.018237
vt 0.963295 -10.018237
vt 0.690842 -9.643237
vt 0.625003 -9.875000
vt 0.690842 -9.643237
vt 0.250003 -9.500000
vt 0.625003 -9.875000
vt 0.250003 -9.500000
vt -0.190836 -9.643237
vt -0.124997 -9.875000
vt -0.190836 -9.643237
vt -0.463289 -10.018237
vt -0.124997 -9.875000
vt -0.463289 -10.018237
vt -0.463289 -10.250000
vt -0.124997 -10.250000
vt -0.124997 -9.875000
vt -0.463289 -10.018237
vt -0.124997 -10.250000
vt 3.636948 -0.000000
vt 3.173423 -0.000000
vt 3.173423 0.250000
vt -8.671134 0.250000
vt -8.671134 -0.000000
vt -8.207608 -0.000000
vt -10.018237 -0.000000
vt -10.018237 0.250000
vt -10.250000 0.250000
vt -10.250000 0.250000
vt -10.481763 0.250000
vt -10.481763 -0.000000
vt -8.377240 -0.000000
vt -7.913715 -0.000000
vt -7.913715 0.250000
vt -3.161421 0.250000
vt -3.161421 -0.000000
vt -2.697895 -0.000000
vt 3.173421 -0.000000
vt 3.636947 -0.000000
vt 3.636947 0.250000
vt -8.207609 0.250000
vt -8.207609 -0.000000
vt -8.671135 -0.000000
vt -10.481763 -0.000000
vt -10.481763 0.250000
vt -10.250000 0.250000
vt -10.250000 0.250000
vt -10.018237 0.250000
vt -10.018237 -0.000000
vt -7.913712 -0.000000
vt -8.377237 -0.000000
vt -8.377237 0.250000
vt -2.697897 0.250000
vt -2.697897 -0.000000
vt -3.161422 -0.000000
vt 3.777778 0.888889
vt 8.888889 -0.000000
vt 8.888889 0.888889
vt -1.333332 0.888889
vt 8.888889 -0.000000
vt -1.333332 -0.000000
vt 2.222225 0.888889
vt -3.555552 -0.000000
vt 2.222225 -0.000000
vt 3.666666 -0.000000
vt -1.222219 0.888889
vt -1.222219 -0.000000
vt 3.000000 0.888889
vt -7.666666 -0.000000
vt 3.000000 -0.000000
vt 3.777778 0.888889
vt 3.777778 -0.000000
vt 8.888889 -0.000000
vt -1.333332 0.888889
vt 8.888889 0.888889
vt 8.888889 -0.000000
vt 4.222225 0.888889
vt -1.555552 0.888889
vt -1.555552 -0.000000
vt 1.666666 -0.000000
vt 1.666666 0.888889
vt -3.222219 0.888889
vt 7.000000 0.888889
vt -3.666666 0.888889
vt -3.666666 -0.000000
vt -0.200000 2.000000
vt -1.199999 -5.000000
vt 1.000000 2.000000
vt -1.199999 0.200000
vt -0.200000 -1.000000
vt -0.200000 0.200000
vt -1.199999 0.599999
vt -1.199999 -0.800000
vt -0.200000 -0.800000
vt -1.199999 0.599999
vt -0.200000 -0.800000
vt 1.000000 -0.800000
vt 3.400000 -13.225001
vt 3.400000 -13.975001
vt 8.000000 -11.200004
vt -0.600000 0.024999
vt -0.600000 -0.400002
vt 3.650001 -2.400003
vt 2.000000 1.799996
vt -2.600000 -0.975001
vt 1.650001 -3.400003
vt 2.400000 -0.400002
vt -2.199999 -0.400001
vt -0.000000 -1.800000
vt 2.400000 0.599998
vt -0.000000 -0.800000
vt -0.000000 -2.000000
vt 8.000000 -11.200004
vt 3.400000 -11.200004
vt 3.400000 -13.225001
vt 0.650001 -2.400003
vt 1.000000 -2.400003
vt 1.000000 2.799996
vt 1.000000 -3.000000
vt 1.000000 1.399998
vt 0.650000 1.399998
vt -5.199999 -2.000000
vt 4.000000 -2.000000
vt 3.650000 2.399998
vt 2.650000 -2.600002
vt 2.650001 0.599997
vt -4.000000 0.000000
vt 3.650001 -1.400003
vt -0.600000 0.599998
vt -3.000000 -2.000000
vt -1.199999 2.000000
vt -1.199999 -5.000000
vt -0.200000 2.000000
vt -3.199999 -4.000000
vt 5.650000 0.399998
vt -1.000000 3.000000
vt -1.199999 0.200000
vt -1.199999 -1.000000
vt -0.200000 -1.000000
vt 0.000000 -0.000000
vt 1.000000 -1.000000
vt 1.000000 -0.000000
vt -1.000000 1.000000
vt -0.382813 0.390625
vt -0.000000 1.000000
vt 1.000000 -1.000000
vt 0.000000 -0.000000
vt 0.000002 -1.000000
vt 0.000000 -0.000000
vt 1.000000 -1.000000
vt 1.000000 -0.000000
vt 0.367188 -0.609375
vt 0.000000 -0.000001
vt 0.132813 -0.609375
vt 0.000000 -0.000000
vt 0.617188 -0.609375
vt 1.000000 -0.000000
vt 0.002000 -0.000000
vt 1.002000 -1.000000
vt 1.002000 -0.000000
vt 1.001995 -1.000000
vt 0.002003 -0.000000
vt 0.002000 -1.000000
vt -6.000000 -0.000001
vt -5.382812 -0.609375
vt -5.000000 -0.000000
vt 1.000000 -1.000000
vt 0.000000 -0.000000
vt 0.000000 -1.000000
vt 0.000000 -0.000000
vt 1.000000 -1.000000
vt 1.000000 -0.000000
vt 0.000000 -0.000000
vt 0.000000 -1.000000
vt 1.000000 -1.000000
vt -1.000000 1.000000
vt -1.000000 -0.000000
vt -0.617188 0.390625
vt -1.000000 -0.000000
vt -0.617188 -0.000000
vt -0.617188 0.390625
vt -0.382813 -0.000000
vt -0.000000 -0.000000
vt -0.382813 0.390625
vt -0.000000 -0.000000
vt -0.000000 1.000000
vt -0.382813 0.390625
vt -1.000000 1.000000
vt -0.617188 0.390625
vt -0.382813 0.390625
vt 1.000000 -1.000000
vt 0.999997 -0.000000
vt 0.000000 -0.000000
vt 0.000000 -0.000000
vt 0.000000 -1.000000
vt 1.000000 -1.000000
vt 0.367188 -0.609375
vt 0.367188 -1.000000
vt 1.000000 -1.000000
vt 1.000000 -1.000000
vt 0.999999 -0.000000
vt 0.367188 -0.609375
vt 0.999999 -0.000000
vt 0.000000 -0.000001
vt 0.367188 -0.609375
vt 0.000000 -0.000001
vt 0.000001 -0.999999
vt 0.132813 -0.609375
vt 0.000001 -0.999999
vt 0.132813 -0.999999
vt 0.132813 -0.609375
vt 0.000000 -0.000000
vt 0.000000 -1.000000
vt 0.382813 -0.609375
vt 0.000000 -1.000000
vt 0.382813 -1.000000
vt 0.382813 -0.609375
vt 0.617188 -1.000000
vt 1.000000 -1.000000
vt 0.617188 -0.609375
vt 1.000000 -1.000000
vt 1.000000 -0.000000
vt 0.617188 -0.609375
vt 0.000000 -0.000000
vt 0.382813 -0.609375
vt 0.617188 -0.609375
vt 0.002000 -0.000000
vt 0.002001 -1.000000
vt 1.002000 -1.000000
vt 1.001995 -1.000000
vt 1.002000 -0.000000
vt 0.002003 -0.000000
vt -6.000000 -0.000001
vt -5.999999 -1.000000
vt -5.617187 -0.609375
vt -5.999999 -1.000000
vt -5.617186 -0.999999
vt -5.617187 -0.609375
vt -5.382812 -0.999999
vt -5.000000 -0.999999
vt -5.382812 -0.609375
vt -5.000000 -0.999999
vt -5.000000 -0.000000
vt -5.382812 -0.609375
vt -6.000000 -0.000001
vt -5.617187 -0.609375
vt -5.382812 -0.609375
vt 1.000000 -1.000000
vt 1.000000 -0.000000
vt 0.000000 -0.000000
vt 0.000000 -0.000000
vt 0.000000 -1.000000
vt 1.000000 -1.000000
vn 0.0000 1.0000 0.0000
vn 0.0000 0.7071 0.7071
vn -0.0000 0.7071 -0.7071
vn -0.0000 -0.7071 -0.7071
vn 0.0000 -0.7071 0.7071
vn -0.0000 0.0000 -1.0000
vn 0.0000 0.0000 1.0000
vn 1.0000 0.0000 0.0000
vn -1.0000 0.0000 0.0000
vn 0.0000 -1.0000 0.0000
vn 0.8090 0.0000 0.5878
vn 0.3090 0.0000 0.9511
vn -0.3090 0.0000 0.9511
vn -0.8090 0.0000 0.5878
vn -0.8090 0.0000 -0.5878
vn -0.3090 0.0000 -0.9511
vn 0.3090 0.0000 -0.9511
vn 0.8090 0.0000 -0.5878
vc 1.0000 1.0000 1.0000 1.0000
vc 0.5059 0.5059 0.5059 1.0000
vc 0.7098 0.7098 0.7098 1.0000
vc 0.6196 0.6196 0.6196 1.0000
vc 0.9725 0.9725 0.9725 1.0000
g mesh_76_#Room1#_materials/dev/reflectivity_30.vmat#SFX_2
usemtl materials/dev/reflectivity_30.vmat
f 155/283/24 167/284/24 156/285/24
fc 15 15 15
f 155/286/24 165/287/24 167/288/24
fc 15 15 15
g mesh_76_#Room1#_materials/cheapcarpet.vmat.001#SFX_D#Hookshot
usemtl materials/cheapcarpet.vmat.001
f 122/289/25 128/290/25 138/291/25
fc 16 17 16
f 120/292/26 138/293/26 131/294/26
fc 17 16 17
f 137/295/27 131/296/27 166/297/27
fc 17 17 17
f 168/298/28 166/299/28 128/300/28
fc 17 17 17
f 122/301/25 168/302/25 128/303/25
fc 16 17 17
f 120/304/26 122/305/26 138/306/26
fc 17 16 16
f 137/307/27 120/308/27 131/309/27
fc 17 17 17
f 168/310/28 137/311/28 166/312/28
fc 17 17 17
g mesh_76_#Room1#_materials/housewall.vmat.002#SFX_A#WALLPROPERTY_NO_LEDGE_GRAB
usemtl materials/housewall.vmat.002
f 182/313/29 178/314/29 179/315/29
fc 15 17 15
f 176/316/30 180/317/30 177/318/30
fc 17 15 17
f 179/319/31 177/320/31 180/321/31
fc 15 17 15
f 175/322/32 181/323/32 176/324/32
fc 18 15 17
f 190/325/29 186/326/29 187/327/29
fc 15 17 15
f 184/328/30 188/329/30 185/330/30
fc 17 15 17
f 187/331/31 185/332/31 188/333/31
fc 15 17 15
f 183/334/32 189/335/32 184/336/32
fc 17 15 17
f 182/337/29 175/338/29 178/339/29
fc 15 18 17
f 176/340/30 181/341/30 180/342/30
fc 17 15 15
f 179/343/31 178/344/31 177/345/31
fc 15 17 17
f 175/346/32 182/347/32 181/348/32
fc 18 15 15
f 190/349/29 183/350/29 186/351/29
fc 15 17 17
f 184/352/30 189/353/30 188/354/30
fc 17 15 15
f 187/355/31 186/356/31 185/357/31
fc 15 17 17
f 183/358/32 190/359/32 189/360/32
fc 17 15 15
g mesh_76_#Room1#_materials/courtyardvariedwhitebricks.vmat#SFX_2
usemtl materials/courtyardvariedwhitebricks.vmat
f 89/361/33 104/362/33 87/363/33
fc 15 15 15
f 105/364/29 93/365/29 94/366/29
fc 15 16 16
f 95/367/31 214/368/31 102/369/31
fc 17 17 16
f 99/370/24 97/371/24 100/372/24
fc 17 17 17
f 95/373/30 97/374/30 216/375/30
fc 17 17 17
f 214/376/29 101/377/29 102/378/29
fc 17 16 16
f 97/379/32 98/380/32 101/381/32
fc 17 17 16
f 101/382/32 91/383/32 94/384/32
fc 16 17 16
f 102/385/33 94/386/33 93/387/33
fc 16 16 16
f 99/388/31 93/389/31 92/390/31
fc 17 16 17
f 98/391/24 103/392/24 106/393/24
fc 17 17 17
f 90/394/31 105/395/31 89/396/31
fc 19 15 15
f 87/397/32 106/398/32 88/399/32
fc 15 17 15
f 214/400/24 95/401/24 195/402/24
fc 17 17 17
f 216/403/24 96/404/24 200/405/24
fc 17 17 17
f 202/406/34 200/407/31 199/408/34
fc 15 17 17
f 198/409/35 202/410/34 199/411/34
fc 17 15 17
f 211/412/30 204/413/36 203/414/35
fc 15 15 15
f 205/415/37 197/416/36 196/417/37
fc 15 17 17
f 195/418/32 205/419/37 196/420/37
fc 17 15 17
f 207/421/38 195/422/32 194/423/38
fc 15 17 17
f 193/424/39 207/425/38 194/426/38
fc 17 15 17
f 212/427/29 209/428/40 208/429/39
fc 15 15 15
f 210/430/41 192/431/40 191/432/41
fc 15 17 17
f 200/433/31 210/434/41 191/435/41
fc 17 15 17
f 89/436/33 105/437/33 104/438/33
fc 15 15 15
f 94/439/29 91/440/29 104/441/29
fc 16 17 15
f 91/442/29 106/443/29 104/444/29
fc 17 17 15
f 103/445/29 92/446/29 105/447/29
fc 17 17 15
f 92/448/29 93/449/29 105/450/29
fc 17 16 15
f 94/451/29 104/452/29 105/453/29
fc 16 15 15
f 102/454/31 99/455/31 100/456/31
fc 16 17 17
f 100/457/31 95/458/31 102/459/31
fc 17 17 16
f 99/460/24 98/461/24 97/462/24
fc 17 17 17
f 95/463/30 100/464/30 97/465/30
fc 17 17 17
f 214/466/29 96/467/29 101/468/29
fc 17 17 16
f 101/469/32 96/470/32 216/471/32
fc 16 17 17
f 216/472/32 97/473/32 101/474/32
fc 17 17 16
f 101/475/32 98/476/32 91/477/32
fc 16 17 17
f 102/478/33 101/479/33 94/480/33
fc 16 16 16
f 99/481/31 102/482/31 93/483/31
fc 17 16 16
f 106/484/24 91/485/24 98/486/24
fc 17 17 17
f 98/487/24 99/488/24 103/489/24
fc 17 17 17
f 99/490/24 92/491/24 103/492/24
fc 17 17 17
f 103/493/24 90/494/24 88/495/24
fc 17 19 15
f 103/496/24 88/497/24 106/498/24
fc 17 15 17
f 90/499/31 103/500/31 105/501/31
fc 19 17 15
f 87/502/32 104/503/32 106/504/32
fc 15 15 17
f 95/505/24 215/506/24 193/507/24
fc 17 15 17
f 215/508/24 212/509/24 193/510/24
fc 15 15 17
f 193/511/24 194/512/24 95/513/24
fc 17 17 17
f 194/514/24 195/515/24 95/516/24
fc 17 17 17
f 195/517/24 196/518/24 214/519/24
fc 17 17 17
f 196/520/24 197/521/24 214/522/24
fc 17 17 17
f 197/523/24 211/524/24 213/525/24
fc 17 15 15
f 214/526/24 197/527/24 213/528/24
fc 17 17 15
f 96/529/24 213/530/24 198/531/24
fc 17 15 17
f 213/532/24 211/533/24 198/534/24
fc 15 15 17
f 198/535/24 199/536/24 96/537/24
fc 17 17 17
f 199/538/24 200/539/24 96/540/24
fc 17 17 17
f 200/541/24 191/542/24 216/543/24
fc 17 17 17
f 191/544/24 192/545/24 216/546/24
fc 17 17 17
f 192/547/24 212/548/24 215/549/24
fc 17 15 15
f 216/550/24 192/551/24 215/552/24
fc 17 17 15
f 202/553/34 201/554/31 200/555/31
fc 15 15 17
f 198/556/35 203/557/35 202/558/34
fc 17 15 15
f 203/559/35 198/560/35 211/561/30
fc 15 17 15
f 211/562/30 197/563/36 204/564/36
fc 15 17 15
f 205/565/37 204/566/36 197/567/36
fc 15 15 17
f 195/568/32 206/569/32 205/570/37
fc 17 15 15
f 207/571/38 206/572/32 195/573/32
fc 15 15 17
f 193/574/39 208/575/39 207/576/38
fc 17 15 15
f 208/577/39 193/578/39 212/579/29
fc 15 17 15
f 212/580/29 192/581/40 209/582/40
fc 15 17 15
f 210/583/41 209/584/40 192/585/40
fc 15 15 17
f 200/586/31 201/587/31 210/588/41
fc 17 15 15
g mesh_76_#Room1#_materials/wall1.vmat#SFX_2#WALLPROPERTY_NO_LEDGE_GRAB
usemtl materials/wall1.vmat
f 125/589/32 133/590/32 141/591/32
fc 17 17 15
f 144/592/31 150/593/31 151/594/31
fc 17 17 17
f 154/595/29 133/596/29 148/597/29
fc 17 17 17
f 150/598/29 140/599/29 149/600/29
fc 17 17 17
f 110/601/30 151/602/30 108/603/30
fc 17 17 17
f 125/604/32 132/605/32 133/606/32
fc 17 17 17
f 144/607/31 145/608/31 150/609/31
fc 17 17 17
f 154/610/29 141/611/29 133/612/29
fc 17 15 17
f 150/613/29 145/614/29 140/615/29
fc 17 17 17
f 110/616/30 144/617/30 151/618/30
fc 17 17 17
g mesh_76_#Room1#_materials/underwatergrass.vmat.002#SFX_1
usemtl materials/underwatergrass.vmat.002
f 172/619/24 151/620/24 153/621/24
fc 15 17 15
f 109/622/24 172/623/24 173/624/24
fc 17 15 15
f 108/625/24 109/626/24 173/627/24
fc 17 17 15
f 108/628/24 173/629/24 174/630/24
fc 17 15 15
f 130/631/24 136/632/24 133/633/24
fc 17 17 17
f 136/634/24 135/635/24 147/636/24
fc 17 17 17
f 133/637/24 136/638/24 147/639/24
fc 17 17 17
f 135/640/24 108/641/24 174/642/24
fc 17 17 15
f 135/643/24 174/644/24 153/645/24
fc 17 15 15
f 133/646/24 132/647/24 130/648/24
fc 17 17 17
f 147/649/24 148/650/24 133/651/24
fc 17 17 17
f 150/652/24 149/653/24 143/654/24
fc 17 17 15
f 151/655/24 150/656/24 143/657/24
fc 17 17 15
f 143/658/24 147/659/24 153/660/24
fc 15 17 15
f 147/661/24 135/662/24 153/663/24
fc 17 17 15
f 171/664/24 151/665/24 172/666/24
fc 17 17 15
f 151/667/24 143/668/24 153/669/24
fc 17 15 15
f 109/670/24 171/671/24 172/672/24
fc 17 17 15
g mesh_76_#Room1#_materials/outerwall.vmat.001#SFX_2#WALLPROPERTY_NO_LEDGE_GRAB
usemtl materials/outerwall.vmat.001
f 110/673/32 135/674/32 107/675/32
fc 17 17 16
f 112/676/31 123/677/31 113/678/31
fc 16 15 16
f 115/679/29 113/680/29 116/681/29
fc 15 16 15
f 111/682/30 117/683/30 112/684/30
fc 17 15 16
f 129/685/30 107/686/30 127/687/30
fc 15 16 15
f 126/688/29 139/689/29 152/690/29
fc 17 15 17
f 152/691/32 149/692/32 140/693/32
fc 17 17 17
f 147/694/31 154/695/31 148/696/31
fc 17 17 17
f 158/697/30 169/698/30 159/699/30
fc 17 15 17
f 161/700/31 159/701/31 162/702/31
fc 15 17 15
f 157/703/32 163/704/32 158/705/32
fc 17 15 17
f 110/706/32 108/707/32 135/708/32
fc 17 17 17
f 112/709/31 117/710/31 124/711/31
fc 16 15 15
f 117/712/31 119/713/31 124/714/31
fc 15 17 15
f 121/715/31 116/716/31 123/717/31
fc 15 15 15
f 116/718/31 113/719/31 123/720/31
fc 15 16 15
f 112/721/31 124/722/31 123/723/31
fc 16 15 15
f 115/724/29 114/725/29 113/726/29
fc 15 17 16
f 111/727/30 118/728/30 117/729/30
fc 17 15 15
f 129/730/30 130/731/30 132/732/30
fc 15 17 17
f 132/733/30 125/734/30 129/735/30
fc 17 17 15
f 125/736/30 107/737/30 129/738/30
fc 17 16 15
f 107/739/30 135/740/30 127/741/30
fc 16 17 15
f 135/742/30 136/743/30 127/744/30
fc 17 17 15
f 126/745/29 147/746/29 146/747/29
fc 17 17 15
f 147/748/29 142/749/29 146/750/29
fc 17 17 15
f 134/751/29 143/752/29 139/753/29
fc 15 15 15
f 143/754/29 152/755/29 139/756/29
fc 15 17 15
f 126/757/29 146/758/29 139/759/29
fc 17 15 15
f 152/760/32 143/761/32 149/762/32
fc 17 15 17
f 147/763/31 126/764/31 154/765/31
fc 17 17 17
f 158/766/30 163/767/30 170/768/30
fc 17 15 15
f 163/769/30 165/770/30 170/771/30
fc 15 15 15
f 167/772/30 162/773/30 169/774/30
fc 15 15 15
f 162/775/30 159/776/30 169/777/30
fc 15 17 15
f 158/778/30 170/779/30 169/780/30
fc 17 15 15
f 161/781/31 160/782/31 159/783/31
fc 15 17 17
f 157/784/32 164/785/32 163/786/32
fc 17 15 15
g mesh_32_#Room1#
v -1768.015625 168.091187 70.200272
v -1768.015625 68.091179 70.200272
v -1708.015625 168.091187 70.200287
v -1708.015625 68.091179 70.200287
vt -1.468750 0.562500
vt -0.531250 -1.000000
vt -0.531250 0.562500
vt -0.468750 1.562500
vt -0.468750 -0.000000
vt 0.468750 -0.000000
vn -0.0000 0.0000 1.0000
vc 1.0000 1.0000 1.0000 1.0000
g mesh_32_#Room1#_materials/dev/reflectivity_30.vmat.003#SFX_2
usemtl materials/dev/reflectivity_30.vmat.003
f 217/787/42 220/788/42 219/789/42
fc 20 20 20
f 217/790/42 218/791/42 220/792/42
fc 20 20 20
g mesh_50_#Room1#
v -1930.015625 168.091156 388.200317
v -1930.015625 68.091164 388.200317
v -1930.015625 168.091156 328.200317
v -1930.015625 68.091164 328.200317
vt -5.468749 1.562500
vt -4.531249 -0.000000
vt -4.531249 1.562500
vt -5.468749 1.562500
vt -5.468749 -0.000000
vt -4.531249 -0.000000
vn 1.0000 0.0000 0.0000
vc 1.0000 1.0000 1.0000 1.0000
g mesh_50_#Room1#_materials/dev/reflectivity_30.vmat.004#SFX_2
usemtl materials/dev/reflectivity_30.vmat.004
f 221/793/43 224/794/43 223/795/43
fc 21 21 21
f 221/796/43 222/797/43 224/798/43
fc 21 21 21
g mesh_95_#Room1#
v -1450.015625 60.091183 -25.799713
v -1450.015625 60.091183 222.200272
v -1322.015625 60.091175 222.200256
v -1322.015625 60.091175 -25.799728
vt 3.375000 -1.500000
vt -0.500000 0.500000
vt -0.500000 -1.500000
vt 1.375000 -1.500000
vt 1.375000 0.500000
vt -2.500000 0.500000
vn 0.0000 1.0000 0.0000
vc 1.0000 1.0000 1.0000 1.0000
g mesh_95_#Room1#_materials/waterclean.vmat#NoCollision#BackfaceCulling#Alpha7D#Animated8#MultiAlpha7D
usemtl materials/waterclean.vmat
f 226/799/44 228/800/44 225/801/44
fc 22 22 22
f 226/802/44 227/803/44 228/804/44
fc 22 22 22
g mesh_76.001_#Room1#
v -1434.015625 212.091202 30.200241
v -1434.015625 196.091202 46.200241
v -1230.261597 212.091202 102.200256
v -1230.261597 116.091202 102.200256
v -1562.015625 180.091202 607.815308
v -1562.015625 276.091187 607.815308
v -1450.015625 196.091202 30.200241
v -1450.015625 196.091202 46.200241
v -1434.015625 204.091202 26.886536
v -1434.015625 215.404922 38.200241
v -1338.015625 204.091202 49.513939
v -1338.015625 204.091202 26.886528
v -1230.261597 212.091202 54.200249
v -1434.015625 192.777481 38.200241
v -1230.261597 212.091202 150.200256
v -1230.261597 116.091202 54.200249
v -1338.015625 215.404922 38.200233
v -1230.261597 116.091202 150.200256
v -1466.015625 180.091202 607.815308
v -1466.015625 276.091187 607.815308
v -1338.015625 192.777481 38.200233
v -1434.015625 204.091202 49.513947
v -1338.015625 212.091202 46.200233
v -1338.015625 212.091202 30.200233
v -1338.015625 196.091202 46.200233
v -1338.015625 196.091202 30.200233
v -1466.015625 212.091202 30.200249
v -1466.015625 212.091202 46.200249
v -1450.015625 212.091202 46.200241
v -1450.015625 212.091202 30.200241
v -1322.015625 212.091202 30.200233
v -1322.015625 212.091202 46.200233
v -1306.015625 212.091202 46.200233
v -1306.015625 212.091202 30.200233
v -1434.015625 196.091202 30.200241
v -1434.015625 212.091202 46.200241
v -1450.015625 212.091202 30.200241
v -1450.015625 212.091202 46.200241
v -1322.015625 212.091202 46.200233
v -1322.015625 212.091202 30.200233
v -1322.015625 196.091202 30.200233
v -1322.015625 196.091202 46.200233
vt 1.353553 4.250000
vt 0.646446 4.250000
vt 0.999999 4.603554
vt 0.646446 4.250000
vt 1.353553 4.250000
vt 0.999999 4.603554
vt 1.353553 4.250000
vt 0.999999 3.896446
vt 0.646446 4.250000
vt 0.646446 4.250000
vt 0.999999 3.896446
vt 1.353553 4.250000
vt -0.077708 1.014454
vt 0.010680 1.167547
vt 0.043033 1.046807
vt 0.312503 -10.875000
vt 0.187503 -10.750000
vt 0.187503 -10.875000
vt 0.312503 -9.750000
vt 0.187503 -9.625000
vt 0.187503 -9.750000
vt 2.963419 -10.335174
vt 3.051807 -10.182080
vt 2.931066 -10.214433
vt 3.084159 -10.302821
vt 2.931066 -10.214433
vt 3.051807 -10.182080
vt -10.642521 -1.816379
vt -10.554132 -1.663286
vt -10.521780 -1.784027
vt -10.674873 -1.695638
vt -10.521780 -1.784027
vt -10.554132 -1.663286
vt -9.750000 1.000000
vt -9.875000 1.125000
vt -9.875000 1.000000
vt 0.312503 -9.750000
vt 0.187503 -9.875000
vt 0.312503 -9.875000
vt -9.750000 1.125000
vt -9.875000 1.000000
vt -9.875000 1.125000
vt 0.187503 -9.750000
vt 0.312503 -9.875000
vt 0.187503 -9.875000
vt 0.187500 1.125000
vt 0.312500 1.000000
vt 0.312500 1.125000
vt -0.077708 1.014454
vt -0.110061 1.135195
vt 0.010680 1.167547
vt 0.312503 -10.875000
vt 0.312503 -10.750000
vt 0.187503 -10.750000
vt 0.312503 -9.750000
vt 0.312503 -9.625000
vt 0.187503 -9.625000
vt 2.963419 -10.335174
vt 3.084159 -10.302821
vt 3.051807 -10.182080
vt 3.084159 -10.302821
vt 2.963419 -10.335174
vt 2.931066 -10.214433
vt -10.642521 -1.816379
vt -10.674873 -1.695638
vt -10.554132 -1.663286
vt -10.674873 -1.695638
vt -10.642521 -1.816379
vt -10.521780 -1.784027
vt -9.750000 1.000000
vt -9.750000 1.125000
vt -9.875000 1.125000
vt 0.312503 -9.750000
vt 0.187503 -9.750000
vt 0.187503 -9.875000
vt -9.750000 1.125000
vt -9.750000 1.000000
vt -9.875000 1.000000
vt 0.187503 -9.750000
vt 0.312503 -9.750000
vt 0.312503 -9.875000
vt 0.187500 1.125000
vt 0.187500 1.000000
vt 0.312500 1.000000
vt 0.000000 -1.000000
vt 1.000000 -0.000000
vt 1.000000 -1.000000
vt 0.000000 -0.000000
vt 1.000000 -1.000000
vt 1.000000 -0.000000
vt 0.000000 -1.000000
vt 0.000000 -0.000000
vt 1.000000 -0.000000
vt 0.000000 -0.000000
vt 0.000000 -1.000000
vt 1.000000 -1.000000
vt 1.002000 -0.000000
vt 0.002000 -1.000000
vt 1.002000 -1.000000
vt 1.002000 -0.000000
vt 0.002000 -0.000000
vt 0.002000 -1.000000
vn 1.0000 0.0000 0.0000
vn -1.0000 0.0000 0.0000
vn 0.0000 1.0000 0.0000
vn 0.0000 -1.0000 0.0000
vn 0.0000 0.0000 -1.0000
vn 0.0000 0.0000 1.0000
vc 1.0000 1.0000 1.0000 1.0000
g mesh_76.001_#Room1#_materials/cheapcarpet.vmat.001#SFX_D#Hookshot
usemtl materials/cheapcarpet.vmat.001
f 239/805/45 240/806/45 245/807/45
fc 23 23 23
f 237/808/46 250/809/46 238/810/46
fc 23 23 23
f 239/811/45 249/812/45 240/813/45
fc 23 23 23
f 237/814/46 242/815/46 250/816/46
fc 23 23 23
g mesh_76.001_#Room1#_materials/housewall.vmat.004#NoCollision
usemtl materials/housewall.vmat.004
f 263/817/45 264/818/45 230/819/45
fc 23 23 23
f 256/820/47 258/821/47 255/822/47
fc 23 23 23
f 260/823/47 262/824/47 259/825/47
fc 23 23 23
f 265/826/47 264/827/47 229/828/47
fc 23 23 23
f 236/829/48 263/830/48 230/831/48
fc 23 23 23
f 235/832/49 229/833/49 263/834/49
fc 23 23 23
f 266/835/50 230/836/50 264/837/50
fc 23 23 23
f 270/838/50 251/839/50 253/840/50
fc 23 23 23
f 267/841/47 252/842/47 251/843/47
fc 23 23 23
f 268/844/49 254/845/49 252/846/49
fc 23 23 23
f 269/847/48 253/848/48 254/849/48
fc 23 23 23
f 252/850/46 253/851/46 251/852/46
fc 23 23 23
f 263/853/45 229/854/45 264/855/45
fc 23 23 23
f 256/856/47 257/857/47 258/858/47
fc 23 23 23
f 260/859/47 261/860/47 262/861/47
fc 23 23 23
f 265/862/47 266/863/47 264/864/47
fc 23 23 23
f 236/865/48 235/866/48 263/867/48
fc 23 23 23
f 235/868/49 265/869/49 229/870/49
fc 23 23 23
f 266/871/50 236/872/50 230/873/50
fc 23 23 23
f 270/874/50 267/875/50 251/876/50
fc 23 23 23
f 267/877/47 268/878/47 252/879/47
fc 23 23 23
f 268/880/49 269/881/49 254/882/49
fc 23 23 23
f 269/883/48 270/884/48 253/885/48
fc 23 23 23
f 252/886/46 254/887/46 253/888/46
fc 23 23 23
g mesh_76.001_#Room1#_materials/window.vmat.001#NoCollision#Decal
usemtl materials/window.vmat.001
f 246/889/46 231/890/46 232/891/46
fc 23 23 23
f 241/892/46 232/893/46 231/894/46
fc 23 23 23
f 246/895/46 243/896/46 231/897/46
fc 23 23 23
f 241/898/46 244/899/46 232/900/46
fc 23 23 23
g mesh_76.001_#Room1#_materials/stonemarking.vmat#NoCollision#Decal
usemtl materials/stonemarking.vmat
f 234/901/49 247/902/49 233/903/49
fc 23 23 23
f 234/904/49 248/905/49 247/906/49
fc 23 23 23
g mesh_87_#Room2#
v -1112.015747 168.091202 -817.799744
v -1112.015747 68.091187 -817.799744
v -1052.015747 168.091171 -817.799744
v -1052.015747 68.091187 -817.799744
v -1530.015625 -187.908798 222.200256
v -1530.015625 -187.908798 454.200256
v -1162.015625 -11.908806 222.200241
v -1162.015625 -187.908813 222.200241
v -1052.015747 168.091171 -809.799744
v -1052.015747 68.091187 -809.799744
v -1112.015747 68.091187 -809.799744
v -1112.015747 168.091202 -809.799744
v -1010.015686 68.091187 -809.799744
v -1162.015625 68.091187 -809.799744
v -1162.015625 324.091187 -809.799744
v -1010.015625 324.091187 -809.799744
v -1010.015625 -187.908813 -89.799774
v -1162.015625 -187.908813 -89.799759
v -1162.015625 -11.908806 -89.799759
v -1010.015625 -11.908813 -89.799774
v -1010.015625 -187.908813 222.200226
v -1010.015625 -187.908813 454.200226
v -1010.015625 -11.908813 454.200226
v -1010.015625 -11.908813 222.200226
v -1530.015625 -11.908798 222.200256
v -1530.015625 -11.908798 454.200256
v -1356.015625 -87.908798 222.200256
v -1356.015625 -187.908798 222.200256
v -1416.015625 -87.908798 222.200256
v -1416.015625 -187.908798 222.200256
v -1162.015625 68.091187 -709.799744
v -1010.015686 68.091187 -709.799744
v -1162.015625 -191.908813 -181.799774
v -1010.015625 -191.908813 -181.799774
vt -0.874985 -0.281251
vt -0.749984 -1.218750
vt -0.749985 -0.281251
vt -0.874985 -0.281251
vt -0.874984 -1.218750
vt -0.749984 -1.218750
vt 0.375000 1.750000
vt -2.000000 0.187500
vt 0.375000 0.187500
vt 2.375000 -2.819644
vt 0.000000 0.801934
vt -3.031250 0.801934
vt 1.375000 -2.159366
vt -1.000000 7.036633
vt -1.000000 -2.159366
vt 1.375000 0.750000
vt -1.000000 0.750000
vt -1.000000 -0.812500
vt 0.375000 -0.327667
vt 0.375000 1.111191
vt -2.000000 1.111191
vt 1.375000 -0.327667
vt -1.000000 1.111191
vt -1.000000 -0.327667
vt -3.750000 -1.819644
vt 4.375000 -1.819644
vt -1.031250 1.801934
vt 0.375000 -2.819644
vt 0.375000 0.801934
vt -2.000000 0.801934
vt 0.375000 -3.198066
vt 0.375000 1.672333
vt -2.000000 1.672333
vt 1.375000 -2.198066
vt -1.000000 2.672333
vt -1.000000 -2.198066
vt 1.031250 0.801934
vt -0.750000 0.801934
vt -0.750000 -2.819644
vt 0.968750 0.801934
vt 0.031250 0.801934
vt -1.750000 -2.819644
vt 0.375000 -5.159366
vt 0.375000 4.036633
vt -2.000000 4.036633
vt 0.125000 -1.000000
vt 0.250000 0.562500
vt 0.125000 0.562500
vt 0.875000 0.562500
vt 0.750000 -1.000000
vt 0.875000 -1.000000
vt -1.625000 0.750000
vt 2.000000 -2.000000
vt 2.000000 0.750000
vt 4.000000 0.750000
vt -1.750000 0.750000
vt 0.968750 -0.437500
vt 4.375000 -2.000000
vt -3.750000 0.750000
vt 4.375000 0.750000
vt 2.000000 0.750000
vt -1.625000 -2.000000
vt -1.625000 0.750000
vt 2.500000 0.750000
vt -2.375000 -2.000000
vt 2.500000 -2.000000
vt -1.500000 -2.000000
vt 3.375000 0.750000
vt -1.500000 0.750000
vt 12.054167 -0.496118
vt 2.366667 -1.746124
vt 3.804169 -4.558623
vt 13.616669 -4.503871
vt 13.616667 -0.503871
vt 12.054167 -0.503872
vt -0.218750 -0.437500
vt 0.718749 -0.437500
vt 1.375000 2.000000
vt 0.125000 -1.000000
vt 0.250000 -1.000000
vt 0.250000 0.562500
vt 0.875000 0.562500
vt 0.750000 0.562500
vt 0.750000 -1.000000
vt -1.625000 0.750000
vt -1.625000 -2.000000
vt 2.000000 -2.000000
vt -1.750000 0.750000
vt -1.750000 -2.000000
vt 0.031250 -0.437500
vt -1.750000 -2.000000
vt 0.031250 -2.000000
vt 0.031250 -0.437500
vt 0.968750 -2.000000
vt 4.000000 -2.000000
vt 0.968750 -0.437500
vt 4.000000 -2.000000
vt 4.000000 0.750000
vt 0.968750 -0.437500
vt -1.750000 0.750000
vt 0.031250 -0.437500
vt 0.968750 -0.437500
vt 4.375000 -2.000000
vt -3.750000 -2.000000
vt -3.750000 0.750000
vt 2.000000 0.750000
vt 2.000000 -2.000000
vt -1.625000 -2.000000
vt 2.500000 0.750000
vt -2.375000 0.750000
vt -2.375000 -2.000000
vt -1.500000 -2.000000
vt 3.375000 -2.000000
vt 3.375000 0.750000
vt 12.054167 -0.496118
vt 13.616667 -0.496117
vt 13.616665 3.503883
vt 13.616665 3.503883
vt 2.366667 -1.746124
vt 12.054167 -0.496118
vt 2.366667 -1.746124
vt 2.366669 -4.496124
vt 3.804169 -4.558623
vt 12.054167 -0.503872
vt 3.804165 3.558625
vt 2.366667 0.746124
vt 3.804165 3.558625
vt 2.366665 3.496124
vt 2.366667 0.746124
vt 2.366667 0.746124
vt 13.616669 -4.503871
vt 12.054167 -0.503872
vt -1.000000 2.000000
vt -1.000000 -2.000000
vt -0.218750 -0.437500
vt -1.000000 -2.000000
vt -0.218750 -2.000000
vt -0.218750 -0.437500
vt 0.718749 -2.000000
vt 1.375000 -2.000000
vt 0.718749 -0.437500
vt 1.375000 -2.000000
vt 1.375000 2.000000
vt 0.718749 -0.437500
vt -1.000000 2.000000
vt -0.218750 -0.437500
vt 1.375000 2.000000
vn 0.0000 1.0000 0.0000
vn 0.0000 0.9739 0.2268
vn 0.0000 0.9786 0.2056
vn 0.0000 0.9998 -0.0217
vn -1.0000 0.0000 0.0000
vn 1.0000 0.0000 0.0000
vn 0.0000 0.0000 1.0000
vn -0.0000 0.0000 -1.0000
vc 0.7098 0.7098 0.7098 1.0000
vc 1.0000 1.0000 1.0000 1.0000
g mesh_87_#Room2#_materials/dev/reflectivity_30.vmat.001#SFX_2
usemtl materials/dev/reflectivity_30.vmat.001
f 274/907/51 281/908/51 280/909/51
fc 24 24 24
f 274/910/51 272/911/51 281/912/51
fc 24 25 24
g mesh_87_#Room2#_materials/watertemplefloor.vmat#SFX_1
usemtl materials/watertemplefloor.vmat
f 283/913/51 301/914/52 302/915/52
fc 24 24 24
f 292/916/51 278/917/51 298/918/51
fc 24 24 24
f 304/919/53 301/920/52 303/921/53
fc 24 24 24
f 283/922/51 284/923/51 301/924/52
fc 24 24 24
f 287/925/54 304/926/53 303/927/53
fc 24 24 24
f 287/928/54 303/929/53 288/930/54
fc 24 24 24
f 276/931/51 292/932/51 298/933/51
fc 24 24 24
f 292/934/51 291/935/51 278/936/51
fc 24 24 24
f 291/937/51 287/938/54 288/939/54
fc 24 24 24
f 291/940/51 288/941/54 278/942/51
fc 24 24 24
f 300/943/51 275/944/51 276/945/51
fc 24 24 24
f 298/946/51 300/947/51 276/948/51
fc 24 24 24
f 304/949/53 302/950/52 301/951/52
fc 24 24 24
g mesh_87_#Room2#_materials/underwaterstone.vmat#SFX_2
usemtl materials/underwaterstone.vmat
f 274/952/55 279/953/55 273/954/55
fc 24 24 25
f 271/955/56 281/956/56 272/957/56
fc 25 24 25
f 294/958/55 292/959/55 293/960/55
fc 24 24 24
f 277/961/57 295/962/57 297/963/57
fc 24 24 25
f 292/964/58 296/965/58 293/966/58
fc 24 24 24
f 296/967/56 275/968/56 295/969/56
fc 24 24 24
f 289/970/56 278/971/56 288/972/56
fc 24 24 24
f 287/973/55 294/974/55 290/975/55
fc 24 24 24
f 301/976/56 289/977/56 303/978/56
fc 24 24 24
f 286/979/55 283/980/55 302/981/55
fc 24 24 24
f 282/982/57 279/983/57 286/984/57
fc 24 24 24
f 274/985/55 280/986/55 279/987/55
fc 24 24 24
f 271/988/56 282/989/56 281/990/56
fc 25 24 24
f 294/991/55 291/992/55 292/993/55
fc 24 24 24
f 295/994/57 275/995/57 299/996/57
fc 24 24 25
f 275/997/57 300/998/57 299/999/57
fc 24 24 25
f 298/1000/57 278/1001/57 297/1002/57
fc 24 24 25
f 278/1003/57 277/1004/57 297/1005/57
fc 24 24 25
f 295/1006/57 299/1007/57 297/1008/57
fc 24 25 25
f 292/1009/58 276/1010/58 296/1011/58
fc 24 24 24
f 296/1012/56 276/1013/56 275/1014/56
fc 24 24 24
f 289/1015/56 277/1016/56 278/1017/56
fc 24 24 24
f 287/1018/55 291/1019/55 294/1020/55
fc 24 24 24
f 301/1021/56 284/1022/56 285/1023/56
fc 24 24 24
f 285/1024/56 289/1025/56 301/1026/56
fc 24 24 24
f 289/1027/56 288/1028/56 303/1029/56
fc 24 24 24
f 302/1030/55 304/1031/55 290/1032/55
fc 24 24 24
f 304/1033/55 287/1034/55 290/1035/55
fc 24 24 24
f 290/1036/55 286/1037/55 302/1038/55
fc 24 24 24
f 285/1039/57 284/1040/57 282/1041/57
fc 24 24 24
f 284/1042/57 281/1043/57 282/1044/57
fc 24 24 24
f 280/1045/57 283/1046/57 279/1047/57
fc 24 24 24
f 283/1048/57 286/1049/57 279/1050/57
fc 24 24 24
f 285/1051/57 282/1052/57 286/1053/57
fc 24 24 24
g mesh_96_#Room2#
v -1162.015503 -19.908875 -531.799805
v -1530.015625 -19.908857 454.200287
v -1010.015869 -19.908880 454.200226
v -1162.015625 -19.908875 222.200165
v -1530.015747 -19.908857 222.200287
v -1010.015869 -19.908880 -531.799805
vt -1.623418 1.000000
vt 2.001583 -4.750002
vt 2.001583 3.374996
vt -4.404668 1.374996
vt -4.404668 -0.999998
vt 7.376582 -1.000000
vt -0.623418 3.000000
vt -0.623417 -2.750002
vt 3.001583 -2.750002
vt 7.001583 0.374996
vt -8.404668 0.374996
vt 3.376582 -2.000000
vn 0.0000 1.0000 -0.0000
vc 1.0000 1.0000 1.0000 1.0000
g mesh_96_#Room2#_materials/waterclean.vmat.001#NoCollision#BackfaceCulling#Alpha7D#Animated8#MultiAlpha7D
usemtl materials/waterclean.vmat.001
f 308/1054/59 306/1055/59 307/1056/59
fc 26 26 26
f 310/1057/59 305/1058/59 308/1059/59
fc 26 26 26
f 308/1060/59 309/1061/59 306/1062/59
fc 26 26 26
f 307/1063/59 310/1064/59 308/1065/59
fc 26 26 26
g mesh_87.001_#Room2#
v -1162.015625 -11.908806 222.200241
v -1162.015625 324.091187 -809.799744
v -1010.015625 324.091187 -809.799744
v -1162.015625 -11.908806 -89.799759
v -1010.015625 -11.908813 -89.799774
v -1010.015625 -11.908813 454.200226
v -1010.015625 -11.908813 222.200226
v -1530.015625 -11.908798 222.200256
v -1530.015625 -11.908798 454.200256
v -1112.015747 168.091202 -817.799744
v -1052.015747 168.091171 -817.799744
v -1052.015747 168.091171 -809.799744
v -1112.015747 168.091202 -809.799744
vt 3.000000 -4.750000
vt -0.625000 -4.750000
vt -0.625000 1.000000
vt 1.375000 -2.500000
vt -1.000000 2.375000
vt -1.000000 -2.500000
vt 1.375000 6.036598
vt -1.000000 -6.341737
vt 1.375000 -6.341737
vt -0.218750 -0.125000
vt 0.718749 -0.250000
vt -0.218750 -0.250000
vt -0.625000 1.000000
vt -0.625000 3.375000
vt 3.000000 3.375000
vt 3.000000 3.375000
vt 3.000000 -4.750000
vt -0.625000 1.000000
vt 1.375000 -2.500000
vt 1.375000 2.375000
vt -1.000000 2.375000
vt 1.375000 6.036598
vt -1.000000 6.036598
vt -1.000000 -6.341737
vt -0.218750 -0.125000
vt 0.718749 -0.125000
vt 0.718749 -0.250000
vn -0.0000 -1.0000 -0.0000
vn -0.0000 -0.9763 -0.2166
vn 0.0000 -0.9062 -0.4229
vc 0.7098 0.7098 0.7098 1.0000
vc 1.0000 1.0000 1.0000 1.0000
g mesh_87.001_#Room2#_materials/underwaterstone.vmat.002#NoCollision
usemtl materials/underwaterstone.vmat.002
f 319/1066/60 318/1067/60 311/1068/60
fc 27 27 28
f 315/1069/61 311/1070/60 314/1071/61
fc 28 28 28
f 315/1072/61 312/1073/62 313/1074/62
fc 28 27 27
f 320/1075/60 322/1076/60 323/1077/60
fc 28 28 28
f 311/1078/60 317/1079/60 316/1080/60
fc 28 28 27
f 316/1081/60 319/1082/60 311/1083/60
fc 27 27 28
f 315/1084/61 317/1085/60 311/1086/60
fc 28 28 28
f 315/1087/61 314/1088/61 312/1089/62
fc 28 28 27
f 320/1090/60 321/1091/60 322/1092/60
fc 28 28 28
g mesh_97_#Room3#
v -1258.015625 324.091187 -1297.799805
v -1258.015625 324.091187 -817.799805
v -634.015625 324.091187 -817.799866
v -634.015625 324.091187 -1297.799805
v -634.015625 68.091164 -1297.799805
v -634.015625 68.091164 -817.799866
v -1258.015625 68.091194 -817.799805
v -1258.015625 68.091194 -1297.799805
v -1052.015625 68.091187 -817.799805
v -1112.015625 168.091187 -817.799805
v -1052.015625 168.091187 -817.799805
v -1112.015625 68.091187 -817.799805
vt -9.250000 2.000000
vt -4.375000 -0.000000
vt -4.375000 2.000000
vt -10.187500 2.000000
vt -6.437500 -0.000000
vt -6.437500 2.000000
vt -10.187500 -0.000000
vt -6.437500 2.000000
vt -6.437500 -0.000000
vt -9.250000 2.000000
vt -7.640625 0.781250
vt -8.109375 0.781250
vt -9.250000 2.000000
vt -9.250000 -0.000000
vt -4.375000 -0.000000
vt -10.187500 2.000000
vt -10.187500 -0.000000
vt -6.437500 -0.000000
vt -10.187500 -0.000000
vt -10.187500 2.000000
vt -6.437500 2.000000
vt -8.109375 -0.000000
vt -9.250000 -0.000000
vt -8.109375 0.781250
vt -9.250000 -0.000000
vt -9.250000 2.000000
vt -8.109375 0.781250
vt -9.250000 2.000000
vt -4.375000 2.000000
vt -7.640625 0.781250
vt -4.375000 2.000000
vt -4.375000 -0.000000
vt -7.640625 0.781250
vt -4.375000 -0.000000
vt -7.640625 -0.000000
vt -7.640625 0.781250
vt 2.125000 -0.218750
vt 2.125000 0.718750
vt -5.375000 -2.500000
vt 2.125000 -5.281250
vt 2.125000 1.250000
vt -5.375000 1.250000
vt -3.375000 5.250000
vt -3.375000 -4.500000
vt 4.125000 -1.281250
vt -5.375000 -1.500000
vt 2.125000 -1.500000
vt 2.125000 0.781250
vn -0.0000 0.0000 1.0000
vn -1.0000 0.0000 0.0000
vn 1.0000 0.0000 0.0000
vn 0.0000 -0.0000 -1.0000
vn 0.0000 1.0000 -0.0000
vc 0.7608 0.7608 0.7608 1.0000
vc 0.7098 0.7098 0.7098 1.0000
vc 1.0000 1.0000 1.0000 1.0000
g mesh_97_#Room3#_materials/underwaterstone.vmat.004#SFX_2
usemtl materials/underwaterstone.vmat.004
f 324/1093/63 328/1094/63 327/1095/63
fc 29 30 30
f 327/1096/64 329/1097/64 326/1098/64
fc 30 30 30
f 331/1099/65 325/1100/65 330/1101/65
fc 30 30 30
f 325/1102/66 334/1103/66 333/1104/66
fc 30 31 31
f 324/1105/63 331/1106/63 328/1107/63
fc 29 30 30
f 327/1108/64 328/1109/64 329/1110/64
fc 30 30 30
f 331/1111/65 324/1112/65 325/1113/65
fc 30 29 30
f 335/1114/66 330/1115/66 333/1116/66
fc 31 30 31
f 330/1117/66 325/1118/66 333/1119/66
fc 30 30 31
f 325/1120/66 326/1121/66 334/1122/66
fc 30 30 31
f 326/1123/66 329/1124/66 334/1125/66
fc 30 30 31
f 329/1126/66 332/1127/66 334/1128/66
fc 30 31 31
g mesh_97_#Room3#_materials/watertemplefloor.vmat.001#SFX_1
usemtl materials/watertemplefloor.vmat.001
f 335/1129/67 332/1130/67 331/1131/67
fc 31 31 30
f 332/1132/67 329/1133/67 328/1134/67
fc 31 30 30
f 328/1135/67 331/1136/67 332/1137/67
fc 30 30 31
f 331/1138/67 330/1139/67 335/1140/67
fc 30 30 31
g mesh_98_#Room3#
v -1258.015625 71.616219 -1297.799683
v -1258.015503 71.616219 -817.799561
v -634.015503 71.616188 -817.799683
v -634.015625 71.616188 -1297.799683
vt 4.125001 -3.500000
vt -3.375000 6.250000
vt -3.375000 -3.500000
vt 2.125001 -6.500000
vt 2.125001 3.250000
vt -5.375000 3.250000
vn 0.0000 1.0000 0.0000
vc 1.0000 1.0000 1.0000 1.0000
g mesh_98_#Room3#_materials/waterclean.vmat.002#NoCollision#Alpha7D#Animated8#MultiAlpha7D
usemtl materials/waterclean.vmat.002
f 337/1141/68 339/1142/68 336/1143/68
fc 32 32 32
f 337/1144/68 338/1145/68 339/1146/68
fc 32 32 32
g mesh_97.001_#Room3#
v -1258.015625 324.091187 -1297.799805
v -1258.015625 324.091187 -817.799805
v -634.015625 324.091187 -817.799866
v -634.015625 324.091187 -1297.799805
vt -10.187500 -9.250000
vt -6.437500 -4.375000
vt -6.437500 -9.250000
vt -10.187500 -9.250000
vt -10.187500 -4.375000
vt -6.437500 -4.375000
vn 0.0000 -1.0000 0.0000
vc 0.7412 0.7412 0.7412 1.0000
vc 0.7098 0.7098 0.7098 1.0000
vc 0.7765 0.7765 0.7765 1.0000
g mesh_97.001_#Room3#_materials/underwaterstone.vmat.003#NoCollision
usemtl materials/underwaterstone.vmat.003
f 340/1147/69 342/1148/69 341/1149/69
fc 33 34 34
f 340/1150/69 343/1151/69 342/1152/69
fc 33 35 34
g mesh_52_#Room4#
v -1450.015625 212.091187 838.200256
v -1450.015625 68.091187 838.200256
v -1578.015625 212.091187 838.200256
v -1578.015625 68.091187 838.200256
v -1484.015625 68.091187 618.200317
v -1544.015625 168.091187 618.200256
v -1544.015625 68.091187 618.200256
v -1484.015625 168.091187 618.200317
v -1484.015625 68.091187 638.200195
v -1544.015625 68.091187 638.200195
v -1484.015625 168.091187 638.200256
v -1544.015625 168.091187 638.200195
v -1458.015625 68.091187 774.200256
v -1570.015625 68.091187 774.200256
vt -1.125000 0.332968
vt 1.000001 -1.155891
vt 1.000001 0.589838
vt 0.031248 0.562505
vt 0.968748 0.875004
vt 0.031248 0.875003
vt -0.125000 0.332968
vt -0.124999 -0.602245
vt 2.000001 -1.155891
vt 0.031248 0.562505
vt 0.968748 0.562504
vt 0.968748 0.875004
vt 1.000000 -1.000000
vt 0.000003 -0.000000
vt 0.000000 -1.000000
vt 0.000000 -0.000000
vt 1.000000 -1.000000
vt 0.999993 -0.000000
vt 1.000000 -1.000000
vt 0.999996 -0.000000
vt 0.000003 -0.000000
vt 0.000000 -0.000000
vt 0.000010 -1.000000
vt 1.000000 -1.000000
vt 5.230326 0.000000
vt 5.733470 1.125000
vt 4.156236 0.781250
vt 7.304627 -1.125000
vt 7.304627 -0.000000
vt 6.801482 -0.000000
vt 4.156236 0.781250
vt 4.156235 0.000000
vt 5.230326 0.000000
vt 5.230326 0.000000
vt 5.733470 0.000000
vt 5.733470 1.125000
vt 5.727392 -0.000000
vt 5.727392 -0.781250
vt 6.801482 -0.000000
vt 5.727392 -0.781250
vt 7.304627 -1.125000
vt 6.801482 -0.000000
vn 0.0000 1.0000 0.0000
vn 1.0000 0.0000 0.0000
vn 0.9958 -0.0051 0.0910
vn 0.9955 0.0000 0.0943
vn -1.0000 -0.0000 0.0000
vn -0.9955 -0.0000 0.0943
vn -0.9958 -0.0051 0.0910
vn -0.9874 -0.0095 0.1577
vn -0.9874 -0.0151 0.1573
vn 0.9874 -0.0151 0.1573
vn 0.9923 0.0000 0.1240
vn 0.9874 -0.0095 0.1577
vn -0.9923 0.0000 0.1240
vc 0.7098 0.7098 0.7098 1.0000
vc 1.0000 1.0000 1.0000 1.0000
vc 0.7490 0.7490 0.7490 1.0000
vc 0.0000 0.0000 0.0000 1.0000
g mesh_52_#Room4#_materials/walltest.vmat.001#SFX_2
usemtl materials/walltest.vmat.001
f 352/1153/70 357/1154/70 356/1155/70
fc 36 36 36
f 348/1156/70 353/1157/70 352/1158/70
fc 37 36 36
f 352/1159/70 353/1160/70 357/1161/70
fc 36 36 36
f 348/1162/70 350/1163/70 353/1164/70
fc 37 37 36
g mesh_52_#Room4#_materials/outerwall.vmat#SFX_2
usemtl materials/outerwall.vmat
f 350/1165/71 355/1166/72 353/1167/73
fc 37 38 36
f 351/1168/74 352/1169/75 354/1170/76
fc 37 36 36
f 350/1171/71 349/1172/71 355/1173/72
fc 37 37 38
f 351/1174/74 348/1175/74 352/1176/75
fc 37 37 36
g mesh_52_#Room4#_materials/housewall.vmat.001#SFX_A#WALLPROPERTY_NO_LEDGE_GRAB
usemtl materials/housewall.vmat.001
f 356/1177/77 344/1178/78 354/1179/76
fc 36 39 36
f 346/1180/79 347/1181/80 357/1182/81
fc 39 39 36
f 354/1183/76 352/1184/75 356/1185/77
fc 36 36 36
f 356/1186/77 345/1187/82 344/1188/78
fc 36 39 39
f 353/1189/73 355/1190/72 357/1191/81
fc 36 38 36
f 355/1192/72 346/1193/79 357/1194/81
fc 38 39 36
g mesh_53_#Room4#
v -1570.015625 68.091194 774.200256
v -1450.015625 68.091194 838.200256
v -1458.015503 68.091194 774.200256
v -1578.015625 68.091194 838.200256
vt -0.000001 1.375006
vt -1.000001 -0.499994
vt -0.000001 -0.374994
vt -0.000001 1.375006
vt -1.000002 1.500006
vt -1.000001 -0.499994
vn 0.0000 1.0000 0.0000
vc 0.7098 0.7098 0.7098 1.0000
vc 0.0000 0.0000 0.0000 1.0000
g mesh_53_#Room4#_materials/walltest.vmat.002#SFX_2
usemtl materials/walltest.vmat.002
f 358/1195/83 359/1196/83 360/1197/83
fc 40 41 40
f 358/1198/83 361/1199/83 359/1200/83
fc 40 41 41
g mesh_52.002_#Room4#
v -1450.015625 212.091187 838.200256
v -1578.015625 212.091187 838.200256
v -1484.015625 168.091187 638.200256
v -1544.015625 168.091187 638.200195
v -1450.015625 212.091187 838.200378
v -1450.015625 68.091187 838.200378
v -1578.015625 212.091187 838.200378
v -1578.015625 68.091187 838.200378
v -1544.015625 168.091187 618.200378
v -1484.015625 168.091187 618.200439
v -1484.015625 168.091187 638.200378
v -1544.015625 168.091187 638.200317
vt -0.500000 -3.000012
vt 0.968750 0.124989
vt 0.031250 0.124989
vt -0.500000 -2.000012
vt 1.500000 -2.000013
vt 0.968750 1.124989
vt 0.999999 -0.124601
vt 0.000003 -0.936102
vt 1.000000 -0.936102
vt 0.999999 -0.124601
vt 0.000000 -0.124601
vt 0.000003 -0.936102
vt 10.750005 0.000000
vt 11.750005 1.125000
vt 10.750005 1.125000
vt 10.750005 0.000000
vt 11.750005 0.000000
vt 11.750005 1.125000
vn -0.0000 -0.9766 0.2149
vn 0.0052 -0.9766 0.2149
vn -0.0052 -0.9766 0.2149
vn 0.0000 -1.0000 -0.0052
vn 0.0000 -1.0000 0.0000
vn 0.0000 0.0000 -1.0000
vc 0.0000 0.0000 0.0000 1.0000
vc 1.0000 1.0000 1.0000 1.0000
g mesh_52.002_#Room4#_materials/walltest.vmat.005#NoCollision
usemtl materials/walltest.vmat.005
f 362/1201/84 365/1202/85 364/1203/86
fc 42 43 43
f 362/1204/84 363/1205/84 365/1206/85
fc 42 42 43
g mesh_52.002_#Room4#_materials/outerwall.vmat#SFX_2
usemtl materials/outerwall.vmat
f 373/1207/87 371/1208/88 372/1209/87
fc 43 43 43
f 373/1210/87 370/1211/88 371/1212/88
fc 43 43 43
g mesh_52.002_#Room4#_materials/housewall.vmat.005#SFX_A#WALLPROPERTY_NO_LEDGE_GRAB
usemtl materials/housewall.vmat.005
f 367/1213/89 368/1214/89 366/1215/89
fc 42 42 42
f 367/1216/89 369/1217/89 368/1218/89
fc 42 42 42
g Door0_#Door#NoMesh
v -1132.015625 168.091187 268.200287
v -1132.015625 68.091179 268.200287
v -1192.015625 168.091187 268.200287
v -1192.015625 68.091179 268.200287
vt 0.468750 0.562500
vt -0.468750 -1.000000
vt -0.468750 0.562500
vt -0.531250 1.562500
vt -0.531250 -0.000000
vt -1.468750 -0.000000
vn 0.0000 0.0000 -1.0000
vc 1.0000 1.0000 1.0000 1.0000
g Door0_#Door#NoMesh_materials/dev/reflectivity_30.vmat.002#SFX_2
usemtl materials/dev/reflectivity_30.vmat.002
f 374/1219/90 377/1220/90 376/1221/90
fc 44 44 44
f 374/1222/90 375/1223/90 377/1224/90
fc 44 44 44
g Door2_#Door#NoMesh
v -1112.015747 168.091202 -813.799744
v -1112.015747 68.091187 -813.799744
v -1052.015747 168.091202 -813.799744
v -1052.015747 68.091187 -813.799744
vt -1.468750 0.593750
vt -0.531251 -0.968750
vt -0.531251 0.593750
vt -0.468750 0.593750
vt -0.468750 -0.968750
vt 0.468749 -0.968750
vn 0.0000 0.0000 1.0000
vc 1.0000 1.0000 1.0000 1.0000
g Door2_#Door#NoMesh_materials/dev/reflectivity_30.vmat.007#SFX_2
usemtl materials/dev/reflectivity_30.vmat.007
f 378/1225/91 381/1226/91 380/1227/91
fc 45 45 45
f 378/1228/91 379/1229/91 381/1230/91
fc 45 45 45
g Door3_#Door#NoMesh
v -1484.015625 168.091187 622.200195
v -1484.015625 68.091187 622.200195
v -1544.015625 168.091187 622.200134
v -1544.015625 68.091187 622.200134
vt 0.031239 0.562500
vt 0.968739 -1.000000
vt 0.968739 0.562500
vt 0.031239 1.562500
vt 0.031239 0.000000
vt 0.968739 0.000000
vn 0.0000 0.0000 -1.0000
vc 1.0000 1.0000 1.0000 1.0000
g Door3_#Door#NoMesh_materials/dev/reflectivity_30.vmat.005#SFX_2
usemtl materials/dev/reflectivity_30.vmat.005
f 382/1231/92 385/1232/92 384/1233/92
fc 46 46 46
f 382/1234/92 383/1235/92 385/1236/92
fc 46 46 46
g Door1_#Door#NoMesh
v -1356.015625 -87.908798 218.200256
v -1356.015625 -187.908798 218.200256
v -1416.015625 -87.908798 218.200256
v -1416.015625 -187.908798 218.200256
vt -0.281250 -0.406250
vt -1.218750 -1.968750
vt -1.218750 -0.406250
vt -0.281250 0.593750
vt -0.281250 -0.968750
vt -1.218750 -0.968750
vn 0.0000 0.0000 -1.0000
vc 1.0000 1.0000 1.0000 1.0000
g Door1_#Door#NoMesh_materials/dev/reflectivity_30.vmat.006#SFX_2
usemtl materials/dev/reflectivity_30.vmat.006
f 386/1237/93 389/1238/93 388/1239/93
fc 47 47 47
f 386/1240/93 387/1241/93 389/1242/93
fc 47 47 47
